<svg xmlns="http://www.w3.org/2000/svg" width="1379.947" height="344.837" viewBox="0 0 1034.96 258.628"><defs><clipPath id="a"><path d="M1012 214h22.195v33H1012Zm0 0"/></clipPath><clipPath id="b"><path d="M.723 9H259v249H.723Zm0 0"/></clipPath><clipPath id="c"><path d="M162.18 14.152c-30.953 8.348-63.946 27.746-92.91 54.59-28.965 26.844-50.778 58.274-61.457 88.512-4.708 13.332-7.079 25.95-7.09 37.605v.211a85 85 0 0 0 .199 5.668c1.035 14.946 6.36 28.008 15.426 37.762 9.035 9.777 21.675 16.086 36.492 18.258 4.027.61 8.238.902 12.586.902 9.777 0 20.246-1.484 31.297-4.48 30.953-8.348 63.949-27.746 92.914-54.59s50.777-58.274 61.453-88.508c5.515-15.61 7.82-30.238 6.89-43.488-1.03-14.942-6.359-28.008-15.421-37.762-9.04-9.777-21.68-16.086-36.493-18.258a87 87 0 0 0-12.671-.898c-9.747 0-20.196 1.492-31.215 4.476M39.43 217.168c-8.934-9.621-9.649-27.613-1.961-49.395 9.008-25.52 27.879-52.472 53.187-75.921 25.281-23.454 53.61-40.254 79.715-47.305 8.399-2.277 16.164-3.39 23.078-3.39 11.426 0 20.488 3.073 26.051 9.062 8.934 9.62 9.648 27.613 1.965 49.394-9.012 25.52-27.883 52.469-53.188 75.922-25.285 23.453-53.613 40.254-79.714 47.305-8.41 2.265-16.188 3.383-23.098 3.383-11.426 0-20.473-3.063-26.035-9.055"/></clipPath><clipPath id="e"><path d="M7 9h239v241H7Zm0 0"/></clipPath><clipPath id="f"><path d="M57.02 11.2C32.2 17.37 12.11 38.905 7.2 63.987h.05c21.957-3.285 45.938-2.34 64.059 10.532 19.644 13.945 28.125 38.816 32.3 62.558 3.493 19.774 4.836 40.05 11.11 59.223 5.226 15.969 13.867 30.543 27.707 40.445 13 9.297 29.308 14.207 45.304 12.473.157-.024.317-.024.473-.051 28.758-3.336 53.684-27.84 57.543-56.516-14.762-.449-29.625-1.867-43.703-6.359-14.074-4.488-27.39-12.184-36.77-23.61-28.625-34.796-13.132-91.132-39.996-127.296C113.035 18.965 92.543 9.379 72.121 9.375a62.6 62.6 0 0 0-15.101 1.824"/></clipPath><clipPath id="h"><path d="M6 61h98v81H6Zm0 0"/></clipPath><clipPath id="i"><path d="M7.223 63.832s-7.274 34.063 21.379 61.98c0 0 33.933 28.391 74.668 8.141 0 0-6.22-72.418-73.934-72.418-6.742 0-14.094.715-22.113 2.297"/></clipPath><clipPath id="k"><path d="M148 118h99v75h-99Zm0 0"/></clipPath><clipPath id="l"><path d="m148.969 126.129.027.16s1.473 65.656 96.727 66.602c0 0 6.199-29.02-18.172-55.47 0 0-18.977-18.866-47.477-18.866-9.437 0-19.918 2.066-31.105 7.574"/></clipPath><linearGradient id="d" x1="-.084" x2="1.082" y1="0" y2="0" gradientTransform="rotate(-51.803 278.102 89.53)scale(304.09781 -304.09781)" gradientUnits="userSpaceOnUse"><stop offset="0" style="stop-color:#adadad;stop-opacity:1"/><stop offset=".125" style="stop-color:#adadad;stop-opacity:1"/><stop offset=".188" style="stop-color:#adadad;stop-opacity:1"/><stop offset=".195" style="stop-color:#adadad;stop-opacity:1"/><stop offset=".203" style="stop-color:#aeaeae;stop-opacity:1"/><stop offset=".211" style="stop-color:#aeaeae;stop-opacity:1"/><stop offset=".219" style="stop-color:#afafaf;stop-opacity:1"/><stop offset=".227" style="stop-color:#afafaf;stop-opacity:1"/><stop offset=".234" style="stop-color:#b0b0b0;stop-opacity:1"/><stop offset=".242" style="stop-color:#b0b0b0;stop-opacity:1"/><stop offset=".25" style="stop-color:#b1b1b1;stop-opacity:1"/><stop offset=".258" style="stop-color:#b2b2b2;stop-opacity:1"/><stop offset=".266" style="stop-color:#b2b2b2;stop-opacity:1"/><stop offset=".273" style="stop-color:#b3b3b3;stop-opacity:1"/><stop offset=".281" style="stop-color:#b3b3b3;stop-opacity:1"/><stop offset=".289" style="stop-color:#b4b4b4;stop-opacity:1"/><stop offset=".297" style="stop-color:#b4b4b4;stop-opacity:1"/><stop offset=".305" style="stop-color:#b5b5b5;stop-opacity:1"/><stop offset=".313" style="stop-color:#b5b5b5;stop-opacity:1"/><stop offset=".32" style="stop-color:#b6b6b6;stop-opacity:1"/><stop offset=".328" style="stop-color:#b6b6b6;stop-opacity:1"/><stop offset=".336" style="stop-color:#b7b7b7;stop-opacity:1"/><stop offset=".344" style="stop-color:#b7b7b7;stop-opacity:1"/><stop offset=".352" style="stop-color:#b8b8b8;stop-opacity:1"/><stop offset=".359" style="stop-color:#b9b9b9;stop-opacity:1"/><stop offset=".367" style="stop-color:#b9b9b9;stop-opacity:1"/><stop offset=".375" style="stop-color:#bababa;stop-opacity:1"/><stop offset=".383" style="stop-color:#bababa;stop-opacity:1"/><stop offset=".391" style="stop-color:#bbb;stop-opacity:1"/><stop offset=".398" style="stop-color:#bbb;stop-opacity:1"/><stop offset=".406" style="stop-color:#bcbcbc;stop-opacity:1"/><stop offset=".414" style="stop-color:#bcbcbc;stop-opacity:1"/><stop offset=".422" style="stop-color:#bdbdbd;stop-opacity:1"/><stop offset=".43" style="stop-color:#bdbdbd;stop-opacity:1"/><stop offset=".438" style="stop-color:#bebebe;stop-opacity:1"/><stop offset=".445" style="stop-color:#bebebe;stop-opacity:1"/><stop offset=".453" style="stop-color:#bfbfbf;stop-opacity:1"/><stop offset=".461" style="stop-color:silver;stop-opacity:1"/><stop offset=".469" style="stop-color:silver;stop-opacity:1"/><stop offset=".477" style="stop-color:#c1c1c1;stop-opacity:1"/><stop offset=".484" style="stop-color:#c1c1c1;stop-opacity:1"/><stop offset=".492" style="stop-color:#c2c2c2;stop-opacity:1"/><stop offset=".5" style="stop-color:#c2c2c2;stop-opacity:1"/><stop offset=".508" style="stop-color:#c3c3c3;stop-opacity:1"/><stop offset=".516" style="stop-color:#c3c3c3;stop-opacity:1"/><stop offset=".523" style="stop-color:#c4c4c4;stop-opacity:1"/><stop offset=".531" style="stop-color:#c4c4c4;stop-opacity:1"/><stop offset=".539" style="stop-color:#c5c5c5;stop-opacity:1"/><stop offset=".547" style="stop-color:#c5c5c5;stop-opacity:1"/><stop offset=".555" style="stop-color:#c6c6c6;stop-opacity:1"/><stop offset=".563" style="stop-color:#c7c7c7;stop-opacity:1"/><stop offset=".57" style="stop-color:#c7c7c7;stop-opacity:1"/><stop offset=".578" style="stop-color:#c8c8c8;stop-opacity:1"/><stop offset=".586" style="stop-color:#c8c8c8;stop-opacity:1"/><stop offset=".594" style="stop-color:#c9c9c9;stop-opacity:1"/><stop offset=".602" style="stop-color:#c9c9c9;stop-opacity:1"/><stop offset=".609" style="stop-color:#cacaca;stop-opacity:1"/><stop offset=".617" style="stop-color:#cacaca;stop-opacity:1"/><stop offset=".625" style="stop-color:#cbcbcb;stop-opacity:1"/><stop offset=".633" style="stop-color:#cbcbcb;stop-opacity:1"/><stop offset=".641" style="stop-color:#ccc;stop-opacity:1"/><stop offset=".648" style="stop-color:#ccc;stop-opacity:1"/><stop offset=".656" style="stop-color:#cdcdcd;stop-opacity:1"/><stop offset=".664" style="stop-color:#cecece;stop-opacity:1"/><stop offset=".672" style="stop-color:#cecece;stop-opacity:1"/><stop offset=".68" style="stop-color:#cfcfcf;stop-opacity:1"/><stop offset=".688" style="stop-color:#cfcfcf;stop-opacity:1"/><stop offset=".695" style="stop-color:#d0d0d0;stop-opacity:1"/><stop offset=".703" style="stop-color:#d0d0d0;stop-opacity:1"/><stop offset=".711" style="stop-color:#d1d1d1;stop-opacity:1"/><stop offset=".719" style="stop-color:#d1d1d1;stop-opacity:1"/><stop offset=".727" style="stop-color:#d2d2d2;stop-opacity:1"/><stop offset=".734" style="stop-color:#d2d2d2;stop-opacity:1"/><stop offset=".742" style="stop-color:#d3d3d3;stop-opacity:1"/><stop offset=".75" style="stop-color:#d3d3d3;stop-opacity:1"/><stop offset=".758" style="stop-color:#d4d4d4;stop-opacity:1"/><stop offset=".766" style="stop-color:#d5d5d5;stop-opacity:1"/><stop offset=".773" style="stop-color:#d5d5d5;stop-opacity:1"/><stop offset=".781" style="stop-color:#d6d6d6;stop-opacity:1"/><stop offset=".789" style="stop-color:#d6d6d6;stop-opacity:1"/><stop offset=".797" style="stop-color:#d7d7d7;stop-opacity:1"/><stop offset=".813" style="stop-color:#d7d7d7;stop-opacity:1"/><stop offset=".875" style="stop-color:#d7d7d7;stop-opacity:1"/><stop offset="1" style="stop-color:#d7d7d7;stop-opacity:1"/></linearGradient><linearGradient id="g" x1="-1.044" x2="2.088" y1="0" y2="0" gradientTransform="rotate(150 73.013 74.402)scale(104.51913 -104.51913)" gradientUnits="userSpaceOnUse"><stop offset="0" style="stop-color:#d7d7d7;stop-opacity:1"/><stop offset=".25" style="stop-color:#d7d7d7;stop-opacity:1"/><stop offset=".313" style="stop-color:#d7d7d7;stop-opacity:1"/><stop offset=".328" style="stop-color:#d7d7d7;stop-opacity:1"/><stop offset=".336" style="stop-color:#d7d7d7;stop-opacity:1"/><stop offset=".34" style="stop-color:#d6d6d6;stop-opacity:1"/><stop offset=".344" style="stop-color:#d6d6d6;stop-opacity:1"/><stop offset=".348" style="stop-color:#d5d5d5;stop-opacity:1"/><stop offset=".352" style="stop-color:#d5d5d5;stop-opacity:1"/><stop offset=".355" style="stop-color:#d4d4d4;stop-opacity:1"/><stop offset=".359" style="stop-color:#d4d4d4;stop-opacity:1"/><stop offset=".363" style="stop-color:#d3d3d3;stop-opacity:1"/><stop offset=".367" style="stop-color:#d3d3d3;stop-opacity:1"/><stop offset=".371" style="stop-color:#d2d2d2;stop-opacity:1"/><stop offset=".375" style="stop-color:#d2d2d2;stop-opacity:1"/><stop offset=".379" style="stop-color:#d1d1d1;stop-opacity:1"/><stop offset=".383" style="stop-color:#d0d0d0;stop-opacity:1"/><stop offset=".387" style="stop-color:#d0d0d0;stop-opacity:1"/><stop offset=".391" style="stop-color:#cfcfcf;stop-opacity:1"/><stop offset=".395" style="stop-color:#cfcfcf;stop-opacity:1"/><stop offset=".398" style="stop-color:#cecece;stop-opacity:1"/><stop offset=".402" style="stop-color:#cecece;stop-opacity:1"/><stop offset=".406" style="stop-color:#cdcdcd;stop-opacity:1"/><stop offset=".41" style="stop-color:#cdcdcd;stop-opacity:1"/><stop offset=".414" style="stop-color:#ccc;stop-opacity:1"/><stop offset=".418" style="stop-color:#ccc;stop-opacity:1"/><stop offset=".422" style="stop-color:#cbcbcb;stop-opacity:1"/><stop offset=".426" style="stop-color:#cbcbcb;stop-opacity:1"/><stop offset=".43" style="stop-color:#cacaca;stop-opacity:1"/><stop offset=".434" style="stop-color:#cacaca;stop-opacity:1"/><stop offset=".438" style="stop-color:#c9c9c9;stop-opacity:1"/><stop offset=".441" style="stop-color:#c9c9c9;stop-opacity:1"/><stop offset=".445" style="stop-color:#c8c8c8;stop-opacity:1"/><stop offset=".449" style="stop-color:#c8c8c8;stop-opacity:1"/><stop offset=".453" style="stop-color:#c7c7c7;stop-opacity:1"/><stop offset=".457" style="stop-color:#c7c7c7;stop-opacity:1"/><stop offset=".461" style="stop-color:#c6c6c6;stop-opacity:1"/><stop offset=".465" style="stop-color:#c6c6c6;stop-opacity:1"/><stop offset=".469" style="stop-color:#c5c5c5;stop-opacity:1"/><stop offset=".473" style="stop-color:#c5c5c5;stop-opacity:1"/><stop offset=".477" style="stop-color:#c4c4c4;stop-opacity:1"/><stop offset=".48" style="stop-color:#c4c4c4;stop-opacity:1"/><stop offset=".484" style="stop-color:#c3c3c3;stop-opacity:1"/><stop offset=".488" style="stop-color:#c3c3c3;stop-opacity:1"/><stop offset=".492" style="stop-color:#c2c2c2;stop-opacity:1"/><stop offset=".496" style="stop-color:#c2c2c2;stop-opacity:1"/><stop offset=".5" style="stop-color:#c1c1c1;stop-opacity:1"/><stop offset=".504" style="stop-color:#c1c1c1;stop-opacity:1"/><stop offset=".508" style="stop-color:silver;stop-opacity:1"/><stop offset=".512" style="stop-color:silver;stop-opacity:1"/><stop offset=".516" style="stop-color:#bfbfbf;stop-opacity:1"/><stop offset=".52" style="stop-color:#bebebe;stop-opacity:1"/><stop offset=".523" style="stop-color:#bebebe;stop-opacity:1"/><stop offset=".527" style="stop-color:#bdbdbd;stop-opacity:1"/><stop offset=".531" style="stop-color:#bdbdbd;stop-opacity:1"/><stop offset=".535" style="stop-color:#bcbcbc;stop-opacity:1"/><stop offset=".539" style="stop-color:#bcbcbc;stop-opacity:1"/><stop offset=".543" style="stop-color:#bbb;stop-opacity:1"/><stop offset=".547" style="stop-color:#bbb;stop-opacity:1"/><stop offset=".551" style="stop-color:#bababa;stop-opacity:1"/><stop offset=".555" style="stop-color:#bababa;stop-opacity:1"/><stop offset=".559" style="stop-color:#b9b9b9;stop-opacity:1"/><stop offset=".563" style="stop-color:#b9b9b9;stop-opacity:1"/><stop offset=".566" style="stop-color:#b8b8b8;stop-opacity:1"/><stop offset=".57" style="stop-color:#b8b8b8;stop-opacity:1"/><stop offset=".574" style="stop-color:#b7b7b7;stop-opacity:1"/><stop offset=".578" style="stop-color:#b7b7b7;stop-opacity:1"/><stop offset=".582" style="stop-color:#b6b6b6;stop-opacity:1"/><stop offset=".586" style="stop-color:#b6b6b6;stop-opacity:1"/><stop offset=".59" style="stop-color:#b5b5b5;stop-opacity:1"/><stop offset=".594" style="stop-color:#b5b5b5;stop-opacity:1"/><stop offset=".598" style="stop-color:#b4b4b4;stop-opacity:1"/><stop offset=".602" style="stop-color:#b4b4b4;stop-opacity:1"/><stop offset=".605" style="stop-color:#b3b3b3;stop-opacity:1"/><stop offset=".609" style="stop-color:#b3b3b3;stop-opacity:1"/><stop offset=".613" style="stop-color:#b2b2b2;stop-opacity:1"/><stop offset=".617" style="stop-color:#b2b2b2;stop-opacity:1"/><stop offset=".621" style="stop-color:#b1b1b1;stop-opacity:1"/><stop offset=".625" style="stop-color:#b1b1b1;stop-opacity:1"/><stop offset=".629" style="stop-color:#b0b0b0;stop-opacity:1"/><stop offset=".633" style="stop-color:#b0b0b0;stop-opacity:1"/><stop offset=".637" style="stop-color:#afafaf;stop-opacity:1"/><stop offset=".641" style="stop-color:#afafaf;stop-opacity:1"/><stop offset=".645" style="stop-color:#aeaeae;stop-opacity:1"/><stop offset=".648" style="stop-color:#aeaeae;stop-opacity:1"/><stop offset=".656" style="stop-color:#adadad;stop-opacity:1"/><stop offset=".688" style="stop-color:#adadad;stop-opacity:1"/><stop offset=".75" style="stop-color:#adadad;stop-opacity:1"/><stop offset="1" style="stop-color:#adadad;stop-opacity:1"/></linearGradient><linearGradient id="j" x1="-.046" x2="1.176" y1="0" y2="0" gradientTransform="rotate(245 32.02 16.938)scale(-104.16605 104.16605)" gradientUnits="userSpaceOnUse"><stop offset="0" style="stop-color:#adadad;stop-opacity:1"/><stop offset=".031" style="stop-color:#adadad;stop-opacity:1"/><stop offset=".047" style="stop-color:#adadad;stop-opacity:1"/><stop offset=".063" style="stop-color:#aeaeae;stop-opacity:1"/><stop offset=".078" style="stop-color:#afafaf;stop-opacity:1"/><stop offset=".094" style="stop-color:#afafaf;stop-opacity:1"/><stop offset=".109" style="stop-color:#b0b0b0;stop-opacity:1"/><stop offset=".125" style="stop-color:#b1b1b1;stop-opacity:1"/><stop offset=".141" style="stop-color:#b2b2b2;stop-opacity:1"/><stop offset=".156" style="stop-color:#b3b3b3;stop-opacity:1"/><stop offset=".172" style="stop-color:#b3b3b3;stop-opacity:1"/><stop offset=".188" style="stop-color:#b4b4b4;stop-opacity:1"/><stop offset=".203" style="stop-color:#b5b5b5;stop-opacity:1"/><stop offset=".219" style="stop-color:#b6b6b6;stop-opacity:1"/><stop offset=".234" style="stop-color:#b7b7b7;stop-opacity:1"/><stop offset=".25" style="stop-color:#b7b7b7;stop-opacity:1"/><stop offset=".266" style="stop-color:#b8b8b8;stop-opacity:1"/><stop offset=".281" style="stop-color:#b9b9b9;stop-opacity:1"/><stop offset=".297" style="stop-color:#bababa;stop-opacity:1"/><stop offset=".313" style="stop-color:#bbb;stop-opacity:1"/><stop offset=".328" style="stop-color:#bbb;stop-opacity:1"/><stop offset=".344" style="stop-color:#bcbcbc;stop-opacity:1"/><stop offset=".359" style="stop-color:#bdbdbd;stop-opacity:1"/><stop offset=".375" style="stop-color:#bebebe;stop-opacity:1"/><stop offset=".391" style="stop-color:#bfbfbf;stop-opacity:1"/><stop offset=".406" style="stop-color:silver;stop-opacity:1"/><stop offset=".422" style="stop-color:silver;stop-opacity:1"/><stop offset=".438" style="stop-color:#c1c1c1;stop-opacity:1"/><stop offset=".453" style="stop-color:#c2c2c2;stop-opacity:1"/><stop offset=".469" style="stop-color:#c3c3c3;stop-opacity:1"/><stop offset=".484" style="stop-color:#c4c4c4;stop-opacity:1"/><stop offset=".5" style="stop-color:#c4c4c4;stop-opacity:1"/><stop offset=".516" style="stop-color:#c5c5c5;stop-opacity:1"/><stop offset=".531" style="stop-color:#c6c6c6;stop-opacity:1"/><stop offset=".547" style="stop-color:#c7c7c7;stop-opacity:1"/><stop offset=".563" style="stop-color:#c8c8c8;stop-opacity:1"/><stop offset=".578" style="stop-color:#c8c8c8;stop-opacity:1"/><stop offset=".594" style="stop-color:#c9c9c9;stop-opacity:1"/><stop offset=".609" style="stop-color:#cacaca;stop-opacity:1"/><stop offset=".625" style="stop-color:#cbcbcb;stop-opacity:1"/><stop offset=".641" style="stop-color:#ccc;stop-opacity:1"/><stop offset=".656" style="stop-color:#ccc;stop-opacity:1"/><stop offset=".672" style="stop-color:#cdcdcd;stop-opacity:1"/><stop offset=".688" style="stop-color:#cecece;stop-opacity:1"/><stop offset=".703" style="stop-color:#cfcfcf;stop-opacity:1"/><stop offset=".719" style="stop-color:#d0d0d0;stop-opacity:1"/><stop offset=".734" style="stop-color:#d0d0d0;stop-opacity:1"/><stop offset=".75" style="stop-color:#d1d1d1;stop-opacity:1"/><stop offset=".766" style="stop-color:#d2d2d2;stop-opacity:1"/><stop offset=".781" style="stop-color:#d3d3d3;stop-opacity:1"/><stop offset=".797" style="stop-color:#d4d4d4;stop-opacity:1"/><stop offset=".813" style="stop-color:#d4d4d4;stop-opacity:1"/><stop offset=".828" style="stop-color:#d5d5d5;stop-opacity:1"/><stop offset=".844" style="stop-color:#d6d6d6;stop-opacity:1"/><stop offset=".875" style="stop-color:#d7d7d7;stop-opacity:1"/><stop offset="1" style="stop-color:#d7d7d7;stop-opacity:1"/></linearGradient><linearGradient id="m" x1="-.018" x2="1.074" y1="0" y2="0" gradientTransform="rotate(221.143 99.034 28.284)scale(-115.79588 115.79588)" gradientUnits="userSpaceOnUse"><stop offset="0" style="stop-color:#adadad;stop-opacity:1"/><stop offset=".031" style="stop-color:#adadad;stop-opacity:1"/><stop offset=".047" style="stop-color:#aeaeae;stop-opacity:1"/><stop offset=".063" style="stop-color:#afafaf;stop-opacity:1"/><stop offset=".078" style="stop-color:#afafaf;stop-opacity:1"/><stop offset=".094" style="stop-color:#b0b0b0;stop-opacity:1"/><stop offset=".109" style="stop-color:#b1b1b1;stop-opacity:1"/><stop offset=".125" style="stop-color:#b2b2b2;stop-opacity:1"/><stop offset=".141" style="stop-color:#b2b2b2;stop-opacity:1"/><stop offset=".156" style="stop-color:#b3b3b3;stop-opacity:1"/><stop offset=".172" style="stop-color:#b4b4b4;stop-opacity:1"/><stop offset=".188" style="stop-color:#b4b4b4;stop-opacity:1"/><stop offset=".203" style="stop-color:#b5b5b5;stop-opacity:1"/><stop offset=".219" style="stop-color:#b6b6b6;stop-opacity:1"/><stop offset=".234" style="stop-color:#b7b7b7;stop-opacity:1"/><stop offset=".25" style="stop-color:#b7b7b7;stop-opacity:1"/><stop offset=".266" style="stop-color:#b8b8b8;stop-opacity:1"/><stop offset=".281" style="stop-color:#b9b9b9;stop-opacity:1"/><stop offset=".297" style="stop-color:#bababa;stop-opacity:1"/><stop offset=".313" style="stop-color:#bababa;stop-opacity:1"/><stop offset=".328" style="stop-color:#bbb;stop-opacity:1"/><stop offset=".344" style="stop-color:#bcbcbc;stop-opacity:1"/><stop offset=".359" style="stop-color:#bcbcbc;stop-opacity:1"/><stop offset=".375" style="stop-color:#bdbdbd;stop-opacity:1"/><stop offset=".391" style="stop-color:#bebebe;stop-opacity:1"/><stop offset=".406" style="stop-color:#bfbfbf;stop-opacity:1"/><stop offset=".422" style="stop-color:#bfbfbf;stop-opacity:1"/><stop offset=".438" style="stop-color:silver;stop-opacity:1"/><stop offset=".453" style="stop-color:#c1c1c1;stop-opacity:1"/><stop offset=".469" style="stop-color:#c1c1c1;stop-opacity:1"/><stop offset=".484" style="stop-color:#c2c2c2;stop-opacity:1"/><stop offset=".5" style="stop-color:#c3c3c3;stop-opacity:1"/><stop offset=".516" style="stop-color:#c4c4c4;stop-opacity:1"/><stop offset=".531" style="stop-color:#c4c4c4;stop-opacity:1"/><stop offset=".547" style="stop-color:#c5c5c5;stop-opacity:1"/><stop offset=".563" style="stop-color:#c6c6c6;stop-opacity:1"/><stop offset=".578" style="stop-color:#c6c6c6;stop-opacity:1"/><stop offset=".594" style="stop-color:#c7c7c7;stop-opacity:1"/><stop offset=".609" style="stop-color:#c8c8c8;stop-opacity:1"/><stop offset=".625" style="stop-color:#c9c9c9;stop-opacity:1"/><stop offset=".641" style="stop-color:#c9c9c9;stop-opacity:1"/><stop offset=".656" style="stop-color:#cacaca;stop-opacity:1"/><stop offset=".672" style="stop-color:#cbcbcb;stop-opacity:1"/><stop offset=".688" style="stop-color:#cbcbcb;stop-opacity:1"/><stop offset=".703" style="stop-color:#ccc;stop-opacity:1"/><stop offset=".719" style="stop-color:#cdcdcd;stop-opacity:1"/><stop offset=".734" style="stop-color:#cecece;stop-opacity:1"/><stop offset=".75" style="stop-color:#cecece;stop-opacity:1"/><stop offset=".766" style="stop-color:#cfcfcf;stop-opacity:1"/><stop offset=".781" style="stop-color:#d0d0d0;stop-opacity:1"/><stop offset=".797" style="stop-color:#d0d0d0;stop-opacity:1"/><stop offset=".813" style="stop-color:#d1d1d1;stop-opacity:1"/><stop offset=".828" style="stop-color:#d2d2d2;stop-opacity:1"/><stop offset=".844" style="stop-color:#d3d3d3;stop-opacity:1"/><stop offset=".859" style="stop-color:#d3d3d3;stop-opacity:1"/><stop offset=".875" style="stop-color:#d4d4d4;stop-opacity:1"/><stop offset=".891" style="stop-color:#d5d5d5;stop-opacity:1"/><stop offset=".906" style="stop-color:#d5d5d5;stop-opacity:1"/><stop offset=".922" style="stop-color:#d6d6d6;stop-opacity:1"/><stop offset=".938" style="stop-color:#d7d7d7;stop-opacity:1"/><stop offset="1" style="stop-color:#d7d7d7;stop-opacity:1"/></linearGradient></defs><path d="M925.895 90.328c0-7.637 1.34-14.797 4.015-21.488q4.13-10.156 11.332-17.598c4.805-5.035 10.473-9.012 17.004-11.922 6.535-2.91 13.621-4.37 21.254-4.37 7.637 0 14.684 1.46 21.137 4.37 6.535 2.836 12.16 6.77 16.886 11.809q7.202 7.434 11.215 17.594 4.015 10.031 4.016 21.488v50.89q-.002 3.423-2.242 5.669-2.128 2.125-5.551 2.125-3.306 0-5.668-2.125-2.243-2.246-2.242-5.668V90.8q0-8.268-2.836-15.469c-1.813-4.879-4.406-9.129-7.793-12.75q-4.958-5.433-11.926-8.504c-4.566-2.125-9.562-3.183-14.996-3.183q-8.146-.002-15.113 3.066c-4.567 2.047-8.54 4.844-11.926 8.383-3.383 3.543-6.02 7.758-7.91 12.636q-2.831 7.202-2.832 15.465v50.657q0 3.421-2.13 5.668c-1.413 1.417-3.265 2.125-5.546 2.125q-3.192 0-5.668-2.125-2.482-2.246-2.48-5.668Zm-129.415 2.48c0-8.027 1.5-15.546 4.489-22.554q4.605-10.624 12.398-18.418 7.91-7.794 18.305-12.281 10.508-4.606 22.433-4.606 12.043 0 22.551 4.606c7.008 2.992 13.106 7.125 18.305 12.398q7.788 7.794 12.277 18.3 4.489 10.514 4.489 22.556c0 7.949-1.497 15.43-4.489 22.433-2.992 6.93-7.086 12.988-12.277 18.184-5.2 5.195-11.297 9.328-18.305 12.398q-10.508 4.488-22.55 4.488-11.926 0-22.434-4.488-10.394-4.605-18.305-12.398c-5.195-5.196-9.328-11.254-12.398-18.184-2.989-7.004-4.489-14.484-4.489-22.433m15.707 0q0 8.5 3.305 16.175 3.306 7.56 8.973 13.344c3.777 3.777 8.191 6.77 13.226 8.973q7.678 3.304 16.414 3.304 8.853 0 16.528-3.304 7.677-3.306 13.226-8.973 5.667-5.784 8.856-13.344c2.207-5.117 3.305-10.507 3.305-16.175 0-5.746-1.098-11.176-3.305-16.293q-3.188-7.678-8.856-13.344-5.55-5.666-13.226-8.977c-5.117-2.203-10.625-3.3-16.528-3.3-5.824 0-11.296 1.097-16.414 3.3-5.035 2.207-9.449 5.2-13.226 8.977q-5.668 5.666-8.973 13.344-3.304 7.674-3.304 16.293M763.184 42.98c0-2.285.789-4.171 2.363-5.667q2.362-2.363 5.668-2.364 3.423.002 5.55 2.364c1.493 1.496 2.243 3.382 2.243 5.667v98.594q-.002 3.306-2.363 5.668-2.241 2.243-5.43 2.242-3.306.001-5.668-2.242-2.362-2.362-2.363-5.668ZM761.77 9.445q.001-4.013 2.714-6.726 2.718-2.72 6.73-2.719 4.017 0 6.731 2.719 2.831 2.712 2.832 6.726c0 2.598-.945 4.844-2.832 6.73q-2.714 2.718-6.73 2.716-4.013.002-6.73-2.715-2.715-2.832-2.715-6.73m-82.067 85.722q.002-12.4 4.727-23.258 4.722-10.979 12.867-19.129 8.15-8.266 19.012-12.988 10.863-4.845 23.144-4.844h.942q3.78.001 5.906 2.246 2.243 2.245 2.242 5.668.001 3.423-2.36 5.668-2.36 2.121-5.788 2.121h-.942c-5.984 0-11.652 1.184-17.004 3.543q-7.91 3.427-13.933 9.45-6.022 6.017-9.567 14.167-3.542 8.151-3.543 17.356v45.816c0 2.286-.742 4.172-2.242 5.668q-2.123 2.243-5.312 2.243-3.306 0-5.786-2.243c-1.574-1.496-2.363-3.382-2.363-5.668Zm-31.64-8.5q-.95-7.792-4.489-14.406c-2.363-4.485-5.39-8.344-9.094-11.57q-5.548-4.964-12.75-7.794-7.084-2.835-15.23-2.836-8.15 0-15.352 2.954-7.083 2.835-12.515 7.793T569.777 72.5c-2.285 4.406-3.699 9.133-4.254 14.168ZM566 99.895c.629 4.957 2.082 9.601 4.367 13.93a42.7 42.7 0 0 0 8.973 11.218q5.431 4.726 12.281 7.437 6.967 2.72 14.64 2.72 3.546 0 6.259-.24 2.834-.351 5.195-.944a30 30 0 0 0 4.722-1.77 58 58 0 0 0 4.844-2.48q1.298-.825 2.477-1.063 1.301-.353 2.363-.355 3.303.001 5.434 2.597 2.24 2.603 2.242 5.668-.001 1.775-.945 3.543-.828 1.654-2.832 2.832a67 67 0 0 1-6.262 3.192q-3.07 1.416-6.61 2.36-3.544.825-7.675 1.3c-2.758.312-5.825.472-9.211.472q-11.927 0-22.434-4.488-10.512-4.605-18.422-12.398c-5.195-5.196-9.324-11.293-12.398-18.301-2.988-7.008-4.488-14.484-4.488-22.434 0-7.953 1.5-15.43 4.488-22.437 3.074-7.004 7.203-13.106 12.398-18.3q7.91-7.91 18.422-12.4c7.004-3.07 14.485-4.605 22.434-4.605 7.87 0 15.312 1.535 22.316 4.606 7.008 2.992 13.106 7.086 18.305 12.28q7.904 7.794 12.515 18.306 4.6 10.388 4.723 22.195-.001 3.189-2.125 5.43-2.129 2.128-5.55 2.129Zm-127.527-7.086q.002 8.5 3.308 16.175 3.306 7.56 8.973 13.344 5.666 5.667 13.344 8.973c5.117 2.203 10.59 3.304 16.41 3.304q8.86 0 16.414-3.304c5.117-2.203 9.562-5.196 13.344-8.973q5.669-5.784 8.855-13.344c2.203-5.117 3.309-10.507 3.309-16.175 0-5.746-1.106-11.176-3.309-16.293-2.125-5.118-5.074-9.567-8.855-13.344s-8.227-6.77-13.344-8.977c-5.035-2.203-10.508-3.3-16.414-3.3-5.82 0-11.293 1.097-16.41 3.3q-7.678 3.311-13.344 8.977-5.667 5.666-8.973 13.344-3.306 7.674-3.308 16.293m-15.703 0q0-12.043 4.488-22.555 4.605-10.624 12.398-18.418 7.912-7.794 18.418-12.281 10.511-4.606 22.434-4.606 11.928 0 22.437 4.606 10.507 4.488 18.301 12.28 7.793 7.795 12.281 18.419c2.993 7.008 4.485 14.527 4.485 22.555 0 7.949-1.492 15.43-4.485 22.433-2.992 6.93-7.086 12.988-12.28 18.184q-7.795 7.793-18.302 12.398-10.509 4.488-22.437 4.488c-8.344 0-16.133-1.613-23.38-4.84-7.16-3.23-13.378-7.675-18.655-13.347v49.598q0 3.421-2.121 5.785-2.128 2.36-5.551 2.36-3.306 0-5.668-2.36-2.362-2.362-2.363-5.785Zm-70.489 9.683-43.101 44.04c-1.575 1.655-3.54 2.48-5.903 2.48a7.6 7.6 0 0 1-2.949-.59 9.1 9.1 0 0 1-2.601-1.652 10.3 10.3 0 0 1-1.77-2.364 7.6 7.6 0 0 1-.59-2.953q0-1.648.707-3.066c.473-.946 1.106-1.852 1.89-2.719l43.333-44.395-42.152-42.98c-1.575-1.574-2.36-3.387-2.36-5.43q-.001-1.535.59-2.953.71-1.533 1.77-2.597 1.182-1.184 2.597-1.774a6.6 6.6 0 0 1 2.953-.707q3.306.001 5.785 2.48l41.801 42.747 41.68-42.63q2.478-2.479 5.906-2.48c2.043 0 3.856.79 5.43 2.364s2.36 3.382 2.36 5.433q.002 3.069-2.481 5.785l-41.914 42.742 43.215 44.16q2.362 2.363 2.363 5.786 0 3.305-2.485 5.55-2.36 2.126-5.308 2.126-3.309 0-5.434-2.243Zm-32.343 130.879-8.586-23.16-8.645 23.16Zm.789 2.09h-18.809l-3.785 10.164h-2.77l14.575-38.746h2.824l14.52 38.746h-2.77Zm16.836 10.164h-2.543v-39.652h2.543Zm27.167-20.105h-21.238v-2.204h21.238Zm14.63-17.457v16.664h15.816v2.035h-15.817v16.777h17.512v2.09h-20.05v-39.656h20.05v2.09Zm49.312 9.632q3.445 3.359 3.445 9.97v17.964h-2.484v-17.797q.001-5.473-2.77-8.387c-1.843-1.937-4.347-2.91-7.511-2.91q-4.969 0-7.934 3.164-2.97 3.164-2.969 9.38v16.55h-2.539v-30.672h2.54v6.492c.866-2.297 2.308-4.054 4.32-5.281q3.022-1.833 6.976-1.832c3.652 0 6.629 1.117 8.926 3.36m38.324 5.476q-1.665-3.077-4.547-4.742-2.879-1.667-6.437-1.668-3.732.002-6.555 1.61-2.826 1.61-4.402 4.66-1.587 3.052-1.586 7.23c0 2.789.527 5.195 1.586 7.23q1.577 3.053 4.433 4.688 2.85 1.64 6.524 1.64 3.556.001 6.465-1.668 2.911-1.663 4.55-4.746 1.636-3.076 1.637-7.144 0-4.008-1.668-7.09m-24.23-1.211q1.89-3.561 5.254-5.48 3.357-1.922 7.652-1.922c3.238 0 5.988.793 8.246 2.37 2.262 1.583 3.84 3.598 4.746 6.048v-8.02h2.543v30.672h-2.543v-8.078q-1.358 3.726-4.773 6.129-3.418 2.397-8.22 2.398-4.293.002-7.651-1.95c-2.243-1.296-3.993-3.144-5.254-5.534q-1.894-3.585-1.895-8.332.001-4.745 1.895-8.301m65.211 1.07q-1.582-3.048-4.434-4.66-2.851-1.61-6.582-1.61c-2.371 0-4.516.56-6.438 1.669q-2.88 1.664-4.52 4.746-1.638 3.076-1.636 7.086-.002 4.065 1.637 7.148 1.639 3.077 4.52 4.742 2.881 1.67 6.437 1.668 3.73-.001 6.582-1.636 2.852-1.64 4.434-4.692 1.582-3.047 1.582-7.23 0-4.178-1.582-7.23m-18.809-6.098q3.387-2.374 8.191-2.375 4.29 0 7.653 1.921c2.238 1.282 3.992 3.106 5.254 5.48q1.89 3.557 1.89 8.302 0 4.746-1.89 8.332-1.895 3.59-5.254 5.535-3.363 1.95-7.653 1.95-4.803 0-8.218-2.372-3.421-2.374-4.774-6.102v8.02h-2.543v-41.797h2.543v19.203c.942-2.484 2.54-4.52 4.801-6.097m34.566 28.691h-2.539v-41.797h2.54Zm34.316-23.328q-1.609-2.824-4.374-4.207-2.772-1.383-5.989-1.383-3.279 0-6.015 1.41-2.741 1.414-4.434 4.238-1.698 2.825-1.808 6.891h24.062q.17-4.125-1.441-6.95m3.87 8.927H535.43q.11 4.124 1.808 6.976c1.13 1.903 2.614 3.324 4.461 4.266q2.767 1.41 6.043 1.41 4.518.001 7.57-2.23c2.036-1.489 3.313-3.512 3.84-6.075h2.657c-.602 3.13-2.149 5.66-4.633 7.602q-3.728 2.906-9.434 2.906-4.294 0-7.68-1.922-3.39-1.916-5.312-5.504-1.922-3.585-1.922-8.39.001-4.802 1.895-8.36 1.893-3.555 5.28-5.449c2.263-1.262 4.84-1.894 7.74-1.894q4.404 0 7.655 1.894c2.164 1.262 3.813 2.926 4.942 5q1.694 3.105 1.695 6.719c0 1.355-.039 2.375-.113 3.05m33.691-8.05q-1.664-3.077-4.547-4.742-2.879-1.667-6.437-1.668c-2.484 0-4.672.539-6.55 1.61q-2.831 1.61-4.407 4.66-1.582 3.052-1.582 7.23c0 2.789.527 5.195 1.582 7.23 1.05 2.035 2.531 3.598 4.433 4.688q2.85 1.64 6.524 1.64 3.556.001 6.469-1.668 2.906-1.663 4.547-4.746 1.636-3.076 1.636-7.144.002-4.008-1.668-7.09m-24.23-1.211q1.892-3.561 5.254-5.48 3.357-1.922 7.652-1.922 4.688 0 8.133 2.343 3.446 2.346 4.86 6.075v-19.149h2.542v41.8h-2.543v-8.136q-1.353 3.786-4.746 6.188-3.388 2.397-8.246 2.398-4.295.002-7.652-1.95c-2.242-1.296-3.992-3.144-5.254-5.534q-1.894-3.585-1.895-8.332.001-4.745 1.895-8.301m78.883-15.988v2.09h-11.297v37.562h-2.543v-37.562h-11.297v-2.09Zm31.039 16.324q-1.613-2.824-4.38-4.207-2.765-1.383-5.987-1.383-3.275 0-6.016 1.41c-1.824.942-3.305 2.356-4.434 4.238q-1.692 2.825-1.808 6.891h24.066c.11-2.75-.367-5.066-1.441-6.95m3.867 8.927H658.68q.116 4.124 1.808 6.976 1.694 2.854 4.465 4.266 2.764 1.41 6.043 1.41 4.518.001 7.567-2.23c2.035-1.489 3.312-3.512 3.843-6.075h2.653c-.602 3.13-2.145 5.66-4.63 7.602q-3.732 2.906-9.433 2.906-4.293 0-7.683-1.922c-2.258-1.277-4.032-3.113-5.31-5.504q-1.92-3.585-1.921-8.39c0-3.2.629-5.989 1.895-8.36 1.257-2.37 3.02-4.187 5.28-5.449q3.387-1.894 7.74-1.894 4.405 0 7.651 1.894c2.164 1.262 3.813 2.926 4.942 5 1.133 2.07 1.695 4.309 1.695 6.719 0 1.355-.035 2.375-.113 3.05m9.461-9.32q1.892-3.555 5.254-5.449c2.242-1.262 4.808-1.894 7.71-1.894q5.765 0 9.462 2.882 3.703 2.882 4.605 7.739h-2.656q-.731-3.954-3.813-6.215-3.08-2.257-7.597-2.258-3.389.001-6.157 1.496-2.77 1.5-4.433 4.574c-1.113 2.055-1.668 4.547-1.668 7.485q0 4.464 1.668 7.511c1.11 2.036 2.586 3.559 4.433 4.579q2.768 1.523 6.157 1.523 4.516-.001 7.597-2.258 3.082-2.26 3.813-6.215h2.656q-.904 4.804-4.633 7.739-3.727 2.939-9.433 2.937c-2.903 0-5.47-.64-7.711-1.922q-3.362-1.916-5.254-5.504-1.891-3.585-1.89-8.39-.001-4.802 1.89-8.36m58.887-4.207q3.445 3.359 3.445 9.97v17.964h-2.485v-17.797q0-5.473-2.765-8.387c-1.848-1.937-4.352-2.91-7.516-2.91q-4.969 0-7.933 3.164c-1.977 2.11-2.97 5.235-2.97 9.38v16.55h-2.538v-41.8h2.539v17.62c.867-2.297 2.316-4.054 4.351-5.281q3.049-1.833 7.004-1.832c3.614 0 6.57 1.117 8.868 3.36m36.433 26.972q-2.883-1.358-4.488-3.672a10.26 10.26 0 0 1-1.836-5.14h2.652c.301 2.07 1.274 3.925 2.91 5.562q2.456 2.459 7.485 2.457 2.934 0 5.113-1.102c1.45-.734 2.566-1.722 3.36-2.964q1.188-1.864 1.187-4.125c0-1.918-.461-3.446-1.383-4.575a8.6 8.6 0 0 0-3.45-2.539q-2.06-.849-5.562-1.808-3.844-1.018-6.183-2.035-2.345-1.015-3.957-3.137c-1.07-1.41-1.61-3.34-1.61-5.79q.001-2.823 1.496-5.167 1.5-2.345 4.266-3.7t6.383-1.355q5.256 0 8.473 2.598c2.148 1.734 3.425 3.863 3.84 6.383h-2.708q-.339-1.583-1.5-3.164c-.77-1.051-1.863-1.93-3.277-2.625-1.41-.696-3.098-1.043-5.055-1.043q-3.95-.001-6.664 2.171-2.711 2.175-2.71 5.848c0 1.922.468 3.453 1.413 4.602a8.94 8.94 0 0 0 3.473 2.601q2.06.874 5.563 1.778 3.897 1.071 6.183 2.062 2.292.99 3.899 3.106 1.61 2.12 1.609 5.734 0 2.655-1.41 5.027-1.411 2.373-4.153 3.867-2.741 1.5-6.636 1.5c-2.563 0-4.801-.453-6.723-1.355m47.645-2.289c1.941-.996 3.492-2.524 4.66-4.574q1.753-3.08 1.754-7.543c0-2.938-.586-5.43-1.754-7.485-1.168-2.05-2.711-3.578-4.63-4.574q-2.88-1.495-6.214-1.496-3.335.001-6.184 1.496c-1.902.996-3.437 2.524-4.605 4.574-1.168 2.055-1.75 4.547-1.75 7.485q0 4.462 1.723 7.543c1.148 2.05 2.672 3.578 4.574 4.574 1.902 1 3.96 1.496 6.187 1.496q3.331.002 6.239-1.496m-13.98 1.777q-3.446-1.916-5.395-5.504c-1.297-2.394-1.946-5.187-1.946-8.39q-.002-4.74 1.977-8.332 1.974-3.584 5.45-5.477 3.474-1.894 7.769-1.894 4.29 0 7.738 1.894c2.293 1.262 4.094 3.078 5.39 5.45 1.301 2.37 1.95 5.16 1.95 8.359 0 3.203-.66 5.996-1.977 8.39q-1.975 3.588-5.449 5.504-3.475 1.922-7.766 1.922-4.295 0-7.742-1.922m34.571 1.469h-2.54v-41.797h2.54Zm36.602-30.668v30.672h-2.54v-6.668c-.867 2.336-2.309 4.113-4.32 5.34q-3.025 1.834-6.922 1.836-5.48 0-8.953-3.364-3.474-3.358-3.473-9.968v-17.848h2.484v17.676q-.001 5.484 2.77 8.39 2.766 2.911 7.512 2.91c3.312 0 5.96-1.054 7.933-3.163q2.97-3.164 2.969-9.38v-16.433Zm14.405 2.199v20.281c0 2.258.41 3.813 1.242 4.66q1.243 1.271 4.407 1.27h3.445v2.262h-3.84q-4.014-.001-5.906-1.895-1.891-1.89-1.89-6.297v-20.28h-4.633v-2.2h4.632v-7.797h2.543v7.797h9.094v2.2Zm19.711 28.469h-2.539v-30.672h2.54Zm-2.765-38.098q-.626-.593-.625-1.609-.001-.96.625-1.582c.41-.414.922-.621 1.523-.621q.903 0 1.524.62.623.622.625 1.583-.002 1.016-.625 1.61-.622.592-1.524.593c-.601 0-1.113-.2-1.523-.594m33.183 34.852c1.938-.996 3.492-2.524 4.66-4.574q1.751-3.08 1.75-7.543c0-2.938-.582-5.43-1.75-7.485-1.168-2.05-2.71-3.578-4.632-4.574q-2.884-1.495-6.211-1.496c-2.227 0-4.286.5-6.188 1.496s-3.437 2.524-4.605 4.574c-1.164 2.055-1.75 4.547-1.75 7.485q0 4.462 1.722 7.543c1.149 2.05 2.676 3.578 4.578 4.574q2.849 1.498 6.184 1.496c2.223 0 4.3-.496 6.242-1.496m-13.98 1.777q-3.447-1.916-5.395-5.504c-1.3-2.394-1.949-5.187-1.949-8.39q0-4.74 1.977-8.332 1.976-3.584 5.453-5.477 3.472-1.894 7.765-1.894t7.739 1.894q3.443 1.893 5.394 5.45c1.297 2.37 1.95 5.16 1.95 8.359 0 3.203-.66 5.996-1.977 8.39q-1.98 3.588-5.453 5.504-3.473 1.922-7.766 1.922t-7.738-1.922m54.793-26.461q3.445 3.359 3.445 9.97v17.964h-2.488v-17.797q0-5.473-2.766-8.387c-1.848-1.937-4.351-2.91-7.515-2.91q-4.97 0-7.934 3.164t-2.965 9.38v16.55h-2.543v-30.672h2.543v6.492c.863-2.297 2.305-4.054 4.32-5.281q3.02-1.833 6.977-1.832c3.652 0 6.625 1.117 8.926 3.36" style="stroke:none;fill-rule:nonzero;fill:#fff;fill-opacity:1"/><g clip-path="url(#a)"><path d="M1015.754 243.82q-3.252-2.259-3.645-6.441h2.598q.284 3.054 2.711 4.8 2.43 1.754 6.723 1.755c2.336 0 4.187-.594 5.566-1.782 1.371-1.183 2.059-2.664 2.059-4.433q0-1.805-1.102-2.965-1.1-1.16-2.71-1.781-1.612-.62-4.49-1.41-3.333-.85-5.425-1.723a9.4 9.4 0 0 1-3.559-2.598q-1.469-1.722-1.468-4.605a6.94 6.94 0 0 1 1.273-4.04q1.272-1.834 3.586-2.937 2.314-1.101 5.254-1.101 4.801 0 7.766 2.402 2.964 2.4 3.191 6.637h-2.543c-.11-2.036-.902-3.7-2.371-5-1.469-1.301-3.5-1.95-6.102-1.95q-3.276.001-5.421 1.696-2.145 1.694-2.145 4.18c0 1.433.402 2.59 1.215 3.472a8 8 0 0 0 2.96 2.035c1.169.473 2.75.969 4.75 1.496q3.216.849 5.138 1.668a8.95 8.95 0 0 1 3.277 2.371q1.354 1.556 1.355 4.094c0 1.582-.422 3.016-1.273 4.293q-1.267 1.922-3.555 3.024-2.291 1.101-5.226 1.101-5.14-.001-8.387-2.258" style="stroke:none;fill-rule:nonzero;fill:#fff;fill-opacity:1"/></g><g clip-path="url(#b)"><g clip-path="url(#c)"><path d="M160.184 383.129-119.79 162.836 99.449-115.793 379.422 104.5Zm0 0" style="stroke:none;fill-rule:nonzero;fill:url(#d)"/></g></g><g clip-path="url(#e)"><g clip-path="url(#f)"><path d="m186.11-93.918 164.242 284.477L66.836 354.25-97.41 69.77Zm0 0" style="stroke:none;fill-rule:nonzero;fill:url(#g)"/></g></g><g clip-path="url(#h)"><g clip-path="url(#i)"><path d="M-34.77 78.086 84.953 22.258l53.809 115.39-119.723 55.829Zm0 0" style="stroke:none;fill-rule:nonzero;fill:url(#j)"/></g></g><g clip-path="url(#k)"><g clip-path="url(#l)"><path d="m112.137 160.71 81.398-93.167 95.219 83.191-81.399 93.164Zm0 0" style="stroke:none;fill-rule:nonzero;fill:url(#m)"/></g></g></svg>