<svg xmlns="http://www.w3.org/2000/svg" width="1379.947" height="344.837" viewBox="0 0 1034.96 258.628"><defs><clipPath id="a"><path d="M.723 12H256v246.258H.723Zm0 0"/></clipPath><clipPath id="b"><path d="M160.7 16.984c-30.669 8.27-63.36 27.489-92.06 54.086-28.699 26.598-50.312 57.743-60.89 87.7C2.285 174.234.004 188.73.922 201.855c1.023 14.813 6.3 27.754 15.281 37.418 8.953 9.688 21.48 15.938 36.156 18.09 3.993.606 8.168.895 12.473.895 9.688 0 20.063-1.473 31.012-4.442 30.668-8.27 63.36-27.488 92.058-54.09 28.703-26.593 50.313-57.738 60.895-87.695 5.46-15.465 7.746-29.96 6.828-43.09-1.027-14.804-6.305-27.75-15.285-37.414-8.953-9.687-21.477-15.937-36.156-18.09q-6.061-.89-12.555-.89c-9.66 0-20.012 1.48-30.93 4.437M39.074 218.137c-8.847-9.532-9.558-27.36-1.941-48.946 8.926-25.285 27.62-51.988 52.699-75.222 25.05-23.242 53.117-39.887 78.984-46.871 8.32-2.258 16.016-3.36 22.868-3.36 11.32 0 20.296 3.047 25.812 8.98 8.848 9.532 9.559 27.356 1.945 48.942-8.93 25.285-27.625 51.988-52.699 75.227-25.05 23.238-53.12 39.883-78.984 46.867-8.332 2.246-16.04 3.355-22.887 3.355-11.32-.004-20.281-3.035-25.797-8.972"/></clipPath><clipPath id="d"><path d="M7 12h237v239H7Zm0 0"/></clipPath><clipPath id="e"><path d="M56.504 14.055C31.914 20.172 12.008 41.508 7.14 66.359h.05c21.754-3.254 45.512-2.316 63.47 10.434 19.464 13.82 27.87 38.46 32.007 61.988 3.46 19.594 4.789 39.684 11.004 58.676 5.18 15.824 13.742 30.266 27.457 40.078 12.879 9.207 29.039 14.074 44.887 12.36.156-.028.312-.028.468-.055 28.496-3.3 53.192-27.582 57.016-55.996-14.625-.442-29.355-1.852-43.3-6.297-13.95-4.453-27.141-12.074-36.434-23.395-28.364-34.48-13.012-90.297-39.633-126.129C112.008 21.75 91.703 12.25 71.469 12.25c-5.035 0-10.067.586-14.965 1.805"/></clipPath><clipPath id="g"><path d="M6 63h97v80H6Zm0 0"/></clipPath><clipPath id="h"><path d="M7.164 66.203s-7.207 33.754 21.184 61.414c0 0 33.62 28.13 73.98 8.067 0 0-6.16-71.754-73.254-71.754-6.68 0-13.965.71-21.91 2.273"/></clipPath><clipPath id="j"><path d="M147 120h98v75h-98Zm0 0"/></clipPath><clipPath id="k"><path d="m147.61 127.934.027.156s1.457 65.055 95.84 65.992c0 0 6.14-28.758-18.008-54.96 0 0-18.797-18.692-47.04-18.696-9.35 0-19.734 2.05-30.82 7.508"/></clipPath><linearGradient id="c" x1="-.084" x2="1.082" y1="0" y2="0" gradientTransform="rotate(-51.803 278.602 90.182)scale(301.30958 -301.30958)" gradientUnits="userSpaceOnUse"><stop offset="0" style="stop-color:#34d3b9;stop-opacity:1"/><stop offset=".125" style="stop-color:#34d3b9;stop-opacity:1"/><stop offset=".188" style="stop-color:#34d3b9;stop-opacity:1"/><stop offset=".195" style="stop-color:#34d3b9;stop-opacity:1"/><stop offset=".203" style="stop-color:#33d2b9;stop-opacity:1"/><stop offset=".211" style="stop-color:#32d2b9;stop-opacity:1"/><stop offset=".219" style="stop-color:#31d1ba;stop-opacity:1"/><stop offset=".227" style="stop-color:#31d1ba;stop-opacity:1"/><stop offset=".234" style="stop-color:#30d0ba;stop-opacity:1"/><stop offset=".242" style="stop-color:#2fd0ba;stop-opacity:1"/><stop offset=".25" style="stop-color:#2ecfba;stop-opacity:1"/><stop offset=".258" style="stop-color:#2ecfbb;stop-opacity:1"/><stop offset=".266" style="stop-color:#2dcebb;stop-opacity:1"/><stop offset=".273" style="stop-color:#2ccebb;stop-opacity:1"/><stop offset=".281" style="stop-color:#2ccdbb;stop-opacity:1"/><stop offset=".289" style="stop-color:#2bcdbb;stop-opacity:1"/><stop offset=".297" style="stop-color:#2accbc;stop-opacity:1"/><stop offset=".305" style="stop-color:#29ccbc;stop-opacity:1"/><stop offset=".313" style="stop-color:#29cbbc;stop-opacity:1"/><stop offset=".32" style="stop-color:#28cbbc;stop-opacity:1"/><stop offset=".328" style="stop-color:#27cabc;stop-opacity:1"/><stop offset=".336" style="stop-color:#26cabd;stop-opacity:1"/><stop offset=".344" style="stop-color:#26c9bd;stop-opacity:1"/><stop offset=".352" style="stop-color:#25c9bd;stop-opacity:1"/><stop offset=".359" style="stop-color:#24c8bd;stop-opacity:1"/><stop offset=".367" style="stop-color:#23c8bd;stop-opacity:1"/><stop offset=".375" style="stop-color:#23c7be;stop-opacity:1"/><stop offset=".383" style="stop-color:#22c7be;stop-opacity:1"/><stop offset=".391" style="stop-color:#21c6be;stop-opacity:1"/><stop offset=".395" style="stop-color:#22c6bd;stop-opacity:1"/><stop offset=".398" style="stop-color:#23c7bd;stop-opacity:1"/><stop offset=".402" style="stop-color:#24c7bc;stop-opacity:1"/><stop offset=".406" style="stop-color:#26c8bc;stop-opacity:1"/><stop offset=".41" style="stop-color:#27c8bb;stop-opacity:1"/><stop offset=".414" style="stop-color:#28c8bb;stop-opacity:1"/><stop offset=".418" style="stop-color:#29c9ba;stop-opacity:1"/><stop offset=".422" style="stop-color:#2ac9ba;stop-opacity:1"/><stop offset=".426" style="stop-color:#2bc9b9;stop-opacity:1"/><stop offset=".43" style="stop-color:#2ccab9;stop-opacity:1"/><stop offset=".434" style="stop-color:#2dcab8;stop-opacity:1"/><stop offset=".438" style="stop-color:#2ecbb8;stop-opacity:1"/><stop offset=".441" style="stop-color:#2fcbb7;stop-opacity:1"/><stop offset=".445" style="stop-color:#30cbb7;stop-opacity:1"/><stop offset=".449" style="stop-color:#31ccb6;stop-opacity:1"/><stop offset=".453" style="stop-color:#32ccb6;stop-opacity:1"/><stop offset=".457" style="stop-color:#33ccb5;stop-opacity:1"/><stop offset=".461" style="stop-color:#35cdb5;stop-opacity:1"/><stop offset=".465" style="stop-color:#36cdb4;stop-opacity:1"/><stop offset=".469" style="stop-color:#37ceb4;stop-opacity:1"/><stop offset=".473" style="stop-color:#38ceb3;stop-opacity:1"/><stop offset=".477" style="stop-color:#39ceb3;stop-opacity:1"/><stop offset=".48" style="stop-color:#3acfb2;stop-opacity:1"/><stop offset=".484" style="stop-color:#3bcfb2;stop-opacity:1"/><stop offset=".488" style="stop-color:#3ccfb1;stop-opacity:1"/><stop offset=".492" style="stop-color:#3dd0b1;stop-opacity:1"/><stop offset=".496" style="stop-color:#3ed0b0;stop-opacity:1"/><stop offset=".5" style="stop-color:#3fd1b0;stop-opacity:1"/><stop offset=".504" style="stop-color:#40d1af;stop-opacity:1"/><stop offset=".508" style="stop-color:#41d1af;stop-opacity:1"/><stop offset=".512" style="stop-color:#43d2ae;stop-opacity:1"/><stop offset=".516" style="stop-color:#44d2ae;stop-opacity:1"/><stop offset=".52" style="stop-color:#45d2ad;stop-opacity:1"/><stop offset=".523" style="stop-color:#46d3ad;stop-opacity:1"/><stop offset=".527" style="stop-color:#47d3ac;stop-opacity:1"/><stop offset=".531" style="stop-color:#48d4ac;stop-opacity:1"/><stop offset=".535" style="stop-color:#49d4ab;stop-opacity:1"/><stop offset=".539" style="stop-color:#4ad4ab;stop-opacity:1"/><stop offset=".543" style="stop-color:#4bd5aa;stop-opacity:1"/><stop offset=".547" style="stop-color:#4cd5aa;stop-opacity:1"/><stop offset=".551" style="stop-color:#4dd5a9;stop-opacity:1"/><stop offset=".555" style="stop-color:#4ed6a9;stop-opacity:1"/><stop offset=".559" style="stop-color:#4fd6a8;stop-opacity:1"/><stop offset=".563" style="stop-color:#50d7a8;stop-opacity:1"/><stop offset=".566" style="stop-color:#52d7a7;stop-opacity:1"/><stop offset=".57" style="stop-color:#53d7a7;stop-opacity:1"/><stop offset=".574" style="stop-color:#54d8a6;stop-opacity:1"/><stop offset=".578" style="stop-color:#55d8a6;stop-opacity:1"/><stop offset=".582" style="stop-color:#56d8a5;stop-opacity:1"/><stop offset=".586" style="stop-color:#57d9a5;stop-opacity:1"/><stop offset=".59" style="stop-color:#58d9a4;stop-opacity:1"/><stop offset=".594" style="stop-color:#59daa4;stop-opacity:1"/><stop offset=".598" style="stop-color:#5adaa3;stop-opacity:1"/><stop offset=".602" style="stop-color:#5bdaa3;stop-opacity:1"/><stop offset=".605" style="stop-color:#5cdba2;stop-opacity:1"/><stop offset=".609" style="stop-color:#5ddba2;stop-opacity:1"/><stop offset=".613" style="stop-color:#5edba2;stop-opacity:1"/><stop offset=".617" style="stop-color:#5fdca1;stop-opacity:1"/><stop offset=".621" style="stop-color:#61dca1;stop-opacity:1"/><stop offset=".625" style="stop-color:#62dca0;stop-opacity:1"/><stop offset=".629" style="stop-color:#63dda0;stop-opacity:1"/><stop offset=".633" style="stop-color:#64dd9f;stop-opacity:1"/><stop offset=".637" style="stop-color:#65de9f;stop-opacity:1"/><stop offset=".641" style="stop-color:#66de9e;stop-opacity:1"/><stop offset=".645" style="stop-color:#67de9e;stop-opacity:1"/><stop offset=".648" style="stop-color:#68df9d;stop-opacity:1"/><stop offset=".652" style="stop-color:#69df9d;stop-opacity:1"/><stop offset=".656" style="stop-color:#6adf9c;stop-opacity:1"/><stop offset=".66" style="stop-color:#6be09c;stop-opacity:1"/><stop offset=".664" style="stop-color:#6ce09b;stop-opacity:1"/><stop offset=".668" style="stop-color:#6de19b;stop-opacity:1"/><stop offset=".672" style="stop-color:#6ee19a;stop-opacity:1"/><stop offset=".676" style="stop-color:#70e19a;stop-opacity:1"/><stop offset=".68" style="stop-color:#71e299;stop-opacity:1"/><stop offset=".684" style="stop-color:#72e299;stop-opacity:1"/><stop offset=".688" style="stop-color:#73e298;stop-opacity:1"/><stop offset=".691" style="stop-color:#74e398;stop-opacity:1"/><stop offset=".695" style="stop-color:#75e397;stop-opacity:1"/><stop offset=".699" style="stop-color:#76e497;stop-opacity:1"/><stop offset=".703" style="stop-color:#77e496;stop-opacity:1"/><stop offset=".707" style="stop-color:#78e496;stop-opacity:1"/><stop offset=".711" style="stop-color:#79e595;stop-opacity:1"/><stop offset=".715" style="stop-color:#7ae595;stop-opacity:1"/><stop offset=".719" style="stop-color:#7be594;stop-opacity:1"/><stop offset=".723" style="stop-color:#7ce694;stop-opacity:1"/><stop offset=".727" style="stop-color:#7de693;stop-opacity:1"/><stop offset=".73" style="stop-color:#7fe793;stop-opacity:1"/><stop offset=".734" style="stop-color:#80e792;stop-opacity:1"/><stop offset=".738" style="stop-color:#81e792;stop-opacity:1"/><stop offset=".742" style="stop-color:#82e891;stop-opacity:1"/><stop offset=".746" style="stop-color:#83e891;stop-opacity:1"/><stop offset=".75" style="stop-color:#84e890;stop-opacity:1"/><stop offset=".754" style="stop-color:#85e990;stop-opacity:1"/><stop offset=".758" style="stop-color:#86e98f;stop-opacity:1"/><stop offset=".762" style="stop-color:#87ea8f;stop-opacity:1"/><stop offset=".766" style="stop-color:#88ea8e;stop-opacity:1"/><stop offset=".77" style="stop-color:#89ea8e;stop-opacity:1"/><stop offset=".773" style="stop-color:#8aeb8d;stop-opacity:1"/><stop offset=".777" style="stop-color:#8beb8d;stop-opacity:1"/><stop offset=".781" style="stop-color:#8ceb8c;stop-opacity:1"/><stop offset=".785" style="stop-color:#8eec8c;stop-opacity:1"/><stop offset=".789" style="stop-color:#8fec8b;stop-opacity:1"/><stop offset=".793" style="stop-color:#90ed8b;stop-opacity:1"/><stop offset=".797" style="stop-color:#91ed8a;stop-opacity:1"/><stop offset=".813" style="stop-color:#91ed8a;stop-opacity:1"/><stop offset=".875" style="stop-color:#91ed8a;stop-opacity:1"/><stop offset="1" style="stop-color:#91ed8a;stop-opacity:1"/></linearGradient><linearGradient id="f" x1="-1.044" x2="2.088" y1="0" y2="0" gradientTransform="rotate(150 71.95 75.2)scale(103.5608 -103.5608)" gradientUnits="userSpaceOnUse"><stop offset="0" style="stop-color:#96f19c;stop-opacity:1"/><stop offset=".25" style="stop-color:#96f19c;stop-opacity:1"/><stop offset=".313" style="stop-color:#96f19c;stop-opacity:1"/><stop offset=".328" style="stop-color:#96f19c;stop-opacity:1"/><stop offset=".336" style="stop-color:#96f19c;stop-opacity:1"/><stop offset=".34" style="stop-color:#95f19d;stop-opacity:1"/><stop offset=".344" style="stop-color:#95f19e;stop-opacity:1"/><stop offset=".348" style="stop-color:#94f09f;stop-opacity:1"/><stop offset=".352" style="stop-color:#94f0a0;stop-opacity:1"/><stop offset=".355" style="stop-color:#93f0a1;stop-opacity:1"/><stop offset=".359" style="stop-color:#93f0a1;stop-opacity:1"/><stop offset=".363" style="stop-color:#92f0a2;stop-opacity:1"/><stop offset=".367" style="stop-color:#92f0a3;stop-opacity:1"/><stop offset=".371" style="stop-color:#91efa4;stop-opacity:1"/><stop offset=".375" style="stop-color:#91efa5;stop-opacity:1"/><stop offset=".379" style="stop-color:#90efa5;stop-opacity:1"/><stop offset=".383" style="stop-color:#90efa6;stop-opacity:1"/><stop offset=".387" style="stop-color:#8fefa7;stop-opacity:1"/><stop offset=".391" style="stop-color:#8feea8;stop-opacity:1"/><stop offset=".395" style="stop-color:#8eeea9;stop-opacity:1"/><stop offset=".398" style="stop-color:#8eeea9;stop-opacity:1"/><stop offset=".402" style="stop-color:#8deeaa;stop-opacity:1"/><stop offset=".406" style="stop-color:#8deeab;stop-opacity:1"/><stop offset=".41" style="stop-color:#8ceeac;stop-opacity:1"/><stop offset=".414" style="stop-color:#8cedad;stop-opacity:1"/><stop offset=".418" style="stop-color:#8bedae;stop-opacity:1"/><stop offset=".422" style="stop-color:#8bedae;stop-opacity:1"/><stop offset=".426" style="stop-color:#8aedaf;stop-opacity:1"/><stop offset=".43" style="stop-color:#8aedb0;stop-opacity:1"/><stop offset=".434" style="stop-color:#89edb1;stop-opacity:1"/><stop offset=".438" style="stop-color:#89ecb2;stop-opacity:1"/><stop offset=".441" style="stop-color:#88ecb2;stop-opacity:1"/><stop offset=".445" style="stop-color:#88ecb3;stop-opacity:1"/><stop offset=".449" style="stop-color:#87ecb4;stop-opacity:1"/><stop offset=".453" style="stop-color:#87ecb5;stop-opacity:1"/><stop offset=".457" style="stop-color:#86ecb6;stop-opacity:1"/><stop offset=".461" style="stop-color:#86ebb6;stop-opacity:1"/><stop offset=".465" style="stop-color:#86ebb7;stop-opacity:1"/><stop offset=".469" style="stop-color:#85ebb8;stop-opacity:1"/><stop offset=".473" style="stop-color:#85ebb9;stop-opacity:1"/><stop offset=".477" style="stop-color:#84ebba;stop-opacity:1"/><stop offset=".48" style="stop-color:#84ebba;stop-opacity:1"/><stop offset=".484" style="stop-color:#83eabb;stop-opacity:1"/><stop offset=".488" style="stop-color:#83eabc;stop-opacity:1"/><stop offset=".492" style="stop-color:#82eabd;stop-opacity:1"/><stop offset=".496" style="stop-color:#82eabe;stop-opacity:1"/><stop offset=".5" style="stop-color:#81eabe;stop-opacity:1"/><stop offset=".504" style="stop-color:#81eabf;stop-opacity:1"/><stop offset=".508" style="stop-color:#80e9c0;stop-opacity:1"/><stop offset=".512" style="stop-color:#80e9c1;stop-opacity:1"/><stop offset=".516" style="stop-color:#7fe9c2;stop-opacity:1"/><stop offset=".52" style="stop-color:#7fe9c3;stop-opacity:1"/><stop offset=".523" style="stop-color:#7ee9c3;stop-opacity:1"/><stop offset=".527" style="stop-color:#7ee8c4;stop-opacity:1"/><stop offset=".531" style="stop-color:#7de8c5;stop-opacity:1"/><stop offset=".535" style="stop-color:#7de8c6;stop-opacity:1"/><stop offset=".539" style="stop-color:#7ce8c7;stop-opacity:1"/><stop offset=".543" style="stop-color:#7ce8c7;stop-opacity:1"/><stop offset=".547" style="stop-color:#7be8c8;stop-opacity:1"/><stop offset=".551" style="stop-color:#7be7c9;stop-opacity:1"/><stop offset=".555" style="stop-color:#7ae7ca;stop-opacity:1"/><stop offset=".559" style="stop-color:#7ae7cb;stop-opacity:1"/><stop offset=".563" style="stop-color:#79e7cb;stop-opacity:1"/><stop offset=".566" style="stop-color:#79e7cc;stop-opacity:1"/><stop offset=".57" style="stop-color:#78e7cd;stop-opacity:1"/><stop offset=".574" style="stop-color:#78e6ce;stop-opacity:1"/><stop offset=".578" style="stop-color:#77e6cf;stop-opacity:1"/><stop offset=".582" style="stop-color:#77e6cf;stop-opacity:1"/><stop offset=".586" style="stop-color:#76e6d0;stop-opacity:1"/><stop offset=".59" style="stop-color:#76e6d1;stop-opacity:1"/><stop offset=".594" style="stop-color:#75e6d2;stop-opacity:1"/><stop offset=".598" style="stop-color:#75e5d3;stop-opacity:1"/><stop offset=".602" style="stop-color:#74e5d3;stop-opacity:1"/><stop offset=".605" style="stop-color:#74e5d4;stop-opacity:1"/><stop offset=".609" style="stop-color:#73e5d5;stop-opacity:1"/><stop offset=".613" style="stop-color:#73e5d6;stop-opacity:1"/><stop offset=".617" style="stop-color:#72e5d7;stop-opacity:1"/><stop offset=".621" style="stop-color:#72e4d8;stop-opacity:1"/><stop offset=".625" style="stop-color:#71e4d8;stop-opacity:1"/><stop offset=".629" style="stop-color:#71e4d9;stop-opacity:1"/><stop offset=".633" style="stop-color:#70e4da;stop-opacity:1"/><stop offset=".637" style="stop-color:#70e4db;stop-opacity:1"/><stop offset=".641" style="stop-color:#6fe4dc;stop-opacity:1"/><stop offset=".645" style="stop-color:#6fe3dc;stop-opacity:1"/><stop offset=".648" style="stop-color:#6fe3dd;stop-opacity:1"/><stop offset=".656" style="stop-color:#6ee3de;stop-opacity:1"/><stop offset=".688" style="stop-color:#6ee3de;stop-opacity:1"/><stop offset=".75" style="stop-color:#6ee3de;stop-opacity:1"/><stop offset="1" style="stop-color:#6ee3de;stop-opacity:1"/></linearGradient><linearGradient id="i" x1="-.055" x2="1.107" y1="0" y2="0" gradientTransform="rotate(39.004 -91.495 42.647)scale(117.6801 -117.6801)" gradientUnits="userSpaceOnUse"><stop offset="0" style="stop-color:#6fe4df;stop-opacity:1"/><stop offset=".031" style="stop-color:#6fe4df;stop-opacity:1"/><stop offset=".047" style="stop-color:#6fe4df;stop-opacity:1"/><stop offset=".055" style="stop-color:#6fe4df;stop-opacity:1"/><stop offset=".063" style="stop-color:#6ee3de;stop-opacity:1"/><stop offset=".07" style="stop-color:#6de3de;stop-opacity:1"/><stop offset=".078" style="stop-color:#6ce3dd;stop-opacity:1"/><stop offset=".086" style="stop-color:#6be2dc;stop-opacity:1"/><stop offset=".094" style="stop-color:#6ae2dc;stop-opacity:1"/><stop offset=".102" style="stop-color:#6ae1db;stop-opacity:1"/><stop offset=".109" style="stop-color:#69e1db;stop-opacity:1"/><stop offset=".117" style="stop-color:#68e0da;stop-opacity:1"/><stop offset=".125" style="stop-color:#67e0da;stop-opacity:1"/><stop offset=".133" style="stop-color:#66e0d9;stop-opacity:1"/><stop offset=".141" style="stop-color:#65dfd8;stop-opacity:1"/><stop offset=".148" style="stop-color:#64dfd8;stop-opacity:1"/><stop offset=".156" style="stop-color:#64ded7;stop-opacity:1"/><stop offset=".164" style="stop-color:#63ded7;stop-opacity:1"/><stop offset=".172" style="stop-color:#62ddd6;stop-opacity:1"/><stop offset=".18" style="stop-color:#61ddd6;stop-opacity:1"/><stop offset=".188" style="stop-color:#60ddd5;stop-opacity:1"/><stop offset=".195" style="stop-color:#5fdcd4;stop-opacity:1"/><stop offset=".203" style="stop-color:#5fdcd4;stop-opacity:1"/><stop offset=".211" style="stop-color:#5edbd3;stop-opacity:1"/><stop offset=".219" style="stop-color:#5ddbd3;stop-opacity:1"/><stop offset=".227" style="stop-color:#5cdad2;stop-opacity:1"/><stop offset=".234" style="stop-color:#5bdad2;stop-opacity:1"/><stop offset=".242" style="stop-color:#5adad1;stop-opacity:1"/><stop offset=".25" style="stop-color:#59d9d0;stop-opacity:1"/><stop offset=".258" style="stop-color:#59d9d0;stop-opacity:1"/><stop offset=".266" style="stop-color:#58d8cf;stop-opacity:1"/><stop offset=".273" style="stop-color:#57d8cf;stop-opacity:1"/><stop offset=".281" style="stop-color:#56d7ce;stop-opacity:1"/><stop offset=".289" style="stop-color:#55d7ce;stop-opacity:1"/><stop offset=".297" style="stop-color:#54d7cd;stop-opacity:1"/><stop offset=".305" style="stop-color:#54d6cc;stop-opacity:1"/><stop offset=".313" style="stop-color:#53d6cc;stop-opacity:1"/><stop offset=".32" style="stop-color:#52d5cb;stop-opacity:1"/><stop offset=".328" style="stop-color:#51d5cb;stop-opacity:1"/><stop offset=".336" style="stop-color:#50d4ca;stop-opacity:1"/><stop offset=".344" style="stop-color:#4fd4ca;stop-opacity:1"/><stop offset=".352" style="stop-color:#4fd4c9;stop-opacity:1"/><stop offset=".359" style="stop-color:#4ed3c8;stop-opacity:1"/><stop offset=".367" style="stop-color:#4dd3c8;stop-opacity:1"/><stop offset=".375" style="stop-color:#4cd2c7;stop-opacity:1"/><stop offset=".383" style="stop-color:#4bd2c7;stop-opacity:1"/><stop offset=".391" style="stop-color:#4ad1c6;stop-opacity:1"/><stop offset=".398" style="stop-color:#49d1c6;stop-opacity:1"/><stop offset=".406" style="stop-color:#49d1c5;stop-opacity:1"/><stop offset=".414" style="stop-color:#48d0c4;stop-opacity:1"/><stop offset=".422" style="stop-color:#47d0c4;stop-opacity:1"/><stop offset=".43" style="stop-color:#46cfc3;stop-opacity:1"/><stop offset=".438" style="stop-color:#45cfc3;stop-opacity:1"/><stop offset=".445" style="stop-color:#44cec2;stop-opacity:1"/><stop offset=".453" style="stop-color:#44cec2;stop-opacity:1"/><stop offset=".461" style="stop-color:#43cec1;stop-opacity:1"/><stop offset=".469" style="stop-color:#42cdc0;stop-opacity:1"/><stop offset=".477" style="stop-color:#41cdc0;stop-opacity:1"/><stop offset=".484" style="stop-color:#40ccbf;stop-opacity:1"/><stop offset=".492" style="stop-color:#3fccbf;stop-opacity:1"/><stop offset=".5" style="stop-color:#3ecbbe;stop-opacity:1"/><stop offset=".508" style="stop-color:#3ecbbe;stop-opacity:1"/><stop offset=".516" style="stop-color:#3dcbbd;stop-opacity:1"/><stop offset=".523" style="stop-color:#3ccabc;stop-opacity:1"/><stop offset=".531" style="stop-color:#3bcabc;stop-opacity:1"/><stop offset=".539" style="stop-color:#3ac9bb;stop-opacity:1"/><stop offset=".547" style="stop-color:#39c9bb;stop-opacity:1"/><stop offset=".555" style="stop-color:#39c8ba;stop-opacity:1"/><stop offset=".563" style="stop-color:#38c8ba;stop-opacity:1"/><stop offset=".57" style="stop-color:#37c8b9;stop-opacity:1"/><stop offset=".578" style="stop-color:#36c7b8;stop-opacity:1"/><stop offset=".586" style="stop-color:#35c7b8;stop-opacity:1"/><stop offset=".594" style="stop-color:#34c6b7;stop-opacity:1"/><stop offset=".602" style="stop-color:#33c6b7;stop-opacity:1"/><stop offset=".609" style="stop-color:#33c6b6;stop-opacity:1"/><stop offset=".617" style="stop-color:#32c5b6;stop-opacity:1"/><stop offset=".625" style="stop-color:#31c5b5;stop-opacity:1"/><stop offset=".633" style="stop-color:#30c4b4;stop-opacity:1"/><stop offset=".641" style="stop-color:#2fc4b4;stop-opacity:1"/><stop offset=".648" style="stop-color:#2ec3b3;stop-opacity:1"/><stop offset=".656" style="stop-color:#2ec3b3;stop-opacity:1"/><stop offset=".664" style="stop-color:#2dc3b2;stop-opacity:1"/><stop offset=".672" style="stop-color:#2cc2b2;stop-opacity:1"/><stop offset=".68" style="stop-color:#2bc2b1;stop-opacity:1"/><stop offset=".688" style="stop-color:#2ac1b0;stop-opacity:1"/><stop offset=".695" style="stop-color:#29c1b0;stop-opacity:1"/><stop offset=".703" style="stop-color:#29c0af;stop-opacity:1"/><stop offset=".711" style="stop-color:#28c0af;stop-opacity:1"/><stop offset=".719" style="stop-color:#27c0ae;stop-opacity:1"/><stop offset=".727" style="stop-color:#26bfae;stop-opacity:1"/><stop offset=".734" style="stop-color:#25bfad;stop-opacity:1"/><stop offset=".742" style="stop-color:#24beac;stop-opacity:1"/><stop offset=".75" style="stop-color:#23beac;stop-opacity:1"/><stop offset=".758" style="stop-color:#23bdab;stop-opacity:1"/><stop offset=".766" style="stop-color:#22bdab;stop-opacity:1"/><stop offset=".773" style="stop-color:#21bdaa;stop-opacity:1"/><stop offset=".781" style="stop-color:#20bcaa;stop-opacity:1"/><stop offset=".789" style="stop-color:#1fbca9;stop-opacity:1"/><stop offset=".797" style="stop-color:#1ebba8;stop-opacity:1"/><stop offset=".805" style="stop-color:#1ebba8;stop-opacity:1"/><stop offset=".813" style="stop-color:#1dbaa7;stop-opacity:1"/><stop offset=".82" style="stop-color:#1cbaa7;stop-opacity:1"/><stop offset=".828" style="stop-color:#1bbaa6;stop-opacity:1"/><stop offset=".836" style="stop-color:#1ab9a6;stop-opacity:1"/><stop offset=".844" style="stop-color:#19b9a5;stop-opacity:1"/><stop offset=".852" style="stop-color:#18b8a4;stop-opacity:1"/><stop offset=".859" style="stop-color:#18b8a4;stop-opacity:1"/><stop offset=".867" style="stop-color:#17b7a3;stop-opacity:1"/><stop offset=".875" style="stop-color:#16b7a3;stop-opacity:1"/><stop offset=".883" style="stop-color:#15b7a2;stop-opacity:1"/><stop offset=".891" style="stop-color:#14b6a2;stop-opacity:1"/><stop offset=".898" style="stop-color:#13b6a1;stop-opacity:1"/><stop offset=".906" style="stop-color:#13b5a0;stop-opacity:1"/><stop offset=".938" style="stop-color:#12b5a0;stop-opacity:1"/><stop offset="1" style="stop-color:#12b5a0;stop-opacity:1"/></linearGradient><linearGradient id="l" x1="-.018" x2="1.074" y1="0" y2="0" gradientTransform="rotate(221.143 98.684 29.502)scale(-114.73415 114.73415)" gradientUnits="userSpaceOnUse"><stop offset="0" style="stop-color:#11b5a0;stop-opacity:1"/><stop offset=".016" style="stop-color:#11b5a0;stop-opacity:1"/><stop offset=".02" style="stop-color:#12b5a0;stop-opacity:1"/><stop offset=".023" style="stop-color:#12b5a0;stop-opacity:1"/><stop offset=".027" style="stop-color:#13b6a0;stop-opacity:1"/><stop offset=".031" style="stop-color:#13b6a0;stop-opacity:1"/><stop offset=".035" style="stop-color:#14b6a0;stop-opacity:1"/><stop offset=".039" style="stop-color:#14b7a0;stop-opacity:1"/><stop offset=".043" style="stop-color:#15b7a0;stop-opacity:1"/><stop offset=".047" style="stop-color:#15b7a0;stop-opacity:1"/><stop offset=".051" style="stop-color:#16b7a0;stop-opacity:1"/><stop offset=".055" style="stop-color:#17b8a0;stop-opacity:1"/><stop offset=".059" style="stop-color:#17b8a0;stop-opacity:1"/><stop offset=".063" style="stop-color:#18b8a0;stop-opacity:1"/><stop offset=".066" style="stop-color:#18b8a0;stop-opacity:1"/><stop offset=".07" style="stop-color:#19b9a0;stop-opacity:1"/><stop offset=".074" style="stop-color:#19b9a0;stop-opacity:1"/><stop offset=".078" style="stop-color:#1ab9a0;stop-opacity:1"/><stop offset=".082" style="stop-color:#1bb9a0;stop-opacity:1"/><stop offset=".086" style="stop-color:#1bbaa0;stop-opacity:1"/><stop offset=".09" style="stop-color:#1cbaa0;stop-opacity:1"/><stop offset=".094" style="stop-color:#1cbaa0;stop-opacity:1"/><stop offset=".098" style="stop-color:#1dbaa0;stop-opacity:1"/><stop offset=".102" style="stop-color:#1dbba0;stop-opacity:1"/><stop offset=".105" style="stop-color:#1ebba0;stop-opacity:1"/><stop offset=".109" style="stop-color:#1fbba0;stop-opacity:1"/><stop offset=".113" style="stop-color:#1fbba0;stop-opacity:1"/><stop offset=".117" style="stop-color:#20bca0;stop-opacity:1"/><stop offset=".121" style="stop-color:#20bca0;stop-opacity:1"/><stop offset=".125" style="stop-color:#21bca0;stop-opacity:1"/><stop offset=".129" style="stop-color:#21bca0;stop-opacity:1"/><stop offset=".133" style="stop-color:#22bd9f;stop-opacity:1"/><stop offset=".137" style="stop-color:#23bd9f;stop-opacity:1"/><stop offset=".141" style="stop-color:#23bd9f;stop-opacity:1"/><stop offset=".145" style="stop-color:#24bd9f;stop-opacity:1"/><stop offset=".148" style="stop-color:#24be9f;stop-opacity:1"/><stop offset=".152" style="stop-color:#25be9f;stop-opacity:1"/><stop offset=".156" style="stop-color:#25be9f;stop-opacity:1"/><stop offset=".16" style="stop-color:#26be9f;stop-opacity:1"/><stop offset=".164" style="stop-color:#26bf9f;stop-opacity:1"/><stop offset=".168" style="stop-color:#27bf9f;stop-opacity:1"/><stop offset=".172" style="stop-color:#28bf9f;stop-opacity:1"/><stop offset=".176" style="stop-color:#28bf9f;stop-opacity:1"/><stop offset=".18" style="stop-color:#29c09f;stop-opacity:1"/><stop offset=".184" style="stop-color:#29c09f;stop-opacity:1"/><stop offset=".188" style="stop-color:#2ac09f;stop-opacity:1"/><stop offset=".191" style="stop-color:#2ac09f;stop-opacity:1"/><stop offset=".195" style="stop-color:#2bc19f;stop-opacity:1"/><stop offset=".199" style="stop-color:#2cc19f;stop-opacity:1"/><stop offset=".203" style="stop-color:#2cc19f;stop-opacity:1"/><stop offset=".207" style="stop-color:#2dc29f;stop-opacity:1"/><stop offset=".211" style="stop-color:#2dc29f;stop-opacity:1"/><stop offset=".215" style="stop-color:#2ec29f;stop-opacity:1"/><stop offset=".219" style="stop-color:#2ec29f;stop-opacity:1"/><stop offset=".223" style="stop-color:#2fc39f;stop-opacity:1"/><stop offset=".227" style="stop-color:#30c39f;stop-opacity:1"/><stop offset=".23" style="stop-color:#30c39f;stop-opacity:1"/><stop offset=".234" style="stop-color:#31c39f;stop-opacity:1"/><stop offset=".238" style="stop-color:#31c49f;stop-opacity:1"/><stop offset=".242" style="stop-color:#32c49f;stop-opacity:1"/><stop offset=".246" style="stop-color:#32c49f;stop-opacity:1"/><stop offset=".25" style="stop-color:#33c49f;stop-opacity:1"/><stop offset=".254" style="stop-color:#34c59f;stop-opacity:1"/><stop offset=".258" style="stop-color:#34c59f;stop-opacity:1"/><stop offset=".262" style="stop-color:#35c59f;stop-opacity:1"/><stop offset=".266" style="stop-color:#35c59f;stop-opacity:1"/><stop offset=".27" style="stop-color:#36c69f;stop-opacity:1"/><stop offset=".273" style="stop-color:#36c69f;stop-opacity:1"/><stop offset=".277" style="stop-color:#37c69f;stop-opacity:1"/><stop offset=".281" style="stop-color:#38c69f;stop-opacity:1"/><stop offset=".285" style="stop-color:#38c79f;stop-opacity:1"/><stop offset=".289" style="stop-color:#39c79f;stop-opacity:1"/><stop offset=".293" style="stop-color:#39c79f;stop-opacity:1"/><stop offset=".297" style="stop-color:#3ac79f;stop-opacity:1"/><stop offset=".301" style="stop-color:#3ac89f;stop-opacity:1"/><stop offset=".305" style="stop-color:#3bc89f;stop-opacity:1"/><stop offset=".309" style="stop-color:#3bc89f;stop-opacity:1"/><stop offset=".313" style="stop-color:#3cc89f;stop-opacity:1"/><stop offset=".316" style="stop-color:#3dc99f;stop-opacity:1"/><stop offset=".32" style="stop-color:#3dc99f;stop-opacity:1"/><stop offset=".324" style="stop-color:#3ec99f;stop-opacity:1"/><stop offset=".328" style="stop-color:#3ec99f;stop-opacity:1"/><stop offset=".332" style="stop-color:#3fca9f;stop-opacity:1"/><stop offset=".336" style="stop-color:#3fca9f;stop-opacity:1"/><stop offset=".34" style="stop-color:#40ca9f;stop-opacity:1"/><stop offset=".344" style="stop-color:#41ca9f;stop-opacity:1"/><stop offset=".348" style="stop-color:#41cb9f;stop-opacity:1"/><stop offset=".352" style="stop-color:#42cb9f;stop-opacity:1"/><stop offset=".355" style="stop-color:#42cb9f;stop-opacity:1"/><stop offset=".359" style="stop-color:#43cb9e;stop-opacity:1"/><stop offset=".363" style="stop-color:#43cc9e;stop-opacity:1"/><stop offset=".367" style="stop-color:#44cc9e;stop-opacity:1"/><stop offset=".371" style="stop-color:#45cc9e;stop-opacity:1"/><stop offset=".375" style="stop-color:#45cd9e;stop-opacity:1"/><stop offset=".379" style="stop-color:#46cd9e;stop-opacity:1"/><stop offset=".383" style="stop-color:#46cd9e;stop-opacity:1"/><stop offset=".387" style="stop-color:#47cd9e;stop-opacity:1"/><stop offset=".391" style="stop-color:#47ce9e;stop-opacity:1"/><stop offset=".395" style="stop-color:#48ce9e;stop-opacity:1"/><stop offset=".398" style="stop-color:#49ce9e;stop-opacity:1"/><stop offset=".402" style="stop-color:#49ce9e;stop-opacity:1"/><stop offset=".406" style="stop-color:#4acf9e;stop-opacity:1"/><stop offset=".41" style="stop-color:#4acf9e;stop-opacity:1"/><stop offset=".414" style="stop-color:#4bcf9e;stop-opacity:1"/><stop offset=".418" style="stop-color:#4bcf9e;stop-opacity:1"/><stop offset=".422" style="stop-color:#4cd09e;stop-opacity:1"/><stop offset=".426" style="stop-color:#4cd09e;stop-opacity:1"/><stop offset=".43" style="stop-color:#4dd09e;stop-opacity:1"/><stop offset=".434" style="stop-color:#4ed09e;stop-opacity:1"/><stop offset=".438" style="stop-color:#4ed19e;stop-opacity:1"/><stop offset=".441" style="stop-color:#4fd19e;stop-opacity:1"/><stop offset=".445" style="stop-color:#4fd19e;stop-opacity:1"/><stop offset=".449" style="stop-color:#50d19e;stop-opacity:1"/><stop offset=".453" style="stop-color:#50d29e;stop-opacity:1"/><stop offset=".457" style="stop-color:#51d29e;stop-opacity:1"/><stop offset=".461" style="stop-color:#52d29e;stop-opacity:1"/><stop offset=".465" style="stop-color:#52d29e;stop-opacity:1"/><stop offset=".469" style="stop-color:#53d39e;stop-opacity:1"/><stop offset=".473" style="stop-color:#53d39e;stop-opacity:1"/><stop offset=".477" style="stop-color:#54d39e;stop-opacity:1"/><stop offset=".48" style="stop-color:#54d39e;stop-opacity:1"/><stop offset=".484" style="stop-color:#55d49e;stop-opacity:1"/><stop offset=".488" style="stop-color:#56d49e;stop-opacity:1"/><stop offset=".492" style="stop-color:#56d49e;stop-opacity:1"/><stop offset=".496" style="stop-color:#57d49e;stop-opacity:1"/><stop offset=".5" style="stop-color:#57d59e;stop-opacity:1"/><stop offset=".504" style="stop-color:#58d59e;stop-opacity:1"/><stop offset=".508" style="stop-color:#58d59e;stop-opacity:1"/><stop offset=".512" style="stop-color:#59d59e;stop-opacity:1"/><stop offset=".516" style="stop-color:#5ad69e;stop-opacity:1"/><stop offset=".52" style="stop-color:#5ad69e;stop-opacity:1"/><stop offset=".523" style="stop-color:#5bd69e;stop-opacity:1"/><stop offset=".527" style="stop-color:#5bd69e;stop-opacity:1"/><stop offset=".531" style="stop-color:#5cd79e;stop-opacity:1"/><stop offset=".535" style="stop-color:#5cd79e;stop-opacity:1"/><stop offset=".539" style="stop-color:#5dd79e;stop-opacity:1"/><stop offset=".543" style="stop-color:#5ed89e;stop-opacity:1"/><stop offset=".547" style="stop-color:#5ed89e;stop-opacity:1"/><stop offset=".551" style="stop-color:#5fd89e;stop-opacity:1"/><stop offset=".555" style="stop-color:#5fd89e;stop-opacity:1"/><stop offset=".559" style="stop-color:#60d99e;stop-opacity:1"/><stop offset=".563" style="stop-color:#60d99e;stop-opacity:1"/><stop offset=".566" style="stop-color:#61d99e;stop-opacity:1"/><stop offset=".57" style="stop-color:#61d99e;stop-opacity:1"/><stop offset=".574" style="stop-color:#62da9e;stop-opacity:1"/><stop offset=".578" style="stop-color:#63da9e;stop-opacity:1"/><stop offset=".582" style="stop-color:#63da9e;stop-opacity:1"/><stop offset=".586" style="stop-color:#64da9e;stop-opacity:1"/><stop offset=".59" style="stop-color:#64db9d;stop-opacity:1"/><stop offset=".594" style="stop-color:#65db9d;stop-opacity:1"/><stop offset=".598" style="stop-color:#65db9d;stop-opacity:1"/><stop offset=".602" style="stop-color:#66db9d;stop-opacity:1"/><stop offset=".605" style="stop-color:#67dc9d;stop-opacity:1"/><stop offset=".609" style="stop-color:#67dc9d;stop-opacity:1"/><stop offset=".613" style="stop-color:#68dc9d;stop-opacity:1"/><stop offset=".617" style="stop-color:#68dc9d;stop-opacity:1"/><stop offset=".621" style="stop-color:#69dd9d;stop-opacity:1"/><stop offset=".625" style="stop-color:#69dd9d;stop-opacity:1"/><stop offset=".629" style="stop-color:#6add9d;stop-opacity:1"/><stop offset=".633" style="stop-color:#6bdd9d;stop-opacity:1"/><stop offset=".637" style="stop-color:#6bde9d;stop-opacity:1"/><stop offset=".641" style="stop-color:#6cde9d;stop-opacity:1"/><stop offset=".645" style="stop-color:#6cde9d;stop-opacity:1"/><stop offset=".648" style="stop-color:#6dde9d;stop-opacity:1"/><stop offset=".652" style="stop-color:#6ddf9d;stop-opacity:1"/><stop offset=".656" style="stop-color:#6edf9d;stop-opacity:1"/><stop offset=".66" style="stop-color:#6fdf9d;stop-opacity:1"/><stop offset=".664" style="stop-color:#6fdf9d;stop-opacity:1"/><stop offset=".668" style="stop-color:#70e09d;stop-opacity:1"/><stop offset=".672" style="stop-color:#70e09d;stop-opacity:1"/><stop offset=".676" style="stop-color:#71e09d;stop-opacity:1"/><stop offset=".68" style="stop-color:#71e09d;stop-opacity:1"/><stop offset=".684" style="stop-color:#72e19d;stop-opacity:1"/><stop offset=".688" style="stop-color:#73e19d;stop-opacity:1"/><stop offset=".691" style="stop-color:#73e19d;stop-opacity:1"/><stop offset=".695" style="stop-color:#74e19d;stop-opacity:1"/><stop offset=".699" style="stop-color:#74e29d;stop-opacity:1"/><stop offset=".703" style="stop-color:#75e29d;stop-opacity:1"/><stop offset=".707" style="stop-color:#75e29d;stop-opacity:1"/><stop offset=".711" style="stop-color:#76e39d;stop-opacity:1"/><stop offset=".715" style="stop-color:#76e39d;stop-opacity:1"/><stop offset=".719" style="stop-color:#77e39d;stop-opacity:1"/><stop offset=".723" style="stop-color:#78e39d;stop-opacity:1"/><stop offset=".727" style="stop-color:#78e49d;stop-opacity:1"/><stop offset=".73" style="stop-color:#79e49d;stop-opacity:1"/><stop offset=".734" style="stop-color:#79e49d;stop-opacity:1"/><stop offset=".738" style="stop-color:#7ae49d;stop-opacity:1"/><stop offset=".742" style="stop-color:#7ae59d;stop-opacity:1"/><stop offset=".746" style="stop-color:#7be59d;stop-opacity:1"/><stop offset=".75" style="stop-color:#7ce59d;stop-opacity:1"/><stop offset=".754" style="stop-color:#7ce59d;stop-opacity:1"/><stop offset=".758" style="stop-color:#7de69d;stop-opacity:1"/><stop offset=".762" style="stop-color:#7de69d;stop-opacity:1"/><stop offset=".766" style="stop-color:#7ee69d;stop-opacity:1"/><stop offset=".77" style="stop-color:#7ee69d;stop-opacity:1"/><stop offset=".773" style="stop-color:#7fe79d;stop-opacity:1"/><stop offset=".777" style="stop-color:#80e79d;stop-opacity:1"/><stop offset=".781" style="stop-color:#80e79d;stop-opacity:1"/><stop offset=".785" style="stop-color:#81e79d;stop-opacity:1"/><stop offset=".789" style="stop-color:#81e89d;stop-opacity:1"/><stop offset=".793" style="stop-color:#82e89d;stop-opacity:1"/><stop offset=".797" style="stop-color:#82e89d;stop-opacity:1"/><stop offset=".801" style="stop-color:#83e89d;stop-opacity:1"/><stop offset=".805" style="stop-color:#84e99d;stop-opacity:1"/><stop offset=".809" style="stop-color:#84e99d;stop-opacity:1"/><stop offset=".813" style="stop-color:#85e99d;stop-opacity:1"/><stop offset=".816" style="stop-color:#85e99c;stop-opacity:1"/><stop offset=".82" style="stop-color:#86ea9c;stop-opacity:1"/><stop offset=".824" style="stop-color:#86ea9c;stop-opacity:1"/><stop offset=".828" style="stop-color:#87ea9c;stop-opacity:1"/><stop offset=".832" style="stop-color:#87ea9c;stop-opacity:1"/><stop offset=".836" style="stop-color:#88eb9c;stop-opacity:1"/><stop offset=".84" style="stop-color:#89eb9c;stop-opacity:1"/><stop offset=".844" style="stop-color:#89eb9c;stop-opacity:1"/><stop offset=".848" style="stop-color:#8aeb9c;stop-opacity:1"/><stop offset=".852" style="stop-color:#8aec9c;stop-opacity:1"/><stop offset=".855" style="stop-color:#8bec9c;stop-opacity:1"/><stop offset=".859" style="stop-color:#8bec9c;stop-opacity:1"/><stop offset=".863" style="stop-color:#8cec9c;stop-opacity:1"/><stop offset=".867" style="stop-color:#8ded9c;stop-opacity:1"/><stop offset=".871" style="stop-color:#8ded9c;stop-opacity:1"/><stop offset=".875" style="stop-color:#8eed9c;stop-opacity:1"/><stop offset=".879" style="stop-color:#8eee9c;stop-opacity:1"/><stop offset=".883" style="stop-color:#8fee9c;stop-opacity:1"/><stop offset=".887" style="stop-color:#8fee9c;stop-opacity:1"/><stop offset=".891" style="stop-color:#90ee9c;stop-opacity:1"/><stop offset=".895" style="stop-color:#91ef9c;stop-opacity:1"/><stop offset=".898" style="stop-color:#91ef9c;stop-opacity:1"/><stop offset=".902" style="stop-color:#92ef9c;stop-opacity:1"/><stop offset=".906" style="stop-color:#92ef9c;stop-opacity:1"/><stop offset=".91" style="stop-color:#93f09c;stop-opacity:1"/><stop offset=".914" style="stop-color:#93f09c;stop-opacity:1"/><stop offset=".918" style="stop-color:#94f09c;stop-opacity:1"/><stop offset=".922" style="stop-color:#95f09c;stop-opacity:1"/><stop offset=".926" style="stop-color:#95f19c;stop-opacity:1"/><stop offset=".93" style="stop-color:#96f19c;stop-opacity:1"/><stop offset=".938" style="stop-color:#96f19c;stop-opacity:1"/><stop offset="1" style="stop-color:#96f19c;stop-opacity:1"/></linearGradient></defs><g clip-path="url(#a)"><g clip-path="url(#b)"><path d="m158.723 382.578-277.407-218.273L98.543-111.773 375.949 106.5Zm0 0" style="stroke:none;fill-rule:nonzero;fill:url(#c)"/></g></g><g clip-path="url(#d)"><g clip-path="url(#e)"><path d="M184.406-90.098 347.148 191.77 66.23 353.957-96.508 72.09Zm0 0" style="stroke:none;fill-rule:nonzero;fill:url(#f)"/></g></g><g clip-path="url(#g)"><g clip-path="url(#h)"><path d="M-44.184 119.375 40.97 14.235l106.265 86.062-85.152 105.14Zm0 0" style="stroke:none;fill-rule:nonzero;fill:url(#i)"/></g></g><g clip-path="url(#j)"><g clip-path="url(#k)"><path d="m111.117 162.195 80.653-92.312 94.343 82.426-80.652 92.316Zm0 0" style="stroke:none;fill-rule:nonzero;fill:url(#l)"/></g></g><path d="M925.895 130.648q.001-11.454 4.015-21.492 4.13-10.154 11.332-17.594 7.207-7.553 17.004-11.925 9.803-4.366 21.254-4.367 11.457.001 21.137 4.367c6.535 2.836 12.16 6.77 16.886 11.808q7.202 7.441 11.215 17.594 4.015 10.035 4.016 21.488v50.895c0 2.281-.75 4.172-2.242 5.664q-2.128 2.126-5.551 2.125-3.306.001-5.668-2.125c-1.496-1.492-2.242-3.383-2.242-5.664v-50.3q0-8.269-2.836-15.47c-1.813-4.882-4.406-9.132-7.793-12.754q-4.958-5.43-11.926-8.5-6.847-3.187-14.996-3.187-8.146 0-15.113 3.066-6.849 3.071-11.926 8.387c-3.383 3.54-6.02 7.754-7.91 12.633q-2.831 7.2-2.832 15.469v50.656c0 2.281-.711 4.172-2.13 5.664-1.413 1.418-3.265 2.125-5.546 2.125q-3.192.001-5.668-2.125c-1.656-1.492-2.48-3.383-2.48-5.664Zm-129.415 2.477c0-8.027 1.5-15.543 4.489-22.55 3.07-7.087 7.203-13.223 12.398-18.423 5.274-5.195 11.375-9.285 18.305-12.28q10.508-4.601 22.433-4.602 12.043.001 22.551 4.601c7.008 2.996 13.106 7.125 18.305 12.402q7.788 7.789 12.277 18.301t4.489 22.551q0 11.929-4.489 22.434-4.49 10.395-12.277 18.187c-5.2 5.195-11.297 9.328-18.305 12.399q-10.508 4.486-22.55 4.484c-7.95 0-15.43-1.492-22.434-4.484q-10.394-4.606-18.305-12.399-7.793-7.793-12.398-18.187c-2.989-7.004-4.489-14.48-4.489-22.434m15.707 0q0 8.506 3.305 16.18 3.306 7.554 8.973 13.34c3.777 3.777 8.191 6.77 13.226 8.972q7.678 3.31 16.414 3.309 8.853 0 16.528-3.309 7.677-3.305 13.226-8.972 5.667-5.786 8.856-13.34c2.207-5.118 3.305-10.508 3.305-16.18 0-5.746-1.098-11.176-3.305-16.293-2.125-5.117-5.078-9.562-8.856-13.344q-5.55-5.667-13.226-8.972-7.674-3.305-16.528-3.305-8.736 0-16.414 3.305c-5.035 2.203-9.449 5.195-13.226 8.972-3.778 3.782-6.77 8.227-8.973 13.344q-3.304 7.675-3.304 16.293m-49.004-49.824c0-2.285.789-4.172 2.363-5.672q2.362-2.36 5.668-2.36 3.423 0 5.55 2.36c1.493 1.5 2.243 3.387 2.243 5.672v98.59q-.002 3.31-2.363 5.672-2.241 2.24-5.43 2.242-3.306-.002-5.668-2.243-2.362-2.36-2.363-5.671Zm-1.414-33.535q.001-4.016 2.714-6.73 2.718-2.718 6.73-2.716 4.017-.002 6.731 2.715 2.831 2.715 2.832 6.73 0 3.896-2.832 6.731-2.714 2.714-6.73 2.715-4.013 0-6.73-2.715-2.715-2.835-2.715-6.73m-82.067 85.722q.002-12.398 4.727-23.261 4.722-10.98 12.867-19.13 8.15-8.26 19.012-12.988 10.863-4.84 23.144-4.84h.942q3.78 0 5.906 2.243 2.243 2.244 2.242 5.668.001 3.426-2.36 5.668-2.36 2.126-5.788 2.125h-.942q-8.976 0-17.004 3.543c-5.273 2.28-9.918 5.433-13.933 9.445q-6.022 6.023-9.567 14.168-3.542 8.149-3.543 17.36V181.3c0 2.285-.742 4.172-2.242 5.668q-2.123 2.243-5.312 2.242-3.306.001-5.786-2.242-2.362-2.242-2.363-5.668Zm-31.64-8.504q-.95-7.786-4.489-14.406c-2.363-4.484-5.39-8.344-9.094-11.57q-5.548-4.959-12.75-7.79-7.084-2.835-15.23-2.835-8.15 0-15.352 2.949-7.083 2.834-12.515 7.797-5.432 4.958-8.856 11.691c-2.285 4.407-3.699 9.13-4.254 14.164ZM566 140.211c.629 4.96 2.082 9.601 4.367 13.934a42.8 42.8 0 0 0 8.973 11.218c3.62 3.149 7.715 5.625 12.281 7.438q6.967 2.713 14.64 2.715 3.546 0 6.259-.235 2.834-.352 5.195-.945a30.6 30.6 0 0 0 4.722-1.774 58 58 0 0 0 4.844-2.476q1.298-.826 2.477-1.063 1.301-.356 2.363-.355 3.303 0 5.434 2.598 2.24 2.596 2.242 5.668-.001 1.772-.945 3.543-.828 1.647-2.832 2.832a67 67 0 0 1-6.262 3.187 41 41 0 0 1-6.61 2.363q-3.544.827-7.675 1.301c-2.758.313-5.825.469-9.211.469-7.95 0-15.43-1.492-22.434-4.484q-10.512-4.606-18.422-12.399c-5.195-5.195-9.324-11.297-12.398-18.305-2.988-7.004-4.488-14.48-4.488-22.433 0-7.95 1.5-15.426 4.488-22.434 3.074-7.008 7.203-13.11 12.398-18.3 5.274-5.278 11.414-9.407 18.422-12.403 7.004-3.066 14.485-4.601 22.434-4.601 7.87 0 15.312 1.535 22.316 4.601 7.008 2.996 13.106 7.086 18.305 12.281 5.27 5.2 9.441 11.297 12.515 18.305q4.6 10.388 4.723 22.2c0 2.12-.71 3.933-2.125 5.429q-2.129 2.126-5.55 2.125Zm-127.527-7.086q.002 8.506 3.308 16.18 3.306 7.554 8.973 13.34 5.666 5.667 13.344 8.972c5.117 2.207 10.59 3.309 16.41 3.309q8.86 0 16.414-3.309c5.117-2.203 9.562-5.195 13.344-8.972q5.669-5.786 8.855-13.34c2.203-5.118 3.309-10.508 3.309-16.18 0-5.746-1.106-11.176-3.309-16.293-2.125-5.117-5.074-9.562-8.855-13.344-3.782-3.777-8.227-6.77-13.344-8.972q-7.554-3.305-16.414-3.305c-5.82 0-11.293 1.102-16.41 3.305q-7.678 3.306-13.344 8.972c-3.777 3.782-6.77 8.227-8.973 13.344q-3.306 7.675-3.308 16.293m-15.703 0q0-12.04 4.488-22.55c3.07-7.087 7.203-13.223 12.398-18.423 5.274-5.195 11.414-9.285 18.418-12.28q10.511-4.601 22.434-4.602 11.928.001 22.437 4.601c7.004 2.996 13.106 7.086 18.301 12.281 5.195 5.2 9.29 11.336 12.281 18.422 2.993 7.008 4.485 14.524 4.485 22.551 0 7.953-1.492 15.43-4.485 22.434q-4.488 10.395-12.28 18.187-7.795 7.792-18.302 12.399-10.509 4.486-22.437 4.484c-8.344 0-16.133-1.613-23.38-4.84q-10.74-4.844-18.655-13.344v49.594q0 3.423-2.121 5.785-2.128 2.362-5.551 2.363-3.306-.001-5.668-2.363t-2.363-5.785Zm-70.489 9.684-43.101 44.043c-1.575 1.652-3.54 2.48-5.903 2.48a7.6 7.6 0 0 1-2.949-.59 9.1 9.1 0 0 1-2.601-1.656 10.3 10.3 0 0 1-1.77-2.36 7.6 7.6 0 0 1-.59-2.953q0-1.652.707-3.07c.473-.945 1.106-1.848 1.89-2.715l43.333-44.398-42.152-42.977q-2.361-2.362-2.36-5.433-.001-1.536.59-2.953c.473-1.024 1.063-1.887 1.77-2.598q1.182-1.177 2.597-1.77a6.5 6.5 0 0 1 2.953-.707q3.306 0 5.785 2.477l41.801 42.746 41.68-42.625c1.652-1.656 3.621-2.48 5.906-2.48 2.043 0 3.856.785 5.43 2.359q2.36 2.363 2.36 5.433.002 3.072-2.481 5.786l-41.914 42.742 43.215 44.164c1.574 1.574 2.363 3.504 2.363 5.781q0 3.312-2.485 5.55-2.36 2.127-5.308 2.126-3.309.001-5.434-2.242Zm0 0" style="stroke:none;fill-rule:nonzero;fill:#000;fill-opacity:1"/></svg>