<svg width="16" height="16" viewBox="0 0 16 16" fill="none" xmlns="http://www.w3.org/2000/svg">
<path d="M15.4984 8.00047C15.4984 8.29638 15.434 8.58872 15.3096 8.85724C15.1853 9.12575 15.004 9.36401 14.7784 9.55548L8.92844 14.5005C8.72555 14.6715 8.46301 14.755 8.19859 14.7325C7.93416 14.71 7.6895 14.5834 7.51844 14.3805C7.34737 14.1776 7.26391 13.915 7.28642 13.6506C7.30892 13.3862 7.43555 13.1415 7.63844 12.9705L12.3134 9.00047H1.52344C1.25822 9.00047 1.00387 8.89512 0.816331 8.70758C0.628794 8.52004 0.523438 8.26569 0.523438 8.00047C0.523438 7.73526 0.628794 7.4809 0.816331 7.29337C1.00387 7.10583 1.25822 7.00047 1.52344 7.00047H12.3134L7.63844 3.04547C7.43356 2.87441 7.30502 2.62896 7.28111 2.36313C7.2572 2.0973 7.33987 1.83285 7.51094 1.62797C7.682 1.42309 7.92745 1.29456 8.19328 1.27065C8.45911 1.24674 8.72356 1.32941 8.92844 1.50047L14.7534 6.43047C14.9856 6.62117 15.1727 6.86078 15.3015 7.13218C15.4303 7.40358 15.4975 7.70007 15.4984 8.00047Z" fill="url(#paint0_linear_1_1135)"/>
<defs>
<linearGradient id="paint0_linear_1_1135" x1="-2.1959" y1="7.85213" x2="16.0697" y2="2.08397" gradientUnits="userSpaceOnUse">
<stop stop-color="white"/>
<stop offset="1" stop-color="#01F28E"/>
</linearGradient>
</defs>
</svg>
