<svg width="24" height="24" viewBox="0 0 24 24" fill="none" xmlns="http://www.w3.org/2000/svg">
<g clip-path="url(#clip0_1_1125)">
<path d="M16.1909 5.78234C16.4362 5.94785 16.6425 6.16474 16.7956 6.41796C16.9487 6.67119 17.0449 6.95469 17.0775 7.24879L17.9058 14.8639C17.9341 15.1277 17.8565 15.3921 17.69 15.5987C17.5235 15.8053 17.2817 15.9373 17.0178 15.9657C16.754 15.9941 16.4896 15.9165 16.283 15.7499C16.0764 15.5834 15.9443 15.3416 15.916 15.0778L15.2389 8.98201L9.20524 17.9273C9.05693 18.1472 8.82735 18.2992 8.56701 18.3498C8.30667 18.4004 8.03688 18.3455 7.81701 18.1972C7.59713 18.0489 7.44518 17.8193 7.39457 17.5589C7.34397 17.2986 7.39886 17.0288 7.54716 16.8089L13.5809 7.86363L7.68779 9.52777C7.4314 9.60197 7.15604 9.57127 6.92228 9.44244C6.68853 9.31362 6.51552 9.0972 6.44133 8.84082C6.36713 8.58443 6.39783 8.30907 6.52665 8.07532C6.65548 7.84156 6.87189 7.66855 7.12828 7.59436L14.4727 5.52204C14.7606 5.43624 15.0639 5.41508 15.3609 5.46008C15.6579 5.50508 15.9414 5.61512 16.1909 5.78234Z" fill="url(#paint0_linear_1_1125)"/>
</g>
<defs>
<linearGradient id="paint0_linear_1_1125" x1="6.17339" y1="20.3687" x2="11.6054" y2="2.00024" gradientUnits="userSpaceOnUse">
<stop stop-color="white"/>
<stop offset="1" stop-color="#01F28E"/>
</linearGradient>
<clipPath id="clip0_1_1125">
<rect width="16" height="16" fill="white" transform="translate(0.890625 14.1592) rotate(-56)"/>
</clipPath>
</defs>
</svg>
