<svg width="22" height="22" viewBox="0 0 22 22" fill="none" xmlns="http://www.w3.org/2000/svg">
<g clip-path="url(#clip0_1_1130)">
<path d="M14.53 17.6218C14.2687 17.7607 13.9803 17.841 13.6849 17.8573C13.3894 17.8736 13.094 17.8254 12.819 17.7161L5.7064 14.8724C5.46011 14.7736 5.26317 14.5809 5.1589 14.3369C5.05463 14.0928 5.05157 13.8174 5.1504 13.5711C5.24923 13.3248 5.44186 13.1279 5.6859 13.0236C5.92994 12.9193 6.2054 12.9163 6.4517 13.0151L12.1518 15.2791L7.08618 5.75206C6.96167 5.51789 6.93528 5.24385 7.01282 4.99022C7.09036 4.73659 7.26548 4.52415 7.49966 4.39964C7.73383 4.27513 8.00787 4.24874 8.2615 4.32629C8.51513 4.40383 8.72756 4.57895 8.85207 4.81312L13.9177 14.3401L15.215 8.35558C15.2698 8.09438 15.4262 7.86566 15.6497 7.71974C15.8732 7.57383 16.1455 7.52268 16.4067 7.57753C16.6679 7.63239 16.8966 7.78876 17.0425 8.01225C17.1884 8.23574 17.2396 8.50804 17.1847 8.76925L15.5665 16.2269C15.5071 16.5214 15.3834 16.7991 15.2042 17.0402C15.025 17.2814 14.7948 17.4799 14.53 17.6218Z" fill="url(#paint0_linear_1_1130)"/>
</g>
<defs>
<linearGradient id="paint0_linear_1_1130" x1="6.35399" y1="1.92896" x2="20.0222" y2="15.3486" gradientUnits="userSpaceOnUse">
<stop stop-color="white"/>
<stop offset="1" stop-color="#01F28E"/>
</linearGradient>
<clipPath id="clip0_1_1130">
<rect width="16" height="16" fill="white" transform="translate(14.3125 0.180664) rotate(62)"/>
</clipPath>
</defs>
</svg>
