<svg width="335" height="429" viewBox="0 0 335 429" fill="none" xmlns="http://www.w3.org/2000/svg">
<path d="M0.5 393.931V17.0413C0.5 13.0105 0.501062 10.0377 0.807496 7.75844C1.112 5.4936 1.70976 3.98862 2.84919 2.84919C3.98862 1.70976 5.4936 1.112 7.75844 0.807496C10.0377 0.501062 13.0105 0.5 17.0413 0.5H226.15C228.574 0.5 230.356 0.500564 231.781 0.641607C233.195 0.781562 234.217 1.05698 235.126 1.58469C236.035 2.11241 236.781 2.86395 237.603 4.0226C238.432 5.19026 239.315 6.73763 240.517 8.84295L249.372 24.3606L249.385 24.3844C250.571 26.4611 251.478 28.0514 252.339 29.2641C253.209 30.4903 254.053 31.3634 255.129 31.988C256.205 32.6126 257.381 32.9133 258.878 33.0614C260.358 33.2079 262.189 33.2079 264.58 33.2079H264.607H317.959C321.99 33.2079 324.962 33.209 327.242 33.5154C329.506 33.8199 331.011 34.4177 332.151 35.5571C333.29 36.6965 333.888 38.2015 334.193 40.4663C334.499 42.7456 334.5 45.7184 334.5 49.7492V393.931C334.5 401.979 334.499 407.964 333.881 412.563C333.264 417.149 332.042 420.282 329.655 422.669C327.268 425.056 324.135 426.278 319.55 426.894C314.95 427.513 308.965 427.514 300.917 427.514H34.0825C26.0351 427.514 20.0498 427.513 15.4503 426.894C10.8651 426.278 7.73207 425.056 5.34482 422.669C2.95757 420.282 1.7359 417.149 1.11945 412.563C0.501062 407.964 0.5 401.979 0.5 393.931Z" fill="white" stroke="#E2E2E2"/>
</svg>
