<svg width="1340" height="748" viewBox="0 0 1340 748" fill="none" xmlns="http://www.w3.org/2000/svg">
<path d="M0 32C0 16.9151 0 9.37258 4.68629 4.68629C9.37258 0 16.9151 0 32 0H1145.83C1151.84 0 1154.84 0 1157.58 1.04115C1160.33 2.0823 1162.57 4.07427 1167.06 8.05821L1201.89 38.9418C1206.38 42.9257 1208.63 44.9177 1211.37 45.9588C1214.11 47 1217.12 47 1223.12 47H1308C1323.08 47 1330.63 47 1335.31 51.6863C1340 56.3726 1340 63.9151 1340 79V716C1340 731.085 1340 738.627 1335.31 743.314C1330.63 748 1323.08 748 1308 748H32C16.9151 748 9.37258 748 4.68629 743.314C0 738.627 0 731.085 0 716V32Z" fill="white"/>
</svg>
