<svg width="437" height="739" viewBox="0 0 437 739" fill="none" xmlns="http://www.w3.org/2000/svg">
<path d="M0 24.4674C0 13.1678 0 7.51792 3.50896 4.00419C7.01791 0.490465 12.6677 0.482788 23.9674 0.467436L358.04 0.0135329C362.954 0.00685602 365.411 0.00351757 367.621 0.917084C369.831 1.83065 371.568 3.56808 375.043 7.04295L392.971 24.9706C396.439 28.4389 398.173 30.1731 400.378 31.0866C402.584 32 405.036 32 409.941 32H413C424.314 32 429.971 32 433.485 35.5147C437 39.0294 437 44.6863 437 56V714.527C437 725.829 437 731.48 433.49 734.994C429.98 738.508 424.329 738.514 413.027 738.527L24.0275 738.973C12.7019 738.985 7.03915 738.992 3.51957 735.476C0 731.961 0 726.298 0 714.973L0 24.4674Z" fill="white"/>
</svg>
