<svg width="355" height="751" viewBox="0 0 355 751" fill="none" xmlns="http://www.w3.org/2000/svg">
<path d="M0 24C0 12.6863 0 7.02944 3.51472 3.51472C7.02944 0 12.6863 0 24 0H276.059C280.964 0 283.416 0 285.622 0.913446C287.827 1.82689 289.561 3.56107 293.029 7.02944L310.971 24.9706C314.439 28.4389 316.173 30.1731 318.378 31.0866C320.584 32 323.036 32 327.941 32H331C342.314 32 347.971 32 351.485 35.5147C355 39.0294 355 44.6863 355 56V727C355 738.314 355 743.971 351.485 747.485C347.971 751 342.314 751 331 751H24C12.6863 751 7.02944 751 3.51472 747.485C0 743.971 0 738.314 0 727V24Z" fill="white"/>
</svg>
