<svg width="335" height="386" viewBox="0 0 335 386" fill="none" xmlns="http://www.w3.org/2000/svg">
<path d="M0.29646 362V24C0.29646 18.3348 0.29709 14.1157 0.733157 10.8723C1.16808 7.63736 2.03125 5.41745 3.72435 3.72435C5.41745 2.03126 7.63736 1.16808 10.8723 0.733167C14.1157 0.297103 18.3348 0.296478 24 0.296483L233.481 0.296681C237.055 0.296685 239.713 0.297047 241.838 0.514967C243.956 0.732193 245.52 1.16372 246.909 2.01184C248.298 2.85996 249.396 4.05414 250.557 5.83938C251.721 7.63032 252.935 9.99459 254.568 13.1735L255.034 14.0824L255.042 14.0978C256.667 17.2619 257.896 19.6558 259.08 21.4769C260.27 23.3067 261.428 24.5795 262.921 25.4902C264.414 26.4008 266.075 26.8476 268.247 27.0682C270.408 27.2878 273.099 27.285 276.656 27.2813L276.673 27.2813L310.975 27.2459C316.646 27.24 320.869 27.2363 324.116 27.6696C327.354 28.1017 329.576 28.9636 331.271 30.6571C332.967 32.3505 333.831 34.5719 334.266 37.8096C334.703 41.0557 334.704 45.2788 334.704 50.9494V362C334.704 367.665 334.703 371.884 334.267 375.128C333.832 378.363 332.969 380.583 331.276 382.276C329.583 383.969 327.363 384.832 324.128 385.267C320.884 385.703 316.665 385.704 311 385.704H24C18.3348 385.704 14.1157 385.703 10.8722 385.267C7.63735 384.832 5.41744 383.969 3.72435 382.276C2.03125 380.583 1.16808 378.363 0.733156 375.128C0.29709 371.884 0.29646 367.665 0.29646 362Z" fill="url(#paint0_linear_630_7998)"/>
<path d="M0.29646 362V24C0.29646 18.3348 0.29709 14.1157 0.733157 10.8723C1.16808 7.63736 2.03125 5.41745 3.72435 3.72435C5.41745 2.03126 7.63736 1.16808 10.8723 0.733167C14.1157 0.297103 18.3348 0.296478 24 0.296483L233.481 0.296681C237.055 0.296685 239.713 0.297047 241.838 0.514967C243.956 0.732193 245.52 1.16372 246.909 2.01184C248.298 2.85996 249.396 4.05414 250.557 5.83938C251.721 7.63032 252.935 9.99459 254.568 13.1735L255.034 14.0824L255.042 14.0978C256.667 17.2619 257.896 19.6558 259.08 21.4769C260.27 23.3067 261.428 24.5795 262.921 25.4902C264.414 26.4008 266.075 26.8476 268.247 27.0682C270.408 27.2878 273.099 27.285 276.656 27.2813L276.673 27.2813L310.975 27.2459C316.646 27.24 320.869 27.2363 324.116 27.6696C327.354 28.1017 329.576 28.9636 331.271 30.6571C332.967 32.3505 333.831 34.5719 334.266 37.8096C334.703 41.0557 334.704 45.2788 334.704 50.9494V362C334.704 367.665 334.703 371.884 334.267 375.128C333.832 378.363 332.969 380.583 331.276 382.276C329.583 383.969 327.363 384.832 324.128 385.267C320.884 385.703 316.665 385.704 311 385.704H24C18.3348 385.704 14.1157 385.703 10.8722 385.267C7.63735 384.832 5.41744 383.969 3.72435 382.276C2.03125 380.583 1.16808 378.363 0.733156 375.128C0.29709 371.884 0.29646 367.665 0.29646 362Z" stroke="url(#paint1_radial_630_7998)" stroke-opacity="0.66" stroke-width="0.59292"/>
<path d="M0.29646 362V24C0.29646 18.3348 0.29709 14.1157 0.733157 10.8723C1.16808 7.63736 2.03125 5.41745 3.72435 3.72435C5.41745 2.03126 7.63736 1.16808 10.8723 0.733167C14.1157 0.297103 18.3348 0.296478 24 0.296483L233.481 0.296681C237.055 0.296685 239.713 0.297047 241.838 0.514967C243.956 0.732193 245.52 1.16372 246.909 2.01184C248.298 2.85996 249.396 4.05414 250.557 5.83938C251.721 7.63032 252.935 9.99459 254.568 13.1735L255.034 14.0824L255.042 14.0978C256.667 17.2619 257.896 19.6558 259.08 21.4769C260.27 23.3067 261.428 24.5795 262.921 25.4902C264.414 26.4008 266.075 26.8476 268.247 27.0682C270.408 27.2878 273.099 27.285 276.656 27.2813L276.673 27.2813L310.975 27.2459C316.646 27.24 320.869 27.2363 324.116 27.6696C327.354 28.1017 329.576 28.9636 331.271 30.6571C332.967 32.3505 333.831 34.5719 334.266 37.8096C334.703 41.0557 334.704 45.2788 334.704 50.9494V362C334.704 367.665 334.703 371.884 334.267 375.128C333.832 378.363 332.969 380.583 331.276 382.276C329.583 383.969 327.363 384.832 324.128 385.267C320.884 385.703 316.665 385.704 311 385.704H24C18.3348 385.704 14.1157 385.703 10.8722 385.267C7.63735 384.832 5.41744 383.969 3.72435 382.276C2.03125 380.583 1.16808 378.363 0.733156 375.128C0.29709 371.884 0.29646 367.665 0.29646 362Z" stroke="url(#paint2_radial_630_7998)" stroke-opacity="0.66" stroke-width="0.59292"/>
<path d="M0.29646 362V24C0.29646 18.3348 0.29709 14.1157 0.733157 10.8723C1.16808 7.63736 2.03125 5.41745 3.72435 3.72435C5.41745 2.03126 7.63736 1.16808 10.8723 0.733167C14.1157 0.297103 18.3348 0.296478 24 0.296483L233.481 0.296681C237.055 0.296685 239.713 0.297047 241.838 0.514967C243.956 0.732193 245.52 1.16372 246.909 2.01184C248.298 2.85996 249.396 4.05414 250.557 5.83938C251.721 7.63032 252.935 9.99459 254.568 13.1735L255.034 14.0824L255.042 14.0978C256.667 17.2619 257.896 19.6558 259.08 21.4769C260.27 23.3067 261.428 24.5795 262.921 25.4902C264.414 26.4008 266.075 26.8476 268.247 27.0682C270.408 27.2878 273.099 27.285 276.656 27.2813L276.673 27.2813L310.975 27.2459C316.646 27.24 320.869 27.2363 324.116 27.6696C327.354 28.1017 329.576 28.9636 331.271 30.6571C332.967 32.3505 333.831 34.5719 334.266 37.8096C334.703 41.0557 334.704 45.2788 334.704 50.9494V362C334.704 367.665 334.703 371.884 334.267 375.128C333.832 378.363 332.969 380.583 331.276 382.276C329.583 383.969 327.363 384.832 324.128 385.267C320.884 385.703 316.665 385.704 311 385.704H24C18.3348 385.704 14.1157 385.703 10.8722 385.267C7.63735 384.832 5.41744 383.969 3.72435 382.276C2.03125 380.583 1.16808 378.363 0.733156 375.128C0.29709 371.884 0.29646 367.665 0.29646 362Z" stroke="url(#paint3_radial_630_7998)" stroke-width="0.59292"/>
<defs>
<linearGradient id="paint0_linear_630_7998" x1="335" y1="386" x2="-94.5846" y2="143.059" gradientUnits="userSpaceOnUse">
<stop stop-color="#111215"/>
<stop offset="1" stop-color="#272B2E"/>
</linearGradient>
<radialGradient id="paint1_radial_630_7998" cx="0" cy="0" r="1" gradientUnits="userSpaceOnUse" gradientTransform="translate(398.792 774.091) rotate(-117.329) scale(966.679 469.877)">
<stop stop-color="white"/>
<stop offset="1" stop-color="white" stop-opacity="0"/>
</radialGradient>
<radialGradient id="paint2_radial_630_7998" cx="0" cy="0" r="1" gradientUnits="userSpaceOnUse" gradientTransform="translate(-63.8462 -252.35) rotate(54.1003) scale(720.644 371.492)">
<stop stop-color="white"/>
<stop offset="1" stop-color="white" stop-opacity="0"/>
</radialGradient>
<radialGradient id="paint3_radial_630_7998" cx="0" cy="0" r="1" gradientUnits="userSpaceOnUse" gradientTransform="translate(163.053 154.058) rotate(134.436) scale(255.253 190.724)">
<stop stop-color="white"/>
<stop offset="1" stop-color="#151515" stop-opacity="0"/>
</radialGradient>
</defs>
</svg>
