<svg width="336" height="386" viewBox="0 0 336 386" fill="none" xmlns="http://www.w3.org/2000/svg">
<mask id="mask0_630_8013" style="mask-type:alpha" maskUnits="userSpaceOnUse" x="0" y="0" width="336" height="386">
<path d="M0.950973 18.9243L0.049325 366.961C0.0260799 375.933 0.0144574 380.419 2.79751 383.207C5.58056 385.995 10.0669 385.991 19.0395 385.983L316.096 385.72C325.01 385.712 329.467 385.708 332.241 382.94C335.015 380.171 335.028 375.714 335.053 366.8L335.947 45.7708C335.972 36.7703 335.984 32.2701 333.19 29.4798C330.397 26.6895 325.896 26.7079 316.896 26.7447L274.86 26.9164C269.263 26.9393 266.465 26.9508 264.193 25.5874C261.922 24.2241 260.615 21.7491 258.003 16.799L254.477 10.1179C251.876 5.18952 250.575 2.72535 248.316 1.36279C246.056 0.000232565 243.27 0.000229921 237.697 0.000224632L19.9244 1.79598e-05C11.0014 9.49157e-06 6.53985 5.25748e-06 3.76275 2.76992C0.985648 5.53983 0.97409 10.0013 0.950973 18.9243Z" fill="#D9D9D9"/>
</mask>
<g mask="url(#mask0_630_8013)">
<path d="M1 24V362C1 373.314 1 378.971 4.51472 382.485C8.02944 386 13.6863 386 25 386H312C323.314 386 328.971 386 332.485 382.485C336 378.971 336 373.314 336 362V50.9494C336 39.625 336 33.9628 332.481 30.4474C328.962 26.9319 323.3 26.9377 311.975 26.9494L277.673 26.9848C270.53 26.9922 266.959 26.9959 264.075 25.2371C261.192 23.4782 259.561 20.3011 256.298 13.947L255.831 13.0381C252.572 6.69099 250.943 3.51743 248.063 1.75883C245.183 0.000231405 241.616 0.000228024 234.481 0.000221263L25 2.27441e-05C13.6863 1.20224e-05 8.02945 6.66159e-06 4.51472 3.51473C1 7.02945 1 12.6863 1 24Z" fill="url(#paint0_linear_630_8013)"/>
<g filter="url(#filter0_f_630_8013)">
<ellipse cx="216.496" cy="0.221804" rx="149.496" ry="149.539" transform="rotate(22.4265 216.496 0.221804)" fill="url(#paint1_linear_630_8013)"/>
</g>
<g filter="url(#filter1_f_630_8013)">
<ellipse cx="295.698" cy="147.758" rx="40.5915" ry="40.6034" transform="rotate(22.4265 295.698 147.758)" fill="#0057FF"/>
</g>
</g>
<defs>
<filter id="filter0_f_630_8013" x="-64.9183" y="-281.224" width="562.828" height="562.89" filterUnits="userSpaceOnUse" color-interpolation-filters="sRGB">
<feFlood flood-opacity="0" result="BackgroundImageFix"/>
<feBlend mode="normal" in="SourceGraphic" in2="BackgroundImageFix" result="shape"/>
<feGaussianBlur stdDeviation="65.9365" result="effect1_foregroundBlur_630_8013"/>
</filter>
<filter id="filter1_f_630_8013" x="162.822" y="14.875" width="265.751" height="265.768" filterUnits="userSpaceOnUse" color-interpolation-filters="sRGB">
<feFlood flood-opacity="0" result="BackgroundImageFix"/>
<feBlend mode="normal" in="SourceGraphic" in2="BackgroundImageFix" result="shape"/>
<feGaussianBlur stdDeviation="46.1357" result="effect1_foregroundBlur_630_8013"/>
</filter>
<linearGradient id="paint0_linear_630_8013" x1="336" y1="386" x2="-93.5846" y2="143.059" gradientUnits="userSpaceOnUse">
<stop stop-color="#111215"/>
<stop offset="1" stop-color="#272B2E"/>
</linearGradient>
<linearGradient id="paint1_linear_630_8013" x1="46.7837" y1="99.7553" x2="370.432" y2="-133.627" gradientUnits="userSpaceOnUse">
<stop stop-color="#5CD6B3"/>
<stop offset="0.0001" stop-color="#04B8C4"/>
<stop offset="1" stop-color="#4BFA8A"/>
</linearGradient>
</defs>
</svg>
