<svg width="565" height="552" viewBox="0 0 565 552" fill="none" xmlns="http://www.w3.org/2000/svg">
<path d="M0.5 520V32C0.5 24.4434 0.501062 18.8262 1.08133 14.5103C1.65966 10.2087 2.80509 7.27462 5.03985 5.03986C7.27461 2.80509 10.2087 1.65967 14.5103 1.08134C18.8263 0.50108 24.4434 0.500023 32 0.50003L399.183 0.50038C403.897 0.500384 407.396 0.500984 410.194 0.785616C412.981 1.0691 415.03 1.63123 416.852 2.73079C418.673 3.83035 420.125 5.38226 421.674 7.716C423.23 10.0592 424.86 13.155 427.056 17.3269L433.059 28.7297L433.072 28.7553C435.253 32.8967 436.906 36.0374 438.492 38.4278C440.089 40.8326 441.639 42.5134 443.631 43.7162C445.624 44.9189 447.833 45.508 450.705 45.8001C453.559 46.0904 457.108 46.0904 461.789 46.0904H461.818L533 46.0902C540.557 46.0902 546.174 46.0913 550.49 46.6715C554.791 47.2498 557.725 48.3953 559.96 50.63C562.195 52.8648 563.34 55.7989 563.919 60.1005C564.499 64.4164 564.5 70.0336 564.5 77.5902V520C564.5 527.557 564.499 533.174 563.919 537.49C563.34 541.791 562.195 544.725 559.96 546.96C557.725 549.195 554.791 550.34 550.49 550.919C546.174 551.499 540.557 551.5 533 551.5H32C24.4434 551.5 18.8262 551.499 14.5103 550.919C10.2087 550.34 7.27461 549.195 5.03984 546.96C2.80508 544.725 1.65966 541.791 1.08133 537.49C0.501062 533.174 0.5 527.557 0.5 520Z" fill="url(#paint0_linear_46_7290)"/>
<path d="M0.5 520V32C0.5 24.4434 0.501062 18.8262 1.08133 14.5103C1.65966 10.2087 2.80509 7.27462 5.03985 5.03986C7.27461 2.80509 10.2087 1.65967 14.5103 1.08134C18.8263 0.50108 24.4434 0.500023 32 0.50003L399.183 0.50038C403.897 0.500384 407.396 0.500984 410.194 0.785616C412.981 1.0691 415.03 1.63123 416.852 2.73079C418.673 3.83035 420.125 5.38226 421.674 7.716C423.23 10.0592 424.86 13.155 427.056 17.3269L433.059 28.7297L433.072 28.7553C435.253 32.8967 436.906 36.0374 438.492 38.4278C440.089 40.8326 441.639 42.5134 443.631 43.7162C445.624 44.9189 447.833 45.508 450.705 45.8001C453.559 46.0904 457.108 46.0904 461.789 46.0904H461.818L533 46.0902C540.557 46.0902 546.174 46.0913 550.49 46.6715C554.791 47.2498 557.725 48.3953 559.96 50.63C562.195 52.8648 563.34 55.7989 563.919 60.1005C564.499 64.4164 564.5 70.0336 564.5 77.5902V520C564.5 527.557 564.499 533.174 563.919 537.49C563.34 541.791 562.195 544.725 559.96 546.96C557.725 549.195 554.791 550.34 550.49 550.919C546.174 551.499 540.557 551.5 533 551.5H32C24.4434 551.5 18.8262 551.499 14.5103 550.919C10.2087 550.34 7.27461 549.195 5.03984 546.96C2.80508 544.725 1.65966 541.791 1.08133 537.49C0.501062 533.174 0.5 527.557 0.5 520Z" stroke="url(#paint1_radial_46_7290)" stroke-opacity="0.66"/>
<path d="M0.5 520V32C0.5 24.4434 0.501062 18.8262 1.08133 14.5103C1.65966 10.2087 2.80509 7.27462 5.03985 5.03986C7.27461 2.80509 10.2087 1.65967 14.5103 1.08134C18.8263 0.50108 24.4434 0.500023 32 0.50003L399.183 0.50038C403.897 0.500384 407.396 0.500984 410.194 0.785616C412.981 1.0691 415.03 1.63123 416.852 2.73079C418.673 3.83035 420.125 5.38226 421.674 7.716C423.23 10.0592 424.86 13.155 427.056 17.3269L433.059 28.7297L433.072 28.7553C435.253 32.8967 436.906 36.0374 438.492 38.4278C440.089 40.8326 441.639 42.5134 443.631 43.7162C445.624 44.9189 447.833 45.508 450.705 45.8001C453.559 46.0904 457.108 46.0904 461.789 46.0904H461.818L533 46.0902C540.557 46.0902 546.174 46.0913 550.49 46.6715C554.791 47.2498 557.725 48.3953 559.96 50.63C562.195 52.8648 563.34 55.7989 563.919 60.1005C564.499 64.4164 564.5 70.0336 564.5 77.5902V520C564.5 527.557 564.499 533.174 563.919 537.49C563.34 541.791 562.195 544.725 559.96 546.96C557.725 549.195 554.791 550.34 550.49 550.919C546.174 551.499 540.557 551.5 533 551.5H32C24.4434 551.5 18.8262 551.499 14.5103 550.919C10.2087 550.34 7.27461 549.195 5.03984 546.96C2.80508 544.725 1.65966 541.791 1.08133 537.49C0.501062 533.174 0.5 527.557 0.5 520Z" stroke="url(#paint2_radial_46_7290)" stroke-opacity="0.66"/>
<path d="M0.5 520V32C0.5 24.4434 0.501062 18.8262 1.08133 14.5103C1.65966 10.2087 2.80509 7.27462 5.03985 5.03986C7.27461 2.80509 10.2087 1.65967 14.5103 1.08134C18.8263 0.50108 24.4434 0.500023 32 0.50003L399.183 0.50038C403.897 0.500384 407.396 0.500984 410.194 0.785616C412.981 1.0691 415.03 1.63123 416.852 2.73079C418.673 3.83035 420.125 5.38226 421.674 7.716C423.23 10.0592 424.86 13.155 427.056 17.3269L433.059 28.7297L433.072 28.7553C435.253 32.8967 436.906 36.0374 438.492 38.4278C440.089 40.8326 441.639 42.5134 443.631 43.7162C445.624 44.9189 447.833 45.508 450.705 45.8001C453.559 46.0904 457.108 46.0904 461.789 46.0904H461.818L533 46.0902C540.557 46.0902 546.174 46.0913 550.49 46.6715C554.791 47.2498 557.725 48.3953 559.96 50.63C562.195 52.8648 563.34 55.7989 563.919 60.1005C564.499 64.4164 564.5 70.0336 564.5 77.5902V520C564.5 527.557 564.499 533.174 563.919 537.49C563.34 541.791 562.195 544.725 559.96 546.96C557.725 549.195 554.791 550.34 550.49 550.919C546.174 551.499 540.557 551.5 533 551.5H32C24.4434 551.5 18.8262 551.499 14.5103 550.919C10.2087 550.34 7.27461 549.195 5.03984 546.96C2.80508 544.725 1.65966 541.791 1.08133 537.49C0.501062 533.174 0.5 527.557 0.5 520Z" stroke="url(#paint3_radial_46_7290)"/>
<defs>
<linearGradient id="paint0_linear_46_7290" x1="565" y1="552" x2="-96.8289" y2="110.583" gradientUnits="userSpaceOnUse">
<stop stop-color="#111215"/>
<stop offset="1" stop-color="#272B2E"/>
</linearGradient>
<radialGradient id="paint1_radial_46_7290" cx="0" cy="0" r="1" gradientUnits="userSpaceOnUse" gradientTransform="translate(672.589 1310.73) rotate(-117.236) scale(1635.47 793.139)">
<stop stop-color="white"/>
<stop offset="1" stop-color="white" stop-opacity="0"/>
</radialGradient>
<radialGradient id="paint2_radial_46_7290" cx="0" cy="0" r="1" gradientUnits="userSpaceOnUse" gradientTransform="translate(-107.681 -427.292) rotate(54.2079) scale(1218.58 627.396)">
<stop stop-color="white"/>
<stop offset="1" stop-color="white" stop-opacity="0"/>
</radialGradient>
<radialGradient id="paint3_radial_46_7290" cx="0" cy="0" r="1" gradientUnits="userSpaceOnUse" gradientTransform="translate(275 260.86) rotate(134.323) scale(431.372 322.292)">
<stop stop-color="white"/>
<stop offset="1" stop-color="#151515" stop-opacity="0"/>
</radialGradient>
</defs>
</svg>
