<svg width="336" height="670" viewBox="0 0 336 670" fill="none" xmlns="http://www.w3.org/2000/svg">
<path d="M0 32V637.952C0 653.058 0 660.611 4.69472 665.298C9.38938 669.986 16.942 669.975 32.0471 669.952H32.0477L304.048 669.547C319.112 669.525 326.644 669.513 331.322 664.828C336 660.144 336 652.611 336 637.547V77.4683C336 62.3833 336 54.8408 331.314 50.1545C326.627 45.4683 319.085 45.4683 304 45.4683H232.174C222.599 45.4683 217.812 45.4683 213.957 43.0983C210.102 40.7283 207.941 36.4563 203.619 27.9125L198.381 17.5557C194.059 9.01191 191.898 4.73999 188.043 2.37C184.188 0 179.401 0 169.826 0H32C16.9151 0 9.37258 0 4.68629 4.68629C0 9.37258 0 16.9151 0 32Z" fill="white"/>
</svg>
