<svg width="336" height="670" viewBox="0 0 336 670" fill="none" xmlns="http://www.w3.org/2000/svg">
<path d="M0.5 637.952V32C0.5 24.4434 0.501062 18.8262 1.08133 14.5103C1.65966 10.2087 2.80508 7.27461 5.03984 5.03984C7.27461 2.80508 10.2087 1.65966 14.5103 1.08133C18.8262 0.501062 24.4434 0.5 32 0.5H169.826C174.624 0.5 178.184 0.500612 181.028 0.793617C183.861 1.08544 185.94 1.6641 187.781 2.79593C189.622 3.92777 191.077 5.52205 192.616 7.91791C194.161 10.3235 195.769 13.5004 197.934 17.7814L203.173 28.1382L203.186 28.1638C205.336 32.4139 206.966 35.6369 208.543 38.0908C210.128 40.5594 211.681 42.286 213.695 43.5242C215.709 44.7624 217.951 45.3687 220.869 45.6694C223.77 45.9683 227.382 45.9683 232.145 45.9683H232.174H304C311.557 45.9683 317.174 45.9693 321.49 46.5496C325.791 47.1279 328.725 48.2733 330.96 50.5081C333.195 52.7429 334.34 55.6769 334.919 59.9785C335.499 64.2945 335.5 69.9116 335.5 77.4683V637.547C335.5 645.093 335.499 650.703 334.92 655.014C334.342 659.31 333.199 662.241 330.968 664.475C328.738 666.709 325.808 667.857 321.513 668.441C317.203 669.026 311.593 669.036 304.047 669.047L32.0471 669.452C24.4797 669.464 18.855 669.471 14.5329 668.896C10.2253 668.323 7.28675 667.18 5.04801 664.944C2.80925 662.709 1.66176 659.772 1.08238 655.465C0.501063 651.144 0.5 645.519 0.5 637.952Z" stroke="#E2E2E2"/>
</svg>
