<svg width="73" height="73" viewBox="0 0 73 73" fill="none" xmlns="http://www.w3.org/2000/svg">
<g clip-path="url(#clip0_2011_5215)">
<path d="M30.5537 30.543C30.5537 32.199 29.2097 33.543 27.5537 33.543C25.8977 33.543 24.5537 32.199 24.5537 30.543C24.5537 28.887 25.8977 27.543 27.5537 27.543C29.2097 27.543 30.5537 28.887 30.5537 30.543ZM45.5537 27.543C43.8977 27.543 42.5537 28.887 42.5537 30.543C42.5537 32.199 43.8977 33.543 45.5537 33.543C47.2097 33.543 48.5537 32.199 48.5537 30.543C48.5537 28.887 47.2097 27.543 45.5537 27.543ZM57.5537 23.043V38.043C57.5537 42.18 54.1877 45.543 50.0537 45.543H23.0537C18.9197 45.543 15.5537 42.18 15.5537 38.043V23.043C15.5537 18.906 18.9197 15.543 23.0537 15.543H50.0537C54.1877 15.543 57.5537 18.906 57.5537 23.043ZM54.5537 23.043C54.5537 20.562 52.5347 18.543 50.0537 18.543H23.0537C20.5727 18.543 18.5537 20.562 18.5537 23.043V38.043C18.5537 40.524 20.5727 42.543 23.0537 42.543H50.0537C52.5347 42.543 54.5537 40.524 54.5537 38.043V23.043ZM72.5537 32.043C72.5537 32.871 71.8817 33.543 71.0537 33.543H66.5537V50.043C66.5537 55.833 61.8437 60.543 56.0537 60.543H51.4577L39.5027 70.428C38.6777 71.163 37.6247 71.532 36.5657 71.532C35.4977 71.532 34.4207 71.154 33.5627 70.392L21.8717 60.543H17.0537C11.2637 60.543 6.55371 55.833 6.55371 50.043V33.543H2.05371C1.22571 33.543 0.553711 32.871 0.553711 32.043C0.553711 31.215 1.22571 30.543 2.05371 30.543H6.55371V11.043C6.55371 5.25297 11.2637 0.542969 17.0537 0.542969H56.0537C61.8437 0.542969 66.5537 5.25297 66.5537 11.043V30.543H71.0537C71.8817 30.543 72.5537 31.215 72.5537 32.043ZM63.5537 11.043C63.5537 6.90597 60.1877 3.54297 56.0537 3.54297H17.0537C12.9197 3.54297 9.55371 6.90597 9.55371 11.043V50.043C9.55371 54.18 12.9197 57.543 17.0537 57.543H22.4207C22.7747 57.543 23.1167 57.669 23.3867 57.894L35.5277 68.121C36.1277 68.655 36.9827 68.661 37.5527 68.148L49.9667 57.885C50.2337 57.666 50.5727 57.543 50.9207 57.543H56.0537C60.1877 57.543 63.5537 54.18 63.5537 50.043V11.043Z" fill="url(#paint0_linear_2011_5215)"/>
</g>
<defs>
<linearGradient id="paint0_linear_2011_5215" x1="-12.5209" y1="35.251" x2="76.6571" y2="9.5597" gradientUnits="userSpaceOnUse">
<stop stop-color="white"/>
<stop offset="1" stop-color="#01F28E"/>
</linearGradient>
<clipPath id="clip0_2011_5215">
<rect width="72" height="72" fill="white" transform="translate(0.553711 0.542969)"/>
</clipPath>
</defs>
</svg>
