<svg width="121" height="120" viewBox="0 0 121 120" fill="none" xmlns="http://www.w3.org/2000/svg">
<g clip-path="url(#clip0_557_7963)">
<path d="M43.2157 103.234C43.2157 103.234 67.7732 103.355 75.8784 110.13L71.6443 111.642C71.6443 111.642 60.1519 103.476 40.1309 104.988C41.1591 104.081 43.2157 103.234 43.2157 103.234Z" fill="white"/>
<path d="M77.7574 103.234C77.7574 103.234 53.1999 103.355 45.0947 110.13L49.3288 111.642C49.3288 111.642 60.8212 103.476 80.8422 104.988C79.814 104.081 77.7574 103.234 77.7574 103.234Z" fill="white"/>
<path fill-rule="evenodd" clip-rule="evenodd" d="M22.5312 18.6739C27.6726 15.3471 32.9954 10.3872 42.1289 7C35.4754 7.06049 24.9507 11.2341 22.5312 18.6739Z" fill="white"/>
<path fill-rule="evenodd" clip-rule="evenodd" d="M28.4592 19.7031C27.3704 20.187 26.5841 20.4894 25.6768 20.7314C23.9832 21.1548 22.592 21.2758 21.1403 21.7597C19.9911 22.1226 19.0233 22.7274 18.237 23.3928C17.5111 23.9977 16.9668 24.6025 16.5434 25.2074C15.6965 26.4171 14.9707 28.3527 14.9707 29.8044C15.6361 29.139 16.2409 28.5946 16.9063 28.1107C17.9345 27.3849 18.9023 26.8405 19.9306 26.4171C20.7169 26.1147 21.3823 25.8123 22.0476 25.4493C24.8905 23.9977 26.5236 21.9411 28.4592 19.7031Z" fill="white"/>
<path fill-rule="evenodd" clip-rule="evenodd" d="M14.9101 29.8646C14.9101 27.7475 16.8457 24.1788 17.995 22.7876C18.7813 21.8199 19.3861 20.7311 19.9305 19.5819C20.8983 17.5858 21.7451 15.2873 21.9871 13.5332C20.7773 14.259 19.5071 15.0454 18.1764 16.0736C15.2731 18.4326 13.6399 20.973 14.0633 24.4208C14.1843 25.812 14.1843 28.7153 14.9101 29.8646Z" fill="white"/>
<path fill-rule="evenodd" clip-rule="evenodd" d="M20.0518 30.2266C19.0841 30.8919 18.3582 31.3153 17.5719 31.6782C15.9993 32.3436 14.6685 32.7065 13.3983 33.4323C12.3701 33.9767 11.5837 34.7026 10.9184 35.5494C10.3135 36.2752 9.9506 36.9406 9.64817 37.6059C9.10379 38.9366 8.80136 40.9932 9.16428 42.3843C9.64817 41.598 10.1321 40.9932 10.6764 40.3883C11.4628 39.481 12.3096 38.8156 13.2774 38.2108C13.9427 37.7874 14.5476 37.364 15.1524 36.9406C17.5114 35.0655 18.6607 32.7065 20.0518 30.2266Z" fill="white"/>
<path fill-rule="evenodd" clip-rule="evenodd" d="M9.10676 42.4458C8.62287 40.3893 9.71162 36.5181 10.5584 35.006C11.1028 33.9172 11.4657 32.768 11.7077 31.5582C12.1916 29.4412 12.494 27.0822 12.373 25.3281C11.3448 26.2959 10.3165 27.2032 9.16725 28.4734C6.86876 31.2558 5.84049 34.0382 6.98973 37.3649C7.41314 38.6352 8.13898 41.4175 9.10676 42.4458Z" fill="white"/>
<path fill-rule="evenodd" clip-rule="evenodd" d="M15.0295 40.752C14.2432 41.7197 13.6383 42.3851 12.9125 42.99C11.5213 44.1392 10.1906 44.865 9.10186 45.9538C8.19456 46.8611 7.65018 47.8289 7.22678 48.8571C6.86386 49.8249 6.6824 50.6113 6.62191 51.3976C6.50094 52.9702 6.98483 55.2082 7.83164 56.6599C8.07359 55.6921 8.37602 54.9058 8.67845 54.1195C9.22283 52.9702 9.88818 52.0024 10.6745 51.0951C11.2189 50.4298 11.7633 49.8249 12.1867 49.2201C14.1222 46.5587 14.4852 43.7763 15.0295 40.752Z" fill="white"/>
<path fill-rule="evenodd" clip-rule="evenodd" d="M7.83045 56.7212C6.56023 54.6646 6.31828 50.2491 6.62072 48.4345C6.80218 47.1038 6.74169 45.7731 6.62072 44.4424C6.37877 42.0229 5.7739 39.422 4.98758 37.6074C4.26174 38.8776 3.47542 40.1479 2.74958 41.781C1.2979 45.4102 1.23742 48.616 3.71736 51.8217C4.68515 53.092 6.43926 55.8743 7.83045 56.7212Z" fill="white"/>
<path fill-rule="evenodd" clip-rule="evenodd" d="M12.6723 53.1504C12.1279 54.2391 11.7045 55.0255 11.0996 55.7513C10.0109 57.1425 8.86161 58.1103 8.0148 59.441C7.34945 60.5297 6.98653 61.558 6.86556 62.7073C6.74459 63.7355 6.74459 64.5823 6.92605 65.3687C7.22848 67.0018 8.19626 69.1188 9.46648 70.389C9.46648 69.3608 9.52697 68.514 9.70843 67.6671C9.95037 66.3969 10.3738 65.3687 10.9182 64.2799C11.3416 63.4936 11.644 62.8282 11.9464 62.1024C13.2166 59.1386 12.8537 56.2957 12.6723 53.1504Z" fill="white"/>
<path fill-rule="evenodd" clip-rule="evenodd" d="M9.467 70.4502C7.6524 68.6356 6.3217 64.2805 6.20073 62.345C6.07975 61.0143 5.65635 59.6836 5.17246 58.3529C4.32565 55.9939 3.11592 53.5139 1.8457 51.8203C1.42229 53.272 0.938402 54.6632 0.63597 56.4173C0.152078 60.3489 0.877916 63.5547 4.14419 66.3371C5.4144 67.4258 7.89435 69.8453 9.467 70.4502Z" fill="white"/>
<path fill-rule="evenodd" clip-rule="evenodd" d="M12.9171 65.0078C12.7961 66.278 12.6147 67.1853 12.3123 68.1531C11.7074 69.9072 10.9211 71.2379 10.4977 72.8106C10.1952 74.0808 10.2557 75.2905 10.5581 76.5002C10.8001 77.589 11.163 78.4358 11.5864 79.2221C12.4937 80.7948 14.3083 82.7304 16.0624 83.6981C15.6995 82.6094 15.4576 81.7626 15.2761 80.8553C15.0341 79.4641 15.0946 78.2544 15.2761 77.0446C15.3971 76.1373 15.518 75.351 15.518 74.5647C15.76 70.996 14.3083 68.1531 12.9171 65.0078Z" fill="white"/>
<path fill-rule="evenodd" clip-rule="evenodd" d="M16.1229 83.6978C13.5825 82.3066 10.5581 78.1935 9.71133 76.258C9.10647 74.9273 8.13868 73.6571 7.1709 72.4473C5.41679 70.2698 3.23928 68.0318 1.30371 66.6406C1.3642 68.2133 1.48517 69.7859 1.7876 71.7215C2.6949 75.8346 4.63047 78.9799 9.04598 80.9154C10.8001 81.6413 14.2478 83.5164 16.1229 83.6978Z" fill="white"/>
<path fill-rule="evenodd" clip-rule="evenodd" d="M17.6924 76.8027C18.0553 78.1939 18.2368 79.2222 18.2972 80.3109C18.3577 82.3675 17.9948 84.0006 18.2368 85.8152C18.4182 87.2669 18.9626 88.5371 19.7489 89.6864C20.4748 90.7751 21.1401 91.5614 21.9264 92.2873C23.5596 93.6785 26.2815 95.2511 28.5195 95.735C27.6727 94.7067 27.0678 93.8599 26.5839 92.9526C25.7976 91.5614 25.3742 90.2307 25.0717 88.9C24.8298 87.8718 24.5878 87.0249 24.3459 86.1781C23.0757 82.3675 20.4143 79.7666 17.6924 76.8027Z" fill="white"/>
<path fill-rule="evenodd" clip-rule="evenodd" d="M28.58 95.7948C25.3137 95.069 20.4748 91.5608 18.7811 89.8067C17.5714 88.5364 16.1197 87.5082 14.5471 86.4799C11.8252 84.6653 8.55893 82.9112 5.95801 82.0039C6.68385 83.6975 7.40968 85.3307 8.49844 87.2662C11.0994 91.3793 14.4261 94.1617 19.9304 94.948C22.0474 95.19 26.5234 96.1577 28.58 95.7948Z" fill="white"/>
<path fill-rule="evenodd" clip-rule="evenodd" d="M27.6143 87.8711C28.6425 89.1413 29.2474 90.1091 29.7313 91.1979C30.6386 93.2544 31.062 94.948 32.0903 96.7021C32.9371 98.0933 34.0863 99.1821 35.417 100.15C36.6267 100.997 37.7155 101.602 38.8647 102.085C41.1632 102.993 44.7319 103.719 47.2724 103.537C45.9417 102.751 44.9134 102.085 44.0061 101.299C42.5544 100.15 41.5262 99.0006 40.6189 97.6699C39.9535 96.7626 39.2882 95.9158 38.6228 95.1295C35.7194 91.8027 31.7878 89.9881 27.6143 87.8711Z" fill="white"/>
<path fill-rule="evenodd" clip-rule="evenodd" d="M47.3901 103.538C43.6399 103.78 36.9864 101.784 34.446 100.514C32.6314 99.6064 30.6353 99.0015 28.5183 98.4571C24.8286 97.4893 20.6551 96.703 17.5098 96.582C19.0219 98.0337 20.4736 99.4854 22.4697 101.058C27.0061 104.385 31.7241 106.139 37.8937 105.232C40.2527 104.929 45.3336 104.566 47.3901 103.538Z" fill="white"/>
<path fill-rule="evenodd" clip-rule="evenodd" d="M98.4511 18.6739C93.3098 15.4076 87.9265 10.3872 78.8535 7C85.507 7.06049 96.0317 11.2341 98.4511 18.6739Z" fill="white"/>
<path fill-rule="evenodd" clip-rule="evenodd" d="M92.5186 19.7031C93.6073 20.187 94.3936 20.4894 95.3009 20.7314C96.9945 21.1548 98.3857 21.2758 99.8374 21.7597C100.987 22.1226 101.954 22.7274 102.741 23.3928C103.467 23.9977 104.011 24.6025 104.434 25.2074C105.281 26.4171 106.007 28.3527 106.007 29.8044C105.342 29.139 104.737 28.5946 104.071 28.1107C103.043 27.3849 102.075 26.8405 100.987 26.4171C100.2 26.1147 99.535 25.8123 98.8696 25.4493C96.0873 23.9977 94.4541 21.9411 92.5186 19.7031Z" fill="white"/>
<path fill-rule="evenodd" clip-rule="evenodd" d="M106.069 29.8646C106.069 27.7475 104.134 24.1788 102.984 22.7876C102.198 21.8199 101.593 20.7311 101.049 19.5819C100.081 17.5858 99.2341 15.2873 98.9922 13.5332C100.202 14.259 101.472 15.0454 102.803 16.0736C105.706 18.4326 107.339 20.973 106.916 24.4208C106.795 25.812 106.795 28.7153 106.069 29.8646Z" fill="white"/>
<path fill-rule="evenodd" clip-rule="evenodd" d="M100.937 30.2266C101.904 30.8919 102.63 31.3153 103.416 31.6782C104.989 32.3436 106.32 32.7065 107.59 33.4323C108.618 33.9767 109.405 34.7026 110.07 35.5494C110.675 36.2752 111.038 36.9406 111.34 37.6059C111.885 38.9366 112.187 40.9932 111.824 42.3843C111.34 41.598 110.856 40.9932 110.312 40.3883C109.526 39.481 108.679 38.8156 107.711 38.2108C107.046 37.7874 106.441 37.364 105.836 36.9406C103.477 35.0655 102.328 32.7065 100.937 30.2266Z" fill="white"/>
<path fill-rule="evenodd" clip-rule="evenodd" d="M111.886 42.4458C112.37 40.3893 111.281 36.5181 110.434 35.006C109.89 33.9172 109.527 32.768 109.285 31.5582C108.801 29.4412 108.498 27.0822 108.619 25.3281C109.648 26.2959 110.676 27.2032 111.825 28.4734C114.124 31.2558 115.152 34.0382 114.003 37.3649C113.579 38.6352 112.854 41.4175 111.886 42.4458Z" fill="white"/>
<path fill-rule="evenodd" clip-rule="evenodd" d="M105.948 40.752C106.735 41.7197 107.339 42.3851 108.065 42.99C109.456 44.1392 110.787 44.865 111.876 45.9538C112.783 46.8611 113.328 47.8289 113.751 48.8571C114.114 49.8249 114.295 50.6113 114.356 51.3976C114.477 52.9702 113.993 55.2082 113.146 56.6599C112.904 55.6921 112.602 54.9058 112.299 54.1195C111.755 52.9702 111.09 52.0024 110.303 51.0951C109.759 50.4298 109.215 49.8249 108.791 49.2201C106.856 46.5587 106.493 43.7763 105.948 40.752Z" fill="white"/>
<path fill-rule="evenodd" clip-rule="evenodd" d="M113.146 56.7212C114.417 54.6646 114.659 50.2491 114.356 48.4345C114.175 47.1038 114.235 45.7731 114.356 44.4424C114.598 42.0229 115.203 39.422 115.989 37.6074C116.715 38.8776 117.502 40.1479 118.227 41.781C119.679 45.4102 119.74 48.616 117.26 51.8217C116.292 53.092 114.538 55.8743 113.146 56.7212Z" fill="white"/>
<path fill-rule="evenodd" clip-rule="evenodd" d="M108.313 53.1504C108.857 54.2391 109.28 55.0255 109.885 55.7513C110.974 57.1425 112.123 58.1103 112.97 59.441C113.635 60.5297 113.998 61.558 114.119 62.7073C114.24 63.7355 114.24 64.5823 114.059 65.3687C113.756 67.0018 112.789 69.1188 111.518 70.389C111.518 69.3608 111.458 68.514 111.276 67.6671C111.034 66.3969 110.611 65.3687 110.067 64.2799C109.643 63.4936 109.341 62.8282 109.038 62.1024C107.768 59.1386 108.131 56.2957 108.313 53.1504Z" fill="white"/>
<path fill-rule="evenodd" clip-rule="evenodd" d="M111.518 70.4502C113.332 68.6356 114.663 64.2805 114.784 62.345C114.905 61.0143 115.328 59.6836 115.812 58.3529C116.659 55.9939 117.869 53.5139 119.139 51.8203C119.562 53.272 120.046 54.6632 120.349 56.4173C120.893 60.2884 120.167 63.4942 116.84 66.2766C115.57 67.4258 113.09 69.8453 111.518 70.4502Z" fill="white"/>
<path fill-rule="evenodd" clip-rule="evenodd" d="M108.079 65.0078C108.2 66.278 108.381 67.1853 108.684 68.1531C109.289 69.9072 110.075 71.2379 110.498 72.8106C110.801 74.0808 110.74 75.2905 110.438 76.5002C110.196 77.589 109.833 78.4358 109.41 79.2221C108.502 80.7948 106.688 82.7304 104.934 83.6981C105.297 82.6094 105.538 81.7626 105.72 80.8553C105.962 79.4641 105.901 78.2544 105.72 77.0446C105.599 76.1373 105.478 75.351 105.478 74.5647C105.236 70.996 106.688 68.1531 108.079 65.0078Z" fill="white"/>
<path fill-rule="evenodd" clip-rule="evenodd" d="M104.871 83.6978C107.412 82.3066 110.436 78.1935 111.283 76.258C111.888 74.9273 112.855 73.6571 113.823 72.4473C115.577 70.2698 117.755 68.0318 119.69 66.6406C119.63 68.2133 119.509 69.7859 119.206 71.7215C118.299 75.8346 116.364 78.9799 111.948 80.9154C110.194 81.6413 106.746 83.5164 104.871 83.6978Z" fill="white"/>
<path fill-rule="evenodd" clip-rule="evenodd" d="M103.294 76.8027C102.931 78.1939 102.749 79.2222 102.689 80.3109C102.629 82.3675 102.991 84.0006 102.75 85.8152C102.568 87.2669 102.024 88.5371 101.237 89.6864C100.511 90.7751 99.8461 91.5614 99.0598 92.2873C97.4267 93.6785 94.7048 95.2511 92.4668 95.735C93.3136 94.7067 93.9185 93.8599 94.4024 92.9526C95.1887 91.5614 95.6121 90.2307 95.9145 88.9C96.1565 87.8718 96.3984 87.0249 96.6404 86.1781C97.9106 82.3675 100.572 79.7666 103.294 76.8027Z" fill="white"/>
<path fill-rule="evenodd" clip-rule="evenodd" d="M92.4043 95.7948C95.6706 95.069 100.509 91.5608 102.203 89.8067C103.413 88.5364 104.865 87.5082 106.437 86.4799C109.159 84.6653 112.425 82.9112 115.026 82.0039C114.3 83.6975 113.575 85.3307 112.486 87.2662C109.885 91.3793 106.558 94.1617 101.054 94.948C98.9368 95.19 94.4608 96.1577 92.4043 95.7948Z" fill="white"/>
<path fill-rule="evenodd" clip-rule="evenodd" d="M93.3769 87.8711C92.3486 89.1413 91.7437 90.1091 91.2598 91.1979C90.3525 93.2544 89.9291 94.948 88.9009 96.7021C88.0541 98.0933 86.9048 99.1821 85.5741 100.15C84.3644 100.997 83.2756 101.602 82.1264 102.085C79.8279 102.993 76.2592 103.719 73.7188 103.537C75.0495 102.751 76.0777 102.085 76.985 101.299C78.4367 100.15 79.465 99.0006 80.3723 97.6699C81.0376 96.7626 81.703 95.9158 82.3683 95.1295C85.2717 91.8027 89.2033 89.9881 93.3769 87.8711Z" fill="white"/>
<path fill-rule="evenodd" clip-rule="evenodd" d="M73.5938 103.538C77.3439 103.78 83.9974 101.784 86.5379 100.514C88.3524 99.6064 90.3485 99.0015 92.4655 98.4571C96.1552 97.4893 100.329 96.703 103.474 96.582C101.962 98.0337 100.51 99.4854 98.5142 101.058C93.9777 104.385 89.2597 106.139 83.0901 105.232C80.7312 104.929 75.6503 104.566 73.5938 103.538Z" fill="white"/>
<g clip-path="url(#clip1_557_7963)">
<path d="M40.7165 81C39.9214 81 39.2073 80.7053 38.6505 80.1487L38.3515 79.8495C37.5162 79.0144 37.4428 78.031 37.5276 77.3529C37.6523 76.3623 38.1893 75.3484 39.0394 74.4987L48.8791 64.6589C49.4649 64.0728 49.4081 63.2626 49.1074 62.7582C47.0226 59.2837 46.1334 55.1849 46.6016 51.216C47.084 47.1291 48.9137 43.3943 51.8922 40.4154C55.3844 36.9232 60.0354 35 64.9885 35C69.9414 35 74.5921 36.9232 78.0849 40.4154C85.3057 47.6368 85.3057 59.3866 78.0849 66.6078C74.5929 70.0999 70.0064 72.0228 65.171 72.0228C65.171 72.0228 65.1708 72.0228 65.1702 72.0228C61.87 72.0226 58.6102 71.1137 55.7434 69.3938C55.6558 69.3419 55.3441 69.1753 54.9229 69.1753C54.5071 69.1753 54.1261 69.3366 53.8211 69.6414L44.0017 79.4611C43.0237 80.4391 41.8263 81 40.7165 81ZM64.9885 38.5025C60.9732 38.5025 57.2024 40.0619 54.3704 42.8941C51.5382 45.7257 49.9788 49.4965 49.9788 53.5122C49.9788 57.5271 51.5382 61.2983 54.3704 64.1302C57.2024 66.9622 60.9728 68.5217 64.9885 68.5217C69.0037 68.5217 72.7743 66.9622 75.6064 64.1302C78.4384 61.2983 79.9979 57.5271 79.9979 53.5122C79.9979 49.4965 78.4384 45.7257 75.6064 42.8941C72.7746 40.0619 69.004 38.5025 64.9885 38.5025Z" fill="white"/>
<path fill-rule="evenodd" clip-rule="evenodd" d="M69.6213 48.4707C69.239 48.8454 68.6335 48.8433 68.1844 48.552C67.271 47.9594 66.19 47.6463 65.0801 47.6631C62.4568 47.6631 60.2287 49.3979 59.4343 51.734C59.0131 52.9582 59.0131 54.2838 59.4343 55.508H59.438C60.2361 57.8404 62.4604 59.5753 65.0838 59.5753C66.438 59.5753 67.6006 59.2358 68.5017 58.6361V58.6336C69.5621 57.9455 70.2863 56.8626 70.5117 55.6384H66.0801C65.5279 55.6384 65.0801 55.1907 65.0801 54.6384V52.8427C65.0801 52.2904 65.5279 51.8427 66.0801 51.8427H73.7285C74.2126 51.8427 74.632 52.1894 74.6805 52.6711C74.7198 53.0614 74.7387 53.4541 74.7387 53.8456C74.7387 56.8436 73.6457 59.3782 71.7438 61.095L71.7458 61.0965C70.0794 62.6031 67.7922 63.476 65.0801 63.476C61.2781 63.476 57.8011 61.3753 56.0941 58.0469C54.6679 55.2617 54.6679 51.9803 56.0941 49.1951C57.8011 45.8631 61.2781 43.7624 65.0801 43.7624C67.2219 43.7375 69.3011 44.4104 70.9964 45.6576C71.4575 45.9968 71.4656 46.6628 71.0568 47.0636L69.6213 48.4707Z" fill="white"/>
</g>
</g>
<defs>
<clipPath id="clip0_557_7963">
<rect width="120" height="120" fill="white" transform="translate(0.5)"/>
</clipPath>
<clipPath id="clip1_557_7963">
<rect width="46" height="46" fill="white" transform="translate(37.5 35)"/>
</clipPath>
</defs>
</svg>
