<svg width="72" height="73" viewBox="0 0 72 73" fill="none" xmlns="http://www.w3.org/2000/svg">
<g clip-path="url(#clip0_2011_2325)">
<path d="M56.1745 42.9459L37.5431 42.9459V30.7106H69.9962C70.3338 32.8533 70.4935 35.0365 70.4935 37.2119C70.4935 47.9639 66.6547 56.9934 60.0341 63.0901L59.4806 63.5998C53.7305 68.6423 45.9521 71.5712 36.7292 71.5712C23.4252 71.5712 11.2592 64.0725 5.28607 52.1912C0.295435 42.2487 0.295426 30.5348 5.28604 20.5923C11.2592 8.69771 23.4252 1.19883 36.7292 1.19889L36.7388 1.19878C45.19 1.09876 53.3627 4.16891 59.6407 9.77621L50.5148 18.9021C46.7167 15.5533 41.8002 13.7408 36.7229 13.8177C26.9571 13.8205 18.691 20.4056 15.7452 29.2412C14.1808 33.8805 14.181 38.9043 15.7457 43.5435L15.9325 44.0973H15.9527C19.0665 52.6401 27.1788 58.9523 36.7425 58.9523C41.7292 58.9523 46.0561 57.6761 49.4356 55.3815L49.7922 55.1393V55.1299C53.5759 52.4852 56.1553 48.4484 56.9754 43.9043L57.1483 42.9459H56.1745Z" stroke="url(#paint0_linear_2011_2325)" stroke-width="1.62768"/>
</g>
<defs>
<linearGradient id="paint0_linear_2011_2325" x1="-12.0872" y1="35.5861" x2="75.7738" y2="11.1234" gradientUnits="userSpaceOnUse">
<stop stop-color="white"/>
<stop offset="1" stop-color="#01F28E"/>
</linearGradient>
<clipPath id="clip0_2011_2325">
<rect width="72" height="72" fill="white" transform="translate(0.00610352 0.383789)"/>
</clipPath>
</defs>
</svg>
