<svg width="56" height="56" viewBox="0 0 56 56" fill="none" xmlns="http://www.w3.org/2000/svg">
<g clip-path="url(#clip0_1_1039)">
<path d="M19.9396 48.1758C19.9396 48.1758 31.3998 48.2322 35.1822 51.3937L33.2063 52.0993C33.2063 52.0993 27.8431 48.2887 18.5 48.9944C18.9799 48.571 19.9396 48.1758 19.9396 48.1758Z" fill="#161616"/>
<path d="M36.0551 48.1758C36.0551 48.1758 24.5949 48.2322 20.8125 51.3937L22.7884 52.0993C22.7884 52.0993 28.1515 48.2887 37.4947 48.9944C37.0148 48.571 36.0551 48.1758 36.0551 48.1758Z" fill="#161616"/>
<path fill-rule="evenodd" clip-rule="evenodd" d="M10.2815 8.71442C12.6808 7.16193 15.1648 4.84732 19.4271 3.2666C16.3221 3.29483 11.4106 5.24249 10.2815 8.71442Z" fill="#161616"/>
<path fill-rule="evenodd" clip-rule="evenodd" d="M13.0446 9.19434C12.5365 9.42015 12.1696 9.56129 11.7462 9.6742C10.9558 9.87178 10.3066 9.92824 9.62916 10.1541C9.09284 10.3234 8.64121 10.6057 8.27426 10.9162C7.93554 11.1985 7.68149 11.4807 7.4839 11.763C7.08872 12.3275 6.75 13.2308 6.75 13.9082C7.0605 13.5978 7.34277 13.3437 7.65327 13.1179C8.13312 12.7792 8.58476 12.5251 9.06462 12.3275C9.43157 12.1864 9.74206 12.0453 10.0526 11.8759C11.3792 11.1985 12.1414 10.2387 13.0446 9.19434Z" fill="#161616"/>
<path fill-rule="evenodd" clip-rule="evenodd" d="M6.72298 13.9367C6.72298 12.9488 7.62624 11.2834 8.16255 10.6342C8.52951 10.1825 8.81178 9.67445 9.06582 9.13813C9.51745 8.20664 9.91263 7.13401 10.0255 6.31543C9.461 6.65415 8.86823 7.02111 8.24724 7.50096C6.89234 8.60182 6.13021 9.78735 6.3278 11.3963C6.38425 12.0455 6.38425 13.4004 6.72298 13.9367Z" fill="#161616"/>
<path fill-rule="evenodd" clip-rule="evenodd" d="M9.12354 14.1055C8.67191 14.416 8.33319 14.6136 7.96624 14.7829C7.23233 15.0934 6.61134 15.2628 6.01857 15.6015C5.53871 15.8555 5.17176 16.1943 4.86126 16.5894C4.57899 16.9282 4.40963 17.2387 4.2685 17.5492C4.01445 18.1702 3.87332 19.1299 4.04268 19.7791C4.26849 19.4122 4.49431 19.1299 4.74835 18.8476C5.11531 18.4242 5.51048 18.1137 5.96212 17.8314C6.27261 17.6338 6.55488 17.4363 6.83716 17.2387C7.93801 16.3636 8.47432 15.2628 9.12354 14.1055Z" fill="#161616"/>
<path fill-rule="evenodd" clip-rule="evenodd" d="M4.02124 19.8076C3.79542 18.8479 4.30351 17.0413 4.69869 16.3357C4.95273 15.8276 5.12209 15.2913 5.235 14.7267C5.46082 13.7388 5.60195 12.6379 5.5455 11.8193C5.06564 12.271 4.58578 12.6944 4.04947 13.2871C2.97684 14.5856 2.49698 15.884 3.03329 17.4365C3.23088 18.0293 3.56961 19.3277 4.02124 19.8076Z" fill="#161616"/>
<path fill-rule="evenodd" clip-rule="evenodd" d="M6.77589 19.0176C6.40894 19.4692 6.12667 19.7797 5.78795 20.062C5.13872 20.5983 4.51773 20.937 4.00964 21.4451C3.58624 21.8685 3.33219 22.3201 3.1346 22.8C2.96524 23.2516 2.88056 23.6186 2.85233 23.9855C2.79588 24.7194 3.0217 25.7638 3.41688 26.4413C3.52978 25.9897 3.67092 25.6227 3.81205 25.2558C4.0661 24.7194 4.37659 24.2678 4.74355 23.8444C4.99759 23.5339 5.25163 23.2516 5.44922 22.9694C6.35249 21.7274 6.52185 20.4289 6.77589 19.0176Z" fill="#161616"/>
<path fill-rule="evenodd" clip-rule="evenodd" d="M3.42068 26.4695C2.82791 25.5098 2.715 23.4493 2.85614 22.6024C2.94082 21.9814 2.91259 21.3605 2.85614 20.7395C2.74323 19.6104 2.46096 18.3966 2.09401 17.5498C1.75528 18.1426 1.38833 18.7353 1.04961 19.4975C0.37216 21.1911 0.343933 22.6871 1.50124 24.1832C1.95287 24.7759 2.77146 26.0744 3.42068 26.4695Z" fill="#161616"/>
<path fill-rule="evenodd" clip-rule="evenodd" d="M5.67883 24.8047C5.42478 25.3128 5.2272 25.6797 4.94492 26.0184C4.43684 26.6677 3.90052 27.1193 3.50535 27.7403C3.19485 28.2484 3.02549 28.7282 2.96903 29.2646C2.91258 29.7444 2.91258 30.1396 2.99726 30.5065C3.13839 31.2687 3.59003 32.2566 4.18279 32.8494C4.18279 32.3695 4.21102 31.9744 4.2957 31.5792C4.40861 30.9864 4.6062 30.5065 4.86024 29.9985C5.05783 29.6315 5.19897 29.321 5.3401 28.9823C5.93287 27.5992 5.76351 26.2725 5.67883 24.8047Z" fill="#161616"/>
<path fill-rule="evenodd" clip-rule="evenodd" d="M4.1846 32.8775C3.33779 32.0307 2.71679 29.9984 2.66034 29.0951C2.60388 28.4741 2.4063 27.8531 2.18048 27.2321C1.7853 26.1313 1.22076 24.974 0.627993 24.1836C0.430404 24.861 0.204588 25.5103 0.0634525 26.3288C-0.162364 28.1636 0.176361 29.6596 1.70062 30.9581C2.29339 31.4662 3.4507 32.5952 4.1846 32.8775Z" fill="#161616"/>
<path fill-rule="evenodd" clip-rule="evenodd" d="M5.8 30.3369C5.74354 30.9297 5.65886 31.3531 5.51773 31.8047C5.23545 32.6233 4.8685 33.2443 4.67091 33.9782C4.52978 34.571 4.55801 35.1355 4.69914 35.7001C4.81205 36.2081 4.98141 36.6033 5.179 36.9703C5.60241 37.7042 6.44922 38.6074 7.2678 39.0591C7.09844 38.551 6.98553 38.1558 6.90085 37.7324C6.78794 37.0832 6.81617 36.5186 6.90085 35.9541C6.9573 35.5307 7.01376 35.1637 7.01376 34.7968C7.12667 33.1314 6.44922 31.8047 5.8 30.3369Z" fill="#161616"/>
<path fill-rule="evenodd" clip-rule="evenodd" d="M7.29062 39.0587C6.10509 38.4094 4.69374 36.49 4.29856 35.5867C4.01629 34.9657 3.56465 34.373 3.11302 33.8084C2.29444 32.7923 1.27826 31.7479 0.375 31.0986C0.403227 31.8325 0.459681 32.5664 0.600816 33.4697C1.02422 35.3891 1.92749 36.8569 3.98806 37.7602C4.80664 38.0989 6.41558 38.974 7.29062 39.0587Z" fill="#161616"/>
<path fill-rule="evenodd" clip-rule="evenodd" d="M8.02356 35.8408C8.19292 36.49 8.2776 36.9699 8.30583 37.478C8.33406 38.4377 8.16469 39.1998 8.2776 40.0466C8.36228 40.7241 8.61633 41.3169 8.98328 41.8532C9.322 42.3613 9.6325 42.7282 9.99945 43.0669C10.7616 43.7162 12.0318 44.4501 13.0762 44.6759C12.681 44.196 12.3987 43.8008 12.1729 43.3774C11.806 42.7282 11.6084 42.1072 11.4673 41.4862C11.3543 41.0064 11.2414 40.6112 11.1285 40.216C10.5358 38.4377 9.29378 37.2239 8.02356 35.8408Z" fill="#161616"/>
<path fill-rule="evenodd" clip-rule="evenodd" d="M13.1039 44.7043C11.5796 44.3656 9.32148 42.7284 8.53113 41.9098C7.96659 41.3171 7.28914 40.8372 6.55524 40.3574C5.28502 39.5105 3.76076 38.692 2.547 38.2686C2.88572 39.0589 3.22445 39.821 3.73253 40.7243C4.94629 42.6437 6.49878 43.9422 9.06744 44.3091C10.0554 44.422 12.1442 44.8737 13.1039 44.7043Z" fill="#161616"/>
<path fill-rule="evenodd" clip-rule="evenodd" d="M12.6562 41.0068C13.1361 41.5996 13.4184 42.0512 13.6442 42.5593C14.0676 43.519 14.2652 44.3094 14.7451 45.128C15.1402 45.7772 15.6765 46.2853 16.2975 46.7369C16.8621 47.1321 17.3702 47.4144 17.9065 47.6402C18.9791 48.0636 20.6445 48.4023 21.83 48.3176C21.209 47.9507 20.7292 47.6402 20.3058 47.2732C19.6283 46.7369 19.1485 46.2006 18.7251 45.5796C18.4146 45.1562 18.1041 44.761 17.7936 44.3941C16.4387 42.8416 14.6039 41.9948 12.6562 41.0068Z" fill="#161616"/>
<path fill-rule="evenodd" clip-rule="evenodd" d="M21.8817 48.3174C20.1316 48.4303 17.0266 47.4988 15.8411 46.906C14.9943 46.4826 14.0628 46.2004 13.0748 45.9463C11.353 45.4947 9.40531 45.1277 7.9375 45.0713C8.64318 45.7487 9.32062 46.4262 10.2521 47.1601C12.3691 48.7126 14.5709 49.5312 17.45 49.1078C18.5509 48.9666 20.9219 48.7973 21.8817 48.3174Z" fill="#161616"/>
<path fill-rule="evenodd" clip-rule="evenodd" d="M45.7081 8.71442C43.3088 7.19016 40.7966 4.84732 36.5625 3.2666C39.6675 3.29483 44.579 5.24249 45.7081 8.71442Z" fill="#161616"/>
<path fill-rule="evenodd" clip-rule="evenodd" d="M42.9375 9.19434C43.4456 9.42015 43.8125 9.56129 44.2359 9.6742C45.0263 9.87178 45.6755 9.92824 46.353 10.1541C46.8893 10.3234 47.3409 10.6057 47.7079 10.9162C48.0466 11.1985 48.3006 11.4807 48.4982 11.763C48.8934 12.3275 49.2321 13.2308 49.2321 13.9082C48.9216 13.5978 48.6394 13.3437 48.3289 13.1179C47.849 12.7792 47.3974 12.5251 46.8893 12.3275C46.5223 12.1864 46.2118 12.0453 45.9013 11.8759C44.6029 11.1985 43.8408 10.2387 42.9375 9.19434Z" fill="#161616"/>
<path fill-rule="evenodd" clip-rule="evenodd" d="M49.2557 13.9367C49.2557 12.9488 48.3524 11.2834 47.8161 10.6342C47.4492 10.1825 47.1669 9.67445 46.9128 9.13813C46.4612 8.20664 46.066 7.13401 45.9531 6.31543C46.5177 6.65415 47.1104 7.02111 47.7314 7.50096C49.0863 8.60182 49.8485 9.78735 49.6509 11.3963C49.5944 12.0455 49.5944 13.4004 49.2557 13.9367Z" fill="#161616"/>
<path fill-rule="evenodd" clip-rule="evenodd" d="M46.875 14.1055C47.3266 14.416 47.6654 14.6136 48.0323 14.7829C48.7662 15.0934 49.3872 15.2628 49.98 15.6015C50.4598 15.8555 50.8268 16.1943 51.1373 16.5894C51.4196 16.9282 51.5889 17.2387 51.73 17.5492C51.9841 18.1702 52.1252 19.1299 51.9559 19.7791C51.73 19.4122 51.5042 19.1299 51.2502 18.8476C50.8832 18.4242 50.4881 18.1137 50.0364 17.8314C49.7259 17.6338 49.4437 17.4363 49.1614 17.2387C48.0605 16.3636 47.5242 15.2628 46.875 14.1055Z" fill="#161616"/>
<path fill-rule="evenodd" clip-rule="evenodd" d="M51.9898 19.8076C52.2157 18.8479 51.7076 17.0413 51.3124 16.3357C51.0583 15.8276 50.889 15.2913 50.7761 14.7267C50.5503 13.7388 50.4091 12.6379 50.4656 11.8193C50.9454 12.271 51.4253 12.6944 51.9616 13.2871C53.0342 14.5856 53.5141 15.884 52.9778 17.4365C52.7802 18.0293 52.4415 19.3277 51.9898 19.8076Z" fill="#161616"/>
<path fill-rule="evenodd" clip-rule="evenodd" d="M49.2031 19.0176C49.5701 19.4692 49.8523 19.7797 50.1911 20.062C50.8403 20.5983 51.4613 20.937 51.9694 21.4451C52.3928 21.8685 52.6468 22.3201 52.8444 22.8C53.0138 23.2516 53.0985 23.6186 53.1267 23.9855C53.1831 24.7194 52.9573 25.7638 52.5621 26.4413C52.4492 25.9897 52.3081 25.6227 52.167 25.2558C51.9129 24.7194 51.6024 24.2678 51.2355 23.8444C50.9814 23.5339 50.7274 23.2516 50.5298 22.9694C49.6265 21.7274 49.4572 20.4289 49.2031 19.0176Z" fill="#161616"/>
<path fill-rule="evenodd" clip-rule="evenodd" d="M52.5625 26.4695C53.1553 25.5098 53.2682 23.4493 53.127 22.6024C53.0424 21.9814 53.0706 21.3605 53.127 20.7395C53.2399 19.6104 53.5222 18.3966 53.8892 17.5498C54.2279 18.1426 54.5948 18.7353 54.9336 19.4975C55.611 21.1911 55.6392 22.6871 54.4819 24.1832C54.0303 24.7759 53.2117 26.0744 52.5625 26.4695Z" fill="#161616"/>
<path fill-rule="evenodd" clip-rule="evenodd" d="M50.3076 24.8047C50.5617 25.3128 50.7593 25.6797 51.0415 26.0184C51.5496 26.6677 52.0859 27.1193 52.4811 27.7403C52.7916 28.2484 52.961 28.7282 53.0174 29.2646C53.0739 29.7444 53.0739 30.1396 52.9892 30.5065C52.8481 31.2687 52.3964 32.2566 51.8037 32.8494C51.8037 32.3695 51.7754 31.9744 51.6908 31.5792C51.5779 30.9864 51.3803 30.5065 51.1262 29.9985C50.9286 29.6315 50.7875 29.321 50.6464 28.9823C50.0536 27.5992 50.223 26.2725 50.3076 24.8047Z" fill="#161616"/>
<path fill-rule="evenodd" clip-rule="evenodd" d="M51.8047 32.8775C52.6515 32.0307 53.2725 29.9984 53.3289 29.0951C53.3854 28.4741 53.583 27.8531 53.8088 27.2321C54.204 26.1313 54.7685 24.974 55.3613 24.1836C55.5589 24.861 55.7847 25.5103 55.9258 26.3288C56.1799 28.1354 55.8412 29.6314 54.2887 30.9299C53.6959 31.4662 52.5386 32.5953 51.8047 32.8775Z" fill="#161616"/>
<path fill-rule="evenodd" clip-rule="evenodd" d="M50.2022 30.3369C50.2586 30.9297 50.3433 31.3531 50.4844 31.8047C50.7667 32.6233 51.1337 33.2443 51.3313 33.9782C51.4724 34.571 51.4442 35.1355 51.303 35.7C51.1901 36.2081 51.0208 36.6033 50.8232 36.9703C50.3998 37.7042 49.553 38.6074 48.7344 39.0591C48.9037 38.551 49.0166 38.1558 49.1013 37.7324C49.2142 37.0832 49.186 36.5186 49.1013 35.9541C49.0449 35.5307 48.9884 35.1637 48.9884 34.7968C48.8755 33.1314 49.553 31.8047 50.2022 30.3369Z" fill="#161616"/>
<path fill-rule="evenodd" clip-rule="evenodd" d="M48.7031 39.0587C49.8887 38.4094 51.3 36.49 51.6952 35.5867C51.9775 34.9657 52.4291 34.373 52.8807 33.8084C53.6993 32.7923 54.7155 31.7479 55.6187 31.0986C55.5905 31.8325 55.5341 32.5664 55.3929 33.4697C54.9695 35.3891 54.0663 36.8569 52.0057 37.7602C51.1871 38.0989 49.5782 38.974 48.7031 39.0587Z" fill="#161616"/>
<path fill-rule="evenodd" clip-rule="evenodd" d="M47.9745 35.8408C47.8051 36.49 47.7205 36.9699 47.6922 37.478C47.664 38.4377 47.8334 39.1998 47.7205 40.0466C47.6358 40.7241 47.3817 41.3169 47.0148 41.8532C46.6761 42.3613 46.3656 42.7282 45.9986 43.0669C45.2365 43.7162 43.9663 44.4501 42.9219 44.6759C43.3171 44.196 43.5993 43.8008 43.8251 43.3774C44.1921 42.7282 44.3897 42.1072 44.5308 41.4862C44.6437 41.0064 44.7566 40.6112 44.8695 40.216C45.4623 38.4377 46.7043 37.2239 47.9745 35.8408Z" fill="#161616"/>
<path fill-rule="evenodd" clip-rule="evenodd" d="M42.8906 44.7043C44.4149 44.3656 46.6731 42.7284 47.4634 41.9098C48.0279 41.3171 48.7054 40.8372 49.4393 40.3574C50.7095 39.5105 52.2338 38.692 53.4475 38.2686C53.1088 39.0589 52.7701 39.821 52.262 40.7243C51.0482 42.6437 49.4958 43.9422 46.9271 44.3091C45.9391 44.422 43.8503 44.8737 42.8906 44.7043Z" fill="#161616"/>
<path fill-rule="evenodd" clip-rule="evenodd" d="M43.3457 41.0068C42.8658 41.5996 42.5835 42.0512 42.3577 42.5593C41.9343 43.519 41.7367 44.3094 41.2569 45.128C40.8617 45.7772 40.3254 46.2853 39.7044 46.7369C39.1398 47.1321 38.6317 47.4144 38.0954 47.6402C37.0228 48.0636 35.3574 48.4023 34.1719 48.3176C34.7929 47.9507 35.2727 47.6402 35.6961 47.2732C36.3736 46.7369 36.8534 46.2006 37.2768 45.5796C37.5873 45.1562 37.8978 44.761 38.2083 44.3941C39.5632 42.8416 41.398 41.9948 43.3457 41.0068Z" fill="#161616"/>
<path fill-rule="evenodd" clip-rule="evenodd" d="M34.1094 48.3174C35.8595 48.4303 38.9644 47.4988 40.15 46.906C40.9968 46.4826 41.9283 46.2004 42.9162 45.9463C44.6381 45.4947 46.5857 45.1277 48.0535 45.0713C47.3479 45.7487 46.6704 46.4262 45.7389 47.1601C43.6219 48.7126 41.4202 49.5312 38.541 49.1078C37.4402 48.9666 35.0691 48.7973 34.1094 48.3174Z" fill="#161616"/>
<path d="M35.1075 27.228C33.9117 27.228 32.7912 26.7337 31.7732 25.9291L32.0211 24.7932L32.0319 24.7511C32.2526 23.5418 32.9529 21.5118 35.1075 21.5118C36.7233 21.5118 38.0376 22.795 38.0376 24.3725C38.0322 25.9448 36.718 27.228 35.1075 27.228ZM35.1075 18.6144C32.3549 18.6144 30.2221 20.3603 29.3549 23.2314C28.0298 21.291 27.0279 18.9615 26.4409 17H23.4784V24.525C23.4784 26.0079 22.2395 27.2173 20.7205 27.2173C19.2016 27.2173 17.9628 26.0079 17.9628 24.525V17H15V24.525C14.9893 27.6066 17.5586 30.1359 20.7149 30.1359C23.8714 30.1359 26.4407 27.6066 26.4407 24.525V23.263C27.017 24.4356 27.7226 25.6187 28.5791 26.6706L26.7638 35H29.7964L31.1106 28.958C32.2633 29.6784 33.5884 30.1307 35.1073 30.1307C38.3552 30.1307 41 27.533 41 24.362C41 21.1963 38.3554 18.6144 35.1075 18.6144Z" fill="#161616"/>
</g>
<defs>
<clipPath id="clip0_1_1039">
<rect width="56" height="56" fill="white"/>
</clipPath>
</defs>
</svg>
