<svg width="121" height="120" viewBox="0 0 121 120" fill="none" xmlns="http://www.w3.org/2000/svg">
<g clip-path="url(#clip0_1_993)">
<path d="M43.2157 103.234C43.2157 103.234 67.7732 103.355 75.8784 110.13L71.6443 111.642C71.6443 111.642 60.1519 103.476 40.1309 104.988C41.1591 104.081 43.2157 103.234 43.2157 103.234Z" fill="white"/>
<path d="M77.7574 103.234C77.7574 103.234 53.1999 103.355 45.0947 110.13L49.3288 111.642C49.3288 111.642 60.8212 103.476 80.8422 104.988C79.814 104.081 77.7574 103.234 77.7574 103.234Z" fill="white"/>
<path fill-rule="evenodd" clip-rule="evenodd" d="M22.5312 18.6739C27.6726 15.3471 32.9954 10.3872 42.1289 7C35.4754 7.06049 24.9507 11.2341 22.5312 18.6739Z" fill="white"/>
<path fill-rule="evenodd" clip-rule="evenodd" d="M28.4592 19.7031C27.3704 20.187 26.5841 20.4894 25.6768 20.7314C23.9832 21.1548 22.592 21.2758 21.1403 21.7597C19.9911 22.1226 19.0233 22.7274 18.237 23.3928C17.5111 23.9977 16.9668 24.6025 16.5434 25.2074C15.6965 26.4171 14.9707 28.3527 14.9707 29.8044C15.6361 29.139 16.2409 28.5946 16.9063 28.1107C17.9345 27.3849 18.9023 26.8405 19.9306 26.4171C20.7169 26.1147 21.3823 25.8123 22.0476 25.4493C24.8905 23.9977 26.5236 21.9411 28.4592 19.7031Z" fill="white"/>
<path fill-rule="evenodd" clip-rule="evenodd" d="M14.9101 29.8646C14.9101 27.7475 16.8457 24.1788 17.995 22.7876C18.7813 21.8199 19.3861 20.7311 19.9305 19.5819C20.8983 17.5858 21.7451 15.2873 21.9871 13.5332C20.7773 14.259 19.5071 15.0454 18.1764 16.0736C15.2731 18.4326 13.6399 20.973 14.0633 24.4208C14.1843 25.812 14.1843 28.7153 14.9101 29.8646Z" fill="white"/>
<path fill-rule="evenodd" clip-rule="evenodd" d="M20.0518 30.2266C19.0841 30.8919 18.3582 31.3153 17.5719 31.6782C15.9993 32.3436 14.6685 32.7065 13.3983 33.4323C12.3701 33.9767 11.5837 34.7026 10.9184 35.5494C10.3135 36.2752 9.9506 36.9406 9.64817 37.6059C9.10379 38.9366 8.80136 40.9932 9.16428 42.3843C9.64817 41.598 10.1321 40.9932 10.6764 40.3883C11.4628 39.481 12.3096 38.8156 13.2774 38.2108C13.9427 37.7874 14.5476 37.364 15.1524 36.9406C17.5114 35.0655 18.6607 32.7065 20.0518 30.2266Z" fill="white"/>
<path fill-rule="evenodd" clip-rule="evenodd" d="M9.10676 42.4458C8.62287 40.3893 9.71162 36.5181 10.5584 35.006C11.1028 33.9172 11.4657 32.768 11.7077 31.5582C12.1916 29.4412 12.494 27.0822 12.373 25.3281C11.3448 26.2959 10.3165 27.2032 9.16725 28.4734C6.86876 31.2558 5.84049 34.0382 6.98973 37.3649C7.41314 38.6352 8.13898 41.4175 9.10676 42.4458Z" fill="white"/>
<path fill-rule="evenodd" clip-rule="evenodd" d="M15.0295 40.752C14.2432 41.7197 13.6383 42.3851 12.9125 42.99C11.5213 44.1392 10.1906 44.865 9.10186 45.9538C8.19456 46.8611 7.65018 47.8289 7.22678 48.8571C6.86386 49.8249 6.6824 50.6113 6.62191 51.3976C6.50094 52.9702 6.98483 55.2082 7.83164 56.6599C8.07359 55.6921 8.37602 54.9058 8.67845 54.1195C9.22283 52.9702 9.88818 52.0024 10.6745 51.0951C11.2189 50.4298 11.7633 49.8249 12.1867 49.2201C14.1222 46.5587 14.4852 43.7763 15.0295 40.752Z" fill="white"/>
<path fill-rule="evenodd" clip-rule="evenodd" d="M7.83045 56.7212C6.56023 54.6646 6.31828 50.2491 6.62072 48.4345C6.80218 47.1038 6.74169 45.7731 6.62072 44.4424C6.37877 42.0229 5.7739 39.422 4.98758 37.6074C4.26174 38.8776 3.47542 40.1479 2.74958 41.781C1.2979 45.4102 1.23742 48.616 3.71736 51.8217C4.68515 53.092 6.43926 55.8743 7.83045 56.7212Z" fill="white"/>
<path fill-rule="evenodd" clip-rule="evenodd" d="M12.6723 53.1504C12.1279 54.2391 11.7045 55.0255 11.0996 55.7513C10.0109 57.1425 8.86161 58.1103 8.0148 59.441C7.34945 60.5297 6.98653 61.558 6.86556 62.7073C6.74459 63.7355 6.74459 64.5823 6.92605 65.3687C7.22848 67.0018 8.19626 69.1188 9.46648 70.389C9.46648 69.3608 9.52697 68.514 9.70843 67.6671C9.95037 66.3969 10.3738 65.3687 10.9182 64.2799C11.3416 63.4936 11.644 62.8282 11.9464 62.1024C13.2166 59.1386 12.8537 56.2957 12.6723 53.1504Z" fill="white"/>
<path fill-rule="evenodd" clip-rule="evenodd" d="M9.467 70.4502C7.6524 68.6356 6.3217 64.2805 6.20073 62.345C6.07975 61.0143 5.65635 59.6836 5.17246 58.3529C4.32565 55.9939 3.11592 53.5139 1.8457 51.8203C1.42229 53.272 0.938402 54.6632 0.63597 56.4173C0.152078 60.3489 0.877916 63.5547 4.14419 66.3371C5.4144 67.4258 7.89435 69.8453 9.467 70.4502Z" fill="white"/>
<path fill-rule="evenodd" clip-rule="evenodd" d="M12.9169 65.0078C12.7959 66.278 12.6144 67.1853 12.312 68.1531C11.7071 69.9072 10.9208 71.2379 10.4974 72.8106C10.195 74.0808 10.2555 75.2905 10.5579 76.5002C10.7999 77.589 11.1628 78.4358 11.5862 79.2221C12.4935 80.7948 14.3081 82.7304 16.0622 83.6981C15.6993 82.6094 15.4573 81.7626 15.2759 80.8553C15.0339 79.4641 15.0944 78.2544 15.2759 77.0446C15.3968 76.1373 15.5178 75.351 15.5178 74.5647C15.7597 70.996 14.3081 68.1531 12.9169 65.0078Z" fill="white"/>
<path fill-rule="evenodd" clip-rule="evenodd" d="M16.1229 83.6978C13.5825 82.3066 10.5581 78.1935 9.71133 76.258C9.10647 74.9273 8.13868 73.6571 7.1709 72.4473C5.41679 70.2698 3.23928 68.0318 1.30371 66.6406C1.3642 68.2133 1.48517 69.7859 1.7876 71.7215C2.6949 75.8346 4.63047 78.9799 9.04598 80.9154C10.8001 81.6413 14.2478 83.5164 16.1229 83.6978Z" fill="white"/>
<path fill-rule="evenodd" clip-rule="evenodd" d="M17.6926 76.8027C18.0555 78.1939 18.237 79.2222 18.2975 80.3109C18.358 82.3675 17.9951 84.0006 18.237 85.8152C18.4185 87.2669 18.9628 88.5371 19.7492 89.6864C20.475 90.7751 21.1404 91.5614 21.9267 92.2873C23.5598 93.6785 26.2817 95.2511 28.5197 95.735C27.6729 94.7067 27.068 93.8599 26.5841 92.9526C25.7978 91.5614 25.3744 90.2307 25.072 88.9C24.83 87.8718 24.5881 87.0249 24.3461 86.1781C23.0759 82.3675 20.4145 79.7666 17.6926 76.8027Z" fill="white"/>
<path fill-rule="evenodd" clip-rule="evenodd" d="M28.58 95.7948C25.3137 95.069 20.4748 91.5608 18.7811 89.8067C17.5714 88.5364 16.1197 87.5082 14.5471 86.4799C11.8252 84.6653 8.55893 82.9112 5.95801 82.0039C6.68385 83.6975 7.40968 85.3307 8.49844 87.2662C11.0994 91.3793 14.4261 94.1617 19.9304 94.948C22.0474 95.19 26.5234 96.1577 28.58 95.7948Z" fill="white"/>
<path fill-rule="evenodd" clip-rule="evenodd" d="M27.6143 87.8711C28.6425 89.1413 29.2474 90.1091 29.7313 91.1979C30.6386 93.2544 31.062 94.948 32.0903 96.7021C32.9371 98.0933 34.0863 99.1821 35.417 100.15C36.6267 100.997 37.7155 101.602 38.8647 102.085C41.1632 102.993 44.7319 103.719 47.2724 103.537C45.9417 102.751 44.9134 102.085 44.0061 101.299C42.5544 100.15 41.5262 99.0006 40.6189 97.6699C39.9535 96.7626 39.2882 95.9158 38.6228 95.1295C35.7194 91.8027 31.7878 89.9881 27.6143 87.8711Z" fill="white"/>
<path fill-rule="evenodd" clip-rule="evenodd" d="M47.3901 103.538C43.6399 103.78 36.9864 101.784 34.446 100.514C32.6314 99.6064 30.6353 99.0015 28.5183 98.4571C24.8286 97.4893 20.6551 96.703 17.5098 96.582C19.0219 98.0337 20.4736 99.4854 22.4697 101.058C27.0061 104.385 31.7241 106.139 37.8937 105.232C40.2527 104.929 45.3336 104.566 47.3901 103.538Z" fill="white"/>
<path fill-rule="evenodd" clip-rule="evenodd" d="M98.4509 18.6739C93.3095 15.4076 87.9262 10.3872 78.8533 7C85.5068 7.06049 96.0314 11.2341 98.4509 18.6739Z" fill="white"/>
<path fill-rule="evenodd" clip-rule="evenodd" d="M92.5183 19.7031C93.6071 20.187 94.3934 20.4894 95.3007 20.7314C96.9943 21.1548 98.3855 21.2758 99.8372 21.7597C100.986 22.1226 101.954 22.7274 102.741 23.3928C103.466 23.9977 104.011 24.6025 104.434 25.2074C105.281 26.4171 106.007 28.3527 106.007 29.8044C105.341 29.139 104.737 28.5946 104.071 28.1107C103.043 27.3849 102.075 26.8405 100.986 26.4171C100.2 26.1147 99.5347 25.8123 98.8694 25.4493C96.087 23.9977 94.4539 21.9411 92.5183 19.7031Z" fill="white"/>
<path fill-rule="evenodd" clip-rule="evenodd" d="M106.069 29.8646C106.069 27.7475 104.133 24.1788 102.984 22.7876C102.198 21.8199 101.593 20.7311 101.048 19.5819C100.081 17.5858 99.2339 15.2873 98.9919 13.5332C100.202 14.259 101.472 15.0454 102.803 16.0736C105.706 18.4326 107.339 20.973 106.916 24.4208C106.795 25.812 106.795 28.7153 106.069 29.8646Z" fill="white"/>
<path fill-rule="evenodd" clip-rule="evenodd" d="M100.937 30.2266C101.904 30.8919 102.63 31.3153 103.416 31.6782C104.989 32.3436 106.32 32.7065 107.59 33.4323C108.618 33.9767 109.405 34.7026 110.07 35.5494C110.675 36.2752 111.038 36.9406 111.34 37.6059C111.885 38.9366 112.187 40.9932 111.824 42.3843C111.34 41.598 110.856 40.9932 110.312 40.3883C109.526 39.481 108.679 38.8156 107.711 38.2108C107.046 37.7874 106.441 37.364 105.836 36.9406C103.477 35.0655 102.328 32.7065 100.937 30.2266Z" fill="white"/>
<path fill-rule="evenodd" clip-rule="evenodd" d="M111.886 42.4458C112.37 40.3893 111.281 36.5181 110.434 35.006C109.89 33.9172 109.527 32.768 109.285 31.5582C108.801 29.4412 108.499 27.0822 108.62 25.3281C109.648 26.2959 110.676 27.2032 111.825 28.4734C114.124 31.2558 115.152 34.0382 114.003 37.3649C113.58 38.6352 112.854 41.4175 111.886 42.4458Z" fill="white"/>
<path fill-rule="evenodd" clip-rule="evenodd" d="M105.948 40.752C106.735 41.7197 107.339 42.3851 108.065 42.99C109.456 44.1392 110.787 44.865 111.876 45.9538C112.783 46.8611 113.328 47.8289 113.751 48.8571C114.114 49.8249 114.295 50.6113 114.356 51.3976C114.477 52.9702 113.993 55.2082 113.146 56.6599C112.904 55.6921 112.602 54.9058 112.299 54.1195C111.755 52.9702 111.09 52.0024 110.303 51.0951C109.759 50.4298 109.215 49.8249 108.791 49.2201C106.856 46.5587 106.493 43.7763 105.948 40.752Z" fill="white"/>
<path fill-rule="evenodd" clip-rule="evenodd" d="M113.146 56.7212C114.416 54.6646 114.658 50.2491 114.356 48.4345C114.175 47.1038 114.235 45.7731 114.356 44.4424C114.598 42.0229 115.203 39.422 115.989 37.6074C116.715 38.8776 117.501 40.1479 118.227 41.781C119.679 45.4102 119.739 48.616 117.259 51.8217C116.292 53.092 114.537 55.8743 113.146 56.7212Z" fill="white"/>
<path fill-rule="evenodd" clip-rule="evenodd" d="M108.313 53.1504C108.857 54.2391 109.28 55.0255 109.885 55.7513C110.974 57.1425 112.123 58.1103 112.97 59.441C113.635 60.5297 113.998 61.558 114.119 62.7073C114.24 63.7355 114.24 64.5823 114.059 65.3687C113.756 67.0018 112.789 69.1188 111.518 70.389C111.518 69.3608 111.458 68.514 111.276 67.6671C111.034 66.3969 110.611 65.3687 110.067 64.2799C109.643 63.4936 109.341 62.8282 109.038 62.1024C107.768 59.1386 108.131 56.2957 108.313 53.1504Z" fill="white"/>
<path fill-rule="evenodd" clip-rule="evenodd" d="M111.518 70.4502C113.332 68.6356 114.663 64.2805 114.784 62.345C114.905 61.0143 115.328 59.6836 115.812 58.3529C116.659 55.9939 117.869 53.5139 119.139 51.8203C119.562 53.272 120.046 54.6632 120.349 56.4173C120.893 60.2884 120.167 63.4942 116.84 66.2766C115.57 67.4258 113.09 69.8453 111.518 70.4502Z" fill="white"/>
<path fill-rule="evenodd" clip-rule="evenodd" d="M108.079 65.0078C108.2 66.278 108.381 67.1853 108.684 68.1531C109.289 69.9072 110.075 71.2379 110.498 72.8106C110.801 74.0808 110.74 75.2905 110.438 76.5002C110.196 77.589 109.833 78.4358 109.41 79.2221C108.502 80.7948 106.688 82.7304 104.934 83.6981C105.297 82.6094 105.538 81.7626 105.72 80.8553C105.962 79.4641 105.901 78.2544 105.72 77.0446C105.599 76.1373 105.478 75.351 105.478 74.5647C105.236 70.996 106.688 68.1531 108.079 65.0078Z" fill="white"/>
<path fill-rule="evenodd" clip-rule="evenodd" d="M104.871 83.6978C107.412 82.3066 110.436 78.1935 111.283 76.258C111.888 74.9273 112.855 73.6571 113.823 72.4473C115.577 70.2698 117.755 68.0318 119.69 66.6406C119.63 68.2133 119.509 69.7859 119.206 71.7215C118.299 75.8346 116.364 78.9799 111.948 80.9154C110.194 81.6413 106.746 83.5164 104.871 83.6978Z" fill="white"/>
<path fill-rule="evenodd" clip-rule="evenodd" d="M103.294 76.8027C102.931 78.1939 102.749 79.2222 102.689 80.3109C102.629 82.3675 102.991 84.0006 102.75 85.8152C102.568 87.2669 102.024 88.5371 101.237 89.6864C100.512 90.7751 99.8461 91.5614 99.0598 92.2873C97.4267 93.6785 94.7048 95.2511 92.4668 95.735C93.3136 94.7067 93.9185 93.8599 94.4024 92.9526C95.1887 91.5614 95.6121 90.2307 95.9145 88.9C96.1565 87.8718 96.3984 87.0249 96.6404 86.1781C97.9106 82.3675 100.572 79.7666 103.294 76.8027Z" fill="white"/>
<path fill-rule="evenodd" clip-rule="evenodd" d="M92.4043 95.7948C95.6706 95.069 100.509 91.5608 102.203 89.8067C103.413 88.5364 104.865 87.5082 106.437 86.4799C109.159 84.6653 112.425 82.9112 115.026 82.0039C114.3 83.6975 113.575 85.3307 112.486 87.2662C109.885 91.3793 106.558 94.1617 101.054 94.948C98.9368 95.19 94.4608 96.1577 92.4043 95.7948Z" fill="white"/>
<path fill-rule="evenodd" clip-rule="evenodd" d="M93.3769 87.8711C92.3486 89.1413 91.7437 90.1091 91.2598 91.1979C90.3525 93.2544 89.9291 94.948 88.9009 96.7021C88.0541 98.0933 86.9048 99.1821 85.5741 100.15C84.3644 100.997 83.2756 101.602 82.1264 102.085C79.8279 102.993 76.2592 103.719 73.7188 103.537C75.0495 102.751 76.0777 102.085 76.985 101.299C78.4367 100.15 79.465 99.0006 80.3723 97.6699C81.0376 96.7626 81.703 95.9158 82.3683 95.1295C85.2717 91.8027 89.2033 89.9881 93.3769 87.8711Z" fill="white"/>
<path fill-rule="evenodd" clip-rule="evenodd" d="M73.5938 103.538C77.3439 103.78 83.9974 101.784 86.5379 100.514C88.3524 99.6064 90.3485 99.0015 92.4655 98.4571C96.1552 97.4893 100.329 96.703 103.474 96.582C101.962 98.0337 100.51 99.4854 98.5142 101.058C93.9777 104.385 89.2597 106.139 83.0901 105.232C80.7312 104.929 75.6503 104.566 73.5938 103.538Z" fill="white"/>
<path d="M54.7439 82C54.2345 82 53.7598 81.91 53.3199 81.73C52.88 81.546 52.5003 81.294 52.1807 80.974C51.8658 80.654 51.6389 80.282 51.5 79.858L53.1115 79.486C53.1764 79.718 53.2944 79.918 53.4658 80.086C53.6418 80.254 53.8455 80.384 54.0771 80.476C54.3132 80.568 54.5563 80.614 54.8064 80.614C55.1306 80.614 55.4269 80.546 55.6955 80.41C55.9641 80.274 56.1771 80.092 56.3346 79.864C56.492 79.632 56.5707 79.376 56.5707 79.096C56.5707 78.816 56.4897 78.562 56.3276 78.334C56.1702 78.102 55.9572 77.92 55.6886 77.788C55.42 77.652 55.1259 77.584 54.8064 77.584C54.422 77.584 54.1025 77.644 53.8478 77.764C53.5978 77.884 53.4056 78.012 53.2713 78.148L51.8404 77.752L52.146 73.18H57.578V74.536H53.0421L53.6672 74.026L53.4449 77.206L53.1393 76.882C53.3986 76.678 53.6996 76.526 54.0423 76.426C54.385 76.326 54.7161 76.276 55.0356 76.276C55.6608 76.276 56.2142 76.4 56.6958 76.648C57.182 76.892 57.5617 77.226 57.835 77.65C58.1128 78.074 58.2517 78.556 58.2517 79.096C58.2517 79.636 58.0897 80.126 57.7655 80.566C57.4413 81.002 57.013 81.35 56.4804 81.61C55.9525 81.87 55.3737 82 54.7439 82Z" fill="white"/>
<path d="M59.779 81.82V80.338H61.4948V81.82H59.779Z" fill="white"/>
<path d="M66.9019 82C66.1933 82 65.5682 81.87 65.0264 81.61C64.4846 81.346 64.0608 80.98 63.7552 80.512C63.4542 80.044 63.3037 79.504 63.3037 78.892V76.108C63.3037 75.496 63.4542 74.956 63.7552 74.488C64.0608 74.02 64.4846 73.656 65.0264 73.396C65.5682 73.132 66.1933 73 66.9019 73C67.6104 73 68.2332 73.132 68.7704 73.396C69.3122 73.656 69.7359 74.02 70.0415 74.488C70.3472 74.956 70.5 75.496 70.5 76.108V78.892C70.5 79.504 70.3472 80.044 70.0415 80.512C69.7359 80.98 69.3122 81.346 68.7704 81.61C68.2332 81.87 67.6104 82 66.9019 82ZM66.9019 80.626C67.2538 80.626 67.5733 80.554 67.8604 80.41C68.1475 80.262 68.3745 80.066 68.5412 79.822C68.7079 79.574 68.7912 79.298 68.7912 78.994V76C68.7912 75.692 68.7079 75.416 68.5412 75.172C68.3745 74.924 68.1475 74.728 67.8604 74.584C67.5733 74.436 67.2538 74.362 66.9019 74.362C66.5499 74.362 66.2304 74.436 65.9433 74.584C65.6562 74.728 65.4293 74.924 65.2625 75.172C65.0958 75.416 65.0125 75.692 65.0125 76V78.994C65.0125 79.298 65.0958 79.574 65.2625 79.822C65.4293 80.066 65.6562 80.262 65.9433 80.41C66.2304 80.554 66.5499 80.626 66.9019 80.626Z" fill="white"/>
<path d="M75.1276 57.3366V54H45.8724V57.3366H40.5L42.4745 62.1683L40.5 67H50.3897V63.6642H70.6103V67H80.5L78.5255 62.1683L80.5 57.3366H75.1276Z" fill="white"/>
<path d="M55.7695 42.4724C56.0746 42.7654 56.2135 43.187 56.1414 43.6009L55.4619 47.5065C55.2808 48.548 56.3894 49.342 57.3383 48.8506L60.8971 47.0063C61.2742 46.8111 61.724 46.8111 62.1011 47.0063L65.6599 48.8506C66.6088 49.3426 67.7181 48.548 67.5363 47.5065L66.8568 43.6009C66.7847 43.1876 66.9243 42.7654 67.2287 42.4724L70.1079 39.7062C70.8758 38.9685 70.4519 37.6833 69.3914 37.5317L65.4126 36.9617C64.9914 36.9015 64.6272 36.6405 64.439 36.2644L62.6599 32.7106C62.1855 31.7631 60.8147 31.7631 60.3402 32.7106L58.5611 36.2644C58.3729 36.6405 58.0088 36.9015 57.5875 36.9617L53.6088 37.5317C52.5476 37.6839 52.1244 38.9685 52.8922 39.7062L55.7715 42.4724H55.7695Z" fill="white"/>
<path d="M68.7613 43.9866L70.6808 45.7764C70.8843 45.9657 70.9768 46.2393 70.9288 46.5068L70.4758 49.0338C70.3547 49.7079 71.0943 50.2216 71.7265 49.9034L74.099 48.7101C74.3498 48.584 74.6502 48.584 74.901 48.7101L77.2735 49.9034C77.9056 50.2216 78.6453 49.7079 78.5242 49.0338L78.0712 46.5068C78.0232 46.2393 78.1157 45.9664 78.3192 45.7764L80.2387 43.9866C80.7504 43.5093 80.468 42.6781 79.7606 42.5794L77.1086 42.2104C76.8277 42.1713 76.5854 42.0026 76.4592 41.7592L75.273 39.4598C74.9569 38.8467 74.0431 38.8467 73.727 39.4598L72.5408 41.7592C72.4153 42.0026 72.1723 42.1713 71.8914 42.2104L69.2394 42.5794C68.532 42.6774 68.2496 43.5093 68.7613 43.9866Z" fill="white"/>
<path d="M42.8625 45.7764C43.083 45.9657 43.1832 46.2393 43.1312 46.5068L42.6404 49.0338C42.5092 49.7079 43.3105 50.2216 43.9954 49.9034L46.5656 48.7101C46.8373 48.584 47.1627 48.584 47.4344 48.7101L50.0046 49.9034C50.6902 50.2216 51.4908 49.7079 51.3596 49.0338L50.8688 46.5068C50.8168 46.2393 50.917 45.9664 51.1375 45.7764L53.2169 43.9866C53.7713 43.5093 53.4654 42.6781 52.699 42.5794L49.826 42.2104C49.5216 42.1713 49.2584 42.0026 49.1225 41.7592L47.8374 39.4598C47.495 38.8467 46.505 38.8467 46.1626 39.4598L44.8775 41.7592C44.7416 42.0026 44.4784 42.1713 44.174 42.2104L41.301 42.5794C40.5346 42.6774 40.2287 43.5093 40.7831 43.9866L42.8625 45.7764Z" fill="white"/>
</g>
<defs>
<clipPath id="clip0_1_993">
<rect width="120" height="120" fill="white" transform="translate(0.5)"/>
</clipPath>
</defs>
</svg>
