<svg width="120" height="120" viewBox="0 0 120 120" fill="none" xmlns="http://www.w3.org/2000/svg">
<g clip-path="url(#clip0_1_988)">
<path d="M42.7157 103.234C42.7157 103.234 67.2732 103.355 75.3784 110.13L71.1443 111.642C71.1443 111.642 59.6519 103.476 39.6309 104.988C40.6591 104.081 42.7157 103.234 42.7157 103.234Z" fill="white"/>
<path d="M77.2574 103.234C77.2574 103.234 52.6999 103.355 44.5947 110.13L48.8288 111.642C48.8288 111.642 60.3212 103.476 80.3422 104.988C79.314 104.081 77.2574 103.234 77.2574 103.234Z" fill="white"/>
<path fill-rule="evenodd" clip-rule="evenodd" d="M22.0312 18.6739C27.1726 15.3471 32.4954 10.3872 41.6289 7C34.9754 7.06049 24.4507 11.2341 22.0312 18.6739Z" fill="white"/>
<path fill-rule="evenodd" clip-rule="evenodd" d="M27.9592 19.7031C26.8704 20.187 26.0841 20.4894 25.1768 20.7314C23.4832 21.1548 22.092 21.2758 20.6403 21.7597C19.4911 22.1226 18.5233 22.7274 17.737 23.3928C17.0111 23.9977 16.4668 24.6025 16.0434 25.2074C15.1965 26.4171 14.4707 28.3527 14.4707 29.8044C15.1361 29.139 15.7409 28.5946 16.4063 28.1107C17.4345 27.3849 18.4023 26.8405 19.4306 26.4171C20.2169 26.1147 20.8823 25.8123 21.5476 25.4493C24.3905 23.9977 26.0236 21.9411 27.9592 19.7031Z" fill="white"/>
<path fill-rule="evenodd" clip-rule="evenodd" d="M14.4101 29.8646C14.4101 27.7475 16.3457 24.1788 17.495 22.7876C18.2813 21.8199 18.8861 20.7311 19.4305 19.5819C20.3983 17.5858 21.2451 15.2873 21.4871 13.5332C20.2773 14.259 19.0071 15.0454 17.6764 16.0736C14.7731 18.4326 13.1399 20.973 13.5633 24.4208C13.6843 25.812 13.6843 28.7153 14.4101 29.8646Z" fill="white"/>
<path fill-rule="evenodd" clip-rule="evenodd" d="M19.5518 30.2266C18.5841 30.8919 17.8582 31.3153 17.0719 31.6782C15.4993 32.3436 14.1685 32.7065 12.8983 33.4323C11.8701 33.9767 11.0837 34.7026 10.4184 35.5494C9.81352 36.2752 9.4506 36.9406 9.14817 37.6059C8.60379 38.9366 8.30136 40.9932 8.66428 42.3843C9.14817 41.598 9.63206 40.9932 10.1764 40.3883C10.9628 39.481 11.8096 38.8156 12.7774 38.2108C13.4427 37.7874 14.0476 37.364 14.6524 36.9406C17.0114 35.0655 18.1607 32.7065 19.5518 30.2266Z" fill="white"/>
<path fill-rule="evenodd" clip-rule="evenodd" d="M8.60676 42.4458C8.12287 40.3893 9.21162 36.5181 10.0584 35.006C10.6028 33.9172 10.9657 32.768 11.2077 31.5582C11.6916 29.4412 11.994 27.0822 11.873 25.3281C10.8448 26.2959 9.81649 27.2032 8.66725 28.4734C6.36876 31.2558 5.34049 34.0382 6.48973 37.3649C6.91314 38.6352 7.63898 41.4175 8.60676 42.4458Z" fill="white"/>
<path fill-rule="evenodd" clip-rule="evenodd" d="M14.5295 40.752C13.7432 41.7197 13.1383 42.3851 12.4125 42.99C11.0213 44.1392 9.69061 44.865 8.60186 45.9538C7.69456 46.8611 7.15018 47.8289 6.72678 48.8571C6.36386 49.8249 6.1824 50.6113 6.12191 51.3976C6.00094 52.9702 6.48483 55.2082 7.33164 56.6599C7.57359 55.6921 7.87602 54.9058 8.17845 54.1195C8.72283 52.9702 9.38818 52.0024 10.1745 51.0951C10.7189 50.4298 11.2633 49.8249 11.6867 49.2201C13.6222 46.5587 13.9852 43.7763 14.5295 40.752Z" fill="white"/>
<path fill-rule="evenodd" clip-rule="evenodd" d="M7.33045 56.7212C6.06023 54.6646 5.81828 50.2491 6.12072 48.4345C6.30218 47.1038 6.24169 45.7731 6.12072 44.4424C5.87877 42.0229 5.2739 39.422 4.48758 37.6074C3.76174 38.8776 2.97542 40.1479 2.24958 41.781C0.797904 45.4102 0.737417 48.616 3.21736 51.8217C4.18515 53.092 5.93926 55.8743 7.33045 56.7212Z" fill="white"/>
<path fill-rule="evenodd" clip-rule="evenodd" d="M12.1723 53.1504C11.6279 54.2391 11.2045 55.0255 10.5996 55.7513C9.51086 57.1425 8.36161 58.1103 7.5148 59.441C6.84945 60.5297 6.48653 61.558 6.36556 62.7073C6.24459 63.7355 6.24459 64.5823 6.42605 65.3687C6.72848 67.0018 7.69626 69.1188 8.96648 70.389C8.96648 69.3608 9.02697 68.514 9.20843 67.6671C9.45037 66.3969 9.87378 65.3687 10.4182 64.2799C10.8416 63.4936 11.144 62.8282 11.4464 62.1024C12.7166 59.1386 12.3537 56.2957 12.1723 53.1504Z" fill="white"/>
<path fill-rule="evenodd" clip-rule="evenodd" d="M8.967 70.4502C7.1524 68.6356 5.8217 64.2805 5.70073 62.345C5.57975 61.0143 5.15635 59.6836 4.67246 58.3529C3.82565 55.9939 2.61592 53.5139 1.3457 51.8203C0.922294 53.272 0.438402 54.6632 0.13597 56.4173C-0.347922 60.3489 0.377916 63.5547 3.64419 66.3371C4.9144 67.4258 7.39435 69.8453 8.967 70.4502Z" fill="white"/>
<path fill-rule="evenodd" clip-rule="evenodd" d="M12.4169 65.0078C12.2959 66.278 12.1144 67.1853 11.812 68.1531C11.2071 69.9072 10.4208 71.2379 9.99742 72.8106C9.69499 74.0808 9.75547 75.2905 10.0579 76.5002C10.2999 77.589 10.6628 78.4358 11.0862 79.2221C11.9935 80.7948 13.8081 82.7304 15.5622 83.6981C15.1993 82.6094 14.9573 81.7626 14.7759 80.8553C14.5339 79.4641 14.5944 78.2544 14.7759 77.0446C14.8968 76.1373 15.0178 75.351 15.0178 74.5647C15.2597 70.996 13.8081 68.1531 12.4169 65.0078Z" fill="white"/>
<path fill-rule="evenodd" clip-rule="evenodd" d="M15.6229 83.6978C13.0825 82.3066 10.0581 78.1935 9.21133 76.258C8.60647 74.9273 7.63868 73.6571 6.6709 72.4473C4.91679 70.2698 2.73928 68.0318 0.803711 66.6406C0.864197 68.2133 0.98517 69.7859 1.2876 71.7215C2.1949 75.8346 4.13047 78.9799 8.54598 80.9154C10.3001 81.6413 13.7478 83.5164 15.6229 83.6978Z" fill="white"/>
<path fill-rule="evenodd" clip-rule="evenodd" d="M17.1926 76.8027C17.5555 78.1939 17.737 79.2222 17.7975 80.3109C17.858 82.3675 17.4951 84.0006 17.737 85.8152C17.9185 87.2669 18.4628 88.5371 19.2492 89.6864C19.975 90.7751 20.6404 91.5614 21.4267 92.2873C23.0598 93.6785 25.7817 95.2511 28.0197 95.735C27.1729 94.7067 26.568 93.8599 26.0841 92.9526C25.2978 91.5614 24.8744 90.2307 24.572 88.9C24.33 87.8718 24.0881 87.0249 23.8461 86.1781C22.5759 82.3675 19.9145 79.7666 17.1926 76.8027Z" fill="white"/>
<path fill-rule="evenodd" clip-rule="evenodd" d="M28.08 95.7948C24.8137 95.069 19.9748 91.5608 18.2811 89.8067C17.0714 88.5364 15.6197 87.5082 14.0471 86.4799C11.3252 84.6653 8.05893 82.9112 5.45801 82.0039C6.18385 83.6975 6.90968 85.3307 7.99844 87.2662C10.5994 91.3793 13.9261 94.1617 19.4304 94.948C21.5474 95.19 26.0234 96.1577 28.08 95.7948Z" fill="white"/>
<path fill-rule="evenodd" clip-rule="evenodd" d="M27.1143 87.8711C28.1425 89.1413 28.7474 90.1091 29.2313 91.1979C30.1386 93.2544 30.562 94.948 31.5903 96.7021C32.4371 98.0933 33.5863 99.1821 34.917 100.15C36.1267 100.997 37.2155 101.602 38.3647 102.085C40.6632 102.993 44.2319 103.719 46.7724 103.537C45.4417 102.751 44.4134 102.085 43.5061 101.299C42.0544 100.15 41.0262 99.0006 40.1189 97.6699C39.4535 96.7626 38.7882 95.9158 38.1228 95.1295C35.2194 91.8027 31.2878 89.9881 27.1143 87.8711Z" fill="white"/>
<path fill-rule="evenodd" clip-rule="evenodd" d="M46.8901 103.538C43.1399 103.78 36.4864 101.784 33.946 100.514C32.1314 99.6064 30.1353 99.0015 28.0183 98.4571C24.3286 97.4893 20.1551 96.703 17.0098 96.582C18.5219 98.0337 19.9736 99.4854 21.9697 101.058C26.5061 104.385 31.2241 106.139 37.3937 105.232C39.7527 104.929 44.8336 104.566 46.8901 103.538Z" fill="white"/>
<path fill-rule="evenodd" clip-rule="evenodd" d="M97.9509 18.6739C92.8095 15.4076 87.4262 10.3872 78.3533 7C85.0068 7.06049 95.5314 11.2341 97.9509 18.6739Z" fill="white"/>
<path fill-rule="evenodd" clip-rule="evenodd" d="M92.0183 19.7031C93.1071 20.187 93.8934 20.4894 94.8007 20.7314C96.4943 21.1548 97.8855 21.2758 99.3372 21.7597C100.486 22.1226 101.454 22.7274 102.241 23.3928C102.966 23.9977 103.511 24.6025 103.934 25.2074C104.781 26.4171 105.507 28.3527 105.507 29.8044C104.841 29.139 104.237 28.5946 103.571 28.1107C102.543 27.3849 101.575 26.8405 100.486 26.4171C99.7001 26.1147 99.0347 25.8123 98.3694 25.4493C95.587 23.9977 93.9539 21.9411 92.0183 19.7031Z" fill="white"/>
<path fill-rule="evenodd" clip-rule="evenodd" d="M105.569 29.8646C105.569 27.7475 103.633 24.1788 102.484 22.7876C101.698 21.8199 101.093 20.7311 100.548 19.5819C99.5807 17.5858 98.7339 15.2873 98.4919 13.5332C99.7017 14.259 100.972 15.0454 102.303 16.0736C105.206 18.4326 106.839 20.973 106.416 24.4208C106.295 25.812 106.295 28.7153 105.569 29.8646Z" fill="white"/>
<path fill-rule="evenodd" clip-rule="evenodd" d="M100.437 30.2266C101.404 30.8919 102.13 31.3153 102.916 31.6782C104.489 32.3436 105.82 32.7065 107.09 33.4323C108.118 33.9767 108.905 34.7026 109.57 35.5494C110.175 36.2752 110.538 36.9406 110.84 37.6059C111.385 38.9366 111.687 40.9932 111.324 42.3843C110.84 41.598 110.356 40.9932 109.812 40.3883C109.026 39.481 108.179 38.8156 107.211 38.2108C106.546 37.7874 105.941 37.364 105.336 36.9406C102.977 35.0655 101.828 32.7065 100.437 30.2266Z" fill="white"/>
<path fill-rule="evenodd" clip-rule="evenodd" d="M111.386 42.4458C111.87 40.3893 110.781 36.5181 109.934 35.006C109.39 33.9172 109.027 32.768 108.785 31.5582C108.301 29.4412 107.999 27.0822 108.12 25.3281C109.148 26.2959 110.176 27.2032 111.325 28.4734C113.624 31.2558 114.652 34.0382 113.503 37.3649C113.08 38.6352 112.354 41.4175 111.386 42.4458Z" fill="white"/>
<path fill-rule="evenodd" clip-rule="evenodd" d="M105.448 40.752C106.235 41.7197 106.839 42.3851 107.565 42.99C108.956 44.1392 110.287 44.865 111.376 45.9538C112.283 46.8611 112.828 47.8289 113.251 48.8571C113.614 49.8249 113.795 50.6113 113.856 51.3976C113.977 52.9702 113.493 55.2082 112.646 56.6599C112.404 55.6921 112.102 54.9058 111.799 54.1195C111.255 52.9702 110.59 52.0024 109.803 51.0951C109.259 50.4298 108.715 49.8249 108.291 49.2201C106.356 46.5587 105.993 43.7763 105.448 40.752Z" fill="white"/>
<path fill-rule="evenodd" clip-rule="evenodd" d="M112.646 56.7212C113.916 54.6646 114.158 50.2491 113.856 48.4345C113.675 47.1038 113.735 45.7731 113.856 44.4424C114.098 42.0229 114.703 39.422 115.489 37.6074C116.215 38.8776 117.001 40.1479 117.727 41.781C119.179 45.4102 119.239 48.616 116.759 51.8217C115.792 53.092 114.037 55.8743 112.646 56.7212Z" fill="white"/>
<path fill-rule="evenodd" clip-rule="evenodd" d="M107.813 53.1504C108.357 54.2391 108.78 55.0255 109.385 55.7513C110.474 57.1425 111.623 58.1103 112.47 59.441C113.135 60.5297 113.498 61.558 113.619 62.7073C113.74 63.7355 113.74 64.5823 113.559 65.3687C113.256 67.0018 112.289 69.1188 111.018 70.389C111.018 69.3608 110.958 68.514 110.776 67.6671C110.534 66.3969 110.111 65.3687 109.567 64.2799C109.143 63.4936 108.841 62.8282 108.538 62.1024C107.268 59.1386 107.631 56.2957 107.813 53.1504Z" fill="white"/>
<path fill-rule="evenodd" clip-rule="evenodd" d="M111.018 70.4502C112.832 68.6356 114.163 64.2805 114.284 62.345C114.405 61.0143 114.828 59.6836 115.312 58.3529C116.159 55.9939 117.369 53.5139 118.639 51.8203C119.062 53.272 119.546 54.6632 119.849 56.4173C120.393 60.2884 119.667 63.4942 116.34 66.2766C115.07 67.4258 112.59 69.8453 111.018 70.4502Z" fill="white"/>
<path fill-rule="evenodd" clip-rule="evenodd" d="M107.579 65.0078C107.7 66.278 107.881 67.1853 108.184 68.1531C108.789 69.9072 109.575 71.2379 109.998 72.8106C110.301 74.0808 110.24 75.2905 109.938 76.5002C109.696 77.589 109.333 78.4358 108.91 79.2221C108.002 80.7948 106.188 82.7304 104.434 83.6981C104.797 82.6094 105.038 81.7626 105.22 80.8553C105.462 79.4641 105.401 78.2544 105.22 77.0446C105.099 76.1373 104.978 75.351 104.978 74.5647C104.736 70.996 106.188 68.1531 107.579 65.0078Z" fill="white"/>
<path fill-rule="evenodd" clip-rule="evenodd" d="M104.371 83.6978C106.912 82.3066 109.936 78.1935 110.783 76.258C111.388 74.9273 112.355 73.6571 113.323 72.4473C115.077 70.2698 117.255 68.0318 119.19 66.6406C119.13 68.2133 119.009 69.7859 118.706 71.7215C117.799 75.8346 115.864 78.9799 111.448 80.9154C109.694 81.6413 106.246 83.5164 104.371 83.6978Z" fill="white"/>
<path fill-rule="evenodd" clip-rule="evenodd" d="M102.794 76.8027C102.431 78.1939 102.249 79.2222 102.189 80.3109C102.129 82.3675 102.491 84.0006 102.25 85.8152C102.068 87.2669 101.524 88.5371 100.737 89.6864C100.012 90.7751 99.3461 91.5614 98.5598 92.2873C96.9267 93.6785 94.2048 95.2511 91.9668 95.735C92.8136 94.7067 93.4185 93.8599 93.9024 92.9526C94.6887 91.5614 95.1121 90.2307 95.4145 88.9C95.6565 87.8718 95.8984 87.0249 96.1404 86.1781C97.4106 82.3675 100.072 79.7666 102.794 76.8027Z" fill="white"/>
<path fill-rule="evenodd" clip-rule="evenodd" d="M91.9043 95.7948C95.1706 95.069 100.009 91.5608 101.703 89.8067C102.913 88.5364 104.365 87.5082 105.937 86.4799C108.659 84.6653 111.925 82.9112 114.526 82.0039C113.8 83.6975 113.075 85.3307 111.986 87.2662C109.385 91.3793 106.058 94.1617 100.554 94.948C98.4368 95.19 93.9608 96.1577 91.9043 95.7948Z" fill="white"/>
<path fill-rule="evenodd" clip-rule="evenodd" d="M92.8769 87.8711C91.8486 89.1413 91.2437 90.1091 90.7598 91.1979C89.8525 93.2544 89.4291 94.948 88.4009 96.7021C87.5541 98.0933 86.4048 99.1821 85.0741 100.15C83.8644 100.997 82.7756 101.602 81.6264 102.085C79.3279 102.993 75.7592 103.719 73.2188 103.537C74.5495 102.751 75.5777 102.085 76.485 101.299C77.9367 100.15 78.965 99.0006 79.8723 97.6699C80.5376 96.7626 81.203 95.9158 81.8683 95.1295C84.7717 91.8027 88.7033 89.9881 92.8769 87.8711Z" fill="white"/>
<path fill-rule="evenodd" clip-rule="evenodd" d="M73.0938 103.538C76.8439 103.78 83.4974 101.784 86.0379 100.514C87.8524 99.6064 89.8485 99.0015 91.9655 98.4571C95.6552 97.4893 99.8288 96.703 102.974 96.582C101.462 98.0337 100.01 99.4854 98.0142 101.058C93.4777 104.385 88.7597 106.139 82.5901 105.232C80.2312 104.929 75.1503 104.566 73.0938 103.538Z" fill="white"/>
<path d="M40 42.1734V65.7C40 66.7458 40.5153 67.7245 41.3776 68.3164L58.0751 79.7763C59.1508 80.5145 60.5687 80.5192 61.6492 79.7881L78.605 68.3148C79.4774 67.7245 80 66.7398 80 65.6866V42.1734C80 40.4208 78.5792 39 76.8266 39H43.1734C41.4208 39 40 40.4208 40 42.1734Z" fill="white"/>
<path d="M69.4469 59.9501C69.31 60.3933 68.9002 60.6955 68.4363 60.6955H51.8407C51.3769 60.6955 50.9671 60.3933 50.8301 59.9501L48.8473 53.5348C48.5901 52.7026 49.3927 51.9336 50.2132 52.2261L53.7767 53.4966C54.1908 53.6442 54.6531 53.5203 54.9379 53.1853L59.3325 48.0147C59.7549 47.5177 60.5221 47.5177 60.9445 48.0147L65.3392 53.1853C65.6239 53.5203 66.0862 53.6442 66.5004 53.4966L70.0639 52.2261C70.8843 51.9336 71.6869 52.7026 71.4297 53.5348L69.4469 59.9501Z" fill="#010C07"/>
<path d="M51.0605 63.9785C51.0605 63.3943 51.5341 62.9207 52.1183 62.9207H68.1588C68.743 62.9207 69.2165 63.3943 69.2165 63.9785V64.0881C69.2165 64.6723 68.743 65.1459 68.1588 65.1459H52.1183C51.5341 65.1459 51.0605 64.6723 51.0605 64.0881V63.9785Z" fill="#010C07"/>
</g>
<defs>
<clipPath id="clip0_1_988">
<rect width="120" height="120" fill="white"/>
</clipPath>
</defs>
</svg>
