<svg aria-hidden="true" style="position:absolute;width:0;height:0;overflow:hidden" xmlns="http://www.w3.org/2000/svg">
  <defs>
    <symbol id="icon-calendar" viewBox="0 0 32 32">
      <path d="M27 31H5a2 2 0 0 1-2-2V7a2 2 0 0 1 2-2h2v1a3 3 0 1 0 6 0V5h6v1a3 3 0 0 0 6 0V5h2a2 2 0 0 1 2 2v22a2 2 0 0 1-2 2zm0-19H5v17h22V12zm-17 5H7v-3h3v3zm0 5H7v-3h3v3zm0 5H7v-3h3v3zm5-10h-3v-3h3v3zm0 5h-3v-3h3v3zm0 5h-3v-3h3v3zm5-10h-3v-3h3v3zm0 5h-3v-3h3v3zm0 5h-3v-3h3v3zm5-10h-3v-3h3v3zm0 5h-3v-3h3v3zm0 5h-3v-3h3v3zM21.969 8A1.969 1.969 0 0 1 20 6.031V3.969a1.968 1.968 0 1 1 3.938 0v2.062A1.969 1.969 0 0 1 21.969 8zm-12 0A1.969 1.969 0 0 1 8 6.031V3.969a1.968 1.968 0 1 1 3.938 0v2.062A1.97 1.97 0 0 1 9.969 8z"/>
    </symbol>
    <symbol id="icon-left-slide" viewBox="0 0 32 32">
      <path d="M7.527 14.916a1.55 1.55 0 0 0 0 2.17l13.631 13.665a1.53 1.53 0 0 0 2.165 0 1.534 1.534 0 0 0 0-2.168L10.775 16 23.324 3.419c.598-.6.598-1.57 0-2.17a1.53 1.53 0 0 0-2.165 0L7.527 14.916z"/>
    </symbol>
    <symbol id="icon-right-slide" viewBox="0 0 32 32">
      <path d="M24.473 14.916a1.55 1.55 0 0 1 0 2.17l-13.63 13.665a1.53 1.53 0 0 1-2.165 0 1.534 1.534 0 0 1 0-2.168L21.226 16 8.677 3.419a1.537 1.537 0 0 1 0-2.17 1.53 1.53 0 0 1 2.165 0l13.632 13.667z"/>
    </symbol>
    <symbol id="icon-upwork" viewBox="0 0 100 32">
      <path fill="#fff" style="fill:var(--color1, #fff)" d="M64.651 7.745c-4.388.021-7.962 3.681-7.942 8.238s3.63 8.182 8.018 8.162 7.963-3.681 7.942-8.236c-.021-4.555-3.63-8.183-8.02-8.162l.002-.002zm.061 13.058c-1.244.007-2.439-.488-3.323-1.376s-1.374-2.097-1.388-3.36.481-2.475 1.356-3.373c.875-.897 2.066-1.394 3.31-1.408s2.439.488 3.323 1.376 1.374 2.097 1.388 3.359c.013 2.533-2.171 4.768-4.666 4.781zm17.715-9.196c-2.295.011-4.082 1.943-4.071 4.271l.037 7.795-3.492.017L74.83 8.2l3.492-.017.012 2.429s1.484-2.435 4.478-2.449l.998-.006.016 3.441-1.4.008zM47.595 8.332l2.644 10.618 2.744-10.644 3.492-.016-4.32 15.519-3.391.016-2.743-10.819-2.644 10.844-3.392.016-4.56-15.468 3.391-.016 3.041 10.616 2.446-10.642 3.291-.024zm46.419 6.866c2.386-1.428 4.072-4.069 4.058-7.106l-3.492.017c.013 2.633-2.074 4.769-4.567 4.778l-.499.002L89.459.64l-3.492.017.107 22.979 3.49-.016-.033-7.288.398-.002c.399-.002.8.199.901.502l4.919 6.758 4.09-.019-5.826-8.374zM27.343 7.924c-3.79.019-6.671 2.563-7.75 6.617-1.809-2.826-3.221-6.058-4.03-8.787l-3.989.019.049 10.73c.004 1.02-.391 2-1.098 2.725s-1.67 1.135-2.675 1.14c-1.005.004-1.971-.396-2.685-1.114s-1.118-1.694-1.123-2.715l-.05-10.73-3.991.019.049 10.73c.021 4.453 3.527 7.981 7.817 7.96s7.766-3.581 7.746-8.034l-.009-1.822c.804 1.615 1.81 3.331 2.916 4.845l-2.439 11.855 4.089-.019 1.759-8.614c1.6 1.006 3.389 1.604 5.492 1.593 4.39-.021 7.965-3.681 7.942-8.338-.017-2.146-.869-4.198-2.371-5.708S29.46 7.92 27.345 7.923l-.001.001zm.057 12.249c-1.596.007-3.194-.694-4.496-1.801l.391-1.62v-.093c.293-1.723 1.174-4.663 4.168-4.676 1.055-.002 2.069.42 2.82 1.172s1.178 1.776 1.19 2.847c-.09 2.329-1.976 4.16-4.072 4.17l-.001.001z"/>
    </symbol>
    <symbol id="icon-location" viewBox="0 0 32 32">
      <path fill="#fff" style="fill:var(--color1, #fff)" d="M16 1.667c4.964 0 9 4.072 9 9.095 0 1.701-.749 3.812-1.84 5.917-2.401 4.636-6.401 9.305-6.401 9.305a1 1 0 0 1-1.518 0s-4-4.669-6.401-9.305C7.749 14.574 7 12.463 7 10.762c0-5.023 4.036-9.095 9-9.095zM16 7c-2.024 0-3.667 1.643-3.667 3.667s1.643 3.667 3.667 3.667 3.667-1.643 3.667-3.667S18.024 7 16 7z"/>
      <path fill="#fff" style="fill:var(--color1, #fff)" d="M22.379 23.17c1.084.325 1.977.728 2.595 1.2.4.304.693.601.693.964 0 .213-.121.407-.292.6-.283.319-.703.605-1.223.872-1.837.94-4.808 1.528-8.152 1.528s-6.315-.588-8.152-1.528c-.52-.267-.94-.553-1.223-.872-.171-.193-.292-.387-.292-.6 0-.363.293-.66.693-.964.617-.472 1.511-.875 2.595-1.2a1 1 0 0 0-.576-1.916c-1.651.497-2.933 1.179-3.704 1.932-.677.66-1.008 1.399-1.008 2.148 0 .936.529 1.869 1.605 2.648 1.888 1.365 5.68 2.352 10.061 2.352s8.173-.987 10.061-2.352c1.076-.779 1.605-1.712 1.605-2.648 0-.749-.331-1.488-1.008-2.148-.771-.753-2.053-1.435-3.704-1.932a1 1 0 0 0-.576 1.916z"/>
    </symbol>
    <symbol id="icon-arrow-right-1" viewBox="0 0 32 32">
      <path d="M21.135 25.632a2.974 2.974 0 0 1-2.488.138L8.301 21.634a1.454 1.454 0 1 1 1.085-2.701l8.291 3.293-7.368-13.857a1.454 1.454 0 1 1 2.568-1.366l7.368 13.857 1.887-8.705a1.464 1.464 0 1 1 2.865.601l-2.354 10.847a2.96 2.96 0 0 1-1.508 2.029z"/>
    </symbol>
    <symbol id="icon-Icons_social-media-3" viewBox="0 0 32 32">
      <path stroke-width=".914" d="M30.788 11.659c-.093-1.246-.232-2.202-.425-2.899-.35-1.26-1.141-2.051-2.4-2.401-.759-.206-2.147-.378-4.197-.495-2.038-.117-4.698-.18-7.982-.18l-2.508.094c-1.721 0-3.583.047-5.619.157h-.004c-2.08.095-3.382.235-4.064.424-1.26.35-2.051 1.141-2.401 2.4-.423 1.558-.675 4.034-.675 7.455l.094 1.32v.016c0 .928.046 1.999.155 3.246v.006c.094 1.247.232 2.202.425 2.899.35 1.26 1.141 2.051 2.401 2.401.759.206 2.147.377 4.196.495 2.038.117 4.698.18 7.982.18l2.508-.094c1.721 0 3.583-.047 5.619-.157h.004c2.08-.095 3.382-.235 4.064-.424l2.826-14.443zm0 0v.006m0-.006v.006m.001 0c.109 1.246.155 2.317.155 3.245v.016m-.155-3.261.155 3.262m0-.001.001.016m-.001-.016.001.016m.001.001.093 1.304m-.093-1.304.093 1.304m0 0c-.001 3.421-.252 5.897-.675 7.455-.35 1.26-1.141 2.05-2.401 2.401l3.076-9.855zm-18.863 4.699v.792l9.528-5.508-9.528-5.508v10.223z"/>
    </symbol>
    <symbol id="icon-Icons_social-media-4" viewBox="0 0 32 32">
      <path stroke-width="1.123" d="M15.714 31.186c-1.317 0-2.579-.168-3.789-.48.609-1.042 1.337-2.446 1.645-3.64v-.001l.706-2.686c.263.224.562.421.882.586a5.427 5.427 0 0 0 2.461.597c5.159 0 8.726-4.719 8.726-10.336 0-5.53-4.526-9.63-10.244-9.63-3.519 0-6.262 1.186-8.126 3.061-1.86 1.87-2.81 4.392-2.81 7.001 0 1.249.329 2.629.917 3.821.585 1.185 1.459 2.25 2.596 2.775.176.081.481.193.795.065.342-.139.463-.457.511-.658.056-.224.32-1.296.438-1.787l.001-.004.001-.004c.03-.132.045-.292.007-.469a1.09 1.09 0 0 0-.233-.464l-.001-.001c-.553-.668-1.036-1.99-1.036-3.233 0-3.169 2.392-6.249 6.524-6.249 1.799 0 3.293.611 4.335 1.625 1.041 1.012 1.663 2.458 1.663 4.192 0 2.034-.515 3.712-1.321 4.865-.802 1.147-1.877 1.762-3.053 1.762-1.219 0-2.058-.975-1.779-2.144.155-.653.36-1.317.565-1.983.082-.265.164-.531.243-.796.267-.899.506-1.813.506-2.58 0-.695-.186-1.385-.618-1.913-.444-.543-1.106-.86-1.932-.86-2.02 0-3.401 2.044-3.401 4.375 0 .758.128 1.394.257 1.843a5.823 5.823 0 0 0 .185.543l-.024.103-.18.762-.566 2.395-1.029 4.363v.001c-.261 1.128-.24 2.573-.153 3.746C4.202 27.345.611 22.1.611 16.013c0-8.018 6.233-14.58 14.118-15.107h.982c8.345 0 15.138 6.776 15.138 15.141 0 8.364-6.793 15.141-15.138 15.141z"/>
    </symbol>
    <symbol id="icon-Icons_social-media-5" viewBox="0 0 32 32">
      <path stroke-width=".914" d="M6.394 22.268a5.998 5.998 0 0 1-1.855-2.299 6.77 6.77 0 0 0 2.317-.222l-.032-.889c-2.517-.503-4.471-2.614-4.764-5.227a6.569 6.569 0 0 0 2.435.483h1.542l-1.293-.84c-1.613-1.048-2.662-2.898-2.662-4.994 0-.861.181-1.685.508-2.427a18.743 18.743 0 0 0 13.168 6.402l.601.031-.132-.587a6.322 6.322 0 0 1-.154-1.38c0-3.331 2.684-6.022 5.96-6.022 1.767 0 3.312.702 4.412 1.905l.175.192.255-.053a13.67 13.67 0 0 0 3.054-1.012 6.03 6.03 0 0 1-2.121 2.182l.295.844c.793-.102 1.571-.27 2.324-.505a12.154 12.154 0 0 1-2.168 2.007l-.203.146.013.249c.014.273.014.533.014.822 0 8.369-6.357 17.984-17.892 17.984-2.881 0-5.608-.69-8.022-1.913a13.219 13.219 0 0 0 7.961-2.876l.994-.791-1.27-.023a5.956 5.956 0 0 1-3.46-1.188zm-4.561 4.881h.001v-.177l-.001.177z"/>
    </symbol>
    <symbol id="icon-Icons_social-media-6" viewBox="0 0 32 32">
      <path d="M13.393 13.389a1.315 1.315 0 1 1-2.63 0 1.315 1.315 0 0 1 2.63 0zm6.576-1.315a1.315 1.315 0 1 0 0 2.63 1.315 1.315 0 0 0 0-2.63zm5.26-1.973v6.575a3.292 3.292 0 0 1-3.288 3.288H10.105a3.292 3.292 0 0 1-3.288-3.288v-6.575a3.292 3.292 0 0 1 3.288-3.288h11.836a3.292 3.292 0 0 1 3.288 3.288zm-1.315 0a1.975 1.975 0 0 0-1.973-1.973H10.105a1.975 1.975 0 0 0-1.973 1.973v6.575c0 1.088.885 1.973 1.973 1.973h11.836a1.975 1.975 0 0 0 1.973-1.973v-6.575zm7.89 3.945a.659.659 0 0 1-.658.658h-1.973v7.233a4.608 4.608 0 0 1-4.603 4.603h-2.015l-5.241 4.333a1.931 1.931 0 0 1-1.287.484 1.98 1.98 0 0 1-1.316-.5L9.586 26.54H7.474a4.608 4.608 0 0 1-4.603-4.603v-7.233H.898a.659.659 0 0 1 0-1.316h1.973V4.84A4.608 4.608 0 0 1 7.474.237H24.57a4.608 4.608 0 0 1 4.603 4.603v8.548h1.973c.363 0 .658.295.658.658zm-3.945-9.205a3.292 3.292 0 0 0-3.288-3.288H7.475a3.292 3.292 0 0 0-3.288 3.288v17.096a3.292 3.292 0 0 0 3.288 3.288h2.353c.155 0 .305.055.423.154l5.322 4.483a.659.659 0 0 0 .888.012l5.442-4.499a.663.663 0 0 1 .418-.15h2.25a3.292 3.292 0 0 0 3.288-3.288V4.841z"/>
    </symbol>
    <symbol id="icon-Icons_social-media-7" viewBox="0 0 32 32">
      <path d="M28.818 5.771H3.481A3.115 3.115 0 0 0 .369 8.883v13.964a3.115 3.115 0 0 0 3.112 3.112h25.337a3.115 3.115 0 0 0 3.112-3.112V8.883a3.115 3.115 0 0 0-3.112-3.112zm-7.185 10.094 8.974-7.558c.06.186.091.381.091.576v13.964c0 .196-.031.39-.091.576l-8.974-7.558zm7.185-8.861c.372 0 .736.11 1.044.318l-13.713 11.55L2.436 7.322a1.875 1.875 0 0 1 1.044-.318h25.337zM1.692 23.423a1.88 1.88 0 0 1-.091-.576V8.883c0-.196.031-.39.091-.576l8.974 7.558-8.974 7.558zm1.789 1.303a1.867 1.867 0 0 1-1.044-.317l9.186-7.738 4.129 3.478a.617.617 0 0 0 .794 0l4.129-3.478 9.186 7.737a1.875 1.875 0 0 1-1.044.318H3.48z"/>
    </symbol>
    <symbol id="icon-Icons_social-media-8" viewBox="0 0 32 32">
      <path stroke-width=".714" d="M24.624 18.826h-8.167v-5.363h14.226c.148.939.218 1.896.218 2.85 0 4.713-1.683 8.671-4.585 11.344l-.243.223c-2.521 2.21-5.93 3.494-9.973 3.494a15.425 15.425 0 0 1-13.783-8.495 15.436 15.436 0 0 1 0-13.852A15.42 15.42 0 0 1 16.1.526h.004a14.81 14.81 0 0 1 10.039 3.76l-4 4a8.933 8.933 0 0 0-6.046-2.229c-4.281.001-7.904 2.888-9.196 6.761a9.808 9.808 0 0 0 0 6.27l.082.243h.009c1.365 3.745 4.921 6.512 9.113 6.512 2.186 0 4.083-.559 5.564-1.565l.156-.106v-.004a7.662 7.662 0 0 0 3.149-4.921l.076-.42h-.427z"/>
    </symbol>
    <symbol id="icon-arrow-right" viewBox="0 0 32 32">
      <path d="M21.135 25.632a2.974 2.974 0 0 1-2.488.138L8.301 21.634a1.454 1.454 0 1 1 1.085-2.701l8.291 3.293-7.368-13.857a1.454 1.454 0 1 1 2.568-1.366l7.368 13.857 1.887-8.705a1.464 1.464 0 1 1 2.865.601l-2.354 10.847a2.96 2.96 0 0 1-1.508 2.029z"/>
    </symbol>
    <symbol id="icon-Icons_social-media" viewBox="0 0 32 32">
      <path stroke-width=".93" d="M26.2 7.257a7.845 7.845 0 0 1-.67-.39l-.003-.002a9.307 9.307 0 0 1-1.703-1.447l-.004-.005-.004-.005c-1.274-1.458-1.754-2.944-1.931-3.99l-.092-.543h.027a6.288 6.288 0 0 1-.025-.41h-4.548v20.791c0 .279 0 .567-.012.853l-.005.106a.962.962 0 0 1-.003.064l-.001.016a5.132 5.132 0 0 1-2.582 4.073 5.053 5.053 0 0 1-2.504.661M26.2 7.257l-14.061 9.974v-.465c-2.82 0-5.101 2.299-5.101 5.131s2.28 5.131 5.1 5.131M26.2 7.257l.006.003c1.185.591 2.37.863 3.196.899M26.2 7.257l3.202.902m-17.264 18.87.001-.465v.465h-.001zm10.139-16.33v.555a4.994 4.994 0 0 0-.078-.051l-.115-.075-.046-.03.239-.399zm0 0c.032.019.247.16.465.304v-.304h-.465zm7.125-2.54c.172.008.328.005.465-.007l-3.454-1.308c1.134.565 2.246.813 2.989.85v.465zM6.612 30.296l.257-.368a10.76 10.76 0 0 1-.731-.558v.597c.146.113.295.223.446.329l.011.008.008-.008h.009zm0 0h.013m-.013 0-.004.006.008.008m.014-.014h.438v.301a8.986 8.986 0 0 1-.452-.288m.014-.013.316-.316-.032-.032-.036-.024-.252.371m.004.001h-.004m.004 0-.013.013m.008-.013-.009.013m6.485-12.977c.157.033.312.075.465.125l.001-.487a4.921 4.921 0 0 0-.465-.113l-.001.474zm16.301-4.22c.287.021.465.028.465.028v-.466a1.898 1.898 0 0 0-.061-.003c-.054-.003-.133-.007-.232-.014a7.613 7.613 0 0 1-.172-.012v.466zm-2.776-.881h-.001c-.001 0 0 0 0 0l-.119.45.12-.449zm-3.141-1.294-.001-.001h-.001l-.001-.001-.251.392.256-.388-.002-.002zm-4.076 17.307.362.292-.362-.292zm-7.183 3.754-.018-.465c.001 0 0 0 0 0l.019.465zm-6.22-17.479.003-.003.003-.003-.305-.351.299.356zm7.102-2.658-.001.418c.136.012.271.026.406.044l.06-.461-.465-.001zM3.196 25.329v-.069l-.027-.074-.438.156h.465v-.013zm1.392 2.446-.365.288.366-.287zm16.592-2.469-.001.002-.001.002.435.165-.433-.169z"/>
    </symbol>
    <symbol id="icon-Icons_social-media-2" viewBox="0 0 32 32">
      <path stroke-width=".914" d="M9.036 20.62v.457h3.144v9.689C5.495 29.139.518 23.103.518 15.893.518 7.445 7.357.591 15.78.591s15.262 6.854 15.262 15.302c0 7.769-5.769 14.175-13.234 15.167v-9.983h4.716v-5.641h-4.716v-2.695c0-.615.504-1.119 1.115-1.119h3.601V5.981h-4.387c-3.287 0-5.959 2.68-5.959 5.972v3.483H9.034v5.184z"/>
    </symbol>
    <symbol id="icon-meeting" viewBox="0 0 32 32">
      <path d="M19.905 12h.096c2.205 0 4-1.795 4-4V4c0-2.205-1.795-4-4-4h-8c-2.205 0-4 1.795-4 4v4c0 2.205 1.795 4 4 4h.269l2.445 2.156c.387.341.871.512 1.355.512.477 0 .955-.168 1.331-.501L19.905 12zM7.334 24c2.573 0 4.667-2.093 4.667-4.667s-2.093-4.667-4.667-4.667c-2.573 0-4.667 2.093-4.667 4.667S4.76 24 7.334 24zm12.667-4.667c0 2.573 2.093 4.667 4.667 4.667s4.667-2.093 4.667-4.667c0-2.573-2.093-4.667-4.667-4.667s-4.667 2.093-4.667 4.667zm-12.667 6c-3.245 0-6.157 1.955-7.249 4.865a1.334 1.334 0 0 0 1.248 1.801h12c.437 0 .847-.215 1.096-.573.249-.36.305-.819.152-1.228-1.091-2.911-4.004-4.865-7.249-4.865h.003zm24.583 4.866c-1.091-2.911-4.004-4.865-7.249-4.865s-6.157 1.955-7.249 4.865A1.334 1.334 0 0 0 18.667 32h12c.437 0 .847-.215 1.096-.573.249-.36.305-.819.152-1.228h.003z"/>
    </symbol>
    <symbol id="icon-research" viewBox="0 0 32 32">
      <path d="M24.491 9.952A7.764 7.764 0 0 0 13.513 20.93a7.761 7.761 0 0 0 10.977-.001 7.762 7.762 0 0 0 .001-10.977zm-.696 4.51-3.403 3.403a.901.901 0 0 1-1.273 0l-1.738-1.738-1.793 1.793a.901.901 0 0 1-1.273-1.273l2.429-2.429a.9.9 0 0 1 1.273 0l1.738 1.738 2.767-2.767a.9.9 0 1 1 1.273 1.273zM30.504 27.025a2.35 2.35 0 0 1-3.322 0l-2.641-2.641c-.593-.593-.461-1.587.177-2.13.37-.314.716-.657 1.034-1.023.545-.627 1.528-.751 2.116-.163l2.636 2.636a2.35 2.35 0 0 1 0 3.322zM5.12 5.12a.64.64 0 0 1-.64.64H1.545a.64.64 0 0 1-.453-1.093l2.935-2.935a.64.64 0 0 1 1.093.453V5.12z"/>
      <path d="M19.001 5.879c.38 0 .757.022 1.13.066.856.101 1.696-.515 1.696-1.377V1.54a.9.9 0 0 0-.9-.9H6.958v6.059a.9.9 0 0 1-.9.9H1.279a1.28 1.28 0 0 0-1.28 1.28V30.46a.9.9 0 0 0 .9.9h20.027a.9.9 0 0 0 .9-.9v-4.149c0-.862-.839-1.477-1.695-1.375a9.56 9.56 0 0 1-10.694-9.495c0-5.266 4.265-9.562 9.563-9.562zM6.877 24.1H3.12a.9.9 0 0 1 0-1.8h3.757a.9.9 0 0 1 0 1.8zm0-3.6H3.12a.9.9 0 0 1 0-1.8h3.757a.9.9 0 0 1 0 1.8zm0-3.6H3.12a.9.9 0 0 1 0-1.8h3.757a.9.9 0 0 1 0 1.8zm0-3.6H3.12a.9.9 0 0 1 0-1.8h3.757a.9.9 0 0 1 0 1.8z"/>
    </symbol>
    <symbol id="icon-roadmap" viewBox="0 0 32 32">
      <path d="M21.687 14.499h9.375c.517 0 .937-.42.937-.937v-7.5a.938.938 0 0 0-.937-.938h-9.375a.938.938 0 0 0-.937.938v2.813h-2.463a2.485 2.485 0 0 0-1.349-1.349V3.201l.649.65c.183.183.423.274.663.274s.48-.091.663-.274a.938.938 0 0 0 0-1.326l-2.25-2.25C16.488.094 16.244.003 16 .003s-.488.091-.663.272l-2.25 2.25a.938.938 0 0 0 1.326 1.326l.649-.65v4.325c-.899.37-1.534 1.256-1.534 2.287s.635 1.916 1.534 2.287v3.463c0 .029.002.058.004.087a2.486 2.486 0 0 0-1.353 1.351H11.25v-2.813a.938.938 0 0 0-.938-.937H.937a.938.938 0 0 0-.938.937v7.5c0 .518.42.938.938.938h9.375c.518 0 .938-.42.938-.938v-2.812h2.463c.251.61.739 1.098 1.349 1.349v3.552c-.899.37-1.534 1.256-1.534 2.287s.635 1.916 1.534 2.287v2.713a.937.937 0 1 0 1.874 0v-2.713a2.485 2.485 0 0 0 1.349-1.349h2.463v2.813c0 .518.42.937.937.937h9.375c.517 0 .937-.42.937-.937v-7.5a.938.938 0 0 0-.937-.937h-9.375a.938.938 0 0 0-.937.937v2.813h-2.463a2.485 2.485 0 0 0-1.349-1.349v-3.552a2.476 2.476 0 0 0 1.534-2.287 2.475 2.475 0 0 0-1.539-2.288.831.831 0 0 0 .004-.087v-3.463a2.485 2.485 0 0 0 1.349-1.349h2.463v2.813c0 .517.42.937.937.937zM6.688 18.874h-2a.938.938 0 0 1 0-1.875h2a.938.938 0 1 1 0 1.875zm18.749 6.25h2a.938.938 0 0 1 0 1.874h-2a.938.938 0 0 1 0-1.874zm0-16.25h2a.938.938 0 0 1 0 1.876h-2a.938.938 0 0 1 0-1.876z"/>
    </symbol>
    <symbol id="icon-tactic" viewBox="0 0 32 32">
      <path d="M10.99 26.375a1.562 1.562 0 1 0 .001-3.125 1.562 1.562 0 0 0-.001 3.125z"/>
      <path d="M27.197 2.883a3.414 3.414 0 0 0-2.432-1.008.622.622 0 0 0-.622.622v.628c0 1.378-1.122 2.5-2.5 2.5h-11.25a2.503 2.503 0 0 1-2.5-2.5v-.622a.628.628 0 0 0-.628-.628 3.443 3.443 0 0 0-3.438 3.434l-.026 23.25c-.001.919.356 1.783 1.005 2.433S6.319 32 7.238 32h17.5a3.443 3.443 0 0 0 3.438-3.434l.026-23.25a3.415 3.415 0 0 0-1.005-2.433zM7.552 24.813c0-1.895 1.542-3.438 3.437-3.438s3.438 1.542 3.438 3.438c0 1.895-1.542 3.437-3.438 3.437s-3.438-1.542-3.438-3.437zM18.433 9.448a.938.938 0 0 1 1.326-1.326l1.547 1.547 1.547-1.547a.938.938 0 0 1 1.326 1.326l-1.547 1.547 1.547 1.547a.938.938 0 0 1-1.326 1.326l-1.547-1.547-1.547 1.547a.935.935 0 0 1-1.326 0 .938.938 0 0 1 0-1.326l1.547-1.547-1.547-1.547zm-8.37-1.03a.938.938 0 0 1 1.326 0l2.218 2.218a.938.938 0 0 1-1.326 1.326l-.612-.612v3.238c0 1.16.729 2.217 1.814 2.629l5.449 2.071a4.712 4.712 0 0 1 3.022 4.382v3.644a.937.937 0 1 1-1.874 0V23.67c0-1.16-.729-2.217-1.813-2.629l-5.449-2.071a4.712 4.712 0 0 1-3.022-4.382V11.34l-.612.612a.938.938 0 0 1-1.326-1.326l2.207-2.207z"/>
      <path d="M9.766 3.125c0 .345.28.625.625.625h11.25c.345 0 .625-.28.625-.625v-2.5A.625.625 0 0 0 21.641 0h-11.25a.625.625 0 0 0-.625.625v2.5z"/>
    </symbol>
    <symbol id="icon-user-avatar" viewBox="0 0 32 32">
      <path d="M8.012 8.667a5.333 5.333 0 0 1 10.566-1.04 5.335 5.335 0 0 1-5.23 6.374 5.332 5.332 0 0 1-5.333-5.333zm7.655 14.44a7.763 7.763 0 0 1 2.493-5.553.4.4 0 0 0 .002-.59.39.39 0 0 0-.201-.094A9.3 9.3 0 0 0 16 16.667h-5.333c-5.413 0-7.333 3.96-7.333 7.36 0 3.04 1.613 4.64 4.667 4.64h9.213a.397.397 0 0 0 .364-.247.398.398 0 0 0-.084-.432 7.367 7.367 0 0 1-1.827-4.88zM30.04 30.04a.998.998 0 0 1-1.414 0l-2.443-2.44a5.464 5.464 0 0 1-7.297-1.015 5.464 5.464 0 0 1 .339-7.359 5.468 5.468 0 0 1 8.374 6.958l2.44 2.443a.998.998 0 0 1 0 1.414zm-3.484-6.933a3.442 3.442 0 0 0-2.127-3.183 3.444 3.444 0 0 0-4.698 2.511 3.445 3.445 0 1 0 6.824.676v-.004z"/>
    </symbol>
    <symbol id="icon-workflow-setting" viewBox="0 0 32 32">
      <path d="M4 22.667c.737 0 1.333-.596 1.333-1.333s.597-1.333 1.333-1.333h8v1.333a1.332 1.332 0 1 0 2.666 0v-1.333h8c.736 0 1.333.597 1.333 1.333a1.333 1.333 0 1 0 2.666 0c0-2.205-1.795-4-4-4h-8v-1.468a6.664 6.664 0 0 0 3.653-2.113l1.275.736a1.332 1.332 0 1 0 1.333-2.309l-1.271-.733c.223-.664.343-1.373.343-2.111s-.121-1.448-.343-2.111l1.271-.733a1.332 1.332 0 1 0-1.333-2.309l-1.275.736a6.667 6.667 0 0 0-3.653-2.113V1.338a1.333 1.333 0 1 0-2.666 0v1.468a6.664 6.664 0 0 0-3.653 2.113l-1.275-.736a1.333 1.333 0 0 0-1.333 2.309l1.271.733c-.223.664-.343 1.373-.343 2.111s.121 1.448.343 2.111l-1.271.733a1.333 1.333 0 0 0 1.333 2.309l1.275-.736a6.667 6.667 0 0 0 3.653 2.113v1.468h-8c-2.205 0-4 1.795-4 4 0 .737.596 1.333 1.333 1.333zM14 9.333c0-1.103.897-2 2-2s2 .897 2 2-.897 2-2 2-2-.897-2-2zM17.333 24h-2.667a2.67 2.67 0 0 0-2.667 2.667v2.667a2.67 2.67 0 0 0 2.667 2.667h2.667A2.67 2.67 0 0 0 20 29.334v-2.667A2.67 2.67 0 0 0 17.333 24zm12 0h-2.667a2.67 2.67 0 0 0-2.667 2.667v2.667a2.67 2.67 0 0 0 2.667 2.667h2.667A2.67 2.67 0 0 0 32 29.334v-2.667A2.67 2.67 0 0 0 29.333 24zm-24 0H2.666a2.67 2.67 0 0 0-2.667 2.667v2.667a2.67 2.67 0 0 0 2.667 2.667h2.667A2.67 2.67 0 0 0 8 29.334v-2.667A2.67 2.67 0 0 0 5.333 24z"/>
    </symbol>
    <symbol id="icon-advertisement" viewBox="0 0 32 32">
      <path d="M10.313 16.937H.938a.938.938 0 0 0-.938.938V31c0 .518.42.937.938.937h9.375c.518 0 .938-.42.938-.937V17.875a.938.938 0 0 0-.938-.938zM31.063 16.937h-1.181a2.81 2.81 0 0 1-.751 3.009l.227.272a2.816 2.816 0 0 1-.352 3.956l-3.233 2.713a2.815 2.815 0 0 1-3.968-.353l-.219-.263c-1.597 1.209-3.922.402-4.422-1.543l-1.999-7.791h-1.102a.938.938 0 0 0-.938.938V31c0 .518.42.937.938.937h17c.518 0 .937-.42.937-.937V17.875a.938.938 0 0 0-.937-.938zM6.563 5.688a.94.94 0 0 0-.938.938v.938H7.5v-.938a.94.94 0 0 0-.938-.938zM13.125 5.688v3.75c1.034 0 1.875-.841 1.875-1.875s-.841-1.875-1.875-1.875z"/>
      <path d="M31.063.063H.938A.939.939 0 0 0 0 1.001v13.125c0 .517.42.938.938.938h13.746l-.379-1.478c-.595-2.321 1.811-4.278 3.96-3.226l9.618 4.704h3.18c.518 0 .937-.42.937-.938V1.001a.938.938 0 0 0-.937-.938zM9.375 10.375a.938.938 0 0 1-1.876 0v-.938H5.624v.938a.938.938 0 0 1-1.876 0v-3.75c0-1.551 1.262-2.813 2.813-2.813s2.813 1.262 2.813 2.813v3.75zm3.75.938h-.938a.938.938 0 0 1-.938-.938V4.75c0-.518.42-.938.938-.938h.938c2.067 0 3.75 1.683 3.75 3.75s-1.683 3.75-3.75 3.75zm14.063-.938h-7.5a.938.938 0 0 1 0-1.876h7.5a.937.937 0 0 1 0 1.876zm0-3.75h-7.5a.938.938 0 0 1 0-1.876h7.5a.937.937 0 0 1 0 1.876z"/>
      <path d="m27.642 17.032-10.201-4.989c-.717-.351-1.518.302-1.32 1.075l2.86 11.143a.938.938 0 0 0 1.51.486l1.334-1.118 1.421 1.703a.938.938 0 0 0 1.323.118l3.233-2.713a.938.938 0 0 0 .117-1.319l-1.424-1.706 1.337-1.12a.938.938 0 0 0-.19-1.561z"/>
    </symbol>
    <symbol id="icon-analyse-alt-1" viewBox="0 0 32 32">
      <path d="M20.002 16c0 .737-.597 1.333-1.333 1.333H8.002a1.333 1.333 0 1 1 0-2.666V12a1.333 1.333 0 1 1 2.666 0v2.667h1.333V8a1.333 1.333 0 1 1 2.666 0v6.667H16v-4a1.333 1.333 0 1 1 2.666 0v4c.736 0 1.333.596 1.333 1.333zm11.415 15.415c-.391.391-.903.585-1.415.585s-1.024-.195-1.415-.585l-7.352-7.352a13.248 13.248 0 0 1-7.893 2.612C5.991 26.675.01 20.694.01 13.342S5.991.009 13.343.009 26.676 5.99 26.676 13.342c0 2.956-.979 5.68-2.612 7.893l7.352 7.352a2 2 0 0 1 0 2.828zm-8.748-18.082c0-5.192-4.253-9.4-9.463-9.324-4.952.072-9.123 4.24-9.196 9.192-.077 5.209 4.131 9.465 9.324 9.465 5.108 0 9.335-4.225 9.335-9.333z"/>
    </symbol>
    <symbol id="icon-artificial" viewBox="0 0 32 32">
      <path d="M27.275 11.709v-.65a1.881 1.881 0 0 0 1.455-1.823 1.88 1.88 0 0 0-1.876-1.872 1.879 1.879 0 0 0-1.871 1.872 1.86 1.86 0 0 0 1.353 1.789v.684a.852.852 0 0 1-.848.848h-5.236v.941h5.236c.984 0 1.789-.805 1.789-1.789zM23.702 7.321v-.65a1.881 1.881 0 0 0 1.455-1.823 1.876 1.876 0 0 0-1.876-1.867 1.875 1.875 0 0 0-1.872 1.867 1.86 1.86 0 0 0 1.353 1.789v.684a.853.853 0 0 1-.849.848H20.25v.941h1.663c.984 0 1.789-.805 1.789-1.789zM27.276 23.491v-.65c0-.984-.805-1.784-1.784-1.784h-5.236v.941h5.236c.465 0 .848.383.848.849v.684a1.87 1.87 0 0 0-1.353 1.789 1.88 1.88 0 0 0 1.871 1.872 1.88 1.88 0 0 0 1.876-1.872 1.902 1.902 0 0 0-1.459-1.828zM22.912 26.623v-.65c0-.989-.8-1.784-1.784-1.784h-.873v.941h.873a.85.85 0 0 1 .848.848v.679a1.877 1.877 0 0 0-1.348 1.794 1.871 1.871 0 0 0 3.743 0 1.897 1.897 0 0 0-1.459-1.828zM26.801 19.147a1.88 1.88 0 0 0 1.876-1.876 1.876 1.876 0 0 0-1.876-1.867c-.863 0-1.595.596-1.799 1.401h-4.747v.941h4.747a1.861 1.861 0 0 0 1.799 1.401zM15.213 1.688c-2.24 0-4.058 1.818-4.058 4.097 0 .233.039.465.078.693a4.034 4.034 0 0 0-1.392-.233c-2.24 0-4.058 1.818-4.058 4.097 0 .242.024.475.068.708.005.005.015.01.019.015a3.588 3.588 0 0 0 2.633 1.125c.262 0 .47.208.47.47s-.208.47-.47.47a4.547 4.547 0 0 1-2.836-.984 4.033 4.033 0 0 0-2.395 3.69 4.06 4.06 0 0 0 3.093 3.942 3.85 3.85 0 0 0-.582 2.085c0 2.201 1.818 4.058 4.058 4.058.204 0 .407-.019.611-.049a4.483 4.483 0 0 1 3.059-2.924 4.492 4.492 0 0 1-1.222-2.056 3.37 3.37 0 0 1-1.518.713c-.029.005-.058.01-.087.01a.474.474 0 0 1-.088-.936 2.411 2.411 0 0 0 1.556-1.033.398.398 0 0 1 .107-.189 2.447 2.447 0 0 0 .272-1.595.472.472 0 1 1 .931-.155 3.407 3.407 0 0 1-.378 2.235c.131 1.876 1.682 3.321 3.602 3.321.262 0 .47.209.47.47s-.209.47-.47.47c-.747 0-1.45-.175-2.07-.485a3.562 3.562 0 0 0-3.389 2.914 4.056 4.056 0 0 0 3.99 3.345c2.24 0 4.097-1.818 4.097-4.058V15.563c-.116.01-.233.024-.344.024a3.55 3.55 0 0 1-3.243-2.099 3.552 3.552 0 0 1-1.794.48c-.063 0-.126 0-.189-.005-.262-.015-.461-.233-.446-.495s.238-.456.495-.446a2.661 2.661 0 0 0 1.905-.669c.529-.47.839-1.125.873-1.838a.472.472 0 0 1 .941.049 3.557 3.557 0 0 1-1.004 2.313 2.598 2.598 0 0 0 1.154 1.411 2.597 2.597 0 0 0 1.658.32V5.784a4.113 4.113 0 0 0-4.107-4.097z"/>
    </symbol>
    <symbol id="icon-book" viewBox="0 0 32 32">
      <path d="M29.287 26.695a.995.995 0 0 0-.995.995c0 1.28-1.04 2.321-2.321 2.321h-4.924a.995.995 0 0 0 0 1.99h4.924a4.317 4.317 0 0 0 4.311-4.311.995.995 0 0 0-.995-.995zM26.97.057H5.019a3.311 3.311 0 0 0-3.316 3.316v24.305A4.321 4.321 0 0 0 6.025 32h2.334c.553 0 .995-.442.995-.995s-.442-.995-.995-.995H6.025a2.34 2.34 0 0 1-2.332-2.332c0-.63.232-1.194.685-1.636a2.273 2.273 0 0 1 1.636-.685h5.33v5.408c0 .103.115.165.2.108l3.043-2.001a.215.215 0 0 1 .238 0l3.043 2.001a.13.13 0 0 0 .2-.108v-5.408h8.904a3.311 3.311 0 0 0 3.316-3.316V3.373A3.313 3.313 0 0 0 26.971.057zm-6.916 12.917h-8.122a.995.995 0 0 1 0-1.99h8.122a.995.995 0 0 1 0 1.99zm2.519-4.278H9.415a.995.995 0 0 1 0-1.99h13.158a.995.995 0 0 1 0 1.99z"/>
    </symbol>
    <symbol id="icon-document" viewBox="0 0 32 32">
      <path d="M21.955 27.535H4.839a3.348 3.348 0 0 1-3.349-3.349V3.349A3.348 3.348 0 0 1 4.839 0h17.116a3.348 3.348 0 0 1 3.349 3.349v20.837a3.348 3.348 0 0 1-3.349 3.349zM7.071 21.581H17.49a1.116 1.116 0 0 0 0-2.232H7.071a1.116 1.116 0 0 0 0 2.232zM5.955 11.535a1.116 1.116 0 0 0 2.232 0v-1.116h2.233v1.116a1.116 1.116 0 0 0 2.232 0V7.811c0-.887-.353-1.738-.979-2.367a3.35 3.35 0 0 0-2.367-.979h-.003a3.348 3.348 0 0 0-3.349 3.349v3.721zm4.465-3.349H8.187v-.372a1.117 1.117 0 0 1 1.116-1.116h.003a1.115 1.115 0 0 1 1.113 1.113v.375zm3.721 3.349c0 .616.5 1.116 1.116 1.116h2.233a3.348 3.348 0 0 0 3.349-3.349V7.814a3.348 3.348 0 0 0-3.349-3.349h-2.233c-.616 0-1.116.5-1.116 1.116v5.953zm2.232-1.116V6.698h1.116a1.117 1.117 0 0 1 1.116 1.116v1.488a1.117 1.117 0 0 1-1.116 1.116h-1.116zM7.071 17.86h5.954a1.116 1.116 0 0 0 0-2.232H7.071a1.116 1.116 0 0 0 0 2.232z"/>
      <path d="M26.791 4.466h.372a3.348 3.348 0 0 1 3.349 3.349v20.837a3.348 3.348 0 0 1-3.349 3.349H10.047a3.348 3.348 0 0 1-3.328-2.977h15.235a4.837 4.837 0 0 0 4.837-4.837V4.466z"/>
    </symbol>
    <symbol id="icon-insight" viewBox="0 0 32 32">
      <path d="M10.715 27.331c0-.735.596-1.331 1.331-1.331h8.004c.735 0 1.331.596 1.331 1.331a4.667 4.667 0 0 1-4.667 4.667h-1.333a4.667 4.667 0 0 1-4.667-4.667zm5.283-18.664c-1.839 0-3.333 1.496-3.333 3.333s1.495 3.333 3.333 3.333c1.839 0 3.333-1.496 3.333-3.333s-1.495-3.333-3.333-3.333zm12.05 3.331c0 3.453-1.491 6.74-4.091 9.017a7.864 7.864 0 0 0-1.741 2.154c-.263.484-.747.828-1.297.828h-9.891c-.542 0-1.021-.333-1.278-.81a9.315 9.315 0 0 0-1.878-2.413c-2.865-2.668-4.223-6.44-3.724-10.348C4.835 5.039 9.255.686 14.657.075a12.06 12.06 0 0 1 9.384 2.969 12.019 12.019 0 0 1 4.007 8.952zm-6.137-.927c-.089-.487.101-.996.529-1.244a1.332 1.332 0 0 0 .491-1.82 1.335 1.335 0 0 0-1.821-.491c-.425.244-.957.154-1.337-.156a5.978 5.978 0 0 0-1.65-.96c-.453-.173-.792-.584-.792-1.068a1.333 1.333 0 1 0-2.666 0c0 .484-.339.896-.792 1.069a5.98 5.98 0 0 0-1.651.959c-.379.311-.911.401-1.336.157a1.333 1.333 0 0 0-1.33 2.311c.429.247.618.757.529 1.244-.055.302-.087.611-.087.928s.032.627.087.928c.088.487-.101.996-.529 1.244a1.332 1.332 0 0 0 .666 2.488c.225 0 .455-.057.664-.177.425-.244.957-.155 1.337.156a5.978 5.978 0 0 0 1.65.96c.452.173.792.584.792 1.068a1.333 1.333 0 1 0 2.666 0c0-.484.339-.895.792-1.069a5.98 5.98 0 0 0 1.651-.959c.379-.311.911-.401 1.337-.157a1.333 1.333 0 0 0 1.33-2.311c-.429-.247-.618-.757-.529-1.244.055-.302.087-.611.087-.928s-.032-.627-.087-.928z"/>
    </symbol>
    <symbol id="icon-interactive" viewBox="0 0 32 32">
      <path d="m31.626 29.74-1.437-1.437-2.308-2.304 3.721-3.721a1.334 1.334 0 0 0-.487-2.196L19.15 15.741a2.668 2.668 0 0 0-3.416 3.415l4.353 11.965a1.332 1.332 0 0 0 2.195.487l3.717-3.727 3.741 3.741a1.333 1.333 0 0 0 1.886-1.886v.004z"/>
      <path d="M13.34 26.681C5.972 26.681 0 20.708 0 13.341S5.973.001 13.34.001s13.34 5.973 13.34 13.34a1.334 1.334 0 1 1-2.668 0c0-5.894-4.778-10.672-10.672-10.672S2.668 7.447 2.668 13.341 7.446 24.013 13.34 24.013a1.334 1.334 0 1 1 0 2.668z"/>
      <path d="M10.784 20.838a1.32 1.32 0 0 1-.511-.102 8.005 8.005 0 0 1 6.14-14.784 8.002 8.002 0 0 1 4.326 4.333 1.334 1.334 0 0 1-2.448 1.062l-.018-.043a5.336 5.336 0 1 0-6.978 6.972 1.335 1.335 0 0 1-.512 2.567v-.005z"/>
    </symbol>
    <symbol id="icon-calendar-1" viewBox="0 0 32 32">
      <path d="m13.515 20.632 1.333 1.333a1.003 1.003 0 0 0 1.476-.068l2.221-2.667a1 1 0 0 0-1.536-1.28l-1.521 1.825-.559-.559a1 1 0 1 0-1.415 1.415z"/>
      <path d="M29.667 11.981v14.333c0 .972-.387 1.905-1.073 2.593a3.67 3.67 0 0 1-2.593 1.073h-20a3.675 3.675 0 0 1-2.593-1.073 3.67 3.67 0 0 1-1.073-2.593V11.981h27.333zM16 13.352a6.335 6.335 0 0 0-6.333 6.333c0 3.495 2.837 6.333 6.333 6.333s6.333-2.839 6.333-6.333A6.335 6.335 0 0 0 16 13.352zM2.333 9.981h27.333V7.685c0-.972-.387-1.905-1.073-2.593A3.67 3.67 0 0 0 26 4.019h-3v3.333a1 1 0 0 1-2 0V4.019H11v3.333a1 1 0 0 1-2 0V4.019H6c-.972 0-1.905.387-2.593 1.073a3.67 3.67 0 0 0-1.073 2.593v2.296zM21 4.019h2v-1a1 1 0 0 0-2 0v1zM9 4.019h2v-1a1 1 0 0 0-2 0v1z"/>
    </symbol>
    <symbol id="icon-plus" viewBox="0 0 32 32">
      <path d="M30 14H18V2a2 2 0 1 0-4 0v12H2a2 2 0 1 0 0 4h12v12a2 2 0 1 0 4 0V18h12a2 2 0 1 0 0-4z"/>
    </symbol>
    <symbol id="icon-browser" viewBox="0 0 32 32">
      <path d="M0 12v12a6.675 6.675 0 0 0 6.667 6.667h18.667A6.675 6.675 0 0 0 32.001 24V12h-32zm18.667 13.333H8a1.334 1.334 0 0 1 0-2.668h10.667a1.334 1.334 0 0 1 0 2.668zM24 20H8a1.334 1.334 0 0 1 0-2.668h16A1.334 1.334 0 0 1 24 20zm8-10.667V8a6.675 6.675 0 0 0-6.667-6.667H6.666A6.675 6.675 0 0 0-.001 8v1.333h32zM13.333 4a1.332 1.332 0 0 1 1.308 1.593 1.328 1.328 0 0 1-1.048 1.048 1.326 1.326 0 0 1-1.368-.567 1.337 1.337 0 0 1 .166-1.684c.251-.25.589-.391.943-.391zm-4 0a1.332 1.332 0 0 1 1.308 1.593 1.332 1.332 0 0 1-2.416.481 1.337 1.337 0 0 1 .166-1.684c.251-.25.589-.391.943-.391zm-4 0a1.332 1.332 0 0 1 1.308 1.593 1.332 1.332 0 0 1-2.416.481 1.337 1.337 0 0 1 .166-1.684c.251-.25.589-.391.943-.391z"/>
    </symbol>
    <symbol id="icon-commentsio" viewBox="0 0 32 32">
      <path d="M20.484 3.516A11.988 11.988 0 0 0 11.132.032C5.097.459 0 6.12 0 12.396v6.717a4.89 4.89 0 0 0 4.881 4.888h5.969c6.916 0 12.679-4.889 13.119-11.132a12.023 12.023 0 0 0-3.484-9.355l-.001.001zM12 19.334a1.668 1.668 0 1 1 .002-3.336A1.668 1.668 0 0 1 12 19.334zm1.929-6.494c-.596.328-.596.424-.596.495a1.333 1.333 0 1 1-2.666 0c0-1.744 1.384-2.505 1.975-2.831.387-.212.793-.713.669-1.421a1.336 1.336 0 0 0-1.057-1.057 1.32 1.32 0 0 0-1.109.288 1.327 1.327 0 0 0-.477 1.023 1.333 1.333 0 1 1-2.666 0c0-1.185.521-2.303 1.429-3.065s2.103-1.085 3.284-.871c1.612.281 2.939 1.607 3.223 3.223a4.022 4.022 0 0 1-2.008 4.219l.001-.001zM32 21.334v6.667a4 4 0 0 1-4 4h-6.667c-3.94 0-7.38-2.153-9.227-5.339l.053-.053c7.716-.589 13.96-6.325 14.469-13.552.023-.312.013-.621.016-.932l.017-.017c3.185 1.847 5.337 5.287 5.337 9.227z"/>
    </symbol>
    <symbol id="icon-folder-tree" viewBox="0 0 32 32">
      <path d="M13.333 10.667V9.334H2.666v10.667c0 2.205 1.795 4 4 4h6.667v-2.667c0-2.205 1.795-4 4-4h3.448c.712 0 1.381.277 1.885.781L24.551 20h3.448c2.205 0 4 1.795 4 4v4c0 2.205-1.795 4-4 4H17.332c-2.205 0-4-1.795-4-4v-1.333H6.665A6.675 6.675 0 0 1-.002 20V1.333c.008-1.744 2.66-1.743 2.667 0v5.333h10.667V3.999c0-2.205 1.795-4 4-4h3.448c.712 0 1.381.277 1.885.781l1.885 1.885h3.448c2.205 0 4 1.795 4 4v4c0 2.205-1.795 4-4 4H17.331c-2.205 0-4-1.795-4-4z"/>
    </symbol>
    <symbol id="icon-money-check-edit-1" viewBox="0 0 32 32">
      <path d="M17.693 25.973A5.778 5.778 0 0 0 16 30.06V32h1.94a5.78 5.78 0 0 0 4.087-1.693l9.076-9.076a3.065 3.065 0 0 0-4.333-4.333l-9.076 9.076zm-1.885-1.885 6.756-6.755h-2.563c-1.744-.008-1.743-2.66 0-2.667h5.304c1.825-1.584 4.684-1.771 6.696-.435V9.332a6.675 6.675 0 0 0-6.667-6.667H6.666A6.675 6.675 0 0 0-.001 9.332v13.333a6.675 6.675 0 0 0 6.667 6.667h6.703a8.376 8.376 0 0 1 2.439-5.245zm4.193-14.755h5.333c1.744.008 1.743 2.66 0 2.667h-5.333c-1.744-.008-1.743-2.66 0-2.667zm-10.668 16A1.333 1.333 0 0 1 8 24v-1.333h-.357a4.012 4.012 0 0 1-3.464-1.999 1.333 1.333 0 1 1 2.306-1.334c.239.411.681.667 1.156.667h3.024c1.329.087 1.923-2.067.475-2.347l-4.055-.676c-4.669-.865-3.664-7.671.913-7.644V8.001c.008-1.744 2.66-1.743 2.667 0v1.333h.357c1.423 0 2.751.767 3.464 2a1.333 1.333 0 1 1-2.306 1.334 1.34 1.34 0 0 0-1.156-.667H8c-1.329-.087-1.923 2.067-.475 2.347l4.055.676c4.669.865 3.664 7.671-.913 7.644v1.333c0 .736-.596 1.332-1.333 1.332z"/>
    </symbol>
    <symbol id="icon-plan" viewBox="0 0 32 32">
      <path d="M21.332 17.333v7.333c0 1.103.897 2 2 2h.912a3.987 3.987 0 0 1 3.755-2.667 4 4 0 0 1 0 8 3.987 3.987 0 0 1-3.755-2.667h-.912a4.672 4.672 0 0 1-4.667-4.667v-7.333h-1.333a1.332 1.332 0 1 1 0-2.666h1.333V7.333a4.672 4.672 0 0 1 4.667-4.667h.912a3.987 3.987 0 0 1 3.755-2.667 4 4 0 0 1 0 8 3.987 3.987 0 0 1-3.755-2.667h-.912c-1.103 0-2 .897-2 2v7.333h2.912a3.987 3.987 0 0 1 3.755-2.667 4 4 0 0 1 0 8 3.987 3.987 0 0 1-3.755-2.667h-2.912zm-6.314-3.838-1.311.755c.172.557.291 1.137.291 1.751s-.119 1.193-.291 1.751l1.311.755a1.333 1.333 0 0 1-1.331 2.309l-1.303-.751a5.99 5.99 0 0 1-3.052 1.775v1.495a1.332 1.332 0 1 1-2.666 0V21.84a5.961 5.961 0 0 1-3.052-1.775l-1.303.751a1.33 1.33 0 0 1-1.82-.489 1.332 1.332 0 0 1 .489-1.82l1.311-.755C2.119 17.195 2 16.615 2 16.001s.119-1.193.291-1.751L.98 13.495a1.33 1.33 0 0 1-.489-1.82 1.329 1.329 0 0 1 1.82-.489l1.303.751a5.99 5.99 0 0 1 3.052-1.775V8.667a1.332 1.332 0 1 1 2.666 0v1.495a5.961 5.961 0 0 1 3.052 1.775l1.303-.751a1.332 1.332 0 1 1 1.331 2.309zM9.998 16c0-1.103-.897-2-2-2s-2 .897-2 2 .897 2 2 2 2-.897 2-2z"/>
    </symbol>
    <symbol id="icon-magnite" viewBox="0 0 32 32">
      <path d="M32 8c0 4.412-3.588 8-8 8s-8-3.588-8-8 3.588-8 8-8 8 3.588 8 8zM21.334 5.333a2.666 2.666 0 1 0 5.334 0 2.666 2.666 0 1 0-5.334 0zm6.368 6.494a3.985 3.985 0 0 0-3.691-2.493h-.021a3.985 3.985 0 0 0-3.692 2.491c.96.931 2.264 1.509 3.704 1.509s2.74-.577 3.701-1.507h-.001zm-13.275 9.818-2.847 2.844a2.886 2.886 0 0 1-4.075 0 2.886 2.886 0 0 1 0-4.075l2.847-2.844-4.673-4.673L2.775 15.8c-3.7 3.699-3.7 9.72 0 13.419 1.792 1.793 4.176 2.78 6.711 2.78s4.917-.987 6.711-2.78l2.904-2.903-4.673-4.671zm6.559 2.788.933-.933a2 2 0 0 0 0-2.829l-1.844-1.844a2 2 0 0 0-2.828 0l-.935.933 4.673 4.673zm-8.747-8.746.933-.933a2 2 0 0 0 0-2.829l-1.844-1.844a2 2 0 0 0-2.828 0l-.935.933 4.673 4.673z"/>
    </symbol>
    <symbol id="icon-analyse" viewBox="0 0 32 32">
      <path d="M31.609 31.609a1.33 1.33 0 0 1-1.886 0l-7.959-7.959a13.27 13.27 0 0 1-8.432 3.016c-7.352 0-13.333-5.981-13.333-13.333S5.98 0 13.332 0c4.012 0 7.607 1.789 10.053 4.603l-8.157 9.408-2.571-2.571a2.722 2.722 0 0 0-2.032-.788 2.704 2.704 0 0 0-1.949.968l-4.368 5.241a1.331 1.331 0 0 0 1.024 2.186c.383 0 .761-.164 1.027-.48l4.416-5.244 2.571 2.571a2.748 2.748 0 0 0 2.007.789 2.71 2.71 0 0 0 1.944-.933l7.684-8.896a13.246 13.246 0 0 1 1.689 6.477c0 3.197-1.133 6.133-3.016 8.432l7.959 7.959a1.332 1.332 0 0 1 0 1.885l-.004.001zM29.001 2.197A1.334 1.334 0 0 0 26.982.453l-3.597 4.148a13.29 13.29 0 0 1 1.591 2.253l4.025-4.657z"/>
    </symbol>
    <symbol id="icon-price" viewBox="0 0 32 32">
      <path d="M28.699 11.047 18.58 1.174A4 4 0 0 0 15.209.039L6.025 1.295a1.333 1.333 0 1 0 .363 2.641l9.185-1.256c.408-.056.829.084 1.135.389l10.12 9.873c1.393 1.393 1.529 3.573.431 5.129-.312-.623-.697-1.216-1.215-1.733l-9.967-9.883a4.027 4.027 0 0 0-3.371-1.135L3.521 6.576a1.333 1.333 0 0 0-1.144 1.175l-1.02 9.221a3.984 3.984 0 0 0 1.152 3.271l9.888 9.804a6.615 6.615 0 0 0 4.712 1.952h.023a6.617 6.617 0 0 0 4.724-1.983l4.223-4.277c1.236-1.252 1.857-2.879 1.897-4.517l.769-.768c2.567-2.6 2.552-6.816-.043-9.409l-.004.001zM7.998 13.335a1.333 1.333 0 0 1-1.333-1.333c.008-1.744 2.659-1.743 2.667 0 0 .736-.597 1.333-1.333 1.333z"/>
    </symbol>
    <symbol id="icon-copy" viewBox="0 0 32 32">
      <path d="M19.994 1.333H5.327A2.675 2.675 0 0 0 2.66 4v17.333c0 .733.6 1.333 1.333 1.333s1.333-.6 1.333-1.333v-16C5.326 4.6 5.926 4 6.659 4h13.333c.733 0 1.333-.6 1.333-1.333s-.6-1.333-1.333-1.333zm5.333 5.334H10.66a2.675 2.675 0 0 0-2.667 2.667v18.667c0 1.467 1.2 2.667 2.667 2.667h14.667c1.467 0 2.667-1.2 2.667-2.667V9.334c0-1.467-1.2-2.667-2.667-2.667zM23.994 28h-12c-.733 0-1.333-.6-1.333-1.333v-16c0-.733.6-1.333 1.333-1.333h12c.733 0 1.333.6 1.333 1.333v16c0 .733-.6 1.333-1.333 1.333z"/>
    </symbol>
    <symbol id="icon-instagram" viewBox="0 0 32 32">
      <path d="M15.997 9.112c-3.798 0-6.887 3.09-6.887 6.887s3.09 6.887 6.887 6.887c3.798 0 6.887-3.09 6.887-6.887s-3.09-6.887-6.887-6.887z"/>
      <path d="M23.223 0H8.768C3.931 0-.004 3.935-.004 8.772v14.455c0 4.837 3.935 8.772 8.772 8.772h14.455c4.837 0 8.772-3.935 8.772-8.772V8.772C31.995 3.935 28.06 0 23.223 0zm-7.228 24.777c-4.84 0-8.777-3.937-8.777-8.777s3.937-8.777 8.777-8.777S24.772 11.16 24.772 16s-3.937 8.777-8.777 8.777zm9.302-15.412c-1.47 0-2.667-1.196-2.667-2.667s1.196-2.667 2.667-2.667c1.47 0 2.667 1.196 2.667 2.667s-1.196 2.667-2.667 2.667z"/>
    </symbol>
    <symbol id="icon-linkedin" viewBox="0 0 32 32">
      <path d="m31.991 32 .008-.001V20.263c0-5.741-1.236-10.164-7.948-10.164-3.227 0-5.392 1.771-6.276 3.449h-.093v-2.913h-6.364v21.364h6.627V21.42c0-2.785.528-5.479 3.977-5.479 3.399 0 3.449 3.179 3.449 5.657v10.401h6.62zM.526 10.635h6.635v21.364H.526V10.635zM3.837 0C1.716 0-.006 1.721-.006 3.843s1.721 3.879 3.843 3.879c2.121 0 3.843-1.757 3.843-3.879A3.846 3.846 0 0 0 3.837 0z"/>
    </symbol>
    <symbol id="icon-telegram" viewBox="0 0 32 32">
      <path d="m2.612 15.831 6.44 2.187 15.29-9.348c.222-.136.449.165.258.341L13.024 19.666l-.43 5.965a.493.493 0 0 0 .838.387l3.564-3.505 6.516 4.933a1.208 1.208 0 0 0 1.909-.703l4.537-20.6c.259-1.175-.893-2.167-2.017-1.736L2.579 14.119c-.796.305-.774 1.438.033 1.712z"/>
    </symbol>
    <symbol id="icon-arrow" viewBox="0 0 32 32">
      <path d="M32 16c0 8.837-7.163 16-16 16S0 24.837 0 16 7.163 0 16 0s16 7.163 16 16z"/>
      <path fill="none" stroke="#fff" style="stroke:var(--color1, #fff)" stroke-width="1.143" d="M14.297 13.693h4.529m0 0v4.529m0-4.529-5.133 5.133"/>
    </symbol>
    <symbol id="icon-burger" viewBox="0 0 32 32">
      <path d="M29 8H3a2 2 0 0 1 0-4h26a2 2 0 0 1 0 4zM29 28H3a2 2 0 0 1 0-4h26a2 2 0 0 1 0 4zM29 18H3a2 2 0 0 1 0-4h26a2 2 0 0 1 0 4z"/>
    </symbol>
    <symbol id="icon-logo" viewBox="0 0 75 32">
      <path d="M14.856 32c-4.875 0-8.577-1.037-11.107-3.111C1.25 26.815 0 24.019 0 20.5c0-.534.077-1.194.231-1.979L4.257 0h9.487l-3.98 18.286a5.928 5.928 0 0 0-.093 1.131c.031 1.131.494 2.137 1.388 3.016.895.848 2.16 1.272 3.795 1.272 1.79 0 3.224-.487 4.304-1.461 1.08-1.005 1.789-2.325 2.129-3.959l3.98-18.286h9.487l-4.026 18.474c-1.913 9.017-7.204 13.526-15.874 13.526zM68.197 32h-9.348l4.072-19.464L51.953 32h-4.165l-2.823-19.464L40.892 32h-9.348l6.803-32h12.588l2.129 15.081L61.764 0H75l-6.803 32z"/>
    </symbol>
    <symbol id="icon-pen" viewBox="0 0 32 32">
      <path d="M23.986 1.006a3 3 0 0 0-2.077.872l-2.301 2.299 6.254 6.254 2.3-2.299a3.024 3.024 0 0 0 0-4.251s-2.008-2.003-2.011-2.003a2.981 2.981 0 0 0-2.166-.872zm-5.794 4.588L3.875 19.911a3.018 3.018 0 0 0-.88 2.123v4.006a1.002 1.002 0 0 0 1.007 1.006l4.006-.008a2.998 2.998 0 0 0 2.115-.872l14.325-14.317-6.256-6.254zM3.9 29.048l-.002.002c-1.305.097-1.204 2.042.104 2.003h24.036c1.366.031 1.366-2.034 0-2.003H4.002c-.034-.002-.068-.003-.102-.002z"/>
    </symbol>
    <symbol id="icon-star-full" viewBox="0 0 32 32">
      <path d="m32 12.408-11.056-1.607L16 .783l-4.944 10.018L0 12.408l8 7.798-1.889 11.011L16 26.018l9.889 5.199L24 20.206l8-7.798z"/>
    </symbol>
    <symbol id="icon-arrow-up-right" viewBox="0 0 32 32">
      <path d="M7.414 27.414 24 10.828V18a2 2 0 1 0 4 0V6a2 2 0 0 0-2-1.999V4H14a2 2 0 1 0 0 4h7.172L4.586 24.586C4.195 24.976 4 25.488 4 26s.195 1.024.586 1.414a2 2 0 0 0 2.828 0z"/>
    </symbol>
  </defs>
</svg>
