<svg width="21" height="21" viewBox="0 0 21 21" fill="none" xmlns="http://www.w3.org/2000/svg">
<path d="M6.9105 14.0905C6.39775 13.5787 6.39775 12.7465 6.9105 12.2347C7.42325 11.7219 8.25362 11.7219 8.76637 12.2347C9.92662 13.3949 11.9514 13.3958 13.1116 12.2347L17.477 7.8693C18.6749 6.67142 18.6749 4.72192 17.477 3.52405C16.2791 2.32617 14.3296 2.32617 13.1317 3.52405C12.619 4.0368 11.7886 4.0368 11.2759 3.52405C10.7631 3.01217 10.7631 2.18005 11.2759 1.66817C13.4966 -0.553453 17.1121 -0.553453 19.3329 1.66817C21.5545 3.8898 21.5545 7.50355 19.3329 9.72517L14.9675 14.0905C13.8562 15.2018 12.3976 15.7565 10.939 15.7565C9.48037 15.7565 8.02087 15.2009 6.9105 14.0905ZM5.6995 20.9969C7.15812 20.9969 8.61675 20.4413 9.728 19.3309C10.2407 18.819 10.2407 17.9869 9.728 17.475C9.21525 16.9623 8.38487 16.9623 7.87212 17.475C6.67337 18.6738 4.72387 18.6729 3.52687 17.475C2.329 16.2772 2.329 14.3277 3.52687 13.1298L7.86775 8.78892C9.0665 7.59017 11.016 7.59017 12.213 8.78892C12.7257 9.30167 13.5561 9.30167 14.0689 8.78892C14.5816 8.27705 14.5816 7.44492 14.0689 6.93305C11.8472 4.71142 8.2335 4.71142 6.01187 6.93305L1.67012 11.2739C-0.5515 13.4955 -0.5515 17.1093 1.67012 19.3309C2.78137 20.4422 4.24087 20.9969 5.6995 20.9969Z" fill="black"/>
</svg>
