<svg width="21" height="21" viewBox="0 0 21 21" fill="none" xmlns="http://www.w3.org/2000/svg">
<path d="M18.9 18.8991V12.7461C18.9 9.72211 18.249 7.41211 14.721 7.41211C13.02 7.41211 11.886 8.33611 11.424 9.21811H11.382V7.68511H8.04297V18.8991H11.529V13.3341C11.529 11.8641 11.802 10.4571 13.608 10.4571C15.393 10.4571 15.414 12.1161 15.414 13.4181V18.8781H18.9V18.8991Z" fill="black"/>
<path d="M2.37305 7.68555H5.85905V18.8995H2.37305V7.68555Z" fill="black"/>
<path d="M4.11561 2.09961C3.00261 2.09961 2.09961 3.00261 2.09961 4.11561C2.09961 5.22861 3.00261 6.15261 4.11561 6.15261C5.22861 6.15261 6.13161 5.22861 6.13161 4.11561C6.13161 3.00261 5.22861 2.09961 4.11561 2.09961Z" fill="black"/>
</svg>
