<svg width="90" height="29" viewBox="0 0 90 29" fill="none" xmlns="http://www.w3.org/2000/svg">
<path d="M58.2787 6.97582C54.3234 6.99531 51.1014 10.3311 51.1196 14.4845C51.1377 18.6379 54.392 21.9423 58.3472 21.9237C62.3025 21.905 65.5254 18.5684 65.5064 14.4167C65.4874 10.265 62.234 6.95802 58.2771 6.97751L58.2787 6.97582ZM58.3332 18.8777C57.2119 18.8844 56.1343 18.4328 55.3374 17.6237C54.5406 16.8145 54.0988 15.7122 54.0864 14.5616C54.0741 13.411 54.52 12.3053 55.3085 11.4876C56.0971 10.67 57.1714 10.2167 58.2927 10.204C59.4141 10.1913 60.4917 10.6488 61.2885 11.458C62.0854 12.2671 62.5271 13.3694 62.5395 14.5201C62.5511 16.8289 60.5825 18.8658 58.3332 18.8777ZM74.3029 10.4963C72.2345 10.5065 70.6235 12.2671 70.6334 14.3896L70.6664 21.4941L67.5187 21.5093L67.4551 7.39099L70.6028 7.37574L70.6136 9.5897C70.6136 9.5897 71.9512 7.36981 74.6498 7.3571L75.5498 7.35201L75.5647 10.4887L74.3029 10.4963ZM42.9035 7.5113L45.2866 17.189L47.7605 7.48758L50.9082 7.47318L47.014 21.6186L43.9571 21.633L41.4849 11.7723L39.1018 21.6559L36.0441 21.6703L31.9336 7.57146L34.9905 7.55706L37.7319 17.2331L39.9366 7.53333L42.9035 7.5113ZM84.7477 13.7694C86.8987 12.4679 88.4181 10.0608 88.4057 7.2927L85.258 7.30795C85.2696 9.70747 83.3885 11.6545 81.1409 11.663L80.6908 11.6647L80.6413 0.5L77.4936 0.515251L77.5902 21.4602L80.7363 21.4458L80.7065 14.8031L81.0657 14.8014C81.4257 14.7997 81.7866 14.9827 81.8783 15.2589L86.3125 21.4187L89.9994 21.4017L84.7477 13.7694Z" fill="white"/>
<path d="M24.6482 7.13808C21.2322 7.15503 18.6344 9.47405 17.6625 13.1691C16.0317 10.5933 14.7592 7.6473 14.0293 5.15967L10.4332 5.17661L10.4778 14.9569C10.4817 15.8867 10.1257 16.7802 9.48789 17.4408C8.85011 18.1014 7.98279 18.4752 7.07656 18.4799C6.17033 18.4839 5.29961 18.1186 4.65579 17.4642C4.01197 16.8097 3.64774 15.9198 3.64315 14.9899L3.59773 5.20966L0 5.2266L0.0445901 15.0068C0.063582 19.0653 3.22367 22.2817 7.09142 22.2622C10.9592 22.2427 14.092 18.9984 14.0738 14.9391L14.0656 13.2784C14.7906 14.7501 15.6972 16.3142 16.6939 17.6944L14.495 28.4999L18.1811 28.4829L19.7665 20.632C21.209 21.5487 22.8217 22.0936 24.7176 22.0842C28.6745 22.0647 31.8974 18.729 31.8767 14.4841C31.8617 12.5283 31.0932 10.6581 29.7391 9.2816C28.385 7.90515 26.5551 7.13427 24.649 7.13724L24.6482 7.13808ZM24.6994 18.3028C23.261 18.3096 21.8201 17.6707 20.6467 16.6607L20.9993 15.1839V15.0992C21.2635 13.5283 22.0579 10.8492 24.7564 10.8373C25.7079 10.8357 26.6215 11.2198 27.2984 11.9059C27.9752 12.5921 28.3606 13.5248 28.3706 14.501C28.2897 16.6235 26.5895 18.2926 24.7002 18.3019L24.6994 18.3028Z" fill="white"/>
</svg>
