<?xml version="1.0" encoding="UTF-8"?>
<svg id="Layer_1" data-name="Layer 1" xmlns="http://www.w3.org/2000/svg" xmlns:xlink="http://www.w3.org/1999/xlink" viewBox="0 0 1034.96 258.63">
  <defs>
    <style>
      .cls-1 {
        fill: url(#linear-gradient-2);
      }

      .cls-2 {
        fill: #fff;
      }

      .cls-3 {
        fill: url(#linear-gradient-4);
      }

      .cls-4 {
        fill: url(#linear-gradient-3);
      }

      .cls-5 {
        fill: url(#linear-gradient);
      }
    </style>
    <linearGradient id="linear-gradient" x1="34.78" y1="-2850.22" x2="221.37" y2="-2613.08" gradientTransform="translate(0 -2596.49) scale(1 -1)" gradientUnits="userSpaceOnUse">
      <stop offset=".13" stop-color="#34d3b9"/>
      <stop offset=".37" stop-color="#21c6be"/>
      <stop offset=".85" stop-color="#91ed8a"/>
    </linearGradient>
    <linearGradient id="linear-gradient-2" x1="171.38" y1="-2700.99" x2="81.57" y2="-2752.84" gradientTransform="translate(0 -2596.49) scale(1 -1)" gradientUnits="userSpaceOnUse">
      <stop offset="0" stop-color="#96f19c"/>
      <stop offset="1" stop-color="#6ee3de"/>
    </linearGradient>
    <linearGradient id="linear-gradient-3" x1="5.73" y1="-2663.67" x2="97.31" y2="-2737.84" gradientTransform="translate(0 -2596.49) scale(1 -1)" gradientUnits="userSpaceOnUse">
      <stop offset="0" stop-color="#6fe4df"/>
      <stop offset="1" stop-color="#12b5a0"/>
    </linearGradient>
    <linearGradient id="linear-gradient-4" x1="153.09" y1="-2713.3" x2="239.61" y2="-2788.9" gradientTransform="translate(0 -2596.49) scale(1 -1)" gradientUnits="userSpaceOnUse">
      <stop offset="0" stop-color="#11b5a0"/>
      <stop offset="1" stop-color="#96f19c"/>
    </linearGradient>
  </defs>
  <g>
    <path class="cls-5" d="M64.2,258.63c-4.31,0-8.49-.29-12.49-.9-14.7-2.16-27.24-8.41-36.21-18.12C6.51,229.94,1.22,216.98.2,202.15c-.92-13.15,1.37-27.66,6.84-43.15,10.6-30,32.24-61.19,60.98-87.82,28.74-26.64,61.48-45.88,92.19-54.17,15.83-4.29,30.48-5.47,43.55-3.55,14.7,2.16,27.24,8.41,36.21,18.12,8.99,9.68,14.28,22.64,15.31,37.47.92,13.15-1.37,27.66-6.84,43.15-10.6,30-32.24,61.19-60.98,87.82-28.74,26.64-61.48,45.88-92.19,54.17-10.97,2.97-21.35,4.45-31.06,4.45ZM191.24,43.8c-6.86,0-14.57,1.1-22.9,3.37-25.9,7-54.01,23.67-79.1,46.94-25.11,23.27-43.83,50.01-52.78,75.33-7.63,21.61-6.92,39.47,1.95,49.01,8.86,9.54,26.61,11.59,48.75,5.63,25.9-6.99,54.01-23.66,79.1-46.94,25.11-23.27,43.84-50.01,52.78-75.33,7.63-21.61,6.92-39.47-1.95-49.01-5.52-5.94-14.51-8.99-25.85-8.99Z"/>
    <path class="cls-1" d="M6.48,66.46c21.79-3.26,45.58-2.32,63.56,10.45,19.49,13.84,27.91,38.52,32.05,62.08,3.47,19.62,4.8,39.74,11.02,58.76,5.19,15.85,13.76,30.31,27.49,40.13,12.9,9.22,29.08,14.1,44.95,12.38.16-.02.31-.02.47-.05,28.53-3.31,53.27-27.62,57.1-56.08-14.65-.44-29.4-1.85-43.36-6.31-13.97-4.46-27.18-12.09-36.48-23.43-28.4-34.53-13.03-90.43-39.69-126.31-15.17-20.35-43.1-30.12-67.73-24C31.23,20.2,11.3,41.57,6.43,66.46h.05Z"/>
    <path class="cls-4" d="M101.75,135.88S94.3,49,6.45,66.3c0,0-7.22,33.8,21.21,61.5,0,0,33.67,28.17,74.09,8.08Z"/>
    <path class="cls-3" d="M147.13,128.27s1.46,65.15,95.98,66.09c0,0,6.15-28.8-18.03-55.04,0,0-33.36-33.18-77.97-11.21l.03.16Z"/>
  </g>
  <path class="cls-2" d="M352.06,143.01l-43.16,44.11c-1.58,1.65-3.55,2.48-5.91,2.48-1.02,0-2.01-.2-2.95-.59-.95-.39-1.82-.95-2.6-1.66-.71-.71-1.3-1.5-1.77-2.37-.39-.94-.59-1.93-.59-2.96,0-1.1.24-2.13.71-3.07.47-.95,1.1-1.85,1.89-2.72l43.39-44.46-42.21-43.04c-1.58-1.58-2.37-3.39-2.37-5.44,0-1.02.2-2.01.59-2.96.47-1.02,1.06-1.89,1.77-2.6.79-.79,1.65-1.38,2.6-1.77.94-.47,1.93-.71,2.96-.71,2.21,0,4.14.83,5.79,2.48l41.86,42.81,41.74-42.69c1.65-1.66,3.63-2.48,5.91-2.48,2.05,0,3.86.79,5.44,2.37,1.58,1.58,2.37,3.39,2.37,5.44s-.83,3.98-2.48,5.79l-41.98,42.8,43.28,44.22c1.58,1.58,2.37,3.51,2.37,5.79s-.83,4.06-2.48,5.56c-1.58,1.42-3.35,2.13-5.32,2.13-2.21,0-4.02-.75-5.44-2.25l-43.39-44.22ZM422.65,133.32c0-8.04,1.5-15.57,4.49-22.59,3.07-7.09,7.21-13.24,12.41-18.45,5.28-5.2,11.43-9.3,18.45-12.3,7.02-3.07,14.5-4.61,22.47-4.61s15.45,1.54,22.47,4.61c7.02,3,13.13,7.1,18.33,12.3,5.2,5.2,9.3,11.35,12.3,18.45,3,7.02,4.49,14.55,4.49,22.59s-1.5,15.45-4.49,22.47c-3,6.94-7.1,13.01-12.3,18.21-5.2,5.2-11.31,9.34-18.33,12.42-7.02,3-14.5,4.49-22.47,4.49-8.36,0-16.16-1.62-23.41-4.85-7.17-3.23-13.4-7.69-18.68-13.36v49.67c0,2.28-.71,4.22-2.13,5.79-1.42,1.58-3.27,2.37-5.56,2.37s-4.1-.79-5.68-2.37c-1.58-1.58-2.37-3.51-2.37-5.79v-89.04ZM438.38,133.32c0,5.68,1.1,11.08,3.31,16.2,2.21,5.04,5.2,9.5,8.99,13.36,3.78,3.78,8.24,6.78,13.36,8.99,5.12,2.21,10.6,3.31,16.43,3.31s11.39-1.1,16.44-3.31c5.12-2.21,9.58-5.2,13.36-8.99,3.79-3.86,6.74-8.32,8.87-13.36,2.21-5.12,3.31-10.52,3.31-16.2s-1.1-11.19-3.31-16.32c-2.13-5.12-5.08-9.58-8.87-13.36-3.78-3.78-8.24-6.78-13.36-8.99-5.04-2.21-10.52-3.31-16.44-3.31s-11.31,1.1-16.43,3.31c-5.12,2.21-9.58,5.2-13.36,8.99-3.78,3.78-6.78,8.24-8.99,13.36-2.21,5.12-3.31,10.56-3.31,16.32ZM566.09,140.41c.63,4.97,2.09,9.62,4.38,13.95,2.37,4.26,5.36,8,8.99,11.23,3.63,3.15,7.73,5.64,12.3,7.45,4.65,1.81,9.54,2.72,14.66,2.72,2.37,0,4.45-.08,6.27-.24,1.89-.24,3.63-.55,5.2-.95,1.65-.47,3.23-1.06,4.73-1.77,1.58-.71,3.19-1.54,4.85-2.48.87-.55,1.69-.91,2.48-1.07.87-.24,1.66-.36,2.37-.36,2.21,0,4.02.87,5.44,2.6,1.5,1.73,2.25,3.63,2.25,5.68,0,1.18-.32,2.37-.95,3.55-.55,1.1-1.5,2.05-2.84,2.84-2.05,1.18-4.14,2.25-6.27,3.19-2.05.95-4.26,1.73-6.62,2.37-2.37.55-4.93.99-7.69,1.3-2.76.31-5.83.47-9.22.47-7.96,0-15.45-1.5-22.47-4.49-7.02-3.08-13.17-7.21-18.45-12.42-5.2-5.2-9.34-11.31-12.42-18.33-3-7.02-4.49-14.5-4.49-22.47s1.5-15.45,4.49-22.47c3.08-7.02,7.21-13.13,12.42-18.33,5.28-5.28,11.43-9.42,18.45-12.42,7.02-3.07,14.5-4.61,22.47-4.61s15.33,1.54,22.35,4.61c7.02,3,13.13,7.1,18.33,12.3,5.28,5.2,9.46,11.31,12.53,18.33,3.07,6.94,4.65,14.35,4.73,22.23,0,2.13-.71,3.94-2.13,5.44-1.42,1.42-3.27,2.13-5.56,2.13h-90.58ZM648.27,127.17c-.63-5.2-2.13-10.01-4.49-14.43-2.37-4.49-5.4-8.36-9.11-11.59-3.71-3.31-7.96-5.91-12.77-7.8-4.73-1.89-9.82-2.84-15.25-2.84s-10.56.99-15.37,2.96c-4.73,1.89-8.91,4.49-12.53,7.81-3.63,3.31-6.58,7.21-8.87,11.71-2.29,4.41-3.71,9.14-4.26,14.19h82.66ZM679.96,135.68c0-8.28,1.58-16.04,4.73-23.29,3.15-7.33,7.45-13.72,12.89-19.16,5.44-5.52,11.78-9.85,19.04-13.01,7.25-3.23,14.98-4.85,23.18-4.85h.94c2.52,0,4.49.75,5.91,2.25,1.5,1.5,2.25,3.39,2.25,5.67s-.79,4.18-2.36,5.68c-1.58,1.42-3.51,2.13-5.8,2.13h-.94c-5.99,0-11.67,1.18-17.03,3.55-5.28,2.29-9.93,5.44-13.95,9.46-4.02,4.02-7.21,8.75-9.58,14.19-2.37,5.44-3.55,11.23-3.55,17.38v45.88c0,2.29-.75,4.18-2.25,5.68-1.42,1.5-3.19,2.25-5.32,2.25s-4.14-.75-5.79-2.25c-1.58-1.5-2.37-3.39-2.37-5.68v-45.88ZM762.14,49.84c0-2.68.91-4.93,2.72-6.74,1.81-1.81,4.06-2.72,6.74-2.72s4.93.91,6.74,2.72c1.89,1.81,2.84,4.06,2.84,6.74s-.95,4.85-2.84,6.74c-1.81,1.81-4.06,2.72-6.74,2.72s-4.93-.91-6.74-2.72c-1.81-1.89-2.72-4.14-2.72-6.74ZM763.56,83.42c0-2.29.79-4.18,2.37-5.68,1.58-1.58,3.47-2.37,5.68-2.37s4.14.79,5.56,2.37c1.5,1.5,2.25,3.39,2.25,5.68v98.73c0,2.21-.79,4.1-2.37,5.68-1.5,1.5-3.31,2.25-5.44,2.25s-4.1-.75-5.68-2.25c-1.58-1.58-2.37-3.47-2.37-5.68v-98.73ZM812.63,133.32c0,5.68,1.1,11.08,3.31,16.2,2.21,5.04,5.2,9.5,8.99,13.36,3.78,3.78,8.2,6.78,13.24,8.99,5.12,2.21,10.6,3.31,16.44,3.31s11.43-1.1,16.55-3.31c5.12-2.21,9.54-5.2,13.24-8.99,3.78-3.86,6.74-8.32,8.87-13.36,2.21-5.12,3.31-10.52,3.31-16.2s-1.1-11.19-3.31-16.32c-2.13-5.12-5.09-9.58-8.87-13.36-3.71-3.78-8.12-6.78-13.24-8.99-5.12-2.21-10.64-3.31-16.55-3.31s-11.31,1.1-16.44,3.31c-5.04,2.21-9.46,5.2-13.24,8.99-3.78,3.78-6.78,8.24-8.99,13.36-2.21,5.12-3.31,10.56-3.31,16.32ZM796.9,133.32c0-8.04,1.5-15.57,4.49-22.59,3.07-7.09,7.21-13.24,12.41-18.45,5.28-5.2,11.39-9.3,18.33-12.3,7.02-3.07,14.5-4.61,22.47-4.61s15.57,1.54,22.59,4.61c7.02,3,13.13,7.13,18.33,12.42,5.2,5.2,9.3,11.31,12.3,18.33,3,7.02,4.49,14.55,4.49,22.59s-1.5,15.45-4.49,22.47c-3,6.94-7.1,13.01-12.3,18.21-5.2,5.2-11.31,9.34-18.33,12.42-7.02,3-14.55,4.49-22.59,4.49s-15.45-1.5-22.47-4.49c-6.94-3.08-13.05-7.21-18.33-12.42-5.2-5.2-9.34-11.27-12.41-18.21-3-7.02-4.49-14.5-4.49-22.47ZM926.5,130.84c0-7.65,1.34-14.82,4.02-21.52,2.76-6.78,6.54-12.65,11.35-17.62,4.81-5.04,10.49-9.03,17.03-11.94,6.54-2.92,13.64-4.38,21.28-4.38s14.7,1.46,21.17,4.38c6.54,2.84,12.18,6.78,16.91,11.83,4.81,4.97,8.55,10.84,11.23,17.62,2.68,6.7,4.02,13.87,4.02,21.52v50.96c0,2.28-.75,4.18-2.25,5.67-1.42,1.42-3.27,2.13-5.56,2.13s-4.1-.71-5.68-2.13c-1.5-1.5-2.25-3.39-2.25-5.67v-50.37c0-5.52-.95-10.68-2.84-15.49-1.82-4.89-4.42-9.14-7.81-12.77-3.31-3.63-7.29-6.47-11.94-8.51-4.57-2.13-9.58-3.19-15.02-3.19s-10.48,1.02-15.13,3.07c-4.57,2.05-8.55,4.85-11.94,8.39-3.39,3.55-6.03,7.77-7.92,12.65-1.89,4.81-2.84,9.97-2.84,15.49v50.73c0,2.28-.71,4.18-2.13,5.67-1.42,1.42-3.27,2.13-5.56,2.13-2.13,0-4.02-.71-5.67-2.13-1.66-1.5-2.48-3.39-2.48-5.67v-50.85Z"/>
</svg>