<svg width="900" height="690" viewBox="0 0 900 690" fill="none" xmlns="http://www.w3.org/2000/svg">
<path d="M899.497 658L899.494 88.9999C899.494 81.4433 899.493 75.8262 898.913 71.5102C898.335 67.2086 897.189 64.2746 894.955 62.0398C892.72 59.8051 889.786 58.6597 885.484 58.0813C881.168 57.5011 875.551 57.5 867.994 57.5H709.168H709.034C702.661 57.5001 699.318 57.5001 696.3 56.2577C693.282 55.0154 690.908 52.6619 686.382 48.1751L686.287 48.0809L647.499 9.62932C642.853 5.02414 640.623 2.82521 637.809 1.66698C634.996 0.508751 631.864 0.5 625.322 0.5H32.0004C24.4437 0.5 18.8266 0.501062 14.5106 1.08133C10.209 1.65966 7.27496 2.80508 5.04022 5.03984C2.80542 7.27461 1.66003 10.2087 1.08167 14.5103C0.501404 18.8262 0.500366 24.4434 0.500366 32V56.877L0.5 658C0.5 665.557 0.501038 671.174 1.0813 675.49C1.65967 679.791 2.80505 682.725 5.03986 684.96C7.2746 687.195 10.2087 688.34 14.5103 688.919C18.8263 689.499 24.4434 689.5 32.0001 689.5H867.997C875.553 689.5 881.171 689.499 885.486 688.919C889.788 688.34 892.722 687.195 894.957 684.96C897.192 682.725 898.337 679.791 898.915 675.49C899.496 671.174 899.497 665.557 899.497 658Z" stroke="url(#paint0_radial_20_7162)" stroke-opacity="0.66"/>
<path d="M899.497 658L899.494 88.9999C899.494 81.4433 899.493 75.8262 898.913 71.5102C898.335 67.2086 897.189 64.2746 894.955 62.0398C892.72 59.8051 889.786 58.6597 885.484 58.0813C881.168 57.5011 875.551 57.5 867.994 57.5H709.168H709.034C702.661 57.5001 699.318 57.5001 696.3 56.2577C693.282 55.0154 690.908 52.6619 686.382 48.1751L686.287 48.0809L647.499 9.62932C642.853 5.02414 640.623 2.82521 637.809 1.66698C634.996 0.508751 631.864 0.5 625.322 0.5H32.0004C24.4437 0.5 18.8266 0.501062 14.5106 1.08133C10.209 1.65966 7.27496 2.80508 5.04022 5.03984C2.80542 7.27461 1.66003 10.2087 1.08167 14.5103C0.501404 18.8262 0.500366 24.4434 0.500366 32V56.877L0.5 658C0.5 665.557 0.501038 671.174 1.0813 675.49C1.65967 679.791 2.80505 682.725 5.03986 684.96C7.2746 687.195 10.2087 688.34 14.5103 688.919C18.8263 689.499 24.4434 689.5 32.0001 689.5H867.997C875.553 689.5 881.171 689.499 885.486 688.919C889.788 688.34 892.722 687.195 894.957 684.96C897.192 682.725 898.337 679.791 898.915 675.49C899.496 671.174 899.497 665.557 899.497 658Z" stroke="url(#paint1_radial_20_7162)" stroke-opacity="0.66"/>
<path d="M899.497 658L899.494 88.9999C899.494 81.4433 899.493 75.8262 898.913 71.5102C898.335 67.2086 897.189 64.2746 894.955 62.0398C892.72 59.8051 889.786 58.6597 885.484 58.0813C881.168 57.5011 875.551 57.5 867.994 57.5H709.168H709.034C702.661 57.5001 699.318 57.5001 696.3 56.2577C693.282 55.0154 690.908 52.6619 686.382 48.1751L686.287 48.0809L647.499 9.62932C642.853 5.02414 640.623 2.82521 637.809 1.66698C634.996 0.508751 631.864 0.5 625.322 0.5H32.0004C24.4437 0.5 18.8266 0.501062 14.5106 1.08133C10.209 1.65966 7.27496 2.80508 5.04022 5.03984C2.80542 7.27461 1.66003 10.2087 1.08167 14.5103C0.501404 18.8262 0.500366 24.4434 0.500366 32V56.877L0.5 658C0.5 665.557 0.501038 671.174 1.0813 675.49C1.65967 679.791 2.80505 682.725 5.03986 684.96C7.2746 687.195 10.2087 688.34 14.5103 688.919C18.8263 689.499 24.4434 689.5 32.0001 689.5H867.997C875.553 689.5 881.171 689.499 885.486 688.919C889.788 688.34 892.722 687.195 894.957 684.96C897.192 682.725 898.337 679.791 898.915 675.49C899.496 671.174 899.497 665.557 899.497 658Z" stroke="url(#paint2_radial_20_7162)"/>
<defs>
<radialGradient id="paint0_radial_20_7162" cx="0" cy="0" r="1" gradientUnits="userSpaceOnUse" gradientTransform="translate(-154.679 1516.13) rotate(-57.3913) scale(1996.76 1080.28)">
<stop stop-color="white"/>
<stop offset="1" stop-color="white" stop-opacity="0"/>
</radialGradient>
<radialGradient id="paint1_radial_20_7162" cx="0" cy="0" r="1" gradientUnits="userSpaceOnUse" gradientTransform="translate(526.493 -534) rotate(116.272) scale(1319.37 711.672)">
<stop stop-color="white"/>
<stop offset="1" stop-color="white" stop-opacity="0"/>
</radialGradient>
<radialGradient id="paint2_radial_20_7162" cx="0" cy="0" r="1" gradientUnits="userSpaceOnUse" gradientTransform="translate(416.906 301.737) rotate(58.3004) scale(449.29 329.567)">
<stop stop-color="white"/>
<stop offset="1" stop-color="#151515" stop-opacity="0"/>
</radialGradient>
</defs>
</svg>
