<svg width="662" height="722" viewBox="0 0 662 722" fill="none" xmlns="http://www.w3.org/2000/svg">
<path d="M662 105V690C662 705.085 662 712.627 657.314 717.314C652.627 722 645.085 722 630 722H34.3895C19.3522 722 11.8336 722 7.15063 717.333C2.46777 712.667 2.44171 705.148 2.38965 690.111L0.111267 32.1108C0.0588379 16.9781 0.0326538 9.41179 4.72229 4.7059C9.41193 0 16.9783 0 32.1111 0H440.271C447.518 0 451.141 0 454.325 1.46568C457.51 2.93136 459.866 5.6837 464.579 11.1884L507.921 61.8116C512.634 67.3163 514.99 70.0686 518.175 71.5343C521.359 73 524.982 73 532.229 73H630C645.085 73 652.627 73 657.314 77.6863C662 82.3726 662 89.9151 662 105Z" fill="url(#paint0_linear_1_1556)"/>
<defs>
<linearGradient id="paint0_linear_1_1556" x1="8.13393e-05" y1="722" x2="825.67" y2="228.689" gradientUnits="userSpaceOnUse">
<stop stop-color="#111215"/>
<stop offset="1" stop-color="#272B2E"/>
</linearGradient>
</defs>
</svg>
