<svg width="355" height="484" viewBox="0 0 355 484" fill="none" xmlns="http://www.w3.org/2000/svg">
<path d="M355 63.1288V460C355 471.314 355 476.971 351.485 480.485C347.971 484 342.314 484 331 484H25.2743C13.9892 484 8.34662 484 4.83392 480.497C1.32123 476.994 1.3056 471.352 1.27435 460.066L0.0666504 24.0665C0.0352478 12.7241 0.0195312 7.05296 3.53625 3.52648C7.05298 0 12.7242 0 24.0666 0H231.659C237.707 0 240.731 0 243.313 1.32742C245.896 2.65484 247.655 5.11389 251.175 10.032L264.82 29.0968C268.34 34.0149 270.1 36.474 272.682 37.8014C275.265 39.1288 278.289 39.1288 284.337 39.1288H331C342.314 39.1288 347.971 39.1288 351.485 42.6435C355 46.1582 355 51.8151 355 63.1288Z" fill="white"/>
</svg>
