<svg width="355" height="559" viewBox="0 0 355 559" fill="none" xmlns="http://www.w3.org/2000/svg">
<path d="M355 63.1288V535C355 546.314 355 551.971 351.485 555.485C347.971 559 342.314 559 331 559H25.2831C13.9942 559 8.34976 559 4.83679 555.495C1.32382 551.991 1.3103 546.346 1.2832 535.058L0.0577087 24.0575C0.0305176 12.719 0.0169067 7.0498 3.53336 3.5249C7.0498 0 12.7191 0 24.0576 0H231.659C237.707 0 240.731 0 243.313 1.32742C245.896 2.65484 247.655 5.11389 251.175 10.032L264.82 29.0968C268.34 34.0149 270.1 36.474 272.682 37.8014C275.265 39.1288 278.289 39.1288 284.337 39.1288H331C342.314 39.1288 347.971 39.1288 351.485 42.6435C355 46.1582 355 51.8151 355 63.1288Z" fill="url(#paint0_linear_1_6346)"/>
<defs>
<linearGradient id="paint0_linear_1_6346" x1="1.08882e-05" y1="559" x2="512.977" y2="346.72" gradientUnits="userSpaceOnUse">
<stop stop-color="#111215"/>
<stop offset="1" stop-color="#272B2E"/>
</linearGradient>
</defs>
</svg>
