<svg width="57" height="57" viewBox="0 0 57 57" fill="none" xmlns="http://www.w3.org/2000/svg">
<g clip-path="url(#clip0_2011_5485)">
<path d="M27.9911 55.5508C25.6455 55.5508 23.3966 55.2508 21.2413 54.6964C22.3269 52.8405 23.6232 50.3391 24.1709 48.2135C24.1711 48.2127 24.1713 48.2119 24.1715 48.2111L25.4299 43.4262C25.8979 43.8253 26.4313 44.1767 27.0017 44.4705C28.2726 45.1252 29.8021 45.5341 31.3861 45.5341C40.5761 45.5341 46.9298 37.1279 46.9298 27.1228C46.9298 17.2734 38.8672 9.96911 28.6818 9.96911C22.4135 9.96911 17.5278 12.0814 14.2072 15.4207C10.8942 18.7522 9.20175 23.2431 9.20175 27.8904C9.20175 30.1147 9.78792 32.5731 10.8353 34.6964C11.8767 36.8077 13.4338 38.704 15.4597 39.6391C15.7734 39.7842 16.3161 39.9823 16.8766 39.7549C17.4862 39.5075 17.7006 38.9407 17.786 38.5829C17.8855 38.1848 18.3563 36.2735 18.5661 35.3992L18.5678 35.3922L18.5694 35.3853C18.6224 35.1497 18.6503 34.8645 18.5819 34.5505C18.513 34.234 18.3623 33.9614 18.1668 33.7244L18.1657 33.7231C17.1803 32.5326 16.3211 30.178 16.3211 27.9651C16.3211 22.32 20.5811 16.8341 27.9421 16.8341C31.1464 16.8341 33.8085 17.9231 35.6644 19.7281C37.5184 21.5312 38.6274 24.106 38.6274 27.1951C38.6274 30.8188 37.7098 33.8074 36.274 35.8602C34.8455 37.9026 32.9301 38.9981 30.8354 38.9981C28.6633 38.9981 27.1689 37.2614 27.6664 35.1788L27.6666 35.1779C27.9434 34.0145 28.3081 32.8322 28.6739 31.6461C28.8196 31.1736 28.9656 30.7005 29.1062 30.2277C29.5824 28.6268 30.0084 26.9976 30.0084 25.6318C30.0084 24.393 29.6765 23.1643 28.9071 22.2248C28.1157 21.2583 26.937 20.6931 25.4664 20.6931C21.868 20.6931 19.4077 24.3333 19.4077 28.4854C19.4077 29.8349 19.6358 30.9679 19.8654 31.7676C19.9804 32.1682 20.0965 32.4875 20.1861 32.7116C20.1893 32.7195 20.1925 32.7274 20.1956 32.7351L20.1522 32.9186L19.8315 34.2754C19.5638 35.4078 19.2017 36.9403 18.8235 38.5412C18.0674 41.7421 17.2468 45.2185 16.991 46.3132L16.9906 46.3151C16.525 48.3246 16.5638 50.8989 16.7185 52.9868C7.48978 48.7052 1.09375 39.3622 1.09375 28.5204C1.09375 14.2389 12.1959 2.5491 26.2422 1.61145H27.9911C42.8558 1.61145 54.9561 13.6804 54.9561 28.5811C54.9561 43.4796 42.8557 55.5508 27.9911 55.5508Z" stroke="url(#paint0_linear_2011_5485)" stroke-width="2"/>
</g>
<defs>
<linearGradient id="paint0_linear_2011_5485" x1="-10.0504" y1="27.9304" x2="59.3134" y2="8.27638" gradientUnits="userSpaceOnUse">
<stop stop-color="white"/>
<stop offset="1" stop-color="#01F28E"/>
</linearGradient>
<clipPath id="clip0_2011_5485">
<rect width="56" height="56" fill="white" transform="translate(0.0234375 0.550781)"/>
</clipPath>
</defs>
</svg>
