<svg width="73" height="73" viewBox="0 0 73 73" fill="none" xmlns="http://www.w3.org/2000/svg">
<g clip-path="url(#clip0_2011_67)">
<path d="M65.7412 13.1643H7.94034C4.0213 13.1687 0.845437 16.3445 0.841064 20.2636V52.119C0.845437 56.0379 4.0213 59.2139 7.94034 59.2183H65.7412C69.6604 59.214 72.8365 56.0382 72.8409 52.119V20.2636C72.8365 16.3445 69.6604 13.1687 65.7412 13.1643ZM49.3497 36.1913L69.8213 18.9488C69.9587 19.3735 70.0286 19.8172 70.0284 20.2634V52.1189C70.0286 52.5651 69.9587 53.0088 69.8214 53.4335L49.3497 36.1913ZM65.7412 15.9768C66.5898 15.9759 67.4192 16.2282 68.1236 16.7015L36.841 43.0501L5.55837 16.7015C6.26262 16.2282 7.09208 15.9759 7.94048 15.977L65.7412 15.9768ZM3.86083 53.4341C3.72339 53.0092 3.65358 52.5656 3.65372 52.1191V20.2636C3.65358 19.8173 3.72354 19.3735 3.86083 18.9488L24.3321 36.1913L3.86083 53.4341ZM7.94034 56.4059C7.09208 56.4071 6.26262 56.1549 5.55837 55.682L26.515 38.0306L35.935 45.9646C36.4584 46.4055 37.2234 46.4055 37.7468 45.9646L47.1668 38.0305L68.1233 55.6811C67.4191 56.1543 66.5896 56.4068 65.7411 56.4058H7.94034V56.4059Z" fill="url(#paint0_linear_2011_67)"/>
</g>
<defs>
<linearGradient id="paint0_linear_2011_67" x1="-12.2335" y1="35.6811" x2="68.4375" y2="-0.142529" gradientUnits="userSpaceOnUse">
<stop stop-color="white"/>
<stop offset="1" stop-color="#01F28E"/>
</linearGradient>
<clipPath id="clip0_2011_67">
<rect width="72" height="72" fill="white" transform="translate(0.841064 0.191406)"/>
</clipPath>
</defs>
</svg>
