<svg width="290" height="458" viewBox="0 0 290 458" fill="none" xmlns="http://www.w3.org/2000/svg">
<path d="M0.5 24C0.5 18.329 0.501062 14.1261 0.934881 10.8994C1.36677 7.68704 2.2193 5.51725 3.86827 3.86827C5.51725 2.2193 7.68704 1.36677 10.8994 0.934881C14.1261 0.501062 18.329 0.5 24 0.5H186.577C192.239 0.5 194.909 0.511368 197.231 1.61622C199.552 2.72107 201.245 4.78667 204.815 9.18107L222.908 31.4495L223.004 31.5675C226.453 35.812 228.29 38.0733 230.839 39.2867C233.389 40.5002 236.302 40.5001 241.771 40.5H241.923H266C271.671 40.5 275.874 40.5011 279.101 40.9349C282.313 41.3668 284.483 42.2193 286.132 43.8683C287.781 45.5172 288.633 47.687 289.065 50.8994C289.499 54.1261 289.5 58.329 289.5 64V434C289.5 439.671 289.499 443.874 289.065 447.101C288.633 450.313 287.781 452.483 286.132 454.132C284.483 455.781 282.313 456.633 279.101 457.065C275.874 457.499 271.671 457.5 266 457.5H24C18.329 457.5 14.1261 457.499 10.8994 457.065C7.68704 456.633 5.51725 455.781 3.86827 454.132C2.2193 452.483 1.36677 450.313 0.934881 447.101C0.501062 443.874 0.5 439.671 0.5 434V24Z" stroke="url(#paint0_radial_2030_3643)" stroke-opacity="0.66"/>
<path d="M0.5 24C0.5 18.329 0.501062 14.1261 0.934881 10.8994C1.36677 7.68704 2.2193 5.51725 3.86827 3.86827C5.51725 2.2193 7.68704 1.36677 10.8994 0.934881C14.1261 0.501062 18.329 0.5 24 0.5H186.577C192.239 0.5 194.909 0.511368 197.231 1.61622C199.552 2.72107 201.245 4.78667 204.815 9.18107L222.908 31.4495L223.004 31.5675C226.453 35.812 228.29 38.0733 230.839 39.2867C233.389 40.5002 236.302 40.5001 241.771 40.5H241.923H266C271.671 40.5 275.874 40.5011 279.101 40.9349C282.313 41.3668 284.483 42.2193 286.132 43.8683C287.781 45.5172 288.633 47.687 289.065 50.8994C289.499 54.1261 289.5 58.329 289.5 64V434C289.5 439.671 289.499 443.874 289.065 447.101C288.633 450.313 287.781 452.483 286.132 454.132C284.483 455.781 282.313 456.633 279.101 457.065C275.874 457.499 271.671 457.5 266 457.5H24C18.329 457.5 14.1261 457.499 10.8994 457.065C7.68704 456.633 5.51725 455.781 3.86827 454.132C2.2193 452.483 1.36677 450.313 0.934881 447.101C0.501062 443.874 0.5 439.671 0.5 434V24Z" stroke="url(#paint1_radial_2030_3643)" stroke-opacity="0.66"/>
<path d="M0.5 24C0.5 18.329 0.501062 14.1261 0.934881 10.8994C1.36677 7.68704 2.2193 5.51725 3.86827 3.86827C5.51725 2.2193 7.68704 1.36677 10.8994 0.934881C14.1261 0.501062 18.329 0.5 24 0.5H186.577C192.239 0.5 194.909 0.511368 197.231 1.61622C199.552 2.72107 201.245 4.78667 204.815 9.18107L222.908 31.4495L223.004 31.5675C226.453 35.812 228.29 38.0733 230.839 39.2867C233.389 40.5002 236.302 40.5001 241.771 40.5H241.923H266C271.671 40.5 275.874 40.5011 279.101 40.9349C282.313 41.3668 284.483 42.2193 286.132 43.8683C287.781 45.5172 288.633 47.687 289.065 50.8994C289.499 54.1261 289.5 58.329 289.5 64V434C289.5 439.671 289.499 443.874 289.065 447.101C288.633 450.313 287.781 452.483 286.132 454.132C284.483 455.781 282.313 456.633 279.101 457.065C275.874 457.499 271.671 457.5 266 457.5H24C18.329 457.5 14.1261 457.499 10.8994 457.065C7.68704 456.633 5.51725 455.781 3.86827 454.132C2.2193 452.483 1.36677 450.313 0.934881 447.101C0.501062 443.874 0.5 439.671 0.5 434V24Z" stroke="url(#paint2_radial_2030_3643)"/>
<defs>
<radialGradient id="paint0_radial_2030_3643" cx="0" cy="0" r="1" gradientUnits="userSpaceOnUse" gradientTransform="translate(372.603 1087.53) rotate(-108.967) scale(1275.78 467.346)">
<stop stop-color="white"/>
<stop offset="1" stop-color="white" stop-opacity="0"/>
</radialGradient>
<radialGradient id="paint1_radial_2030_3643" cx="0" cy="0" r="1" gradientUnits="userSpaceOnUse" gradientTransform="translate(-59.6533 -354.528) rotate(64.2935) scale(910.205 386.08)">
<stop stop-color="white"/>
<stop offset="1" stop-color="white" stop-opacity="0"/>
</radialGradient>
<radialGradient id="paint2_radial_2030_3643" cx="0" cy="0" r="1" gradientUnits="userSpaceOnUse" gradientTransform="translate(152.345 216.438) rotate(123.108) scale(305.686 209.049)">
<stop stop-color="white"/>
<stop offset="1" stop-color="#151515" stop-opacity="0"/>
</radialGradient>
</defs>
</svg>
