<svg width="109" height="109" viewBox="0 0 109 109" fill="none" xmlns="http://www.w3.org/2000/svg">
<g clip-path="url(#clip0_1_1186)">
<path d="M34.7785 83.5527C34.7785 83.5527 54.4232 83.6498 60.9069 89.0879L57.5199 90.3018C57.5199 90.3018 48.3266 83.7469 32.3108 84.9608C33.1334 84.2325 34.7785 83.5527 34.7785 83.5527Z" fill="url(#paint0_linear_1_1186)"/>
<path d="M62.4002 83.5527C62.4002 83.5527 42.7554 83.6498 36.2717 89.0879L39.6587 90.3018C39.6587 90.3018 48.8521 83.7469 64.8678 84.9608C64.0453 84.2325 62.4002 83.5527 62.4002 83.5527Z" fill="url(#paint1_linear_1_1186)"/>
<path fill-rule="evenodd" clip-rule="evenodd" d="M18.2249 15.6737C22.3377 13.0032 26.5956 9.02178 33.9019 6.30273C28.5795 6.35129 20.1603 9.70154 18.2249 15.6737Z" fill="url(#paint2_linear_1_1186)"/>
<path fill-rule="evenodd" clip-rule="evenodd" d="M22.9681 16.5039C22.0971 16.8923 21.4681 17.1351 20.7423 17.3293C19.3875 17.6692 18.2746 17.7663 17.1133 18.1548C16.194 18.4461 15.4198 18.9316 14.7908 19.4657C14.2102 19.9513 13.7747 20.4368 13.436 20.9224C12.7586 21.8934 12.178 23.4472 12.178 24.6125C12.7102 24.0784 13.1941 23.6414 13.7263 23.253C14.5489 22.6703 15.3231 22.2333 16.1456 21.8934C16.7746 21.6507 17.3069 21.4079 17.8391 21.1166C20.1133 19.9513 21.4197 18.3004 22.9681 16.5039Z" fill="url(#paint3_linear_1_1186)"/>
<path fill-rule="evenodd" clip-rule="evenodd" d="M12.1271 24.6605C12.1271 22.9611 13.6755 20.0964 14.5948 18.9796C15.2238 18.2027 15.7077 17.3288 16.1432 16.4062C16.9174 14.8039 17.5948 12.9589 17.7883 11.5508C16.8206 12.1334 15.8045 12.7646 14.74 13.5901C12.4175 15.4837 11.111 17.523 11.4497 20.2906C11.5465 21.4073 11.5465 23.7379 12.1271 24.6605Z" fill="url(#paint4_linear_1_1186)"/>
<path fill-rule="evenodd" clip-rule="evenodd" d="M16.2329 24.9492C15.4588 25.4833 14.8781 25.8232 14.2491 26.1145C12.9911 26.6486 11.9266 26.9399 10.9105 27.5226C10.0879 27.9596 9.45889 28.5422 8.92665 29.222C8.44279 29.8047 8.15247 30.3388 7.91054 30.8729C7.47507 31.941 7.23314 33.5919 7.52346 34.7086C7.91054 34.0774 8.29763 33.5919 8.7331 33.1064C9.36212 32.378 10.0395 31.8439 10.8137 31.3584C11.3459 31.0185 11.8298 30.6786 12.3137 30.3388C14.2007 28.8336 15.1201 26.9399 16.2329 24.9492Z" fill="url(#paint5_linear_1_1186)"/>
<path fill-rule="evenodd" clip-rule="evenodd" d="M7.47653 34.7585C7.08944 33.1076 7.96039 30.0001 8.63779 28.7863C9.07327 27.9123 9.36358 26.9898 9.55713 26.0187C9.94421 24.3193 10.1861 22.4257 10.0894 21.0176C9.26681 21.7944 8.44425 22.5228 7.52492 23.5424C5.68625 25.7759 4.86369 28.0094 5.78302 30.6799C6.12172 31.6995 6.70235 33.933 7.47653 34.7585Z" fill="url(#paint6_linear_1_1186)"/>
<path fill-rule="evenodd" clip-rule="evenodd" d="M12.223 33.3984C11.594 34.1753 11.1102 34.7094 10.5295 35.195C9.41665 36.1175 8.35215 36.7001 7.48121 37.5741C6.75542 38.3024 6.31994 39.0793 5.98124 39.9047C5.69093 40.6816 5.54577 41.3128 5.49738 41.944C5.40061 43.2064 5.7877 45.0029 6.4651 46.1682C6.65864 45.3914 6.90057 44.7602 7.1425 44.129C7.57798 43.2064 8.11022 42.4296 8.73924 41.7012C9.17472 41.1671 9.61019 40.6816 9.94889 40.1961C11.4972 38.0597 11.7876 35.8262 12.223 33.3984Z" fill="url(#paint7_linear_1_1186)"/>
<path fill-rule="evenodd" clip-rule="evenodd" d="M6.46467 46.2182C5.44856 44.5673 5.25502 41.0229 5.49695 39.5662C5.64211 38.498 5.59372 37.4298 5.49695 36.3616C5.3034 34.4195 4.81954 32.3316 4.19053 30.875C3.60989 31.8946 2.98088 32.9143 2.40024 34.2253C1.23898 37.1385 1.1906 39.7119 3.17442 42.2853C3.9486 43.3049 5.35179 45.5384 6.46467 46.2182Z" fill="url(#paint8_linear_1_1186)"/>
<path fill-rule="evenodd" clip-rule="evenodd" d="M10.3358 43.3535C9.90032 44.2275 9.56161 44.8587 9.07775 45.4414C8.20681 46.5581 7.28747 47.335 6.61007 48.4032C6.07782 49.2771 5.78751 50.1026 5.69074 51.0251C5.59396 51.8505 5.59396 52.5303 5.73912 53.1615C5.98105 54.4725 6.75523 56.1719 7.77133 57.1915C7.77133 56.3661 7.81972 55.6863 7.96488 55.0066C8.15842 53.9869 8.49712 53.1615 8.9326 52.2875C9.2713 51.6563 9.51323 51.1222 9.75516 50.5396C10.7713 48.1604 10.4809 45.8783 10.3358 43.3535Z" fill="url(#paint9_linear_1_1186)"/>
<path fill-rule="evenodd" clip-rule="evenodd" d="M7.77298 57.2399C6.3214 55.7833 5.2569 52.2874 5.16013 50.7336C5.06336 49.6654 4.72466 48.5972 4.33757 47.529C3.66017 45.6354 2.69245 43.6447 1.67634 42.2852C1.33764 43.4505 0.950552 44.5672 0.708622 45.9753C0.321534 49.1313 0.902166 51.7047 3.51501 53.9382C4.53111 54.8122 6.51494 56.7544 7.77298 57.2399Z" fill="url(#paint10_linear_1_1186)"/>
<path fill-rule="evenodd" clip-rule="evenodd" d="M10.5303 52.8691C10.4335 53.8888 10.2884 54.6171 10.0464 55.394C9.56257 56.802 8.93355 57.8702 8.59485 59.1327C8.35292 60.1523 8.4013 61.1234 8.64323 62.0945C8.83678 62.9685 9.12709 63.6482 9.4658 64.2794C10.1916 65.5418 11.6432 67.0956 13.0464 67.8724C12.756 66.9985 12.5625 66.3187 12.4173 65.5904C12.2238 64.4736 12.2722 63.5026 12.4173 62.5315C12.5141 61.8031 12.6109 61.1719 12.6109 60.5407C12.8044 57.676 11.6432 55.394 10.5303 52.8691Z" fill="url(#paint11_linear_1_1186)"/>
<path fill-rule="evenodd" clip-rule="evenodd" d="M13.095 67.872C11.0628 66.7553 8.64353 63.4536 7.96613 61.8998C7.48227 60.8316 6.70809 59.812 5.93392 58.8409C4.53073 57.0929 2.78883 55.2964 1.24048 54.1797C1.28886 55.4421 1.38564 56.7045 1.62757 58.2583C2.35336 61.56 3.90171 64.0848 7.43388 65.6385C8.83708 66.2212 11.5951 67.7264 13.095 67.872Z" fill="url(#paint12_linear_1_1186)"/>
<path fill-rule="evenodd" clip-rule="evenodd" d="M14.3499 62.334C14.6402 63.4507 14.7853 64.2762 14.8337 65.1501C14.8821 66.801 14.5918 68.112 14.7853 69.5686C14.9305 70.7339 15.366 71.7535 15.995 72.6761C16.5756 73.55 17.1079 74.1813 17.7369 74.7639C19.0433 75.8807 21.2207 77.1431 23.0109 77.5315C22.3335 76.7061 21.8497 76.0263 21.4626 75.298C20.8336 74.1813 20.4949 73.1131 20.2529 72.0449C20.0594 71.2194 19.8659 70.5397 19.6723 69.8599C18.6562 66.801 16.5272 64.7131 14.3499 62.334Z" fill="url(#paint13_linear_1_1186)"/>
<path fill-rule="evenodd" clip-rule="evenodd" d="M23.0634 77.5802C20.4506 76.9975 16.5797 74.1814 15.2249 72.7733C14.2572 71.7536 13.0959 70.9282 11.8379 70.1028C9.66048 68.6462 7.04764 67.2381 4.96704 66.5098C5.54767 67.8693 6.1283 69.1803 6.99925 70.734C9.07985 74.0357 11.7411 76.2692 16.1442 76.9004C17.8377 77.0946 21.4183 77.8715 23.0634 77.5802Z" fill="url(#paint14_linear_1_1186)"/>
<path fill-rule="evenodd" clip-rule="evenodd" d="M22.2952 71.2227C23.1177 72.2423 23.6016 73.0192 23.9887 73.8931C24.7145 75.544 25.0532 76.9035 25.8757 78.3116C26.5531 79.4283 27.4725 80.3023 28.537 81.0792C29.5047 81.759 30.3756 82.2445 31.295 82.6329C33.1336 83.3613 35.9884 83.9439 38.0206 83.7982C36.9561 83.167 36.1336 82.6329 35.4078 82.0017C34.2465 81.0792 33.4239 80.1567 32.6982 79.0885C32.1659 78.3601 31.6337 77.6804 31.1014 77.0492C28.7789 74.3787 25.6338 72.9221 22.2952 71.2227Z" fill="url(#paint15_linear_1_1186)"/>
<path fill-rule="evenodd" clip-rule="evenodd" d="M38.1119 83.7966C35.112 83.9909 29.7895 82.3886 27.7573 81.3689C26.3057 80.6406 24.709 80.1551 23.0155 79.7181C20.0639 78.9412 16.7253 78.31 14.2092 78.2129C15.4189 79.3782 16.5801 80.5435 18.1769 81.8059C21.8058 84.4764 25.5799 85.8845 30.5153 85.1562C32.4024 84.9134 36.4668 84.6221 38.1119 83.7966Z" fill="url(#paint16_linear_1_1186)"/>
<path fill-rule="evenodd" clip-rule="evenodd" d="M78.9566 15.6737C74.8438 13.0518 70.5374 9.02178 63.2795 6.30273C68.602 6.35129 77.0212 9.70154 78.9566 15.6737Z" fill="url(#paint17_linear_1_1186)"/>
<path fill-rule="evenodd" clip-rule="evenodd" d="M74.2092 16.5039C75.0802 16.8923 75.7092 17.1351 76.435 17.3293C77.7898 17.6692 78.9027 17.7663 80.0639 18.1548C80.9833 18.4461 81.7574 18.9316 82.3865 19.4657C82.9671 19.9513 83.4026 20.4368 83.7413 20.9224C84.4187 21.8934 84.9993 23.4472 84.9993 24.6125C84.4671 24.0784 83.9832 23.6414 83.4509 23.253C82.6284 22.6703 81.8542 22.2333 80.9833 21.8934C80.3542 21.6507 79.822 21.4079 79.2898 21.1166C77.064 19.9513 75.7576 18.3004 74.2092 16.5039Z" fill="url(#paint18_linear_1_1186)"/>
<path fill-rule="evenodd" clip-rule="evenodd" d="M85.0501 24.6605C85.0501 22.9611 83.5017 20.0964 82.5824 18.9796C81.9534 18.2027 81.4695 17.3288 81.034 16.4062C80.2599 14.8039 79.5825 12.9589 79.3889 11.5508C80.3566 12.1334 81.3727 12.7646 82.4372 13.5901C84.7598 15.4837 86.0662 17.523 85.7275 20.2906C85.6307 21.4073 85.6307 23.7379 85.0501 24.6605Z" fill="url(#paint19_linear_1_1186)"/>
<path fill-rule="evenodd" clip-rule="evenodd" d="M80.9358 24.9492C81.71 25.4833 82.2906 25.8232 82.9196 26.1145C84.1777 26.6486 85.2421 26.9399 86.2582 27.5226C87.0808 27.9596 87.7098 28.5422 88.2421 29.222C88.7259 29.8047 89.0162 30.3388 89.2582 30.8729C89.6937 31.941 89.9356 33.5919 89.6453 34.7086C89.2582 34.0774 88.8711 33.5919 88.4356 33.1064C87.8066 32.378 87.1292 31.8439 86.355 31.3584C85.8228 31.0185 85.3389 30.6786 84.8551 30.3388C82.968 28.8336 82.0487 26.9399 80.9358 24.9492Z" fill="url(#paint20_linear_1_1186)"/>
<path fill-rule="evenodd" clip-rule="evenodd" d="M89.695 34.7585C90.0821 33.1076 89.2111 30.0001 88.5337 28.7863C88.0982 27.9123 87.8079 26.9898 87.6144 26.0187C87.2273 24.3193 86.9854 22.4257 87.0821 21.0176C87.9047 21.7944 88.7273 22.5228 89.6466 23.5424C91.4853 25.7759 92.3078 28.0094 91.3885 30.6799C91.0498 31.6995 90.4692 33.933 89.695 34.7585Z" fill="url(#paint21_linear_1_1186)"/>
<path fill-rule="evenodd" clip-rule="evenodd" d="M84.9592 33.3984C85.5882 34.1753 86.0721 34.7094 86.6527 35.195C87.7656 36.1175 88.8301 36.7001 89.7011 37.5741C90.4268 38.3024 90.8623 39.0793 91.201 39.9047C91.4913 40.6816 91.6365 41.3128 91.6849 41.944C91.7816 43.2064 91.3946 45.0029 90.7172 46.1682C90.5236 45.3914 90.2817 44.7602 90.0398 44.129C89.6043 43.2064 89.072 42.4296 88.443 41.7012C88.0075 41.1671 87.5721 40.6816 87.2334 40.1961C85.685 38.0597 85.3947 35.8262 84.9592 33.3984Z" fill="url(#paint22_linear_1_1186)"/>
<path fill-rule="evenodd" clip-rule="evenodd" d="M90.717 46.2182C91.7331 44.5673 91.9267 41.0229 91.6848 39.5662C91.5396 38.498 91.588 37.4298 91.6848 36.3616C91.8783 34.4195 92.3622 32.3316 92.9912 30.875C93.5718 31.8946 94.2008 32.9143 94.7815 34.2253C95.9427 37.1385 95.9911 39.7119 94.0073 42.2853C93.2331 43.3049 91.8299 45.5384 90.717 46.2182Z" fill="url(#paint23_linear_1_1186)"/>
<path fill-rule="evenodd" clip-rule="evenodd" d="M86.846 43.3535C87.2814 44.2275 87.6201 44.8587 88.104 45.4414C88.975 46.5581 89.8943 47.335 90.5717 48.4032C91.1039 49.2771 91.3943 50.1026 91.491 51.0251C91.5878 51.8505 91.5878 52.5303 91.4426 53.1615C91.2007 54.4725 90.4265 56.1719 89.4104 57.1915C89.4104 56.3661 89.362 55.6863 89.2169 55.0066C89.0233 53.9869 88.6846 53.1615 88.2492 52.2875C87.9105 51.6563 87.6685 51.1222 87.4266 50.5396C86.4105 48.1604 86.7008 45.8783 86.846 43.3535Z" fill="url(#paint24_linear_1_1186)"/>
<path fill-rule="evenodd" clip-rule="evenodd" d="M89.4045 57.2399C90.8561 55.7833 91.9206 52.2874 92.0174 50.7336C92.1142 49.6654 92.4529 48.5972 92.8399 47.529C93.5174 45.6354 94.4851 43.6447 95.5012 42.2852C95.8399 43.4505 96.227 44.5672 96.4689 45.9753C96.9044 49.0828 96.3237 51.6562 93.6625 53.8897C92.6464 54.8122 90.6626 56.7544 89.4045 57.2399Z" fill="url(#paint25_linear_1_1186)"/>
<path fill-rule="evenodd" clip-rule="evenodd" d="M86.655 52.8691C86.7518 53.8888 86.8969 54.6171 87.1388 55.394C87.6227 56.802 88.2517 57.8702 88.5904 59.1327C88.8324 60.1523 88.784 61.1234 88.542 62.0945C88.3485 62.9685 88.0582 63.6482 87.7195 64.2794C86.9937 65.5418 85.5421 67.0956 84.1389 67.8724C84.4292 66.9985 84.6228 66.3187 84.7679 65.5904C84.9615 64.4736 84.9131 63.5026 84.7679 62.5315C84.6712 61.8031 84.5744 61.1719 84.5744 60.5407C84.3808 57.676 85.5421 55.394 86.655 52.8691Z" fill="url(#paint26_linear_1_1186)"/>
<path fill-rule="evenodd" clip-rule="evenodd" d="M84.092 67.872C86.1243 66.7553 88.5436 63.4536 89.221 61.8998C89.7048 60.8316 90.479 59.812 91.2532 58.8409C92.6564 57.0929 94.3983 55.2964 95.9466 54.1797C95.8982 55.4421 95.8014 56.7045 95.5595 58.2583C94.8337 61.56 93.2854 64.0848 89.7532 65.6385C88.35 66.2212 85.592 67.7264 84.092 67.872Z" fill="url(#paint27_linear_1_1186)"/>
<path fill-rule="evenodd" clip-rule="evenodd" d="M82.8313 62.334C82.5409 63.4507 82.3958 64.2762 82.3474 65.1501C82.299 66.801 82.5893 68.112 82.3958 69.5686C82.2506 70.7339 81.8152 71.7535 81.1861 72.6761C80.6055 73.55 80.0733 74.1813 79.4442 74.7639C78.1378 75.8807 75.9604 77.1431 74.1702 77.5315C74.8476 76.7061 75.3314 76.0263 75.7185 75.298C76.3475 74.1813 76.6862 73.1131 76.9282 72.0449C77.1217 71.2194 77.3153 70.5397 77.5088 69.8599C78.5249 66.801 80.6539 64.7131 82.8313 62.334Z" fill="url(#paint28_linear_1_1186)"/>
<path fill-rule="evenodd" clip-rule="evenodd" d="M74.1233 77.5802C76.7361 76.9975 80.607 74.1814 81.9618 72.7733C82.9295 71.7536 84.0908 70.9282 85.3488 70.1028C87.5262 68.6462 90.1391 67.2381 92.2197 66.5098C91.639 67.8693 91.0584 69.1803 90.1874 70.734C88.1068 74.0357 85.4456 76.2692 81.0425 76.9004C79.349 77.0946 75.7684 77.8715 74.1233 77.5802Z" fill="url(#paint29_linear_1_1186)"/>
<path fill-rule="evenodd" clip-rule="evenodd" d="M74.8878 71.2227C74.0652 72.2423 73.5814 73.0192 73.1943 73.8931C72.4685 75.544 72.1298 76.9035 71.3072 78.3116C70.6298 79.4283 69.7105 80.3023 68.646 81.0792C67.6783 81.759 66.8073 82.2445 65.888 82.6329C64.0493 83.3613 61.1946 83.9439 59.1624 83.7982C60.2268 83.167 61.0494 82.6329 61.7752 82.0017C62.9365 81.0792 63.759 80.1567 64.4848 79.0885C65.0171 78.3601 65.5493 77.6804 66.0816 77.0492C68.4041 74.3787 71.5492 72.9221 74.8878 71.2227Z" fill="url(#paint30_linear_1_1186)"/>
<path fill-rule="evenodd" clip-rule="evenodd" d="M59.0686 83.7966C62.0685 83.9909 67.391 82.3886 69.4232 81.3689C70.8748 80.6406 72.4715 80.1551 74.165 79.7181C77.1166 78.9412 80.4552 78.31 82.9713 78.2129C81.7616 79.3782 80.6004 80.5435 79.0036 81.8059C75.3747 84.4764 71.6006 85.8845 66.6652 85.1562C64.7781 84.9134 60.7137 84.6221 59.0686 83.7966Z" fill="url(#paint31_linear_1_1186)"/>
<path d="M62.6665 51.8877C60.367 51.8877 58.2122 50.9266 56.2545 49.3621L56.7312 47.1535L56.7519 47.0717C57.1764 44.7201 58.5231 40.773 62.6665 40.773C65.7739 40.773 68.3015 43.268 68.3015 46.3354C68.291 49.3927 65.7637 51.8877 62.6665 51.8877ZM62.6665 35.1391C57.3732 35.1391 53.2715 38.5338 51.604 44.1167C49.0557 40.3436 47.1289 35.814 46 32H40.3029V46.6319C40.3029 49.5154 37.9204 51.867 34.9993 51.867C32.0782 51.867 29.696 49.5154 29.696 46.6319V32H23.9984V46.6319C23.9776 52.624 28.9186 57.542 34.9885 57.542C41.0587 57.542 45.9997 52.624 45.9997 46.6319V44.1781C47.1079 46.4581 48.4648 48.7587 50.1119 50.8038L46.621 67H52.4529L54.9802 55.2516C57.1969 56.6524 59.7452 57.5319 62.6663 57.5319C68.9122 57.5319 73.9983 52.4808 73.9983 46.3149C73.9983 40.1595 68.9125 35.1391 62.6665 35.1391Z" fill="url(#paint32_linear_1_1186)"/>
</g>
<defs>
<linearGradient id="paint0_linear_1_1186" x1="30.3772" y1="89.1734" x2="34.9273" y2="75.2673" gradientUnits="userSpaceOnUse">
<stop stop-color="#5CD6B3"/>
<stop offset="0.0001" stop-color="#04B8C4"/>
<stop offset="1" stop-color="#4BFA8A"/>
</linearGradient>
<linearGradient id="paint1_linear_1_1186" x1="34.3382" y1="89.1734" x2="38.8882" y2="75.2673" gradientUnits="userSpaceOnUse">
<stop stop-color="#5CD6B3"/>
<stop offset="0.0001" stop-color="#04B8C4"/>
<stop offset="1" stop-color="#4BFA8A"/>
</linearGradient>
<linearGradient id="paint2_linear_1_1186" x1="17.1648" y1="14.1069" x2="27.6667" y2="1.43427" gradientUnits="userSpaceOnUse">
<stop stop-color="#5CD6B3"/>
<stop offset="0.0001" stop-color="#04B8C4"/>
<stop offset="1" stop-color="#4BFA8A"/>
</linearGradient>
<linearGradient id="paint3_linear_1_1186" x1="11.4484" y1="23.2567" x2="20.6886" y2="14.3876" gradientUnits="userSpaceOnUse">
<stop stop-color="#5CD6B3"/>
<stop offset="0.0001" stop-color="#04B8C4"/>
<stop offset="1" stop-color="#4BFA8A"/>
</linearGradient>
<linearGradient id="paint4_linear_1_1186" x1="10.9646" y1="22.4685" x2="20.3234" y2="19.1773" gradientUnits="userSpaceOnUse">
<stop stop-color="#5CD6B3"/>
<stop offset="0.0001" stop-color="#04B8C4"/>
<stop offset="1" stop-color="#4BFA8A"/>
</linearGradient>
<linearGradient id="paint5_linear_1_1186" x1="6.79926" y1="33.0769" x2="16.9909" y2="26.4209" gradientUnits="userSpaceOnUse">
<stop stop-color="#5CD6B3"/>
<stop offset="0.0001" stop-color="#04B8C4"/>
<stop offset="1" stop-color="#4BFA8A"/>
</linearGradient>
<linearGradient id="paint6_linear_1_1186" x1="5.08633" y1="32.461" x2="12.3842" y2="30.6581" gradientUnits="userSpaceOnUse">
<stop stop-color="#5CD6B3"/>
<stop offset="0.0001" stop-color="#04B8C4"/>
<stop offset="1" stop-color="#4BFA8A"/>
</linearGradient>
<linearGradient id="paint7_linear_1_1186" x1="5.02691" y1="44.0331" x2="14.713" y2="40.3453" gradientUnits="userSpaceOnUse">
<stop stop-color="#5CD6B3"/>
<stop offset="0.0001" stop-color="#04B8C4"/>
<stop offset="1" stop-color="#4BFA8A"/>
</linearGradient>
<linearGradient id="paint8_linear_1_1186" x1="1.26258" y1="43.6528" x2="8.87996" y2="41.9079" gradientUnits="userSpaceOnUse">
<stop stop-color="#5CD6B3"/>
<stop offset="0.0001" stop-color="#04B8C4"/>
<stop offset="1" stop-color="#4BFA8A"/>
</linearGradient>
<linearGradient id="paint9_linear_1_1186" x1="5.29435" y1="54.8778" x2="12.8151" y2="52.9707" gradientUnits="userSpaceOnUse">
<stop stop-color="#5CD6B3"/>
<stop offset="0.0001" stop-color="#04B8C4"/>
<stop offset="1" stop-color="#4BFA8A"/>
</linearGradient>
<linearGradient id="paint10_linear_1_1186" x1="0.114838" y1="54.7395" x2="10.6553" y2="51.0927" gradientUnits="userSpaceOnUse">
<stop stop-color="#5CD6B3"/>
<stop offset="0.0001" stop-color="#04B8C4"/>
<stop offset="1" stop-color="#4BFA8A"/>
</linearGradient>
<linearGradient id="paint11_linear_1_1186" x1="8.12404" y1="65.3639" x2="15.3547" y2="63.7611" gradientUnits="userSpaceOnUse">
<stop stop-color="#5CD6B3"/>
<stop offset="0.0001" stop-color="#04B8C4"/>
<stop offset="1" stop-color="#4BFA8A"/>
</linearGradient>
<linearGradient id="paint12_linear_1_1186" x1="0.438924" y1="65.5827" x2="14.4711" y2="56.8196" gradientUnits="userSpaceOnUse">
<stop stop-color="#5CD6B3"/>
<stop offset="0.0001" stop-color="#04B8C4"/>
<stop offset="1" stop-color="#4BFA8A"/>
</linearGradient>
<linearGradient id="paint13_linear_1_1186" x1="13.7642" y1="74.9905" x2="25.9546" y2="69.9793" gradientUnits="userSpaceOnUse">
<stop stop-color="#5CD6B3"/>
<stop offset="0.0001" stop-color="#04B8C4"/>
<stop offset="1" stop-color="#4BFA8A"/>
</linearGradient>
<linearGradient id="paint14_linear_1_1186" x1="3.74344" y1="75.783" x2="16.2844" y2="61.0818" gradientUnits="userSpaceOnUse">
<stop stop-color="#5CD6B3"/>
<stop offset="0.0001" stop-color="#04B8C4"/>
<stop offset="1" stop-color="#4BFA8A"/>
</linearGradient>
<linearGradient id="paint15_linear_1_1186" x1="21.2319" y1="81.7143" x2="35.5214" y2="68.8484" gradientUnits="userSpaceOnUse">
<stop stop-color="#5CD6B3"/>
<stop offset="0.0001" stop-color="#04B8C4"/>
<stop offset="1" stop-color="#4BFA8A"/>
</linearGradient>
<linearGradient id="paint16_linear_1_1186" x1="12.593" y1="84.1541" x2="18.3421" y2="70.26" gradientUnits="userSpaceOnUse">
<stop stop-color="#5CD6B3"/>
<stop offset="0.0001" stop-color="#04B8C4"/>
<stop offset="1" stop-color="#4BFA8A"/>
</linearGradient>
<linearGradient id="paint17_linear_1_1186" x1="62.2195" y1="14.1069" x2="72.7214" y2="1.43427" gradientUnits="userSpaceOnUse">
<stop stop-color="#5CD6B3"/>
<stop offset="0.0001" stop-color="#04B8C4"/>
<stop offset="1" stop-color="#4BFA8A"/>
</linearGradient>
<linearGradient id="paint18_linear_1_1186" x1="73.4797" y1="23.2567" x2="82.7199" y2="14.3876" gradientUnits="userSpaceOnUse">
<stop stop-color="#5CD6B3"/>
<stop offset="0.0001" stop-color="#04B8C4"/>
<stop offset="1" stop-color="#4BFA8A"/>
</linearGradient>
<linearGradient id="paint19_linear_1_1186" x1="78.9567" y1="22.4685" x2="88.3156" y2="19.1773" gradientUnits="userSpaceOnUse">
<stop stop-color="#5CD6B3"/>
<stop offset="0.0001" stop-color="#04B8C4"/>
<stop offset="1" stop-color="#4BFA8A"/>
</linearGradient>
<linearGradient id="paint20_linear_1_1186" x1="80.3383" y1="33.0769" x2="90.53" y2="26.4209" gradientUnits="userSpaceOnUse">
<stop stop-color="#5CD6B3"/>
<stop offset="0.0001" stop-color="#04B8C4"/>
<stop offset="1" stop-color="#4BFA8A"/>
</linearGradient>
<linearGradient id="paint21_linear_1_1186" x1="86.7426" y1="32.461" x2="94.0404" y2="30.6581" gradientUnits="userSpaceOnUse">
<stop stop-color="#5CD6B3"/>
<stop offset="0.0001" stop-color="#04B8C4"/>
<stop offset="1" stop-color="#4BFA8A"/>
</linearGradient>
<linearGradient id="paint22_linear_1_1186" x1="84.5035" y1="44.0331" x2="94.1895" y2="40.3453" gradientUnits="userSpaceOnUse">
<stop stop-color="#5CD6B3"/>
<stop offset="0.0001" stop-color="#04B8C4"/>
<stop offset="1" stop-color="#4BFA8A"/>
</linearGradient>
<linearGradient id="paint23_linear_1_1186" x1="90.3876" y1="43.6528" x2="98.005" y2="41.9079" gradientUnits="userSpaceOnUse">
<stop stop-color="#5CD6B3"/>
<stop offset="0.0001" stop-color="#04B8C4"/>
<stop offset="1" stop-color="#4BFA8A"/>
</linearGradient>
<linearGradient id="paint24_linear_1_1186" x1="86.3647" y1="54.8778" x2="93.8854" y2="52.9707" gradientUnits="userSpaceOnUse">
<stop stop-color="#5CD6B3"/>
<stop offset="0.0001" stop-color="#04B8C4"/>
<stop offset="1" stop-color="#4BFA8A"/>
</linearGradient>
<linearGradient id="paint25_linear_1_1186" x1="88.918" y1="54.7395" x2="99.4841" y2="51.0725" gradientUnits="userSpaceOnUse">
<stop stop-color="#5CD6B3"/>
<stop offset="0.0001" stop-color="#04B8C4"/>
<stop offset="1" stop-color="#4BFA8A"/>
</linearGradient>
<linearGradient id="paint26_linear_1_1186" x1="83.8272" y1="65.3639" x2="91.0578" y2="63.7611" gradientUnits="userSpaceOnUse">
<stop stop-color="#5CD6B3"/>
<stop offset="0.0001" stop-color="#04B8C4"/>
<stop offset="1" stop-color="#4BFA8A"/>
</linearGradient>
<linearGradient id="paint27_linear_1_1186" x1="83.2905" y1="65.5827" x2="97.3227" y2="56.8196" gradientUnits="userSpaceOnUse">
<stop stop-color="#5CD6B3"/>
<stop offset="0.0001" stop-color="#04B8C4"/>
<stop offset="1" stop-color="#4BFA8A"/>
</linearGradient>
<linearGradient id="paint28_linear_1_1186" x1="73.5845" y1="74.9905" x2="85.7749" y2="69.9793" gradientUnits="userSpaceOnUse">
<stop stop-color="#5CD6B3"/>
<stop offset="0.0001" stop-color="#04B8C4"/>
<stop offset="1" stop-color="#4BFA8A"/>
</linearGradient>
<linearGradient id="paint29_linear_1_1186" x1="72.8997" y1="75.783" x2="85.4406" y2="61.0818" gradientUnits="userSpaceOnUse">
<stop stop-color="#5CD6B3"/>
<stop offset="0.0001" stop-color="#04B8C4"/>
<stop offset="1" stop-color="#4BFA8A"/>
</linearGradient>
<linearGradient id="paint30_linear_1_1186" x1="58.0991" y1="81.7143" x2="72.3886" y2="68.8484" gradientUnits="userSpaceOnUse">
<stop stop-color="#5CD6B3"/>
<stop offset="0.0001" stop-color="#04B8C4"/>
<stop offset="1" stop-color="#4BFA8A"/>
</linearGradient>
<linearGradient id="paint31_linear_1_1186" x1="57.4524" y1="84.1541" x2="63.2015" y2="70.26" gradientUnits="userSpaceOnUse">
<stop stop-color="#5CD6B3"/>
<stop offset="0.0001" stop-color="#04B8C4"/>
<stop offset="1" stop-color="#4BFA8A"/>
</linearGradient>
<linearGradient id="paint32_linear_1_1186" x1="20.6175" y1="61.148" x2="60.5176" y2="20.0332" gradientUnits="userSpaceOnUse">
<stop stop-color="#5CD6B3"/>
<stop offset="0.0001" stop-color="#04B8C4"/>
<stop offset="1" stop-color="#4BFA8A"/>
</linearGradient>
<clipPath id="clip0_1_1186">
<rect width="108.039" height="108.039" fill="white" transform="translate(0.607666)"/>
</clipPath>
</defs>
</svg>
