<svg width="496" height="588" viewBox="0 0 496 588" fill="none" xmlns="http://www.w3.org/2000/svg">
<path d="M0 32C0 16.9151 0 9.37261 4.68629 4.68632C9.37258 3.05176e-05 16.9151 3.05176e-05 32 3.05176e-05H337.855C343.859 3.05176e-05 346.862 3.05176e-05 349.605 1.04115C352.348 2.08228 354.594 4.07419 359.087 8.05803L393.913 38.942C398.406 42.9259 400.652 44.9178 403.395 45.9589C406.138 47 409.141 47 415.145 47H464.001C479.085 47 486.628 47 491.314 51.6863C496.001 56.3726 496.001 63.9151 496.001 79V556C496.001 571.085 496.001 578.627 491.314 583.314C486.628 588 479.085 588 464.001 588H32C16.915 588 9.37258 588 4.68629 583.314C0 578.627 0 571.085 0 556V32Z" fill="#F6F5F8"/>
</svg>
