<svg width="23" height="23" viewBox="0 0 23 23" fill="none" xmlns="http://www.w3.org/2000/svg">
<path d="M17.243 0.722989C16.6824 0.731151 16.1458 0.955365 15.7498 1.35007L14.0963 3.00215L18.5914 7.49719L20.2449 5.84512C21.0813 5.00787 21.0813 3.62711 20.2449 2.78984C20.2449 2.78984 18.8013 1.35007 18.7995 1.35007C18.3856 0.937625 17.8273 0.712786 17.243 0.722989ZM13.0784 4.0201L2.78772 14.3108C2.38519 14.7149 2.1555 15.2658 2.15501 15.8363V18.7158C2.15348 19.1161 2.4788 19.4408 2.87911 19.4385L5.75864 19.4329C6.32914 19.4324 6.87441 19.2084 7.27855 18.8058L17.5748 8.51515L13.0784 4.0201ZM2.806 20.8783C2.80553 20.8787 2.80506 20.8792 2.8046 20.8797C1.86693 20.9492 1.93929 22.3472 2.87911 22.3195H20.1549C21.1365 22.3415 21.1365 20.8577 20.1549 20.8797H2.87911C2.85478 20.878 2.83038 20.8776 2.806 20.8783Z" fill="#A1A1A1"/>
</svg>
