<svg width="23" height="23" viewBox="0 0 23 23" fill="none" xmlns="http://www.w3.org/2000/svg">
<path d="M3.36914 6.73828C5.22987 6.73828 6.73828 5.22987 6.73828 3.36914C6.73828 1.50842 5.22987 0 3.36914 0C1.50842 0 0 1.50842 0 3.36914C0 5.22987 1.50842 6.73828 3.36914 6.73828Z" fill="#A2A2A2"/>
<path d="M11.502 14.8691C13.3627 14.8691 14.8711 13.3607 14.8711 11.5C14.8711 9.63928 13.3627 8.13086 11.502 8.13086C9.64123 8.13086 8.13281 9.63928 8.13281 11.5C8.13281 13.3607 9.64123 14.8691 11.502 14.8691Z" fill="#A2A2A2"/>
<path d="M19.6309 23C21.4916 23 23 21.4916 23 19.6309C23 17.7701 21.4916 16.2617 19.6309 16.2617C17.7701 16.2617 16.2617 17.7701 16.2617 19.6309C16.2617 21.4916 17.7701 23 19.6309 23Z" fill="#A2A2A2"/>
<path d="M7.90625 4.7168C8.02601 4.27328 8.08657 3.82254 8.08657 3.36914C8.08657 2.91574 8.02601 2.465 7.90625 2.02148H21.653C22.3966 2.02148 23.0006 2.62622 23.0006 3.36914C23.0006 4.11206 22.3966 4.7168 21.653 4.7168H7.90625Z" fill="#A2A2A2"/>
<path d="M6.7832 11.5C6.7832 11.0286 6.87377 10.5822 7.00314 10.1523H1.34766C0.604064 10.1523 0 10.7571 0 11.5C0 12.2429 0.604064 12.8477 1.34766 12.8477H7.00314C6.87377 12.4178 6.7832 11.9714 6.7832 11.5Z" fill="#A2A2A2"/>
<path d="M21.6516 10.1523H15.9961C16.1255 10.5822 16.216 11.0286 16.216 11.5C16.216 11.9714 16.1255 12.4178 15.9961 12.8477H21.6516C22.3952 12.8477 22.9992 12.2429 22.9992 11.5C22.9992 10.7571 22.3952 10.1523 21.6516 10.1523Z" fill="#A2A2A2"/>
<path d="M1.34766 20.9785C0.604064 20.9785 0 20.3738 0 19.6309C0 18.8879 0.604064 18.2832 1.34766 18.2832H15.0944C14.9746 18.7267 14.9141 19.1775 14.9141 19.6309C14.9141 20.0843 14.9746 20.535 15.0944 20.9785H1.34766Z" fill="#A2A2A2"/>
</svg>
