<svg width="1300" height="799" viewBox="0 0 1300 799" fill="none" xmlns="http://www.w3.org/2000/svg">
<path d="M0 32C0 16.9151 0 9.37258 4.68629 4.68629C9.37258 0 16.9151 0 32 0H1190.61C1199.12 0 1203.37 0 1206.94 1.94153C1210.52 3.88307 1212.83 7.452 1217.46 14.5899L1240.04 49.4101C1244.67 56.548 1246.98 60.1169 1250.56 62.0585C1254.13 64 1258.38 64 1266.89 64H1268C1283.08 64 1290.63 64 1295.31 68.6863C1300 73.3726 1300 80.9151 1300 96V766.5C1300 781.585 1300 789.127 1295.31 793.814C1290.63 798.5 1283.08 798.5 1268 798.5H32C16.9151 798.5 9.37258 798.5 4.68629 793.814C0 789.127 0 781.585 0 766.5V32Z" fill="white"/>
</svg>
