<svg width="437" height="473" viewBox="0 0 437 473" fill="none" xmlns="http://www.w3.org/2000/svg">
<path d="M0.5 23.1453V427.709V427.75C0.499999 438.155 0.499998 446.012 1.31524 452.075C2.13347 458.161 3.78117 462.516 7.13266 465.867C10.4842 469.219 14.8387 470.867 20.9246 471.685C26.9882 472.5 34.8448 472.5 45.2498 472.5H45.2907H391.709H391.75C402.155 472.5 410.012 472.5 416.075 471.685C422.161 470.867 426.516 469.219 429.867 465.867C433.219 462.516 434.867 458.161 435.685 452.075C436.5 446.012 436.5 438.155 436.5 427.75V427.709V65.6496V65.6093C436.5 60.4236 436.5 56.4817 436.09 53.4333C435.677 50.3626 434.84 48.1238 433.11 46.3939C431.381 44.6639 429.142 43.827 426.071 43.4142C423.023 43.0043 419.081 43.0043 413.895 43.0043H413.855H344.86C341.713 43.0043 339.389 43.0037 337.528 42.8196C335.678 42.6365 334.327 42.2748 333.121 41.5745C331.915 40.8742 330.931 39.8794 329.855 38.3636C328.773 36.8388 327.62 34.8204 326.06 32.087L314.553 11.9217L314.54 11.898C312.996 9.19324 311.82 7.1318 310.706 5.56197C309.582 3.97854 308.499 2.86222 307.126 2.06506C305.754 1.2679 304.248 0.880876 302.315 0.689612C300.4 0.499997 298.026 0.499998 294.913 0.5H294.885H23.1453H23.1052C17.9194 0.499997 13.9774 0.499995 10.929 0.909847C7.8583 1.32269 5.61949 2.15962 3.88955 3.88955C2.15962 5.61949 1.32269 7.8583 0.909847 10.929C0.499995 13.9774 0.499997 17.9194 0.5 23.1052V23.1453Z" fill="white" stroke="#E2E2E2"/>
</svg>
