<svg width="21" height="21" viewBox="0 0 21 21" fill="none" xmlns="http://www.w3.org/2000/svg">
<path d="M12.75 6.125V0.4025C13.5594 0.708168 14.2946 1.1824 14.9069 1.79375L17.9554 4.844C18.5674 5.45552 19.042 6.19053 19.3475 7H13.625C13.3929 7 13.1704 6.90781 13.0063 6.74372C12.8422 6.57962 12.75 6.35706 12.75 6.125ZM19.75 9.17437V16.625C19.7486 17.7849 19.2872 18.8969 18.4671 19.7171C17.6469 20.5372 16.5349 20.9986 15.375 21H6.625C5.4651 20.9986 4.35311 20.5372 3.53294 19.7171C2.71277 18.8969 2.25139 17.7849 2.25 16.625V4.375C2.25139 3.2151 2.71277 2.10311 3.53294 1.28294C4.35311 0.462772 5.4651 0.00138938 6.625 0L10.5756 0C10.7183 0 10.8591 0.011375 11 0.021V6.125C11 6.82119 11.2766 7.48887 11.7688 7.98116C12.2611 8.47344 12.9288 8.75 13.625 8.75H19.729C19.7386 8.89087 19.75 9.03175 19.75 9.17437ZM12.75 16.625C12.75 16.3929 12.6578 16.1704 12.4937 16.0063C12.3296 15.8422 12.1071 15.75 11.875 15.75H7.5C7.26794 15.75 7.04538 15.8422 6.88128 16.0063C6.71719 16.1704 6.625 16.3929 6.625 16.625C6.625 16.8571 6.71719 17.0796 6.88128 17.2437C7.04538 17.4078 7.26794 17.5 7.5 17.5H11.875C12.1071 17.5 12.3296 17.4078 12.4937 17.2437C12.6578 17.0796 12.75 16.8571 12.75 16.625ZM15.375 13.125C15.375 12.8929 15.2828 12.6704 15.1187 12.5063C14.9546 12.3422 14.7321 12.25 14.5 12.25H7.5C7.26794 12.25 7.04538 12.3422 6.88128 12.5063C6.71719 12.6704 6.625 12.8929 6.625 13.125C6.625 13.3571 6.71719 13.5796 6.88128 13.7437C7.04538 13.9078 7.26794 14 7.5 14H14.5C14.7321 14 14.9546 13.9078 15.1187 13.7437C15.2828 13.5796 15.375 13.3571 15.375 13.125Z" fill="url(#paint0_linear_2001_1616)"/>
<defs>
<linearGradient id="paint0_linear_2001_1616" x1="0.743056" y1="21.5683" x2="23.3027" y2="3.75443" gradientUnits="userSpaceOnUse">
<stop offset="0.0001" stop-color="#15BCDF"/>
<stop offset="0.615" stop-color="#0DDC7A"/>
<stop offset="1" stop-color="#15BCDF"/>
</linearGradient>
</defs>
</svg>
