<svg width="57" height="57" viewBox="0 0 57 57" fill="none" xmlns="http://www.w3.org/2000/svg">
<g clip-path="url(#clip0_2011_4928)">
<path d="M11.389 39.6652C9.95962 38.595 8.82596 37.1854 8.08408 35.5709C9.46891 35.6781 10.8654 35.5454 12.2119 35.1751L12.1556 33.5923C7.67207 32.6958 4.19192 28.9367 3.66941 24.2825C4.99808 24.8118 6.45691 25.1429 8.00751 25.1429H10.7537L8.45094 23.6466C5.57713 21.7793 3.70854 18.4852 3.70854 14.7519C3.70854 13.2191 4.03087 11.7501 4.61363 10.4292C10.3875 17.0361 18.7395 21.3588 28.0695 21.8329L29.1397 21.8873L28.9048 20.8417C28.7299 20.0631 28.6301 19.2352 28.6301 18.3837C28.6301 12.4511 33.4116 7.65661 39.2465 7.65661C42.3938 7.65661 45.1462 8.90781 47.1047 11.0505L47.4171 11.3923L47.8705 11.2983C49.7625 10.9063 51.5893 10.306 53.3112 9.49601C52.4004 11.1007 51.0928 12.4388 49.5326 13.3832L50.0577 14.8866C51.4709 14.7049 52.8567 14.4053 54.1977 13.987C53.0522 15.3359 51.7597 16.5392 50.336 17.5612L49.9746 17.8206L49.9978 18.2649C50.0233 18.7514 50.0235 19.2147 50.0235 19.7288C50.0235 34.6357 38.7006 51.7623 18.1528 51.7623C13.0203 51.7623 8.16415 50.5328 3.86315 48.3546C9.01458 48.2486 13.9963 46.4526 18.0438 43.2323L19.815 41.8232L17.5521 41.7818C15.3285 41.741 13.1732 41.001 11.389 39.6652ZM3.26552 48.3593C3.26618 48.3593 3.26684 48.3593 3.26749 48.3593L3.26705 48.0447L3.26552 48.3593Z" stroke="url(#paint0_linear_2011_4928)" stroke-width="1.62768"/>
</g>
<defs>
<linearGradient id="paint0_linear_2011_4928" x1="-9.63009" y1="29.2028" x2="57.3808" y2="5.89571" gradientUnits="userSpaceOnUse">
<stop stop-color="white"/>
<stop offset="1" stop-color="#01F28E"/>
</linearGradient>
<clipPath id="clip0_2011_4928">
<rect width="56" height="56" fill="white" transform="translate(0.539062 0.310547)"/>
</clipPath>
</defs>
</svg>
