<svg width="993" height="553" viewBox="0 0 993 553" fill="none" xmlns="http://www.w3.org/2000/svg">
<g filter="url(#filter0_b_1_1240)">
<path d="M139.105 46.4064L164.895 12.5936C169.61 6.41168 171.967 3.3207 175.322 1.66035C178.676 0 182.564 0 190.339 0H960.5C975.585 0 983.127 0 987.814 4.68629C992.5 9.37258 992.5 16.9151 992.5 32V282.163C992.5 287.044 992.5 289.485 991.794 291.783C991.087 294.081 989.716 296.1 986.974 300.139L943.026 364.861C940.284 368.9 938.913 370.919 938.206 373.217C937.5 375.515 937.5 377.956 937.5 382.837V521C937.5 536.085 937.5 543.627 932.814 548.314C928.127 553 920.585 553 905.5 553H32C16.9151 553 9.37258 553 4.68629 548.314C0 543.627 0 536.085 0 521V91C0 75.9151 0 68.3726 4.68629 63.6863C9.37258 59 16.9151 59 32 59H113.661C121.436 59 125.324 59 128.678 57.3396C132.033 55.6793 134.39 52.5884 139.105 46.4065L139.105 46.4064Z" fill="url(#paint0_linear_1_1240)"/>
<path d="M139.406 46.8393L139.504 46.7105L139.511 46.7013L139.511 46.7012L165.293 12.8976C170.039 6.67613 172.319 3.70575 175.544 2.10963C178.769 0.513514 182.514 0.5013 190.339 0.5013H960.5C968.057 0.5013 973.674 0.502365 977.99 1.08262C982.291 1.66093 985.225 2.80628 987.459 5.04076C989.694 7.27524 990.839 10.209 991.417 14.5104C991.998 18.8263 991.999 24.4434 991.999 32V282.163C991.999 287.074 991.994 289.426 991.314 291.636C990.635 293.845 989.318 295.794 986.559 299.857L942.611 364.58L942.556 364.662C939.866 368.622 938.456 370.7 937.727 373.07C936.999 375.44 936.999 377.95 936.999 382.737V382.837V521C936.999 528.557 936.998 534.174 936.417 538.49C935.839 542.791 934.694 545.725 932.459 547.959C930.225 550.194 927.291 551.339 922.99 551.917C918.674 552.498 913.057 552.499 905.5 552.499H32C24.4434 552.499 18.8263 552.498 14.5104 551.917C10.209 551.339 7.27524 550.194 5.04076 547.959C2.80628 545.725 1.66093 542.791 1.08262 538.49C0.502365 534.174 0.5013 528.557 0.5013 521V91C0.5013 83.4434 0.502365 77.8263 1.08262 73.5104C1.66093 69.209 2.80628 66.2752 5.04076 64.0408C7.27524 61.8063 10.209 60.6609 14.5104 60.0826C18.8263 59.5024 24.4434 59.5013 32 59.5013H113.661H113.823C121.443 59.5014 125.441 59.5014 128.901 57.7889C132.36 56.0764 134.785 52.8978 139.406 46.8393Z" stroke="url(#paint1_radial_1_1240)" stroke-opacity="0.46" stroke-width="1.0026"/>
<path d="M139.406 46.8393L139.504 46.7105L139.511 46.7013L139.511 46.7012L165.293 12.8976C170.039 6.67613 172.319 3.70575 175.544 2.10963C178.769 0.513514 182.514 0.5013 190.339 0.5013H960.5C968.057 0.5013 973.674 0.502365 977.99 1.08262C982.291 1.66093 985.225 2.80628 987.459 5.04076C989.694 7.27524 990.839 10.209 991.417 14.5104C991.998 18.8263 991.999 24.4434 991.999 32V282.163C991.999 287.074 991.994 289.426 991.314 291.636C990.635 293.845 989.318 295.794 986.559 299.857L942.611 364.58L942.556 364.662C939.866 368.622 938.456 370.7 937.727 373.07C936.999 375.44 936.999 377.95 936.999 382.737V382.837V521C936.999 528.557 936.998 534.174 936.417 538.49C935.839 542.791 934.694 545.725 932.459 547.959C930.225 550.194 927.291 551.339 922.99 551.917C918.674 552.498 913.057 552.499 905.5 552.499H32C24.4434 552.499 18.8263 552.498 14.5104 551.917C10.209 551.339 7.27524 550.194 5.04076 547.959C2.80628 545.725 1.66093 542.791 1.08262 538.49C0.502365 534.174 0.5013 528.557 0.5013 521V91C0.5013 83.4434 0.502365 77.8263 1.08262 73.5104C1.66093 69.209 2.80628 66.2752 5.04076 64.0408C7.27524 61.8063 10.209 60.6609 14.5104 60.0826C18.8263 59.5024 24.4434 59.5013 32 59.5013H113.661H113.823C121.443 59.5014 125.441 59.5014 128.901 57.7889C132.36 56.0764 134.785 52.8978 139.406 46.8393Z" stroke="url(#paint2_radial_1_1240)" stroke-opacity="0.33" stroke-width="1.0026"/>
<path d="M139.406 46.8393L139.504 46.7105L139.511 46.7013L139.511 46.7012L165.293 12.8976C170.039 6.67613 172.319 3.70575 175.544 2.10963C178.769 0.513514 182.514 0.5013 190.339 0.5013H960.5C968.057 0.5013 973.674 0.502365 977.99 1.08262C982.291 1.66093 985.225 2.80628 987.459 5.04076C989.694 7.27524 990.839 10.209 991.417 14.5104C991.998 18.8263 991.999 24.4434 991.999 32V282.163C991.999 287.074 991.994 289.426 991.314 291.636C990.635 293.845 989.318 295.794 986.559 299.857L942.611 364.58L942.556 364.662C939.866 368.622 938.456 370.7 937.727 373.07C936.999 375.44 936.999 377.95 936.999 382.737V382.837V521C936.999 528.557 936.998 534.174 936.417 538.49C935.839 542.791 934.694 545.725 932.459 547.959C930.225 550.194 927.291 551.339 922.99 551.917C918.674 552.498 913.057 552.499 905.5 552.499H32C24.4434 552.499 18.8263 552.498 14.5104 551.917C10.209 551.339 7.27524 550.194 5.04076 547.959C2.80628 545.725 1.66093 542.791 1.08262 538.49C0.502365 534.174 0.5013 528.557 0.5013 521V91C0.5013 83.4434 0.502365 77.8263 1.08262 73.5104C1.66093 69.209 2.80628 66.2752 5.04076 64.0408C7.27524 61.8063 10.209 60.6609 14.5104 60.0826C18.8263 59.5024 24.4434 59.5013 32 59.5013H113.661H113.823C121.443 59.5014 125.441 59.5014 128.901 57.7889C132.36 56.0764 134.785 52.8978 139.406 46.8393Z" stroke="url(#paint3_radial_1_1240)" stroke-width="1.0026"/>
</g>
<defs>
<filter id="filter0_b_1_1240" x="-8" y="-8" width="1008.5" height="569" filterUnits="userSpaceOnUse" color-interpolation-filters="sRGB">
<feFlood flood-opacity="0" result="BackgroundImageFix"/>
<feGaussianBlur in="BackgroundImageFix" stdDeviation="4"/>
<feComposite in2="SourceAlpha" operator="in" result="effect1_backgroundBlur_1_1240"/>
<feBlend mode="normal" in="SourceGraphic" in2="effect1_backgroundBlur_1_1240" result="shape"/>
</filter>
<linearGradient id="paint0_linear_1_1240" x1="104.736" y1="-73.1807" x2="197.981" y2="724.42" gradientUnits="userSpaceOnUse">
<stop stop-color="white" stop-opacity="0.06"/>
<stop offset="1" stop-color="white" stop-opacity="0"/>
</linearGradient>
<radialGradient id="paint1_radial_1_1240" cx="0" cy="0" r="1" gradientUnits="userSpaceOnUse" gradientTransform="translate(1213.72 1289.36) rotate(-133.358) scale(1967.35 1170.41)">
<stop stop-color="white"/>
<stop offset="1" stop-color="white" stop-opacity="0"/>
</radialGradient>
<radialGradient id="paint2_radial_1_1240" cx="0" cy="0" r="1" gradientUnits="userSpaceOnUse" gradientTransform="translate(-194.315 -420.325) rotate(37.091) scale(1612.26 841.76)">
<stop stop-color="white"/>
<stop offset="1" stop-color="white" stop-opacity="0"/>
</radialGradient>
<radialGradient id="paint3_radial_1_1240" cx="0" cy="0" r="1" gradientUnits="userSpaceOnUse" gradientTransform="translate(496.25 256.606) rotate(150.832) scale(622.877 396.212)">
<stop stop-color="white"/>
<stop offset="1" stop-color="#151515" stop-opacity="0"/>
</radialGradient>
</defs>
</svg>
