<svg width="355" height="408" viewBox="0 0 355 408" fill="none" xmlns="http://www.w3.org/2000/svg">
<g filter="url(#filter0_b_1_6295)">
<path d="M93.2422 25.5002L103.094 12.5884C107.809 6.40897 110.167 3.31925 113.521 1.65963C116.875 0 120.761 0 128.534 0H323C338.085 0 345.627 0 350.314 4.68629C355 9.37258 355 16.9151 355 32V178.665C355 183.549 355 185.991 354.293 188.289C353.586 190.587 352.214 192.607 349.47 196.647L325.008 232.657C322.264 236.697 320.892 238.716 320.185 241.015C319.479 243.313 319.479 245.755 319.479 250.638V376C319.479 391.085 319.479 398.627 314.792 403.314C310.106 408 302.564 408 287.479 408H32C16.9151 408 9.37258 408 4.68629 403.314C0 398.627 0 391.085 0 376V70.0886C0 55.0037 0 47.4612 4.68629 42.7749C9.37258 38.0886 16.9151 38.0886 32 38.0886H67.8022C75.5751 38.0886 79.4616 38.0886 82.8155 36.429C86.1695 34.7694 88.5271 31.6796 93.2422 25.5002Z" fill="url(#paint0_linear_1_6295)"/>
<path d="M93.6407 25.8043L103.493 12.8925C108.238 6.67352 110.519 3.70435 113.743 2.10893C116.967 0.513508 120.712 0.5013 128.534 0.5013H323C330.557 0.5013 336.174 0.502365 340.49 1.08262C344.791 1.66093 347.725 2.80629 349.959 5.04077C352.194 7.27524 353.339 10.209 353.917 14.5104C354.498 18.8263 354.499 24.4434 354.499 32V178.665C354.499 183.579 354.494 185.932 353.814 188.142C353.134 190.351 351.816 192.301 349.056 196.365L324.594 232.375L324.538 232.458C321.847 236.419 320.435 238.497 319.706 240.867C318.977 243.238 318.977 245.75 318.977 250.539V250.638V376C318.977 383.557 318.976 389.174 318.396 393.49C317.818 397.791 316.672 400.725 314.438 402.959C312.203 405.194 309.27 406.339 304.968 406.917C300.652 407.498 295.035 407.499 287.479 407.499H32C24.4434 407.499 18.8263 407.498 14.5104 406.917C10.209 406.339 7.27524 405.194 5.04076 402.959C2.80629 400.725 1.66093 397.791 1.08262 393.49C0.502365 389.174 0.5013 383.557 0.5013 376V70.0886C0.5013 62.532 0.502365 56.9149 1.08262 52.5991C1.66093 48.2976 2.80628 45.3638 5.04076 43.1294C7.27524 40.8949 10.209 39.7495 14.5105 39.1712C18.8263 38.591 24.4434 38.5899 32 38.5899H67.8022H67.964C75.5818 38.59 79.5786 38.59 83.0379 36.8783C86.4972 35.1665 88.9216 31.9891 93.5427 25.9328L93.6407 25.8043Z" stroke="url(#paint1_radial_1_6295)" stroke-opacity="0.46" stroke-width="1.0026"/>
<path d="M93.6407 25.8043L103.493 12.8925C108.238 6.67352 110.519 3.70435 113.743 2.10893C116.967 0.513508 120.712 0.5013 128.534 0.5013H323C330.557 0.5013 336.174 0.502365 340.49 1.08262C344.791 1.66093 347.725 2.80629 349.959 5.04077C352.194 7.27524 353.339 10.209 353.917 14.5104C354.498 18.8263 354.499 24.4434 354.499 32V178.665C354.499 183.579 354.494 185.932 353.814 188.142C353.134 190.351 351.816 192.301 349.056 196.365L324.594 232.375L324.538 232.458C321.847 236.419 320.435 238.497 319.706 240.867C318.977 243.238 318.977 245.75 318.977 250.539V250.638V376C318.977 383.557 318.976 389.174 318.396 393.49C317.818 397.791 316.672 400.725 314.438 402.959C312.203 405.194 309.27 406.339 304.968 406.917C300.652 407.498 295.035 407.499 287.479 407.499H32C24.4434 407.499 18.8263 407.498 14.5104 406.917C10.209 406.339 7.27524 405.194 5.04076 402.959C2.80629 400.725 1.66093 397.791 1.08262 393.49C0.502365 389.174 0.5013 383.557 0.5013 376V70.0886C0.5013 62.532 0.502365 56.9149 1.08262 52.5991C1.66093 48.2976 2.80628 45.3638 5.04076 43.1294C7.27524 40.8949 10.209 39.7495 14.5105 39.1712C18.8263 38.591 24.4434 38.5899 32 38.5899H67.8022H67.964C75.5818 38.59 79.5786 38.59 83.0379 36.8783C86.4972 35.1665 88.9216 31.9891 93.5427 25.9328L93.6407 25.8043Z" stroke="url(#paint2_radial_1_6295)" stroke-opacity="0.33" stroke-width="1.0026"/>
<path d="M93.6407 25.8043L103.493 12.8925C108.238 6.67352 110.519 3.70435 113.743 2.10893C116.967 0.513508 120.712 0.5013 128.534 0.5013H323C330.557 0.5013 336.174 0.502365 340.49 1.08262C344.791 1.66093 347.725 2.80629 349.959 5.04077C352.194 7.27524 353.339 10.209 353.917 14.5104C354.498 18.8263 354.499 24.4434 354.499 32V178.665C354.499 183.579 354.494 185.932 353.814 188.142C353.134 190.351 351.816 192.301 349.056 196.365L324.594 232.375L324.538 232.458C321.847 236.419 320.435 238.497 319.706 240.867C318.977 243.238 318.977 245.75 318.977 250.539V250.638V376C318.977 383.557 318.976 389.174 318.396 393.49C317.818 397.791 316.672 400.725 314.438 402.959C312.203 405.194 309.27 406.339 304.968 406.917C300.652 407.498 295.035 407.499 287.479 407.499H32C24.4434 407.499 18.8263 407.498 14.5104 406.917C10.209 406.339 7.27524 405.194 5.04076 402.959C2.80629 400.725 1.66093 397.791 1.08262 393.49C0.502365 389.174 0.5013 383.557 0.5013 376V70.0886C0.5013 62.532 0.502365 56.9149 1.08262 52.5991C1.66093 48.2976 2.80628 45.3638 5.04076 43.1294C7.27524 40.8949 10.209 39.7495 14.5105 39.1712C18.8263 38.591 24.4434 38.5899 32 38.5899H67.8022H67.964C75.5818 38.59 79.5786 38.59 83.0379 36.8783C86.4972 35.1665 88.9216 31.9891 93.5427 25.9328L93.6407 25.8043Z" stroke="url(#paint3_radial_1_6295)" stroke-width="1.0026"/>
</g>
<defs>
<filter id="filter0_b_1_6295" x="-8" y="-8" width="371" height="424" filterUnits="userSpaceOnUse" color-interpolation-filters="sRGB">
<feFlood flood-opacity="0" result="BackgroundImageFix"/>
<feGaussianBlur in="BackgroundImageFix" stdDeviation="4"/>
<feComposite in2="SourceAlpha" operator="in" result="effect1_backgroundBlur_1_6295"/>
<feBlend mode="normal" in="SourceGraphic" in2="effect1_backgroundBlur_1_6295" result="shape"/>
</filter>
<linearGradient id="paint0_linear_1_6295" x1="67.6431" y1="-47.2432" x2="127.814" y2="467.67" gradientUnits="userSpaceOnUse">
<stop stop-color="white" stop-opacity="0.06"/>
<stop offset="1" stop-color="white" stop-opacity="0"/>
</linearGradient>
<radialGradient id="paint1_radial_1_6295" cx="0" cy="0" r="1" gradientUnits="userSpaceOnUse" gradientTransform="translate(875 419) rotate(-151.599) scale(1179.46 701.696)">
<stop stop-color="white"/>
<stop offset="1" stop-color="white" stop-opacity="0"/>
</radialGradient>
<radialGradient id="paint2_radial_1_6295" cx="0" cy="0" r="1" gradientUnits="userSpaceOnUse" gradientTransform="translate(-125.497 -271.349) rotate(38.7156) scale(1325.19 691.804)">
<stop stop-color="white"/>
<stop offset="1" stop-color="white" stop-opacity="0"/>
</radialGradient>
<radialGradient id="paint3_radial_1_6295" cx="0" cy="0" r="1" gradientUnits="userSpaceOnUse" gradientTransform="translate(816.5 -95) rotate(151.677) scale(962.487 612.102)">
<stop stop-color="white"/>
<stop offset="1" stop-color="#151515" stop-opacity="0"/>
</radialGradient>
</defs>
</svg>
