<svg width="355" height="458" viewBox="0 0 355 458" fill="none" xmlns="http://www.w3.org/2000/svg">
<path d="M354.5 426L354.5 63C354.5 55.4434 354.499 49.8262 353.919 45.5103C353.341 41.2087 352.195 38.2746 349.96 36.0398C347.726 33.8051 344.792 32.6597 340.49 32.0813C336.174 31.5011 330.557 31.5 323 31.5H290.771H290.606C282.801 31.5001 278.706 31.5001 275.186 29.714C271.666 27.9279 269.248 24.6231 264.64 18.3237L264.542 18.19L261.038 13.4004C256.305 6.93162 254.029 3.84279 250.748 2.17776C247.467 0.512727 243.63 0.5 235.615 0.5H22.4221C16.4072 0.5 13.5188 0.506209 11.196 1.26359C6.4895 2.79819 2.79916 6.48854 1.26456 11.195C0.507172 13.5178 0.500977 16.4062 0.500977 22.4211L0.500061 426C0.500031 433.557 0.501099 439.174 1.08136 443.49C1.6597 447.791 2.80511 450.725 5.03986 452.96C7.27463 455.195 10.2087 456.34 14.5103 456.919C18.8263 457.499 24.4435 457.5 32.0001 457.5H323C330.557 457.5 336.174 457.499 340.49 456.919C344.791 456.34 347.725 455.195 349.96 452.96C352.195 450.725 353.34 447.791 353.919 443.49C354.499 439.174 354.5 433.557 354.5 426Z" stroke="url(#paint0_radial_226_7205)" stroke-opacity="0.66"/>
<path d="M354.5 426L354.5 63C354.5 55.4434 354.499 49.8262 353.919 45.5103C353.341 41.2087 352.195 38.2746 349.96 36.0398C347.726 33.8051 344.792 32.6597 340.49 32.0813C336.174 31.5011 330.557 31.5 323 31.5H290.771H290.606C282.801 31.5001 278.706 31.5001 275.186 29.714C271.666 27.9279 269.248 24.6231 264.64 18.3237L264.542 18.19L261.038 13.4004C256.305 6.93162 254.029 3.84279 250.748 2.17776C247.467 0.512727 243.63 0.5 235.615 0.5H22.4221C16.4072 0.5 13.5188 0.506209 11.196 1.26359C6.4895 2.79819 2.79916 6.48854 1.26456 11.195C0.507172 13.5178 0.500977 16.4062 0.500977 22.4211L0.500061 426C0.500031 433.557 0.501099 439.174 1.08136 443.49C1.6597 447.791 2.80511 450.725 5.03986 452.96C7.27463 455.195 10.2087 456.34 14.5103 456.919C18.8263 457.499 24.4435 457.5 32.0001 457.5H323C330.557 457.5 336.174 457.499 340.49 456.919C344.791 456.34 347.725 455.195 349.96 452.96C352.195 450.725 353.34 447.791 353.919 443.49C354.499 439.174 354.5 433.557 354.5 426Z" stroke="url(#paint1_radial_226_7205)" stroke-opacity="0.66"/>
<path d="M354.5 426L354.5 63C354.5 55.4434 354.499 49.8262 353.919 45.5103C353.341 41.2087 352.195 38.2746 349.96 36.0398C347.726 33.8051 344.792 32.6597 340.49 32.0813C336.174 31.5011 330.557 31.5 323 31.5H290.771H290.606C282.801 31.5001 278.706 31.5001 275.186 29.714C271.666 27.9279 269.248 24.6231 264.64 18.3237L264.542 18.19L261.038 13.4004C256.305 6.93162 254.029 3.84279 250.748 2.17776C247.467 0.512727 243.63 0.5 235.615 0.5H22.4221C16.4072 0.5 13.5188 0.506209 11.196 1.26359C6.4895 2.79819 2.79916 6.48854 1.26456 11.195C0.507172 13.5178 0.500977 16.4062 0.500977 22.4211L0.500061 426C0.500031 433.557 0.501099 439.174 1.08136 443.49C1.6597 447.791 2.80511 450.725 5.03986 452.96C7.27463 455.195 10.2087 456.34 14.5103 456.919C18.8263 457.499 24.4435 457.5 32.0001 457.5H323C330.557 457.5 336.174 457.499 340.49 456.919C344.791 456.34 347.725 455.195 349.96 452.96C352.195 450.725 353.34 447.791 353.919 443.49C354.499 439.174 354.5 433.557 354.5 426Z" stroke="url(#paint2_radial_226_7205)"/>
<defs>
<radialGradient id="paint0_radial_226_7205" cx="0" cy="0" r="1" gradientUnits="userSpaceOnUse" gradientTransform="translate(59.4993 1022.5) rotate(-74.3909) scale(1129.55 611.262)">
<stop stop-color="white"/>
<stop offset="1" stop-color="white" stop-opacity="0"/>
</radialGradient>
<radialGradient id="paint1_radial_226_7205" cx="0" cy="0" r="1" gradientUnits="userSpaceOnUse" gradientTransform="translate(495.499 -325) rotate(136.781) scale(944.09 509.434)">
<stop stop-color="white"/>
<stop offset="1" stop-color="white" stop-opacity="0"/>
</radialGradient>
<radialGradient id="paint2_radial_226_7205" cx="0" cy="0" r="1" gradientUnits="userSpaceOnUse" gradientTransform="translate(164.446 118.946) rotate(58.2846) scale(177.142 129.974)">
<stop stop-color="white"/>
<stop offset="1" stop-color="#151515" stop-opacity="0"/>
</radialGradient>
</defs>
</svg>
